<?xml version="1.0" encoding="utf-8" standalone="no"?>
<!DOCTYPE svg PUBLIC "-//W3C//DTD SVG 1.1//EN"
  "http://www.w3.org/Graphics/SVG/1.1/DTD/svg11.dtd">
<!-- Created with matplotlib (https://matplotlib.org/) -->
<svg height="288pt" version="1.1" viewBox="0 0 432 288" width="432pt" xmlns="http://www.w3.org/2000/svg" xmlns:xlink="http://www.w3.org/1999/xlink">
 <metadata>
  <rdf:RDF xmlns:cc="http://creativecommons.org/ns#" xmlns:dc="http://purl.org/dc/elements/1.1/" xmlns:rdf="http://www.w3.org/1999/02/22-rdf-syntax-ns#">
   <cc:Work>
    <dc:type rdf:resource="http://purl.org/dc/dcmitype/StillImage"/>
    <dc:date>2022-03-09T17:57:42.135759</dc:date>
    <dc:format>image/svg+xml</dc:format>
    <dc:creator>
     <cc:Agent>
      <dc:title>Matplotlib v3.3.4, https://matplotlib.org/</dc:title>
     </cc:Agent>
    </dc:creator>
   </cc:Work>
  </rdf:RDF>
 </metadata>
 <defs>
  <style type="text/css">*{stroke-linecap:butt;stroke-linejoin:round;}</style>
 </defs>
 <g id="figure_1">
  <g id="patch_1">
   <path d="M 0 288 
L 432 288 
L 432 0 
L 0 0 
z
" style="fill:#ffffff;"/>
  </g>
  <g id="axes_1">
   <g id="patch_2">
    <path d="M 34.56 267.84 
L 410.4 267.84 
L 410.4 34.56 
L 34.56 34.56 
z
" style="fill:#ffffff;"/>
   </g>
   <g id="matplotlib.axis_1">
    <g id="xtick_1">
     <g id="line2d_1">
      <defs>
       <path d="M 0 0 
L 0 -7 
" id="m1fa319cfff" style="stroke:#000000;stroke-width:0.8;"/>
      </defs>
      <g>
       <use style="stroke:#000000;stroke-width:0.8;" x="34.56" xlink:href="#m1fa319cfff" y="267.84"/>
      </g>
     </g>
     <g id="text_1">
      <!-- 3 -->
      <g transform="translate(30.424375 281.217969)scale(0.13 -0.13)">
       <defs>
        <path d="M 40.578125 39.3125 
Q 47.65625 37.796875 51.625 33 
Q 55.609375 28.21875 55.609375 21.1875 
Q 55.609375 10.40625 48.1875 4.484375 
Q 40.765625 -1.421875 27.09375 -1.421875 
Q 22.515625 -1.421875 17.65625 -0.515625 
Q 12.796875 0.390625 7.625 2.203125 
L 7.625 11.71875 
Q 11.71875 9.328125 16.59375 8.109375 
Q 21.484375 6.890625 26.8125 6.890625 
Q 36.078125 6.890625 40.9375 10.546875 
Q 45.796875 14.203125 45.796875 21.1875 
Q 45.796875 27.640625 41.28125 31.265625 
Q 36.765625 34.90625 28.71875 34.90625 
L 20.21875 34.90625 
L 20.21875 43.015625 
L 29.109375 43.015625 
Q 36.375 43.015625 40.234375 45.921875 
Q 44.09375 48.828125 44.09375 54.296875 
Q 44.09375 59.90625 40.109375 62.90625 
Q 36.140625 65.921875 28.71875 65.921875 
Q 24.65625 65.921875 20.015625 65.03125 
Q 15.375 64.15625 9.8125 62.3125 
L 9.8125 71.09375 
Q 15.4375 72.65625 20.34375 73.4375 
Q 25.25 74.21875 29.59375 74.21875 
Q 40.828125 74.21875 47.359375 69.109375 
Q 53.90625 64.015625 53.90625 55.328125 
Q 53.90625 49.265625 50.4375 45.09375 
Q 46.96875 40.921875 40.578125 39.3125 
z
" id="DejaVuSans-51"/>
       </defs>
       <use xlink:href="#DejaVuSans-51"/>
      </g>
     </g>
    </g>
    <g id="xtick_2">
     <g id="line2d_2">
      <g>
       <use style="stroke:#000000;stroke-width:0.8;" x="109.728" xlink:href="#m1fa319cfff" y="267.84"/>
      </g>
     </g>
     <g id="text_2">
      <!-- 4 -->
      <g transform="translate(105.592375 281.217969)scale(0.13 -0.13)">
       <defs>
        <path d="M 37.796875 64.3125 
L 12.890625 25.390625 
L 37.796875 25.390625 
z
M 35.203125 72.90625 
L 47.609375 72.90625 
L 47.609375 25.390625 
L 58.015625 25.390625 
L 58.015625 17.1875 
L 47.609375 17.1875 
L 47.609375 0 
L 37.796875 0 
L 37.796875 17.1875 
L 4.890625 17.1875 
L 4.890625 26.703125 
z
" id="DejaVuSans-52"/>
       </defs>
       <use xlink:href="#DejaVuSans-52"/>
      </g>
     </g>
    </g>
    <g id="xtick_3">
     <g id="line2d_3">
      <g>
       <use style="stroke:#000000;stroke-width:0.8;" x="184.896" xlink:href="#m1fa319cfff" y="267.84"/>
      </g>
     </g>
     <g id="text_3">
      <!-- 5 -->
      <g transform="translate(180.760375 281.217969)scale(0.13 -0.13)">
       <defs>
        <path d="M 10.796875 72.90625 
L 49.515625 72.90625 
L 49.515625 64.59375 
L 19.828125 64.59375 
L 19.828125 46.734375 
Q 21.96875 47.46875 24.109375 47.828125 
Q 26.265625 48.1875 28.421875 48.1875 
Q 40.625 48.1875 47.75 41.5 
Q 54.890625 34.8125 54.890625 23.390625 
Q 54.890625 11.625 47.5625 5.09375 
Q 40.234375 -1.421875 26.90625 -1.421875 
Q 22.3125 -1.421875 17.546875 -0.640625 
Q 12.796875 0.140625 7.71875 1.703125 
L 7.71875 11.625 
Q 12.109375 9.234375 16.796875 8.0625 
Q 21.484375 6.890625 26.703125 6.890625 
Q 35.15625 6.890625 40.078125 11.328125 
Q 45.015625 15.765625 45.015625 23.390625 
Q 45.015625 31 40.078125 35.4375 
Q 35.15625 39.890625 26.703125 39.890625 
Q 22.75 39.890625 18.8125 39.015625 
Q 14.890625 38.140625 10.796875 36.28125 
z
" id="DejaVuSans-53"/>
       </defs>
       <use xlink:href="#DejaVuSans-53"/>
      </g>
     </g>
    </g>
    <g id="xtick_4">
     <g id="line2d_4">
      <g>
       <use style="stroke:#000000;stroke-width:0.8;" x="260.064" xlink:href="#m1fa319cfff" y="267.84"/>
      </g>
     </g>
     <g id="text_4">
      <!-- 6 -->
      <g transform="translate(255.928375 281.217969)scale(0.13 -0.13)">
       <defs>
        <path d="M 33.015625 40.375 
Q 26.375 40.375 22.484375 35.828125 
Q 18.609375 31.296875 18.609375 23.390625 
Q 18.609375 15.53125 22.484375 10.953125 
Q 26.375 6.390625 33.015625 6.390625 
Q 39.65625 6.390625 43.53125 10.953125 
Q 47.40625 15.53125 47.40625 23.390625 
Q 47.40625 31.296875 43.53125 35.828125 
Q 39.65625 40.375 33.015625 40.375 
z
M 52.59375 71.296875 
L 52.59375 62.3125 
Q 48.875 64.0625 45.09375 64.984375 
Q 41.3125 65.921875 37.59375 65.921875 
Q 27.828125 65.921875 22.671875 59.328125 
Q 17.53125 52.734375 16.796875 39.40625 
Q 19.671875 43.65625 24.015625 45.921875 
Q 28.375 48.1875 33.59375 48.1875 
Q 44.578125 48.1875 50.953125 41.515625 
Q 57.328125 34.859375 57.328125 23.390625 
Q 57.328125 12.15625 50.6875 5.359375 
Q 44.046875 -1.421875 33.015625 -1.421875 
Q 20.359375 -1.421875 13.671875 8.265625 
Q 6.984375 17.96875 6.984375 36.375 
Q 6.984375 53.65625 15.1875 63.9375 
Q 23.390625 74.21875 37.203125 74.21875 
Q 40.921875 74.21875 44.703125 73.484375 
Q 48.484375 72.75 52.59375 71.296875 
z
" id="DejaVuSans-54"/>
       </defs>
       <use xlink:href="#DejaVuSans-54"/>
      </g>
     </g>
    </g>
    <g id="xtick_5">
     <g id="line2d_5">
      <g>
       <use style="stroke:#000000;stroke-width:0.8;" x="335.232" xlink:href="#m1fa319cfff" y="267.84"/>
      </g>
     </g>
     <g id="text_5">
      <!-- 7 -->
      <g transform="translate(331.096375 281.217969)scale(0.13 -0.13)">
       <defs>
        <path d="M 8.203125 72.90625 
L 55.078125 72.90625 
L 55.078125 68.703125 
L 28.609375 0 
L 18.3125 0 
L 43.21875 64.59375 
L 8.203125 64.59375 
z
" id="DejaVuSans-55"/>
       </defs>
       <use xlink:href="#DejaVuSans-55"/>
      </g>
     </g>
    </g>
    <g id="xtick_6">
     <g id="line2d_6">
      <g>
       <use style="stroke:#000000;stroke-width:0.8;" x="410.4" xlink:href="#m1fa319cfff" y="267.84"/>
      </g>
     </g>
     <g id="text_6">
      <!-- 8 -->
      <g transform="translate(406.264375 281.217969)scale(0.13 -0.13)">
       <defs>
        <path d="M 31.78125 34.625 
Q 24.75 34.625 20.71875 30.859375 
Q 16.703125 27.09375 16.703125 20.515625 
Q 16.703125 13.921875 20.71875 10.15625 
Q 24.75 6.390625 31.78125 6.390625 
Q 38.8125 6.390625 42.859375 10.171875 
Q 46.921875 13.96875 46.921875 20.515625 
Q 46.921875 27.09375 42.890625 30.859375 
Q 38.875 34.625 31.78125 34.625 
z
M 21.921875 38.8125 
Q 15.578125 40.375 12.03125 44.71875 
Q 8.5 49.078125 8.5 55.328125 
Q 8.5 64.0625 14.71875 69.140625 
Q 20.953125 74.21875 31.78125 74.21875 
Q 42.671875 74.21875 48.875 69.140625 
Q 55.078125 64.0625 55.078125 55.328125 
Q 55.078125 49.078125 51.53125 44.71875 
Q 48 40.375 41.703125 38.8125 
Q 48.828125 37.15625 52.796875 32.3125 
Q 56.78125 27.484375 56.78125 20.515625 
Q 56.78125 9.90625 50.3125 4.234375 
Q 43.84375 -1.421875 31.78125 -1.421875 
Q 19.734375 -1.421875 13.25 4.234375 
Q 6.78125 9.90625 6.78125 20.515625 
Q 6.78125 27.484375 10.78125 32.3125 
Q 14.796875 37.15625 21.921875 38.8125 
z
M 18.3125 54.390625 
Q 18.3125 48.734375 21.84375 45.5625 
Q 25.390625 42.390625 31.78125 42.390625 
Q 38.140625 42.390625 41.71875 45.5625 
Q 45.3125 48.734375 45.3125 54.390625 
Q 45.3125 60.0625 41.71875 63.234375 
Q 38.140625 66.40625 31.78125 66.40625 
Q 25.390625 66.40625 21.84375 63.234375 
Q 18.3125 60.0625 18.3125 54.390625 
z
" id="DejaVuSans-56"/>
       </defs>
       <use xlink:href="#DejaVuSans-56"/>
      </g>
     </g>
    </g>
    <g id="text_7">
     <!-- t (ms) -->
     <g transform="translate(198.59875 300.079063)scale(0.16 -0.16)">
      <defs>
       <path d="M 18.3125 70.21875 
L 18.3125 54.6875 
L 36.8125 54.6875 
L 36.8125 47.703125 
L 18.3125 47.703125 
L 18.3125 18.015625 
Q 18.3125 11.328125 20.140625 9.421875 
Q 21.96875 7.515625 27.59375 7.515625 
L 36.8125 7.515625 
L 36.8125 0 
L 27.59375 0 
Q 17.1875 0 13.234375 3.875 
Q 9.28125 7.765625 9.28125 18.015625 
L 9.28125 47.703125 
L 2.6875 47.703125 
L 2.6875 54.6875 
L 9.28125 54.6875 
L 9.28125 70.21875 
z
" id="DejaVuSans-116"/>
       <path id="DejaVuSans-32"/>
       <path d="M 31 75.875 
Q 24.46875 64.65625 21.28125 53.65625 
Q 18.109375 42.671875 18.109375 31.390625 
Q 18.109375 20.125 21.3125 9.0625 
Q 24.515625 -2 31 -13.1875 
L 23.1875 -13.1875 
Q 15.875 -1.703125 12.234375 9.375 
Q 8.59375 20.453125 8.59375 31.390625 
Q 8.59375 42.28125 12.203125 53.3125 
Q 15.828125 64.359375 23.1875 75.875 
z
" id="DejaVuSans-40"/>
       <path d="M 52 44.1875 
Q 55.375 50.25 60.0625 53.125 
Q 64.75 56 71.09375 56 
Q 79.640625 56 84.28125 50.015625 
Q 88.921875 44.046875 88.921875 33.015625 
L 88.921875 0 
L 79.890625 0 
L 79.890625 32.71875 
Q 79.890625 40.578125 77.09375 44.375 
Q 74.3125 48.1875 68.609375 48.1875 
Q 61.625 48.1875 57.5625 43.546875 
Q 53.515625 38.921875 53.515625 30.90625 
L 53.515625 0 
L 44.484375 0 
L 44.484375 32.71875 
Q 44.484375 40.625 41.703125 44.40625 
Q 38.921875 48.1875 33.109375 48.1875 
Q 26.21875 48.1875 22.15625 43.53125 
Q 18.109375 38.875 18.109375 30.90625 
L 18.109375 0 
L 9.078125 0 
L 9.078125 54.6875 
L 18.109375 54.6875 
L 18.109375 46.1875 
Q 21.1875 51.21875 25.484375 53.609375 
Q 29.78125 56 35.6875 56 
Q 41.65625 56 45.828125 52.96875 
Q 50 49.953125 52 44.1875 
z
" id="DejaVuSans-109"/>
       <path d="M 44.28125 53.078125 
L 44.28125 44.578125 
Q 40.484375 46.53125 36.375 47.5 
Q 32.28125 48.484375 27.875 48.484375 
Q 21.1875 48.484375 17.84375 46.4375 
Q 14.5 44.390625 14.5 40.28125 
Q 14.5 37.15625 16.890625 35.375 
Q 19.28125 33.59375 26.515625 31.984375 
L 29.59375 31.296875 
Q 39.15625 29.25 43.1875 25.515625 
Q 47.21875 21.78125 47.21875 15.09375 
Q 47.21875 7.46875 41.1875 3.015625 
Q 35.15625 -1.421875 24.609375 -1.421875 
Q 20.21875 -1.421875 15.453125 -0.5625 
Q 10.6875 0.296875 5.421875 2 
L 5.421875 11.28125 
Q 10.40625 8.6875 15.234375 7.390625 
Q 20.0625 6.109375 24.8125 6.109375 
Q 31.15625 6.109375 34.5625 8.28125 
Q 37.984375 10.453125 37.984375 14.40625 
Q 37.984375 18.0625 35.515625 20.015625 
Q 33.0625 21.96875 24.703125 23.78125 
L 21.578125 24.515625 
Q 13.234375 26.265625 9.515625 29.90625 
Q 5.8125 33.546875 5.8125 39.890625 
Q 5.8125 47.609375 11.28125 51.796875 
Q 16.75 56 26.8125 56 
Q 31.78125 56 36.171875 55.265625 
Q 40.578125 54.546875 44.28125 53.078125 
z
" id="DejaVuSans-115"/>
       <path d="M 8.015625 75.875 
L 15.828125 75.875 
Q 23.140625 64.359375 26.78125 53.3125 
Q 30.421875 42.28125 30.421875 31.390625 
Q 30.421875 20.453125 26.78125 9.375 
Q 23.140625 -1.703125 15.828125 -13.1875 
L 8.015625 -13.1875 
Q 14.5 -2 17.703125 9.0625 
Q 20.90625 20.125 20.90625 31.390625 
Q 20.90625 42.671875 17.703125 53.65625 
Q 14.5 64.65625 8.015625 75.875 
z
" id="DejaVuSans-41"/>
      </defs>
      <use xlink:href="#DejaVuSans-116"/>
      <use x="39.208984" xlink:href="#DejaVuSans-32"/>
      <use x="70.996094" xlink:href="#DejaVuSans-40"/>
      <use x="110.009766" xlink:href="#DejaVuSans-109"/>
      <use x="207.421875" xlink:href="#DejaVuSans-115"/>
      <use x="259.521484" xlink:href="#DejaVuSans-41"/>
     </g>
    </g>
   </g>
   <g id="matplotlib.axis_2">
    <g id="ytick_1">
     <g id="line2d_7">
      <defs>
       <path d="M 0 0 
L 7 0 
" id="mf1270bea8a" style="stroke:#000000;stroke-width:0.8;"/>
      </defs>
      <g>
       <use style="stroke:#000000;stroke-width:0.8;" x="34.56" xlink:href="#mf1270bea8a" y="257.236364"/>
      </g>
     </g>
     <g id="text_8">
      <!-- −1.0 -->
      <g transform="translate(-0.507656 262.175348)scale(0.13 -0.13)">
       <defs>
        <path d="M 10.59375 35.5 
L 73.1875 35.5 
L 73.1875 27.203125 
L 10.59375 27.203125 
z
" id="DejaVuSans-8722"/>
        <path d="M 12.40625 8.296875 
L 28.515625 8.296875 
L 28.515625 63.921875 
L 10.984375 60.40625 
L 10.984375 69.390625 
L 28.421875 72.90625 
L 38.28125 72.90625 
L 38.28125 8.296875 
L 54.390625 8.296875 
L 54.390625 0 
L 12.40625 0 
z
" id="DejaVuSans-49"/>
        <path d="M 10.6875 12.40625 
L 21 12.40625 
L 21 0 
L 10.6875 0 
z
" id="DejaVuSans-46"/>
        <path d="M 31.78125 66.40625 
Q 24.171875 66.40625 20.328125 58.90625 
Q 16.5 51.421875 16.5 36.375 
Q 16.5 21.390625 20.328125 13.890625 
Q 24.171875 6.390625 31.78125 6.390625 
Q 39.453125 6.390625 43.28125 13.890625 
Q 47.125 21.390625 47.125 36.375 
Q 47.125 51.421875 43.28125 58.90625 
Q 39.453125 66.40625 31.78125 66.40625 
z
M 31.78125 74.21875 
Q 44.046875 74.21875 50.515625 64.515625 
Q 56.984375 54.828125 56.984375 36.375 
Q 56.984375 17.96875 50.515625 8.265625 
Q 44.046875 -1.421875 31.78125 -1.421875 
Q 19.53125 -1.421875 13.0625 8.265625 
Q 6.59375 17.96875 6.59375 36.375 
Q 6.59375 54.828125 13.0625 64.515625 
Q 19.53125 74.21875 31.78125 74.21875 
z
" id="DejaVuSans-48"/>
       </defs>
       <use xlink:href="#DejaVuSans-8722"/>
       <use x="83.789062" xlink:href="#DejaVuSans-49"/>
       <use x="147.412109" xlink:href="#DejaVuSans-46"/>
       <use x="179.199219" xlink:href="#DejaVuSans-48"/>
      </g>
     </g>
    </g>
    <g id="ytick_2">
     <g id="line2d_8">
      <g>
       <use style="stroke:#000000;stroke-width:0.8;" x="34.56" xlink:href="#mf1270bea8a" y="200.165771"/>
      </g>
     </g>
     <g id="text_9">
      <!-- −0.5 -->
      <g transform="translate(-0.507656 205.104755)scale(0.13 -0.13)">
       <use xlink:href="#DejaVuSans-8722"/>
       <use x="83.789062" xlink:href="#DejaVuSans-48"/>
       <use x="147.412109" xlink:href="#DejaVuSans-46"/>
       <use x="179.199219" xlink:href="#DejaVuSans-53"/>
      </g>
     </g>
    </g>
    <g id="ytick_3">
     <g id="line2d_9">
      <g>
       <use style="stroke:#000000;stroke-width:0.8;" x="34.56" xlink:href="#mf1270bea8a" y="143.095178"/>
      </g>
     </g>
     <g id="text_10">
      <!-- 0.0 -->
      <g transform="translate(10.385938 148.034163)scale(0.13 -0.13)">
       <use xlink:href="#DejaVuSans-48"/>
       <use x="63.623047" xlink:href="#DejaVuSans-46"/>
       <use x="95.410156" xlink:href="#DejaVuSans-48"/>
      </g>
     </g>
    </g>
    <g id="ytick_4">
     <g id="line2d_10">
      <g>
       <use style="stroke:#000000;stroke-width:0.8;" x="34.56" xlink:href="#mf1270bea8a" y="86.024585"/>
      </g>
     </g>
     <g id="text_11">
      <!-- 0.5 -->
      <g transform="translate(10.385938 90.96357)scale(0.13 -0.13)">
       <use xlink:href="#DejaVuSans-48"/>
       <use x="63.623047" xlink:href="#DejaVuSans-46"/>
       <use x="95.410156" xlink:href="#DejaVuSans-53"/>
      </g>
     </g>
    </g>
   </g>
   <g id="line2d_11">
    <path clip-path="url(#pf8d8bcfdea)" d="M 34.56 148.864179 
L 36.103491 150.052705 
L 37.646982 150.022725 
L 39.190472 148.948589 
L 40.733963 147.154229 
L 43.820945 143.193709 
L 45.364435 141.704269 
L 46.907926 140.953298 
L 48.451417 141.241525 
L 49.994908 142.694804 
L 51.538398 145.327808 
L 53.081889 148.932017 
L 57.712361 161.602397 
L 59.255852 165.118181 
L 60.799343 167.723203 
L 62.342834 169.200104 
L 63.886324 169.465598 
L 65.429815 168.571047 
L 66.973306 166.676528 
L 68.516797 163.959855 
L 70.060287 160.539973 
L 71.603778 156.463655 
L 73.147269 151.741179 
L 74.69076 146.437649 
L 79.321232 129.28464 
L 80.864723 124.474016 
L 82.408214 120.967437 
L 83.951704 119.241846 
L 85.495195 119.669137 
L 87.038686 122.475138 
L 88.582177 127.700102 
L 90.125667 135.241244 
L 91.669158 144.872449 
L 93.212649 156.259388 
L 96.29963 182.551503 
L 99.386612 209.747019 
L 100.930103 222.11149 
L 102.473593 232.893616 
L 104.017084 241.687314 
L 105.560575 248.313018 
L 107.104066 252.840478 
L 108.647556 255.547166 
L 110.191047 256.864494 
L 111.734538 257.236364 
L 113.278029 257.064132 
L 119.451992 255.501622 
L 120.995483 254.867383 
L 122.538973 253.591384 
L 124.082464 251.228888 
L 125.625955 247.384472 
L 127.169446 241.723747 
L 128.712936 234.001255 
L 130.256427 224.059858 
L 131.799918 211.848121 
L 133.343409 197.508264 
L 134.886899 181.401436 
L 141.060862 112.843942 
L 142.604353 98.308348 
L 144.147844 86.038193 
L 145.691335 76.485977 
L 147.234825 69.956733 
L 148.778316 66.57915 
L 150.321807 66.224844 
L 151.865298 68.522984 
L 153.408789 72.925617 
L 154.952279 78.789925 
L 162.669733 112.102651 
L 168.843696 136.383225 
L 170.387187 143.250313 
L 173.474168 158.404574 
L 176.56115 173.903446 
L 178.104641 180.574603 
L 179.648131 185.708074 
L 181.191622 188.81897 
L 182.735113 189.723916 
L 184.278604 188.559085 
L 185.822094 185.734771 
L 187.365585 181.81232 
L 190.452567 172.938784 
L 191.996057 169.064245 
L 193.539548 166.248928 
L 195.083039 164.940444 
L 196.62653 165.349654 
L 198.170021 167.414229 
L 199.713511 170.824569 
L 201.257002 175.125838 
L 204.343984 184.510198 
L 205.887474 188.657468 
L 207.430965 191.701952 
L 208.974456 192.956804 
L 210.517947 191.804108 
L 212.061437 187.869693 
L 213.604928 181.185055 
L 215.148419 172.144836 
L 216.69191 161.365549 
L 222.865873 114.406618 
L 224.409363 104.170153 
L 225.952854 95.356959 
L 227.496345 88.38421 
L 229.039836 83.687648 
L 230.583326 81.622035 
L 232.126817 82.340297 
L 233.670308 85.702955 
L 235.213799 91.21632 
L 236.75729 98.126157 
L 239.844271 112.677313 
L 241.387762 118.662541 
L 242.931253 123.479849 
L 244.474743 127.314802 
L 249.105216 136.702894 
L 250.648706 140.492739 
L 252.192197 145.019286 
L 253.735688 150.249105 
L 259.909651 172.84426 
L 261.453142 176.900431 
L 262.996632 179.453095 
L 264.540123 180.267174 
L 266.083614 179.335851 
L 267.627105 176.900392 
L 269.170595 173.320006 
L 275.344559 156.620819 
L 276.888049 153.324243 
L 278.43154 150.906528 
L 279.975031 150.020794 
L 281.518522 151.353871 
L 283.062012 155.046689 
L 286.148994 165.506213 
L 287.692485 169.150227 
L 289.235975 170.261673 
L 290.779466 168.85304 
L 292.322957 165.56173 
L 293.866448 161.131553 
L 295.409938 155.919169 
L 298.49692 144.349804 
L 300.040411 139.759785 
L 301.583901 137.567815 
L 303.127392 138.361838 
L 304.670883 141.528718 
L 306.214374 145.479669 
L 307.757864 148.422442 
L 309.301355 149.322423 
L 310.844846 148.302985 
L 313.931828 144.107432 
L 315.475318 142.399006 
L 317.018809 141.143807 
L 320.105791 138.979672 
L 321.649281 137.79941 
L 323.192772 136.917102 
L 324.736263 137.0886 
L 326.279754 139.174188 
L 327.823244 143.572245 
L 330.910226 156.236976 
L 332.453717 160.662646 
L 333.997207 160.959129 
L 335.540698 156.084194 
L 337.084189 146.662898 
L 338.62768 134.97458 
L 340.17117 124.301133 
L 341.714661 117.882101 
L 343.258152 117.780366 
L 344.801643 124.247447 
L 346.345133 135.829625 
L 349.432115 164.450356 
L 350.975606 176.944419 
L 352.519097 186.275804 
L 354.062587 191.835739 
L 355.606078 193.575163 
L 357.149569 191.93263 
L 358.69306 187.636396 
L 360.23655 181.555724 
L 364.867023 160.288344 
L 366.410513 154.713801 
L 367.954004 151.196531 
L 369.497495 149.926968 
L 372.584476 150.427843 
L 374.127967 143.095178 
L 433 143.095178 
L 433 143.095178 
" style="fill:none;stroke:#008fd5;stroke-width:3;"/>
   </g>
   <g id="line2d_12">
    <path clip-path="url(#pf8d8bcfdea)" d="M 34.56 134.777987 
L 36.103491 133.466977 
L 37.646982 131.189731 
L 42.277454 122.341887 
L 43.820945 120.685345 
L 45.364435 120.710604 
L 46.907926 122.792649 
L 48.451417 126.877698 
L 53.081889 143.312758 
L 54.62538 146.547996 
L 56.168871 147.390448 
L 57.712361 145.754393 
L 59.255852 141.935652 
L 60.799343 136.48998 
L 65.429815 117.58271 
L 66.973306 112.800078 
L 68.516797 109.797618 
L 70.060287 109.034218 
L 71.603778 110.754498 
L 73.147269 114.851246 
L 74.69076 120.725443 
L 76.234251 127.306442 
L 77.777741 133.324091 
L 79.321232 137.798343 
L 80.864723 140.471417 
L 82.408214 141.89484 
L 83.951704 143.14119 
L 85.495195 145.297932 
L 87.038686 148.922179 
L 90.125667 158.755559 
L 91.669158 162.691311 
L 93.212649 164.683841 
L 94.75614 164.761648 
L 96.29963 163.952162 
L 97.843121 163.910242 
L 99.386612 166.186169 
L 100.930103 171.465838 
L 102.473593 179.22349 
L 104.017084 187.926707 
L 105.560575 195.739207 
L 107.104066 201.365639 
L 108.647556 204.591312 
L 111.734538 208.023724 
L 113.278029 211.187165 
L 114.82152 216.479107 
L 119.451992 237.39626 
L 120.995483 240.782665 
L 122.538973 240.16876 
L 124.082464 235.246613 
L 125.625955 226.407251 
L 127.169446 214.514206 
L 133.343409 159.929428 
L 134.886899 150.072388 
L 136.43039 142.566246 
L 141.060862 124.465602 
L 142.604353 116.255558 
L 145.691335 97.25868 
L 147.234825 89.525202 
L 148.778316 85.079951 
L 150.321807 84.509194 
L 151.865298 87.093817 
L 153.408789 90.962824 
L 154.952279 93.791399 
L 156.49577 93.72951 
L 158.039261 90.162349 
L 161.126242 77.618938 
L 162.669733 73.763933 
L 164.213224 75.00545 
L 165.756715 82.825079 
L 167.300205 97.19187 
L 168.843696 116.591661 
L 171.930678 160.452311 
L 173.474168 180.288963 
L 175.017659 197.218431 
L 176.56115 211.44969 
L 178.104641 223.769545 
L 179.648131 234.876655 
L 181.191622 244.811666 
L 182.735113 252.754429 
L 184.278604 257.236364 
L 185.822094 256.64548 
L 187.365585 249.758235 
L 188.909076 236.247727 
L 190.452567 216.948477 
L 195.083039 147.131845 
L 196.62653 128.132069 
L 198.170021 113.197062 
L 199.713511 101.575464 
L 202.800493 82.726128 
L 204.343984 74.024957 
L 205.887474 66.499449 
L 207.430965 61.470937 
L 208.974456 60.032355 
L 210.517947 62.549059 
L 212.061437 68.575396 
L 213.604928 77.166565 
L 216.69191 97.937791 
L 219.778891 119.198494 
L 221.322382 129.024288 
L 222.865873 137.573032 
L 224.409363 143.821238 
L 225.952854 146.440298 
L 227.496345 144.245426 
L 229.039836 136.806501 
L 230.583326 125.001402 
L 233.670308 97.715699 
L 235.213799 87.957949 
L 236.75729 83.484475 
L 238.30078 84.50731 
L 239.844271 89.417362 
L 242.931253 101.807609 
L 244.474743 106.000803 
L 246.018234 108.173529 
L 249.105216 110.030046 
L 250.648706 112.240977 
L 252.192197 116.323907 
L 253.735688 122.042448 
L 255.279179 128.468057 
L 256.822669 134.288016 
L 258.36616 138.227559 
L 259.909651 139.451858 
L 261.453142 137.930018 
L 264.540123 130.918348 
L 266.083614 128.822018 
L 267.627105 129.515359 
L 269.170595 133.280007 
L 270.714086 139.359166 
L 272.257577 146.237678 
L 273.801068 152.053418 
L 275.344559 155.12232 
L 276.888049 154.561714 
L 278.43154 150.99431 
L 279.975031 146.591731 
L 281.518522 144.086988 
L 283.062012 145.17958 
L 284.605503 149.376294 
L 286.148994 154.213664 
L 287.692485 156.717229 
L 289.235975 155.197216 
L 290.779466 150.164831 
L 292.322957 143.868723 
L 293.866448 138.947597 
L 295.409938 136.851372 
L 296.953429 137.38092 
L 298.49692 139.459506 
L 300.040411 141.811871 
L 301.583901 143.568008 
L 303.127392 144.337003 
L 304.670883 143.948523 
L 306.214374 142.316291 
L 309.301355 136.937871 
L 310.844846 135.600478 
L 312.388337 136.950072 
L 313.931828 141.078743 
L 315.475318 146.498961 
L 317.018809 150.838691 
L 318.5623 152.189627 
L 320.105791 150.156573 
L 323.192772 141.792496 
L 324.736263 139.42711 
L 326.279754 139.811132 
L 327.823244 142.782018 
L 330.910226 152.137475 
L 332.453717 155.494019 
L 333.997207 155.914303 
L 335.540698 152.421663 
L 337.084189 145.231858 
L 338.62768 136.200614 
L 340.17117 128.435224 
L 341.714661 124.940932 
L 343.258152 126.995604 
L 344.801643 133.325442 
L 346.345133 140.780124 
L 347.888624 146.094129 
L 349.432115 147.559899 
L 350.975606 145.615576 
L 352.519097 142.155832 
L 354.062587 139.29257 
L 355.606078 138.364322 
L 357.149569 139.639475 
L 358.69306 142.465957 
L 360.23655 145.570536 
L 361.780041 147.470486 
L 363.323532 147.020691 
L 364.867023 144.025025 
L 366.410513 139.674459 
L 367.954004 136.2591 
L 369.497495 136.166832 
L 371.040986 140.640278 
L 372.584476 148.933979 
L 374.127967 143.095178 
L 433 143.095178 
L 433 143.095178 
" style="fill:none;stroke:#fc4f30;stroke-width:3;"/>
   </g>
   <g id="line2d_13">
    <path clip-path="url(#pf8d8bcfdea)" d="M 34.56 150.262609 
L 36.103491 151.592479 
L 37.646982 152.44791 
L 39.190472 152.363943 
L 40.733963 150.831373 
L 42.277454 147.725546 
L 45.364435 139.753607 
L 46.907926 137.093701 
L 48.451417 135.90322 
L 49.994908 135.520609 
L 51.538398 134.983503 
L 53.081889 133.839539 
L 54.62538 132.470725 
L 56.168871 131.776095 
L 57.712361 132.453649 
L 59.255852 134.467965 
L 60.799343 137.117602 
L 62.342834 139.436104 
L 63.886324 140.669835 
L 65.429815 140.488835 
L 66.973306 138.935612 
L 68.516797 136.381506 
L 70.060287 133.44768 
L 71.603778 130.901666 
L 73.147269 129.391546 
L 74.69076 129.145013 
L 76.234251 129.866051 
L 77.777741 130.900093 
L 79.321232 131.6782 
L 80.864723 132.147713 
L 82.408214 132.811219 
L 83.951704 134.305122 
L 85.495195 136.776059 
L 87.038686 139.582474 
L 88.582177 141.611059 
L 90.125667 142.003153 
L 91.669158 140.829731 
L 93.212649 139.148984 
L 94.75614 138.395363 
L 96.29963 139.529886 
L 97.843121 142.564843 
L 99.386612 146.823222 
L 102.473593 156.765273 
L 104.017084 162.394683 
L 108.647556 181.017165 
L 110.191047 186.159186 
L 111.734538 190.290742 
L 113.278029 193.593869 
L 114.82152 196.262085 
L 116.36501 198.366324 
L 119.451992 201.831438 
L 120.995483 204.349879 
L 122.538973 207.954696 
L 124.082464 212.102002 
L 125.625955 215.416202 
L 127.169446 216.369967 
L 128.712936 214.154302 
L 130.256427 209.124022 
L 131.799918 202.435859 
L 134.886899 187.816252 
L 136.43039 179.926855 
L 137.973881 171.10676 
L 142.604353 141.808936 
L 144.147844 133.472826 
L 145.691335 126.496717 
L 147.234825 120.746416 
L 148.778316 115.995573 
L 150.321807 111.982062 
L 153.408789 104.39414 
L 154.952279 99.871568 
L 156.49577 94.905552 
L 158.039261 90.426584 
L 159.582752 87.678844 
L 161.126242 87.46581 
L 162.669733 89.45928 
L 164.213224 92.37252 
L 165.756715 94.783944 
L 167.300205 95.98451 
L 168.843696 96.411719 
L 170.387187 97.236216 
L 171.930678 99.637364 
L 173.474168 104.358692 
L 175.017659 111.731496 
L 176.56115 121.910104 
L 178.104641 134.896692 
L 179.648131 150.339645 
L 184.278604 201.110498 
L 185.822094 215.870287 
L 187.365585 228.816643 
L 188.909076 239.956779 
L 190.452567 248.93698 
L 191.996057 254.966996 
L 193.539548 257.236364 
L 195.083039 255.414092 
L 196.62653 249.844085 
L 198.170021 241.262483 
L 199.713511 230.317311 
L 201.257002 217.264087 
L 202.800493 202.035746 
L 204.343984 184.697579 
L 210.517947 110.270763 
L 212.061437 94.526851 
L 213.604928 80.7081 
L 215.148419 69.301189 
L 216.69191 61.07404 
L 218.2354 56.69817 
L 219.778891 56.232788 
L 221.322382 58.915145 
L 222.865873 63.559238 
L 224.409363 69.197632 
L 227.496345 81.986135 
L 230.583326 95.139259 
L 232.126817 100.540437 
L 233.670308 104.697099 
L 235.213799 107.920667 
L 239.844271 116.649755 
L 241.387762 118.618964 
L 242.931253 119.564584 
L 244.474743 119.751152 
L 247.561725 119.68012 
L 249.105216 119.364748 
L 250.648706 118.048611 
L 252.192197 115.238663 
L 255.279179 107.23126 
L 256.822669 104.60523 
L 258.36616 104.227527 
L 259.909651 105.961891 
L 264.540123 114.641792 
L 266.083614 116.539598 
L 267.627105 117.836301 
L 270.714086 119.671 
L 272.257577 121.108396 
L 273.801068 123.643045 
L 275.344559 127.374975 
L 276.888049 131.634222 
L 278.43154 135.31773 
L 279.975031 137.654714 
L 281.518522 138.791451 
L 283.062012 139.607976 
L 284.605503 140.978421 
L 287.692485 144.838402 
L 289.235975 145.440639 
L 290.779466 144.424472 
L 292.322957 142.521549 
L 293.866448 141.028506 
L 295.409938 140.637679 
L 298.49692 141.404275 
L 301.583901 141.226971 
L 303.127392 141.719224 
L 304.670883 143.250846 
L 306.214374 145.364692 
L 307.757864 146.97715 
L 309.301355 147.236678 
L 310.844846 146.200806 
L 312.388337 144.755394 
L 313.931828 143.864944 
L 315.475318 143.862863 
L 317.018809 144.319517 
L 318.5623 144.53445 
L 320.105791 144.18508 
L 321.649281 143.591339 
L 323.192772 143.400731 
L 324.736263 143.946387 
L 326.279754 144.921737 
L 327.823244 145.668467 
L 329.366735 145.820991 
L 330.910226 145.633015 
L 332.453717 145.668937 
L 335.540698 146.786619 
L 337.084189 146.738357 
L 338.62768 145.640761 
L 340.17117 143.853891 
L 341.714661 142.28507 
L 343.258152 141.697939 
L 344.801643 142.120664 
L 346.345133 142.946215 
L 347.888624 143.535314 
L 354.062587 144.436627 
L 355.606078 144.216632 
L 357.149569 143.388483 
L 358.69306 142.40504 
L 360.23655 141.936071 
L 361.780041 142.287946 
L 363.323532 143.041678 
L 364.867023 143.370543 
L 366.410513 142.836566 
L 367.954004 141.801268 
L 369.497495 141.196391 
L 371.040986 141.726213 
L 372.584476 143.30025 
L 374.127967 143.095178 
L 433 143.095178 
L 433 143.095178 
" style="fill:none;stroke:#e5ae38;stroke-width:3;"/>
   </g>
   <g id="line2d_14">
    <path clip-path="url(#pf8d8bcfdea)" d="M 34.56 143.35587 
L 36.103491 142.723613 
L 37.646982 143.130722 
L 39.190472 144.552712 
L 40.733963 146.713617 
L 46.907926 156.610612 
L 48.451417 158.850297 
L 49.994908 160.435138 
L 51.538398 160.652748 
L 53.081889 159.122814 
L 54.62538 156.153588 
L 56.168871 152.632009 
L 57.712361 149.559847 
L 59.255852 147.556197 
L 60.799343 146.672222 
L 62.342834 146.57574 
L 63.886324 146.938049 
L 65.429815 147.720098 
L 66.973306 149.062974 
L 70.060287 152.814683 
L 71.603778 154.133807 
L 73.147269 154.126689 
L 74.69076 152.391512 
L 76.234251 149.149755 
L 80.864723 136.969188 
L 82.408214 133.559989 
L 83.951704 130.617088 
L 85.495195 128.251148 
L 87.038686 126.75337 
L 88.582177 126.457628 
L 90.125667 127.519063 
L 91.669158 129.599204 
L 93.212649 131.921163 
L 94.75614 133.927964 
L 99.386612 138.922459 
L 100.930103 140.19867 
L 102.473593 140.60967 
L 104.017084 139.878632 
L 105.560575 138.203976 
L 107.104066 136.285981 
L 108.647556 135.120552 
L 110.191047 135.509751 
L 111.734538 137.650693 
L 113.278029 141.221059 
L 114.82152 145.74119 
L 117.908501 155.19209 
L 119.451992 159.121744 
L 120.995483 162.411757 
L 122.538973 165.405936 
L 124.082464 168.789305 
L 125.625955 173.407492 
L 127.169446 179.943788 
L 128.712936 188.670753 
L 130.256427 199.279967 
L 134.886899 234.173792 
L 136.43039 243.739712 
L 137.973881 250.898043 
L 139.517372 255.412515 
L 141.060862 257.236364 
L 142.604353 256.606897 
L 144.147844 254.164936 
L 145.691335 250.572501 
L 147.234825 246.187289 
L 148.778316 241.110286 
L 150.321807 235.354952 
L 154.952279 216.214949 
L 156.49577 210.744153 
L 161.126242 196.268743 
L 162.669733 190.359021 
L 164.213224 183.610438 
L 173.474168 139.437331 
L 175.017659 130.711899 
L 176.56115 120.689461 
L 179.648131 99.18075 
L 181.191622 90.489984 
L 182.735113 85.031554 
L 184.278604 83.35179 
L 185.822094 85.100144 
L 187.365585 89.397271 
L 188.909076 95.478345 
L 190.452567 103.152527 
L 191.996057 112.670814 
L 193.539548 124.508902 
L 195.083039 139.034319 
L 196.62653 155.910045 
L 199.713511 192.064805 
L 201.257002 208.635626 
L 202.800493 222.990321 
L 204.343984 234.806136 
L 205.887474 243.921351 
L 207.430965 250.161372 
L 208.974456 253.36035 
L 210.517947 253.36958 
L 212.061437 249.888564 
L 213.604928 242.395562 
L 215.148419 230.448594 
L 216.69191 213.996633 
L 218.2354 193.527476 
L 221.322382 145.108793 
L 222.865873 120.451148 
L 224.409363 97.719578 
L 225.952854 78.302413 
L 227.496345 63.178254 
L 229.039836 52.743377 
L 230.583326 46.879916 
L 232.126817 45.163636 
L 233.670308 47.086706 
L 235.213799 52.170175 
L 236.75729 59.889595 
L 242.931253 97.868397 
L 244.474743 104.561152 
L 246.018234 109.769582 
L 247.561725 113.602802 
L 249.105216 115.919583 
L 250.648706 116.426956 
L 252.192197 114.855975 
L 253.735688 111.207075 
L 255.279179 105.967712 
L 258.36616 94.117291 
L 261.453142 83.351047 
L 262.996632 78.600376 
L 264.540123 74.685962 
L 266.083614 72.11555 
L 267.627105 71.237102 
L 269.170595 71.987592 
L 270.714086 73.920748 
L 272.257577 76.481502 
L 275.344559 82.343335 
L 276.888049 85.701792 
L 278.43154 89.524719 
L 279.975031 94.005808 
L 281.518522 99.377669 
L 283.062012 105.612042 
L 286.148994 118.98709 
L 287.692485 125.051334 
L 289.235975 130.111584 
L 290.779466 134.131912 
L 292.322957 137.390153 
L 293.866448 140.194993 
L 295.409938 142.613705 
L 296.953429 144.448455 
L 298.49692 145.601828 
L 300.040411 146.187906 
L 301.583901 146.417671 
L 307.757864 146.465454 
L 309.301355 145.965359 
L 310.844846 144.998355 
L 312.388337 143.896137 
L 313.931828 143.016475 
L 315.475318 142.527385 
L 317.018809 142.407183 
L 318.5623 142.575949 
L 320.105791 142.954914 
L 321.649281 143.469166 
L 324.736263 144.849635 
L 326.279754 145.507901 
L 327.823244 145.777675 
L 329.366735 145.612848 
L 335.540698 143.989619 
L 337.084189 143.296936 
L 340.17117 141.278947 
L 341.714661 140.74206 
L 343.258152 141.112349 
L 344.801643 142.352005 
L 346.345133 143.904742 
L 347.888624 145.141847 
L 349.432115 145.768312 
L 350.975606 145.771794 
L 354.062587 145.005229 
L 357.149569 144.445098 
L 360.23655 143.549958 
L 361.780041 143.074329 
L 363.323532 142.762024 
L 364.867023 142.78384 
L 366.410513 143.251452 
L 367.954004 144.108321 
L 372.584476 147.554003 
L 374.127967 143.095178 
L 433 143.095178 
L 433 143.095178 
" style="fill:none;stroke:#6d904f;stroke-width:3;"/>
   </g>
   <g id="line2d_15">
    <path clip-path="url(#pf8d8bcfdea)" d="M 34.56 153.21834 
L 39.190472 151.212328 
L 42.277454 150.335431 
L 45.364435 149.817394 
L 49.994908 149.240048 
L 51.538398 148.979641 
L 53.081889 148.597791 
L 54.62538 147.990607 
L 57.712361 146.279501 
L 60.799343 144.259755 
L 62.342834 143.038626 
L 65.429815 140.133077 
L 66.973306 138.590737 
L 68.516797 137.303713 
L 70.060287 136.658882 
L 71.603778 136.901117 
L 73.147269 137.950787 
L 76.234251 140.943442 
L 77.777741 141.88485 
L 79.321232 141.943928 
L 80.864723 141.134817 
L 85.495195 136.965861 
L 87.038686 135.897977 
L 88.582177 135.062872 
L 90.125667 134.474341 
L 91.669158 134.220423 
L 93.212649 134.433646 
L 94.75614 135.193423 
L 96.29963 136.384694 
L 99.386612 138.915025 
L 100.930103 139.831633 
L 105.560575 141.815987 
L 108.647556 143.816907 
L 113.278029 147.036479 
L 114.82152 148.516723 
L 116.36501 150.507504 
L 117.908501 153.314694 
L 119.451992 157.180516 
L 120.995483 162.024858 
L 122.538973 167.566151 
L 127.169446 185.868678 
L 128.712936 192.211667 
L 130.256427 199.041342 
L 131.799918 206.60817 
L 134.886899 223.662541 
L 137.973881 240.524143 
L 139.517372 247.518193 
L 141.060862 252.844053 
L 142.604353 256.137617 
L 144.147844 257.236364 
L 145.691335 256.132752 
L 147.234825 252.949641 
L 148.778316 247.950411 
L 150.321807 241.451147 
L 151.865298 233.694642 
L 153.408789 224.875249 
L 156.49577 205.095567 
L 165.756715 143.083165 
L 167.300205 133.4441 
L 168.843696 124.541101 
L 170.387187 116.668024 
L 171.930678 109.94893 
L 173.474168 104.385679 
L 175.017659 99.838097 
L 178.104641 92.375914 
L 182.735113 81.696723 
L 184.278604 78.728994 
L 185.822094 76.874084 
L 187.365585 76.688721 
L 188.909076 78.523581 
L 190.452567 82.401127 
L 191.996057 88.071982 
L 193.539548 95.242929 
L 195.083039 103.755 
L 196.62653 113.587863 
L 198.170021 124.82979 
L 199.713511 137.553825 
L 202.800493 166.575636 
L 205.887474 196.923916 
L 207.430965 211.22964 
L 208.974456 224.298112 
L 210.517947 235.688532 
L 212.061437 244.923268 
L 213.604928 251.478386 
L 215.148419 254.877123 
L 216.69191 254.757381 
L 218.2354 250.902054 
L 219.778891 243.176189 
L 221.322382 231.580093 
L 222.865873 216.482056 
L 224.409363 198.661084 
L 230.583326 120.628799 
L 232.126817 104.471492 
L 233.670308 91.115092 
L 235.213799 80.85616 
L 236.75729 73.729418 
L 238.30078 69.580927 
L 239.844271 67.940769 
L 241.387762 68.302497 
L 242.931253 70.30078 
L 244.474743 73.431238 
L 250.648706 88.185093 
L 252.192197 91.239392 
L 253.735688 93.9657 
L 255.279179 96.37905 
L 256.822669 98.362524 
L 258.36616 99.77813 
L 259.909651 100.616635 
L 261.453142 100.969683 
L 262.996632 100.892108 
L 264.540123 100.390502 
L 267.627105 98.660703 
L 269.170595 98.04849 
L 270.714086 98.041067 
L 272.257577 98.85352 
L 273.801068 100.528676 
L 275.344559 102.849377 
L 278.43154 107.925715 
L 281.518522 112.805505 
L 283.062012 115.495126 
L 286.148994 121.565356 
L 289.235975 127.584587 
L 292.322957 132.79318 
L 295.409938 137.502439 
L 296.953429 139.484255 
L 298.49692 141.085252 
L 300.040411 142.220205 
L 301.583901 142.891352 
L 303.127392 143.197339 
L 304.670883 143.262081 
L 307.757864 142.937868 
L 309.301355 142.810952 
L 310.844846 142.917488 
L 313.931828 143.443465 
L 315.475318 143.581422 
L 317.018809 143.587503 
L 318.5623 143.452715 
L 323.192772 142.738364 
L 326.279754 142.781082 
L 330.910226 142.959844 
L 335.540698 142.525302 
L 346.345133 143.122554 
L 352.519097 142.905669 
L 354.062587 143.109061 
L 357.149569 143.715113 
L 358.69306 143.890263 
L 361.780041 143.882232 
L 364.867023 143.646936 
L 366.410513 143.643815 
L 371.040986 143.943333 
L 372.584476 143.95721 
L 374.127967 143.095178 
L 433 143.095178 
L 433 143.095178 
" style="fill:none;stroke:#8b8b8b;stroke-width:3;"/>
   </g>
   <g id="line2d_16">
    <path clip-path="url(#pf8d8bcfdea)" d="M 34.56 148.018999 
L 36.103491 148.453935 
L 37.646982 148.447518 
L 39.190472 148.167823 
L 42.277454 147.159484 
L 45.364435 146.052191 
L 53.081889 143.853681 
L 59.255852 142.475063 
L 60.799343 141.559212 
L 62.342834 140.172578 
L 63.886324 138.43664 
L 70.060287 130.665593 
L 71.603778 129.017166 
L 73.147269 127.66279 
L 74.69076 126.898131 
L 76.234251 127.069751 
L 77.777741 128.354332 
L 80.864723 132.716841 
L 82.408214 134.442322 
L 83.951704 135.115684 
L 85.495195 134.71712 
L 87.038686 133.536909 
L 91.669158 128.814936 
L 94.75614 125.650253 
L 96.29963 124.579299 
L 97.843121 124.32352 
L 99.386612 125.048209 
L 100.930103 126.664753 
L 104.017084 131.139743 
L 108.647556 137.811122 
L 110.191047 139.712414 
L 111.734538 141.174645 
L 113.278029 142.017399 
L 114.82152 142.255945 
L 116.36501 142.332728 
L 117.908501 142.848877 
L 119.451992 144.357989 
L 120.995483 147.206478 
L 122.538973 151.330552 
L 124.082464 156.424194 
L 130.256427 178.840217 
L 134.886899 194.744624 
L 136.43039 200.759296 
L 137.973881 207.513231 
L 141.060862 222.037165 
L 142.604353 228.374453 
L 144.147844 233.052011 
L 145.691335 235.627989 
L 147.234825 235.918613 
L 148.778316 233.91038 
L 150.321807 229.640464 
L 151.865298 223.196721 
L 153.408789 214.806829 
L 154.952279 204.831408 
L 158.039261 181.971339 
L 161.126242 158.352063 
L 162.669733 147.291052 
L 164.213224 137.042615 
L 167.300205 118.819677 
L 170.387187 102.826393 
L 171.930678 95.610071 
L 173.474168 89.1718 
L 175.017659 83.750173 
L 176.56115 79.600466 
L 178.104641 76.862023 
L 179.648131 75.501335 
L 181.191622 75.275493 
L 182.735113 75.708183 
L 184.278604 76.286377 
L 185.822094 76.665891 
L 187.365585 76.811223 
L 188.909076 77.157212 
L 190.452567 78.426276 
L 191.996057 81.242213 
L 193.539548 85.973743 
L 195.083039 92.621265 
L 196.62653 100.862627 
L 198.170021 110.387938 
L 199.713511 121.057969 
L 201.257002 132.937427 
L 202.800493 146.151804 
L 205.887474 175.736603 
L 208.974456 205.358103 
L 210.517947 218.520413 
L 212.061437 230.071239 
L 213.604928 239.81682 
L 215.148419 247.523239 
L 216.69191 253.003266 
L 218.2354 256.224732 
L 219.778891 257.236364 
L 221.322382 256.043436 
L 222.865873 252.46235 
L 224.409363 246.088125 
L 225.952854 236.554266 
L 227.496345 223.808014 
L 229.039836 208.362599 
L 235.213799 140.72746 
L 236.75729 126.889759 
L 238.30078 115.308659 
L 239.844271 106.097208 
L 241.387762 99.101406 
L 242.931253 94.094148 
L 244.474743 90.785269 
L 246.018234 88.993824 
L 247.561725 88.489978 
L 249.105216 89.059962 
L 250.648706 90.463668 
L 252.192197 92.465241 
L 253.735688 94.890536 
L 255.279179 97.630589 
L 256.822669 100.684761 
L 261.453142 111.037428 
L 262.996632 113.841837 
L 264.540123 116.046136 
L 266.083614 117.448315 
L 267.627105 117.923104 
L 269.170595 117.606899 
L 273.801068 115.147257 
L 275.344559 114.927295 
L 276.888049 115.311374 
L 278.43154 116.342009 
L 279.975031 117.905334 
L 284.605503 123.477426 
L 287.692485 126.49373 
L 290.779466 129.597872 
L 293.866448 133.131572 
L 296.953429 136.74153 
L 298.49692 138.379847 
L 300.040411 139.81539 
L 301.583901 141.021138 
L 303.127392 141.972061 
L 304.670883 142.661771 
L 306.214374 143.090107 
L 307.757864 143.318655 
L 309.301355 143.387771 
L 313.931828 143.257607 
L 318.5623 143.254953 
L 323.192772 143.156328 
L 329.366735 143.352762 
L 350.975606 143.052 
L 357.149569 143.218484 
L 364.867023 143.206091 
L 372.584476 143.325305 
L 374.127967 143.095178 
L 433 143.095178 
L 433 143.095178 
" style="fill:none;stroke:#810f7c;stroke-width:3;"/>
   </g>
   <g id="patch_3">
    <path d="M 34.56 267.84 
L 34.56 34.56 
" style="fill:none;stroke:#000000;stroke-linecap:square;stroke-linejoin:miter;"/>
   </g>
   <g id="patch_4">
    <path d="M 410.4 267.84 
L 410.4 34.56 
" style="fill:none;stroke:#000000;stroke-linecap:square;stroke-linejoin:miter;"/>
   </g>
   <g id="patch_5">
    <path d="M 34.56 267.84 
L 410.4 267.84 
" style="fill:none;stroke:#000000;stroke-linecap:square;stroke-linejoin:miter;"/>
   </g>
   <g id="patch_6">
    <path d="M 34.56 34.56 
L 410.4 34.56 
" style="fill:none;stroke:#000000;stroke-linecap:square;stroke-linejoin:miter;"/>
   </g>
   <g id="text_12">
    <!-- Unitary responses (normalized re:max) -->
    <g transform="translate(39.7377 28.56)scale(0.1872 -0.1872)">
     <defs>
      <path d="M 8.6875 72.90625 
L 18.609375 72.90625 
L 18.609375 28.609375 
Q 18.609375 16.890625 22.84375 11.734375 
Q 27.09375 6.59375 36.625 6.59375 
Q 46.09375 6.59375 50.34375 11.734375 
Q 54.59375 16.890625 54.59375 28.609375 
L 54.59375 72.90625 
L 64.5 72.90625 
L 64.5 27.390625 
Q 64.5 13.140625 57.4375 5.859375 
Q 50.390625 -1.421875 36.625 -1.421875 
Q 22.796875 -1.421875 15.734375 5.859375 
Q 8.6875 13.140625 8.6875 27.390625 
z
" id="DejaVuSans-85"/>
      <path d="M 54.890625 33.015625 
L 54.890625 0 
L 45.90625 0 
L 45.90625 32.71875 
Q 45.90625 40.484375 42.875 44.328125 
Q 39.84375 48.1875 33.796875 48.1875 
Q 26.515625 48.1875 22.3125 43.546875 
Q 18.109375 38.921875 18.109375 30.90625 
L 18.109375 0 
L 9.078125 0 
L 9.078125 54.6875 
L 18.109375 54.6875 
L 18.109375 46.1875 
Q 21.34375 51.125 25.703125 53.5625 
Q 30.078125 56 35.796875 56 
Q 45.21875 56 50.046875 50.171875 
Q 54.890625 44.34375 54.890625 33.015625 
z
" id="DejaVuSans-110"/>
      <path d="M 9.421875 54.6875 
L 18.40625 54.6875 
L 18.40625 0 
L 9.421875 0 
z
M 9.421875 75.984375 
L 18.40625 75.984375 
L 18.40625 64.59375 
L 9.421875 64.59375 
z
" id="DejaVuSans-105"/>
      <path d="M 34.28125 27.484375 
Q 23.390625 27.484375 19.1875 25 
Q 14.984375 22.515625 14.984375 16.5 
Q 14.984375 11.71875 18.140625 8.90625 
Q 21.296875 6.109375 26.703125 6.109375 
Q 34.1875 6.109375 38.703125 11.40625 
Q 43.21875 16.703125 43.21875 25.484375 
L 43.21875 27.484375 
z
M 52.203125 31.203125 
L 52.203125 0 
L 43.21875 0 
L 43.21875 8.296875 
Q 40.140625 3.328125 35.546875 0.953125 
Q 30.953125 -1.421875 24.3125 -1.421875 
Q 15.921875 -1.421875 10.953125 3.296875 
Q 6 8.015625 6 15.921875 
Q 6 25.140625 12.171875 29.828125 
Q 18.359375 34.515625 30.609375 34.515625 
L 43.21875 34.515625 
L 43.21875 35.40625 
Q 43.21875 41.609375 39.140625 45 
Q 35.0625 48.390625 27.6875 48.390625 
Q 23 48.390625 18.546875 47.265625 
Q 14.109375 46.140625 10.015625 43.890625 
L 10.015625 52.203125 
Q 14.9375 54.109375 19.578125 55.046875 
Q 24.21875 56 28.609375 56 
Q 40.484375 56 46.34375 49.84375 
Q 52.203125 43.703125 52.203125 31.203125 
z
" id="DejaVuSans-97"/>
      <path d="M 41.109375 46.296875 
Q 39.59375 47.171875 37.8125 47.578125 
Q 36.03125 48 33.890625 48 
Q 26.265625 48 22.1875 43.046875 
Q 18.109375 38.09375 18.109375 28.8125 
L 18.109375 0 
L 9.078125 0 
L 9.078125 54.6875 
L 18.109375 54.6875 
L 18.109375 46.1875 
Q 20.953125 51.171875 25.484375 53.578125 
Q 30.03125 56 36.53125 56 
Q 37.453125 56 38.578125 55.875 
Q 39.703125 55.765625 41.0625 55.515625 
z
" id="DejaVuSans-114"/>
      <path d="M 32.171875 -5.078125 
Q 28.375 -14.84375 24.75 -17.8125 
Q 21.140625 -20.796875 15.09375 -20.796875 
L 7.90625 -20.796875 
L 7.90625 -13.28125 
L 13.1875 -13.28125 
Q 16.890625 -13.28125 18.9375 -11.515625 
Q 21 -9.765625 23.484375 -3.21875 
L 25.09375 0.875 
L 2.984375 54.6875 
L 12.5 54.6875 
L 29.59375 11.921875 
L 46.6875 54.6875 
L 56.203125 54.6875 
z
" id="DejaVuSans-121"/>
      <path d="M 56.203125 29.59375 
L 56.203125 25.203125 
L 14.890625 25.203125 
Q 15.484375 15.921875 20.484375 11.0625 
Q 25.484375 6.203125 34.421875 6.203125 
Q 39.59375 6.203125 44.453125 7.46875 
Q 49.3125 8.734375 54.109375 11.28125 
L 54.109375 2.78125 
Q 49.265625 0.734375 44.1875 -0.34375 
Q 39.109375 -1.421875 33.890625 -1.421875 
Q 20.796875 -1.421875 13.15625 6.1875 
Q 5.515625 13.8125 5.515625 26.8125 
Q 5.515625 40.234375 12.765625 48.109375 
Q 20.015625 56 32.328125 56 
Q 43.359375 56 49.78125 48.890625 
Q 56.203125 41.796875 56.203125 29.59375 
z
M 47.21875 32.234375 
Q 47.125 39.59375 43.09375 43.984375 
Q 39.0625 48.390625 32.421875 48.390625 
Q 24.90625 48.390625 20.390625 44.140625 
Q 15.875 39.890625 15.1875 32.171875 
z
" id="DejaVuSans-101"/>
      <path d="M 18.109375 8.203125 
L 18.109375 -20.796875 
L 9.078125 -20.796875 
L 9.078125 54.6875 
L 18.109375 54.6875 
L 18.109375 46.390625 
Q 20.953125 51.265625 25.265625 53.625 
Q 29.59375 56 35.59375 56 
Q 45.5625 56 51.78125 48.09375 
Q 58.015625 40.1875 58.015625 27.296875 
Q 58.015625 14.40625 51.78125 6.484375 
Q 45.5625 -1.421875 35.59375 -1.421875 
Q 29.59375 -1.421875 25.265625 0.953125 
Q 20.953125 3.328125 18.109375 8.203125 
z
M 48.6875 27.296875 
Q 48.6875 37.203125 44.609375 42.84375 
Q 40.53125 48.484375 33.40625 48.484375 
Q 26.265625 48.484375 22.1875 42.84375 
Q 18.109375 37.203125 18.109375 27.296875 
Q 18.109375 17.390625 22.1875 11.75 
Q 26.265625 6.109375 33.40625 6.109375 
Q 40.53125 6.109375 44.609375 11.75 
Q 48.6875 17.390625 48.6875 27.296875 
z
" id="DejaVuSans-112"/>
      <path d="M 30.609375 48.390625 
Q 23.390625 48.390625 19.1875 42.75 
Q 14.984375 37.109375 14.984375 27.296875 
Q 14.984375 17.484375 19.15625 11.84375 
Q 23.34375 6.203125 30.609375 6.203125 
Q 37.796875 6.203125 41.984375 11.859375 
Q 46.1875 17.53125 46.1875 27.296875 
Q 46.1875 37.015625 41.984375 42.703125 
Q 37.796875 48.390625 30.609375 48.390625 
z
M 30.609375 56 
Q 42.328125 56 49.015625 48.375 
Q 55.71875 40.765625 55.71875 27.296875 
Q 55.71875 13.875 49.015625 6.21875 
Q 42.328125 -1.421875 30.609375 -1.421875 
Q 18.84375 -1.421875 12.171875 6.21875 
Q 5.515625 13.875 5.515625 27.296875 
Q 5.515625 40.765625 12.171875 48.375 
Q 18.84375 56 30.609375 56 
z
" id="DejaVuSans-111"/>
      <path d="M 9.421875 75.984375 
L 18.40625 75.984375 
L 18.40625 0 
L 9.421875 0 
z
" id="DejaVuSans-108"/>
      <path d="M 5.515625 54.6875 
L 48.1875 54.6875 
L 48.1875 46.484375 
L 14.40625 7.171875 
L 48.1875 7.171875 
L 48.1875 0 
L 4.296875 0 
L 4.296875 8.203125 
L 38.09375 47.515625 
L 5.515625 47.515625 
z
" id="DejaVuSans-122"/>
      <path d="M 45.40625 46.390625 
L 45.40625 75.984375 
L 54.390625 75.984375 
L 54.390625 0 
L 45.40625 0 
L 45.40625 8.203125 
Q 42.578125 3.328125 38.25 0.953125 
Q 33.9375 -1.421875 27.875 -1.421875 
Q 17.96875 -1.421875 11.734375 6.484375 
Q 5.515625 14.40625 5.515625 27.296875 
Q 5.515625 40.1875 11.734375 48.09375 
Q 17.96875 56 27.875 56 
Q 33.9375 56 38.25 53.625 
Q 42.578125 51.265625 45.40625 46.390625 
z
M 14.796875 27.296875 
Q 14.796875 17.390625 18.875 11.75 
Q 22.953125 6.109375 30.078125 6.109375 
Q 37.203125 6.109375 41.296875 11.75 
Q 45.40625 17.390625 45.40625 27.296875 
Q 45.40625 37.203125 41.296875 42.84375 
Q 37.203125 48.484375 30.078125 48.484375 
Q 22.953125 48.484375 18.875 42.84375 
Q 14.796875 37.203125 14.796875 27.296875 
z
" id="DejaVuSans-100"/>
      <path d="M 11.71875 12.40625 
L 22.015625 12.40625 
L 22.015625 0 
L 11.71875 0 
z
M 11.71875 51.703125 
L 22.015625 51.703125 
L 22.015625 39.3125 
L 11.71875 39.3125 
z
" id="DejaVuSans-58"/>
      <path d="M 54.890625 54.6875 
L 35.109375 28.078125 
L 55.90625 0 
L 45.3125 0 
L 29.390625 21.484375 
L 13.484375 0 
L 2.875 0 
L 24.125 28.609375 
L 4.6875 54.6875 
L 15.28125 54.6875 
L 29.78125 35.203125 
L 44.28125 54.6875 
z
" id="DejaVuSans-120"/>
     </defs>
     <use xlink:href="#DejaVuSans-85"/>
     <use x="73.193359" xlink:href="#DejaVuSans-110"/>
     <use x="136.572266" xlink:href="#DejaVuSans-105"/>
     <use x="164.355469" xlink:href="#DejaVuSans-116"/>
     <use x="203.564453" xlink:href="#DejaVuSans-97"/>
     <use x="264.84375" xlink:href="#DejaVuSans-114"/>
     <use x="305.957031" xlink:href="#DejaVuSans-121"/>
     <use x="365.136719" xlink:href="#DejaVuSans-32"/>
     <use x="396.923828" xlink:href="#DejaVuSans-114"/>
     <use x="435.787109" xlink:href="#DejaVuSans-101"/>
     <use x="497.310547" xlink:href="#DejaVuSans-115"/>
     <use x="549.410156" xlink:href="#DejaVuSans-112"/>
     <use x="612.886719" xlink:href="#DejaVuSans-111"/>
     <use x="674.068359" xlink:href="#DejaVuSans-110"/>
     <use x="737.447266" xlink:href="#DejaVuSans-115"/>
     <use x="789.546875" xlink:href="#DejaVuSans-101"/>
     <use x="851.070312" xlink:href="#DejaVuSans-115"/>
     <use x="903.169922" xlink:href="#DejaVuSans-32"/>
     <use x="934.957031" xlink:href="#DejaVuSans-40"/>
     <use x="973.970703" xlink:href="#DejaVuSans-110"/>
     <use x="1037.349609" xlink:href="#DejaVuSans-111"/>
     <use x="1098.53125" xlink:href="#DejaVuSans-114"/>
     <use x="1137.894531" xlink:href="#DejaVuSans-109"/>
     <use x="1235.306641" xlink:href="#DejaVuSans-97"/>
     <use x="1296.585938" xlink:href="#DejaVuSans-108"/>
     <use x="1324.369141" xlink:href="#DejaVuSans-105"/>
     <use x="1352.152344" xlink:href="#DejaVuSans-122"/>
     <use x="1404.642578" xlink:href="#DejaVuSans-101"/>
     <use x="1466.166016" xlink:href="#DejaVuSans-100"/>
     <use x="1529.642578" xlink:href="#DejaVuSans-32"/>
     <use x="1561.429688" xlink:href="#DejaVuSans-114"/>
     <use x="1600.292969" xlink:href="#DejaVuSans-101"/>
     <use x="1661.816406" xlink:href="#DejaVuSans-58"/>
     <use x="1695.507812" xlink:href="#DejaVuSans-109"/>
     <use x="1792.919922" xlink:href="#DejaVuSans-97"/>
     <use x="1854.199219" xlink:href="#DejaVuSans-120"/>
     <use x="1913.378906" xlink:href="#DejaVuSans-41"/>
    </g>
   </g>
   <g id="legend_1">
    <g id="patch_7">
     <path d="M 161.047891 261.34 
L 283.912109 261.34 
Q 286.512109 261.34 286.512109 258.74 
L 286.512109 145.550625 
Q 286.512109 142.950625 283.912109 142.950625 
L 161.047891 142.950625 
Q 158.447891 142.950625 158.447891 145.550625 
L 158.447891 258.74 
Q 158.447891 261.34 161.047891 261.34 
z
" style="fill:#ffffff;opacity:0.8;stroke:#cccccc;stroke-linejoin:miter;stroke-width:0.5;"/>
    </g>
    <g id="line2d_17">
     <path d="M 163.647891 153.478594 
L 189.647891 153.478594 
" style="fill:none;stroke:#008fd5;stroke-width:3;"/>
    </g>
    <g id="line2d_18"/>
    <g id="text_13">
     <!-- CF=1500 Hz -->
     <g transform="translate(200.047891 158.028594)scale(0.13 -0.13)">
      <defs>
       <path d="M 64.40625 67.28125 
L 64.40625 56.890625 
Q 59.421875 61.53125 53.78125 63.8125 
Q 48.140625 66.109375 41.796875 66.109375 
Q 29.296875 66.109375 22.65625 58.46875 
Q 16.015625 50.828125 16.015625 36.375 
Q 16.015625 21.96875 22.65625 14.328125 
Q 29.296875 6.6875 41.796875 6.6875 
Q 48.140625 6.6875 53.78125 8.984375 
Q 59.421875 11.28125 64.40625 15.921875 
L 64.40625 5.609375 
Q 59.234375 2.09375 53.4375 0.328125 
Q 47.65625 -1.421875 41.21875 -1.421875 
Q 24.65625 -1.421875 15.125 8.703125 
Q 5.609375 18.84375 5.609375 36.375 
Q 5.609375 53.953125 15.125 64.078125 
Q 24.65625 74.21875 41.21875 74.21875 
Q 47.75 74.21875 53.53125 72.484375 
Q 59.328125 70.75 64.40625 67.28125 
z
" id="DejaVuSans-67"/>
       <path d="M 9.8125 72.90625 
L 51.703125 72.90625 
L 51.703125 64.59375 
L 19.671875 64.59375 
L 19.671875 43.109375 
L 48.578125 43.109375 
L 48.578125 34.8125 
L 19.671875 34.8125 
L 19.671875 0 
L 9.8125 0 
z
" id="DejaVuSans-70"/>
       <path d="M 10.59375 45.40625 
L 73.1875 45.40625 
L 73.1875 37.203125 
L 10.59375 37.203125 
z
M 10.59375 25.484375 
L 73.1875 25.484375 
L 73.1875 17.1875 
L 10.59375 17.1875 
z
" id="DejaVuSans-61"/>
       <path d="M 9.8125 72.90625 
L 19.671875 72.90625 
L 19.671875 43.015625 
L 55.515625 43.015625 
L 55.515625 72.90625 
L 65.375 72.90625 
L 65.375 0 
L 55.515625 0 
L 55.515625 34.71875 
L 19.671875 34.71875 
L 19.671875 0 
L 9.8125 0 
z
" id="DejaVuSans-72"/>
      </defs>
      <use xlink:href="#DejaVuSans-67"/>
      <use x="69.824219" xlink:href="#DejaVuSans-70"/>
      <use x="127.34375" xlink:href="#DejaVuSans-61"/>
      <use x="211.132812" xlink:href="#DejaVuSans-49"/>
      <use x="274.755859" xlink:href="#DejaVuSans-53"/>
      <use x="338.378906" xlink:href="#DejaVuSans-48"/>
      <use x="402.001953" xlink:href="#DejaVuSans-48"/>
      <use x="465.625" xlink:href="#DejaVuSans-32"/>
      <use x="497.412109" xlink:href="#DejaVuSans-72"/>
      <use x="572.607422" xlink:href="#DejaVuSans-122"/>
     </g>
    </g>
    <g id="line2d_19">
     <path d="M 163.647891 172.560156 
L 189.647891 172.560156 
" style="fill:none;stroke:#fc4f30;stroke-width:3;"/>
    </g>
    <g id="line2d_20"/>
    <g id="text_14">
     <!-- CF=2200 Hz -->
     <g transform="translate(200.047891 177.110156)scale(0.13 -0.13)">
      <defs>
       <path d="M 19.1875 8.296875 
L 53.609375 8.296875 
L 53.609375 0 
L 7.328125 0 
L 7.328125 8.296875 
Q 12.9375 14.109375 22.625 23.890625 
Q 32.328125 33.6875 34.8125 36.53125 
Q 39.546875 41.84375 41.421875 45.53125 
Q 43.3125 49.21875 43.3125 52.78125 
Q 43.3125 58.59375 39.234375 62.25 
Q 35.15625 65.921875 28.609375 65.921875 
Q 23.96875 65.921875 18.8125 64.3125 
Q 13.671875 62.703125 7.8125 59.421875 
L 7.8125 69.390625 
Q 13.765625 71.78125 18.9375 73 
Q 24.125 74.21875 28.421875 74.21875 
Q 39.75 74.21875 46.484375 68.546875 
Q 53.21875 62.890625 53.21875 53.421875 
Q 53.21875 48.921875 51.53125 44.890625 
Q 49.859375 40.875 45.40625 35.40625 
Q 44.1875 33.984375 37.640625 27.21875 
Q 31.109375 20.453125 19.1875 8.296875 
z
" id="DejaVuSans-50"/>
      </defs>
      <use xlink:href="#DejaVuSans-67"/>
      <use x="69.824219" xlink:href="#DejaVuSans-70"/>
      <use x="127.34375" xlink:href="#DejaVuSans-61"/>
      <use x="211.132812" xlink:href="#DejaVuSans-50"/>
      <use x="274.755859" xlink:href="#DejaVuSans-50"/>
      <use x="338.378906" xlink:href="#DejaVuSans-48"/>
      <use x="402.001953" xlink:href="#DejaVuSans-48"/>
      <use x="465.625" xlink:href="#DejaVuSans-32"/>
      <use x="497.412109" xlink:href="#DejaVuSans-72"/>
      <use x="572.607422" xlink:href="#DejaVuSans-122"/>
     </g>
    </g>
    <g id="line2d_21">
     <path d="M 163.647891 191.641719 
L 189.647891 191.641719 
" style="fill:none;stroke:#e5ae38;stroke-width:3;"/>
    </g>
    <g id="line2d_22"/>
    <g id="text_15">
     <!-- CF=3000 Hz -->
     <g transform="translate(200.047891 196.191719)scale(0.13 -0.13)">
      <use xlink:href="#DejaVuSans-67"/>
      <use x="69.824219" xlink:href="#DejaVuSans-70"/>
      <use x="127.34375" xlink:href="#DejaVuSans-61"/>
      <use x="211.132812" xlink:href="#DejaVuSans-51"/>
      <use x="274.755859" xlink:href="#DejaVuSans-48"/>
      <use x="338.378906" xlink:href="#DejaVuSans-48"/>
      <use x="402.001953" xlink:href="#DejaVuSans-48"/>
      <use x="465.625" xlink:href="#DejaVuSans-32"/>
      <use x="497.412109" xlink:href="#DejaVuSans-72"/>
      <use x="572.607422" xlink:href="#DejaVuSans-122"/>
     </g>
    </g>
    <g id="line2d_23">
     <path d="M 163.647891 210.723281 
L 189.647891 210.723281 
" style="fill:none;stroke:#6d904f;stroke-width:3;"/>
    </g>
    <g id="line2d_24"/>
    <g id="text_16">
     <!-- CF=4000 Hz -->
     <g transform="translate(200.047891 215.273281)scale(0.13 -0.13)">
      <use xlink:href="#DejaVuSans-67"/>
      <use x="69.824219" xlink:href="#DejaVuSans-70"/>
      <use x="127.34375" xlink:href="#DejaVuSans-61"/>
      <use x="211.132812" xlink:href="#DejaVuSans-52"/>
      <use x="274.755859" xlink:href="#DejaVuSans-48"/>
      <use x="338.378906" xlink:href="#DejaVuSans-48"/>
      <use x="402.001953" xlink:href="#DejaVuSans-48"/>
      <use x="465.625" xlink:href="#DejaVuSans-32"/>
      <use x="497.412109" xlink:href="#DejaVuSans-72"/>
      <use x="572.607422" xlink:href="#DejaVuSans-122"/>
     </g>
    </g>
    <g id="line2d_25">
     <path d="M 163.647891 229.804844 
L 189.647891 229.804844 
" style="fill:none;stroke:#8b8b8b;stroke-width:3;"/>
    </g>
    <g id="line2d_26"/>
    <g id="text_17">
     <!-- CF=5000 Hz -->
     <g transform="translate(200.047891 234.354844)scale(0.13 -0.13)">
      <use xlink:href="#DejaVuSans-67"/>
      <use x="69.824219" xlink:href="#DejaVuSans-70"/>
      <use x="127.34375" xlink:href="#DejaVuSans-61"/>
      <use x="211.132812" xlink:href="#DejaVuSans-53"/>
      <use x="274.755859" xlink:href="#DejaVuSans-48"/>
      <use x="338.378906" xlink:href="#DejaVuSans-48"/>
      <use x="402.001953" xlink:href="#DejaVuSans-48"/>
      <use x="465.625" xlink:href="#DejaVuSans-32"/>
      <use x="497.412109" xlink:href="#DejaVuSans-72"/>
      <use x="572.607422" xlink:href="#DejaVuSans-122"/>
     </g>
    </g>
    <g id="line2d_27">
     <path d="M 163.647891 248.886406 
L 189.647891 248.886406 
" style="fill:none;stroke:#810f7c;stroke-width:3;"/>
    </g>
    <g id="line2d_28"/>
    <g id="text_18">
     <!-- CF=6000 Hz -->
     <g transform="translate(200.047891 253.436406)scale(0.13 -0.13)">
      <use xlink:href="#DejaVuSans-67"/>
      <use x="69.824219" xlink:href="#DejaVuSans-70"/>
      <use x="127.34375" xlink:href="#DejaVuSans-61"/>
      <use x="211.132812" xlink:href="#DejaVuSans-54"/>
      <use x="274.755859" xlink:href="#DejaVuSans-48"/>
      <use x="338.378906" xlink:href="#DejaVuSans-48"/>
      <use x="402.001953" xlink:href="#DejaVuSans-48"/>
      <use x="465.625" xlink:href="#DejaVuSans-32"/>
      <use x="497.412109" xlink:href="#DejaVuSans-72"/>
      <use x="572.607422" xlink:href="#DejaVuSans-122"/>
     </g>
    </g>
   </g>
  </g>
 </g>
 <defs>
  <clipPath id="pf8d8bcfdea">
   <rect height="233.28" width="375.84" x="34.56" y="34.56"/>
  </clipPath>
 </defs>
</svg>
