<?xml version="1.0" encoding="utf-8" standalone="no"?>
<!DOCTYPE svg PUBLIC "-//W3C//DTD SVG 1.1//EN"
  "http://www.w3.org/Graphics/SVG/1.1/DTD/svg11.dtd">
<!-- Created with matplotlib (https://matplotlib.org/) -->
<svg height="288pt" version="1.1" viewBox="0 0 432 288" width="432pt" xmlns="http://www.w3.org/2000/svg" xmlns:xlink="http://www.w3.org/1999/xlink">
 <defs>
  <style type="text/css">
*{stroke-linecap:butt;stroke-linejoin:round;}
  </style>
 </defs>
 <g id="figure_1">
  <g id="patch_1">
   <path d="M 0 288 
L 432 288 
L 432 0 
L 0 0 
z
" style="fill:#f0f0f0;"/>
  </g>
  <g id="axes_1">
   <g id="patch_2">
    <path d="M 34.56 252 
L 410.4 252 
L 410.4 34.56 
L 34.56 34.56 
z
" style="fill:#ffffff;"/>
   </g>
   <g id="matplotlib.axis_1">
    <g id="xtick_1">
     <g id="line2d_1">
      <path clip-path="url(#p213233a68d)" d="M 34.56 252 
L 34.56 34.56 
" style="fill:none;stroke:#cbcbcb;"/>
     </g>
     <g id="line2d_2"/>
     <g id="text_1">
      <!-- 5 -->
      <defs>
       <path d="M 10.796875 72.90625 
L 49.515625 72.90625 
L 49.515625 64.59375 
L 19.828125 64.59375 
L 19.828125 46.734375 
Q 21.96875 47.46875 24.109375 47.828125 
Q 26.265625 48.1875 28.421875 48.1875 
Q 40.625 48.1875 47.75 41.5 
Q 54.890625 34.8125 54.890625 23.390625 
Q 54.890625 11.625 47.5625 5.09375 
Q 40.234375 -1.421875 26.90625 -1.421875 
Q 22.3125 -1.421875 17.546875 -0.640625 
Q 12.796875 0.140625 7.71875 1.703125 
L 7.71875 11.625 
Q 12.109375 9.234375 16.796875 8.0625 
Q 21.484375 6.890625 26.703125 6.890625 
Q 35.15625 6.890625 40.078125 11.328125 
Q 45.015625 15.765625 45.015625 23.390625 
Q 45.015625 31 40.078125 35.4375 
Q 35.15625 39.890625 26.703125 39.890625 
Q 22.75 39.890625 18.8125 39.015625 
Q 14.890625 38.140625 10.796875 36.28125 
z
" id="DejaVuSans-53"/>
      </defs>
      <g transform="translate(31.37875 263.098437)scale(0.1 -0.1)">
       <use xlink:href="#DejaVuSans-53"/>
      </g>
     </g>
    </g>
    <g id="xtick_2">
     <g id="line2d_3">
      <path clip-path="url(#p213233a68d)" d="M 97.2 252 
L 97.2 34.56 
" style="fill:none;stroke:#cbcbcb;"/>
     </g>
     <g id="line2d_4"/>
     <g id="text_2">
      <!-- 6 -->
      <defs>
       <path d="M 33.015625 40.375 
Q 26.375 40.375 22.484375 35.828125 
Q 18.609375 31.296875 18.609375 23.390625 
Q 18.609375 15.53125 22.484375 10.953125 
Q 26.375 6.390625 33.015625 6.390625 
Q 39.65625 6.390625 43.53125 10.953125 
Q 47.40625 15.53125 47.40625 23.390625 
Q 47.40625 31.296875 43.53125 35.828125 
Q 39.65625 40.375 33.015625 40.375 
z
M 52.59375 71.296875 
L 52.59375 62.3125 
Q 48.875 64.0625 45.09375 64.984375 
Q 41.3125 65.921875 37.59375 65.921875 
Q 27.828125 65.921875 22.671875 59.328125 
Q 17.53125 52.734375 16.796875 39.40625 
Q 19.671875 43.65625 24.015625 45.921875 
Q 28.375 48.1875 33.59375 48.1875 
Q 44.578125 48.1875 50.953125 41.515625 
Q 57.328125 34.859375 57.328125 23.390625 
Q 57.328125 12.15625 50.6875 5.359375 
Q 44.046875 -1.421875 33.015625 -1.421875 
Q 20.359375 -1.421875 13.671875 8.265625 
Q 6.984375 17.96875 6.984375 36.375 
Q 6.984375 53.65625 15.1875 63.9375 
Q 23.390625 74.21875 37.203125 74.21875 
Q 40.921875 74.21875 44.703125 73.484375 
Q 48.484375 72.75 52.59375 71.296875 
z
" id="DejaVuSans-54"/>
      </defs>
      <g transform="translate(94.01875 263.098437)scale(0.1 -0.1)">
       <use xlink:href="#DejaVuSans-54"/>
      </g>
     </g>
    </g>
    <g id="xtick_3">
     <g id="line2d_5">
      <path clip-path="url(#p213233a68d)" d="M 159.84 252 
L 159.84 34.56 
" style="fill:none;stroke:#cbcbcb;"/>
     </g>
     <g id="line2d_6"/>
     <g id="text_3">
      <!-- 7 -->
      <defs>
       <path d="M 8.203125 72.90625 
L 55.078125 72.90625 
L 55.078125 68.703125 
L 28.609375 0 
L 18.3125 0 
L 43.21875 64.59375 
L 8.203125 64.59375 
z
" id="DejaVuSans-55"/>
      </defs>
      <g transform="translate(156.65875 263.098437)scale(0.1 -0.1)">
       <use xlink:href="#DejaVuSans-55"/>
      </g>
     </g>
    </g>
    <g id="xtick_4">
     <g id="line2d_7">
      <path clip-path="url(#p213233a68d)" d="M 222.48 252 
L 222.48 34.56 
" style="fill:none;stroke:#cbcbcb;"/>
     </g>
     <g id="line2d_8"/>
     <g id="text_4">
      <!-- 8 -->
      <defs>
       <path d="M 31.78125 34.625 
Q 24.75 34.625 20.71875 30.859375 
Q 16.703125 27.09375 16.703125 20.515625 
Q 16.703125 13.921875 20.71875 10.15625 
Q 24.75 6.390625 31.78125 6.390625 
Q 38.8125 6.390625 42.859375 10.171875 
Q 46.921875 13.96875 46.921875 20.515625 
Q 46.921875 27.09375 42.890625 30.859375 
Q 38.875 34.625 31.78125 34.625 
z
M 21.921875 38.8125 
Q 15.578125 40.375 12.03125 44.71875 
Q 8.5 49.078125 8.5 55.328125 
Q 8.5 64.0625 14.71875 69.140625 
Q 20.953125 74.21875 31.78125 74.21875 
Q 42.671875 74.21875 48.875 69.140625 
Q 55.078125 64.0625 55.078125 55.328125 
Q 55.078125 49.078125 51.53125 44.71875 
Q 48 40.375 41.703125 38.8125 
Q 48.828125 37.15625 52.796875 32.3125 
Q 56.78125 27.484375 56.78125 20.515625 
Q 56.78125 9.90625 50.3125 4.234375 
Q 43.84375 -1.421875 31.78125 -1.421875 
Q 19.734375 -1.421875 13.25 4.234375 
Q 6.78125 9.90625 6.78125 20.515625 
Q 6.78125 27.484375 10.78125 32.3125 
Q 14.796875 37.15625 21.921875 38.8125 
z
M 18.3125 54.390625 
Q 18.3125 48.734375 21.84375 45.5625 
Q 25.390625 42.390625 31.78125 42.390625 
Q 38.140625 42.390625 41.71875 45.5625 
Q 45.3125 48.734375 45.3125 54.390625 
Q 45.3125 60.0625 41.71875 63.234375 
Q 38.140625 66.40625 31.78125 66.40625 
Q 25.390625 66.40625 21.84375 63.234375 
Q 18.3125 60.0625 18.3125 54.390625 
z
" id="DejaVuSans-56"/>
      </defs>
      <g transform="translate(219.29875 263.098437)scale(0.1 -0.1)">
       <use xlink:href="#DejaVuSans-56"/>
      </g>
     </g>
    </g>
    <g id="xtick_5">
     <g id="line2d_9">
      <path clip-path="url(#p213233a68d)" d="M 285.12 252 
L 285.12 34.56 
" style="fill:none;stroke:#cbcbcb;"/>
     </g>
     <g id="line2d_10"/>
     <g id="text_5">
      <!-- 9 -->
      <defs>
       <path d="M 10.984375 1.515625 
L 10.984375 10.5 
Q 14.703125 8.734375 18.5 7.8125 
Q 22.3125 6.890625 25.984375 6.890625 
Q 35.75 6.890625 40.890625 13.453125 
Q 46.046875 20.015625 46.78125 33.40625 
Q 43.953125 29.203125 39.59375 26.953125 
Q 35.25 24.703125 29.984375 24.703125 
Q 19.046875 24.703125 12.671875 31.3125 
Q 6.296875 37.9375 6.296875 49.421875 
Q 6.296875 60.640625 12.9375 67.421875 
Q 19.578125 74.21875 30.609375 74.21875 
Q 43.265625 74.21875 49.921875 64.515625 
Q 56.59375 54.828125 56.59375 36.375 
Q 56.59375 19.140625 48.40625 8.859375 
Q 40.234375 -1.421875 26.421875 -1.421875 
Q 22.703125 -1.421875 18.890625 -0.6875 
Q 15.09375 0.046875 10.984375 1.515625 
z
M 30.609375 32.421875 
Q 37.25 32.421875 41.125 36.953125 
Q 45.015625 41.5 45.015625 49.421875 
Q 45.015625 57.28125 41.125 61.84375 
Q 37.25 66.40625 30.609375 66.40625 
Q 23.96875 66.40625 20.09375 61.84375 
Q 16.21875 57.28125 16.21875 49.421875 
Q 16.21875 41.5 20.09375 36.953125 
Q 23.96875 32.421875 30.609375 32.421875 
z
" id="DejaVuSans-57"/>
      </defs>
      <g transform="translate(281.93875 263.098437)scale(0.1 -0.1)">
       <use xlink:href="#DejaVuSans-57"/>
      </g>
     </g>
    </g>
    <g id="xtick_6">
     <g id="line2d_11">
      <path clip-path="url(#p213233a68d)" d="M 347.76 252 
L 347.76 34.56 
" style="fill:none;stroke:#cbcbcb;"/>
     </g>
     <g id="line2d_12"/>
     <g id="text_6">
      <!-- 10 -->
      <defs>
       <path d="M 12.40625 8.296875 
L 28.515625 8.296875 
L 28.515625 63.921875 
L 10.984375 60.40625 
L 10.984375 69.390625 
L 28.421875 72.90625 
L 38.28125 72.90625 
L 38.28125 8.296875 
L 54.390625 8.296875 
L 54.390625 0 
L 12.40625 0 
z
" id="DejaVuSans-49"/>
       <path d="M 31.78125 66.40625 
Q 24.171875 66.40625 20.328125 58.90625 
Q 16.5 51.421875 16.5 36.375 
Q 16.5 21.390625 20.328125 13.890625 
Q 24.171875 6.390625 31.78125 6.390625 
Q 39.453125 6.390625 43.28125 13.890625 
Q 47.125 21.390625 47.125 36.375 
Q 47.125 51.421875 43.28125 58.90625 
Q 39.453125 66.40625 31.78125 66.40625 
z
M 31.78125 74.21875 
Q 44.046875 74.21875 50.515625 64.515625 
Q 56.984375 54.828125 56.984375 36.375 
Q 56.984375 17.96875 50.515625 8.265625 
Q 44.046875 -1.421875 31.78125 -1.421875 
Q 19.53125 -1.421875 13.0625 8.265625 
Q 6.59375 17.96875 6.59375 36.375 
Q 6.59375 54.828125 13.0625 64.515625 
Q 19.53125 74.21875 31.78125 74.21875 
z
" id="DejaVuSans-48"/>
      </defs>
      <g transform="translate(341.3975 263.098437)scale(0.1 -0.1)">
       <use xlink:href="#DejaVuSans-49"/>
       <use x="63.623047" xlink:href="#DejaVuSans-48"/>
      </g>
     </g>
    </g>
    <g id="xtick_7">
     <g id="line2d_13">
      <path clip-path="url(#p213233a68d)" d="M 410.4 252 
L 410.4 34.56 
" style="fill:none;stroke:#cbcbcb;"/>
     </g>
     <g id="line2d_14"/>
     <g id="text_7">
      <!-- 11 -->
      <g transform="translate(404.0375 263.098437)scale(0.1 -0.1)">
       <use xlink:href="#DejaVuSans-49"/>
       <use x="63.623047" xlink:href="#DejaVuSans-49"/>
      </g>
     </g>
    </g>
    <g id="text_8">
     <!-- t (ms) -->
     <defs>
      <path d="M 18.3125 70.21875 
L 18.3125 54.6875 
L 36.8125 54.6875 
L 36.8125 47.703125 
L 18.3125 47.703125 
L 18.3125 18.015625 
Q 18.3125 11.328125 20.140625 9.421875 
Q 21.96875 7.515625 27.59375 7.515625 
L 36.8125 7.515625 
L 36.8125 0 
L 27.59375 0 
Q 17.1875 0 13.234375 3.875 
Q 9.28125 7.765625 9.28125 18.015625 
L 9.28125 47.703125 
L 2.6875 47.703125 
L 2.6875 54.6875 
L 9.28125 54.6875 
L 9.28125 70.21875 
z
" id="DejaVuSans-116"/>
      <path id="DejaVuSans-32"/>
      <path d="M 31 75.875 
Q 24.46875 64.65625 21.28125 53.65625 
Q 18.109375 42.671875 18.109375 31.390625 
Q 18.109375 20.125 21.3125 9.0625 
Q 24.515625 -2 31 -13.1875 
L 23.1875 -13.1875 
Q 15.875 -1.703125 12.234375 9.375 
Q 8.59375 20.453125 8.59375 31.390625 
Q 8.59375 42.28125 12.203125 53.3125 
Q 15.828125 64.359375 23.1875 75.875 
z
" id="DejaVuSans-40"/>
      <path d="M 52 44.1875 
Q 55.375 50.25 60.0625 53.125 
Q 64.75 56 71.09375 56 
Q 79.640625 56 84.28125 50.015625 
Q 88.921875 44.046875 88.921875 33.015625 
L 88.921875 0 
L 79.890625 0 
L 79.890625 32.71875 
Q 79.890625 40.578125 77.09375 44.375 
Q 74.3125 48.1875 68.609375 48.1875 
Q 61.625 48.1875 57.5625 43.546875 
Q 53.515625 38.921875 53.515625 30.90625 
L 53.515625 0 
L 44.484375 0 
L 44.484375 32.71875 
Q 44.484375 40.625 41.703125 44.40625 
Q 38.921875 48.1875 33.109375 48.1875 
Q 26.21875 48.1875 22.15625 43.53125 
Q 18.109375 38.875 18.109375 30.90625 
L 18.109375 0 
L 9.078125 0 
L 9.078125 54.6875 
L 18.109375 54.6875 
L 18.109375 46.1875 
Q 21.1875 51.21875 25.484375 53.609375 
Q 29.78125 56 35.6875 56 
Q 41.65625 56 45.828125 52.96875 
Q 50 49.953125 52 44.1875 
z
" id="DejaVuSans-109"/>
      <path d="M 44.28125 53.078125 
L 44.28125 44.578125 
Q 40.484375 46.53125 36.375 47.5 
Q 32.28125 48.484375 27.875 48.484375 
Q 21.1875 48.484375 17.84375 46.4375 
Q 14.5 44.390625 14.5 40.28125 
Q 14.5 37.15625 16.890625 35.375 
Q 19.28125 33.59375 26.515625 31.984375 
L 29.59375 31.296875 
Q 39.15625 29.25 43.1875 25.515625 
Q 47.21875 21.78125 47.21875 15.09375 
Q 47.21875 7.46875 41.1875 3.015625 
Q 35.15625 -1.421875 24.609375 -1.421875 
Q 20.21875 -1.421875 15.453125 -0.5625 
Q 10.6875 0.296875 5.421875 2 
L 5.421875 11.28125 
Q 10.40625 8.6875 15.234375 7.390625 
Q 20.0625 6.109375 24.8125 6.109375 
Q 31.15625 6.109375 34.5625 8.28125 
Q 37.984375 10.453125 37.984375 14.40625 
Q 37.984375 18.0625 35.515625 20.015625 
Q 33.0625 21.96875 24.703125 23.78125 
L 21.578125 24.515625 
Q 13.234375 26.265625 9.515625 29.90625 
Q 5.8125 33.546875 5.8125 39.890625 
Q 5.8125 47.609375 11.28125 51.796875 
Q 16.75 56 26.8125 56 
Q 31.78125 56 36.171875 55.265625 
Q 40.578125 54.546875 44.28125 53.078125 
z
" id="DejaVuSans-115"/>
      <path d="M 8.015625 75.875 
L 15.828125 75.875 
Q 23.140625 64.359375 26.78125 53.3125 
Q 30.421875 42.28125 30.421875 31.390625 
Q 30.421875 20.453125 26.78125 9.375 
Q 23.140625 -1.703125 15.828125 -13.1875 
L 8.015625 -13.1875 
Q 14.5 -2 17.703125 9.0625 
Q 20.90625 20.125 20.90625 31.390625 
Q 20.90625 42.671875 17.703125 53.65625 
Q 14.5 64.65625 8.015625 75.875 
z
" id="DejaVuSans-41"/>
     </defs>
     <g transform="translate(198.59875 281.335625)scale(0.16 -0.16)">
      <use xlink:href="#DejaVuSans-116"/>
      <use x="39.208984" xlink:href="#DejaVuSans-32"/>
      <use x="70.996094" xlink:href="#DejaVuSans-40"/>
      <use x="110.009766" xlink:href="#DejaVuSans-109"/>
      <use x="207.421875" xlink:href="#DejaVuSans-115"/>
      <use x="259.521484" xlink:href="#DejaVuSans-41"/>
     </g>
    </g>
   </g>
   <g id="matplotlib.axis_2">
    <g id="ytick_1">
     <g id="line2d_15">
      <path clip-path="url(#p213233a68d)" d="M 34.56 241.793216 
L 410.4 241.793216 
" style="fill:none;stroke:#cbcbcb;"/>
     </g>
     <g id="line2d_16"/>
     <g id="text_9">
      <!-- −100 -->
      <defs>
       <path d="M 10.59375 35.5 
L 73.1875 35.5 
L 73.1875 27.203125 
L 10.59375 27.203125 
z
" id="DejaVuSans-8722"/>
      </defs>
      <g transform="translate(3.592813 245.592435)scale(0.1 -0.1)">
       <use xlink:href="#DejaVuSans-8722"/>
       <use x="83.789062" xlink:href="#DejaVuSans-49"/>
       <use x="147.412109" xlink:href="#DejaVuSans-48"/>
       <use x="211.035156" xlink:href="#DejaVuSans-48"/>
      </g>
     </g>
    </g>
    <g id="ytick_2">
     <g id="line2d_17">
      <path clip-path="url(#p213233a68d)" d="M 34.56 213.064475 
L 410.4 213.064475 
" style="fill:none;stroke:#cbcbcb;"/>
     </g>
     <g id="line2d_18"/>
     <g id="text_10">
      <!-- −75 -->
      <g transform="translate(9.955313 216.863694)scale(0.1 -0.1)">
       <use xlink:href="#DejaVuSans-8722"/>
       <use x="83.789062" xlink:href="#DejaVuSans-55"/>
       <use x="147.412109" xlink:href="#DejaVuSans-53"/>
      </g>
     </g>
    </g>
    <g id="ytick_3">
     <g id="line2d_19">
      <path clip-path="url(#p213233a68d)" d="M 34.56 184.335734 
L 410.4 184.335734 
" style="fill:none;stroke:#cbcbcb;"/>
     </g>
     <g id="line2d_20"/>
     <g id="text_11">
      <!-- −50 -->
      <g transform="translate(9.955313 188.134952)scale(0.1 -0.1)">
       <use xlink:href="#DejaVuSans-8722"/>
       <use x="83.789062" xlink:href="#DejaVuSans-53"/>
       <use x="147.412109" xlink:href="#DejaVuSans-48"/>
      </g>
     </g>
    </g>
    <g id="ytick_4">
     <g id="line2d_21">
      <path clip-path="url(#p213233a68d)" d="M 34.56 155.606993 
L 410.4 155.606993 
" style="fill:none;stroke:#cbcbcb;"/>
     </g>
     <g id="line2d_22"/>
     <g id="text_12">
      <!-- −25 -->
      <defs>
       <path d="M 19.1875 8.296875 
L 53.609375 8.296875 
L 53.609375 0 
L 7.328125 0 
L 7.328125 8.296875 
Q 12.9375 14.109375 22.625 23.890625 
Q 32.328125 33.6875 34.8125 36.53125 
Q 39.546875 41.84375 41.421875 45.53125 
Q 43.3125 49.21875 43.3125 52.78125 
Q 43.3125 58.59375 39.234375 62.25 
Q 35.15625 65.921875 28.609375 65.921875 
Q 23.96875 65.921875 18.8125 64.3125 
Q 13.671875 62.703125 7.8125 59.421875 
L 7.8125 69.390625 
Q 13.765625 71.78125 18.9375 73 
Q 24.125 74.21875 28.421875 74.21875 
Q 39.75 74.21875 46.484375 68.546875 
Q 53.21875 62.890625 53.21875 53.421875 
Q 53.21875 48.921875 51.53125 44.890625 
Q 49.859375 40.875 45.40625 35.40625 
Q 44.1875 33.984375 37.640625 27.21875 
Q 31.109375 20.453125 19.1875 8.296875 
z
" id="DejaVuSans-50"/>
      </defs>
      <g transform="translate(9.955313 159.406211)scale(0.1 -0.1)">
       <use xlink:href="#DejaVuSans-8722"/>
       <use x="83.789062" xlink:href="#DejaVuSans-50"/>
       <use x="147.412109" xlink:href="#DejaVuSans-53"/>
      </g>
     </g>
    </g>
    <g id="ytick_5">
     <g id="line2d_23">
      <path clip-path="url(#p213233a68d)" d="M 34.56 126.878251 
L 410.4 126.878251 
" style="fill:none;stroke:#cbcbcb;"/>
     </g>
     <g id="line2d_24"/>
     <g id="text_13">
      <!-- 0 -->
      <g transform="translate(24.6975 130.67747)scale(0.1 -0.1)">
       <use xlink:href="#DejaVuSans-48"/>
      </g>
     </g>
    </g>
    <g id="ytick_6">
     <g id="line2d_25">
      <path clip-path="url(#p213233a68d)" d="M 34.56 98.14951 
L 410.4 98.14951 
" style="fill:none;stroke:#cbcbcb;"/>
     </g>
     <g id="line2d_26"/>
     <g id="text_14">
      <!-- 25 -->
      <g transform="translate(18.335 101.948729)scale(0.1 -0.1)">
       <use xlink:href="#DejaVuSans-50"/>
       <use x="63.623047" xlink:href="#DejaVuSans-53"/>
      </g>
     </g>
    </g>
    <g id="ytick_7">
     <g id="line2d_27">
      <path clip-path="url(#p213233a68d)" d="M 34.56 69.420769 
L 410.4 69.420769 
" style="fill:none;stroke:#cbcbcb;"/>
     </g>
     <g id="line2d_28"/>
     <g id="text_15">
      <!-- 50 -->
      <g transform="translate(18.335 73.219988)scale(0.1 -0.1)">
       <use xlink:href="#DejaVuSans-53"/>
       <use x="63.623047" xlink:href="#DejaVuSans-48"/>
      </g>
     </g>
    </g>
    <g id="ytick_8">
     <g id="line2d_29">
      <path clip-path="url(#p213233a68d)" d="M 34.56 40.692028 
L 410.4 40.692028 
" style="fill:none;stroke:#cbcbcb;"/>
     </g>
     <g id="line2d_30"/>
     <g id="text_16">
      <!-- 75 -->
      <g transform="translate(18.335 44.491247)scale(0.1 -0.1)">
       <use xlink:href="#DejaVuSans-55"/>
       <use x="63.623047" xlink:href="#DejaVuSans-53"/>
      </g>
     </g>
    </g>
    <g id="text_17">
     <!-- Amplitude (µV) -->
     <defs>
      <path d="M 34.1875 63.1875 
L 20.796875 26.90625 
L 47.609375 26.90625 
z
M 28.609375 72.90625 
L 39.796875 72.90625 
L 67.578125 0 
L 57.328125 0 
L 50.6875 18.703125 
L 17.828125 18.703125 
L 11.1875 0 
L 0.78125 0 
z
" id="DejaVuSans-65"/>
      <path d="M 18.109375 8.203125 
L 18.109375 -20.796875 
L 9.078125 -20.796875 
L 9.078125 54.6875 
L 18.109375 54.6875 
L 18.109375 46.390625 
Q 20.953125 51.265625 25.265625 53.625 
Q 29.59375 56 35.59375 56 
Q 45.5625 56 51.78125 48.09375 
Q 58.015625 40.1875 58.015625 27.296875 
Q 58.015625 14.40625 51.78125 6.484375 
Q 45.5625 -1.421875 35.59375 -1.421875 
Q 29.59375 -1.421875 25.265625 0.953125 
Q 20.953125 3.328125 18.109375 8.203125 
z
M 48.6875 27.296875 
Q 48.6875 37.203125 44.609375 42.84375 
Q 40.53125 48.484375 33.40625 48.484375 
Q 26.265625 48.484375 22.1875 42.84375 
Q 18.109375 37.203125 18.109375 27.296875 
Q 18.109375 17.390625 22.1875 11.75 
Q 26.265625 6.109375 33.40625 6.109375 
Q 40.53125 6.109375 44.609375 11.75 
Q 48.6875 17.390625 48.6875 27.296875 
z
" id="DejaVuSans-112"/>
      <path d="M 9.421875 75.984375 
L 18.40625 75.984375 
L 18.40625 0 
L 9.421875 0 
z
" id="DejaVuSans-108"/>
      <path d="M 9.421875 54.6875 
L 18.40625 54.6875 
L 18.40625 0 
L 9.421875 0 
z
M 9.421875 75.984375 
L 18.40625 75.984375 
L 18.40625 64.59375 
L 9.421875 64.59375 
z
" id="DejaVuSans-105"/>
      <path d="M 8.5 21.578125 
L 8.5 54.6875 
L 17.484375 54.6875 
L 17.484375 21.921875 
Q 17.484375 14.15625 20.5 10.265625 
Q 23.53125 6.390625 29.59375 6.390625 
Q 36.859375 6.390625 41.078125 11.03125 
Q 45.3125 15.671875 45.3125 23.6875 
L 45.3125 54.6875 
L 54.296875 54.6875 
L 54.296875 0 
L 45.3125 0 
L 45.3125 8.40625 
Q 42.046875 3.421875 37.71875 1 
Q 33.40625 -1.421875 27.6875 -1.421875 
Q 18.265625 -1.421875 13.375 4.4375 
Q 8.5 10.296875 8.5 21.578125 
z
M 31.109375 56 
z
" id="DejaVuSans-117"/>
      <path d="M 45.40625 46.390625 
L 45.40625 75.984375 
L 54.390625 75.984375 
L 54.390625 0 
L 45.40625 0 
L 45.40625 8.203125 
Q 42.578125 3.328125 38.25 0.953125 
Q 33.9375 -1.421875 27.875 -1.421875 
Q 17.96875 -1.421875 11.734375 6.484375 
Q 5.515625 14.40625 5.515625 27.296875 
Q 5.515625 40.1875 11.734375 48.09375 
Q 17.96875 56 27.875 56 
Q 33.9375 56 38.25 53.625 
Q 42.578125 51.265625 45.40625 46.390625 
z
M 14.796875 27.296875 
Q 14.796875 17.390625 18.875 11.75 
Q 22.953125 6.109375 30.078125 6.109375 
Q 37.203125 6.109375 41.296875 11.75 
Q 45.40625 17.390625 45.40625 27.296875 
Q 45.40625 37.203125 41.296875 42.84375 
Q 37.203125 48.484375 30.078125 48.484375 
Q 22.953125 48.484375 18.875 42.84375 
Q 14.796875 37.203125 14.796875 27.296875 
z
" id="DejaVuSans-100"/>
      <path d="M 56.203125 29.59375 
L 56.203125 25.203125 
L 14.890625 25.203125 
Q 15.484375 15.921875 20.484375 11.0625 
Q 25.484375 6.203125 34.421875 6.203125 
Q 39.59375 6.203125 44.453125 7.46875 
Q 49.3125 8.734375 54.109375 11.28125 
L 54.109375 2.78125 
Q 49.265625 0.734375 44.1875 -0.34375 
Q 39.109375 -1.421875 33.890625 -1.421875 
Q 20.796875 -1.421875 13.15625 6.1875 
Q 5.515625 13.8125 5.515625 26.8125 
Q 5.515625 40.234375 12.765625 48.109375 
Q 20.015625 56 32.328125 56 
Q 43.359375 56 49.78125 48.890625 
Q 56.203125 41.796875 56.203125 29.59375 
z
M 47.21875 32.234375 
Q 47.125 39.59375 43.09375 43.984375 
Q 39.0625 48.390625 32.421875 48.390625 
Q 24.90625 48.390625 20.390625 44.140625 
Q 15.875 39.890625 15.1875 32.171875 
z
" id="DejaVuSans-101"/>
      <path d="M 8.5 -20.796875 
L 8.5 54.6875 
L 17.484375 54.6875 
L 17.484375 20.703125 
Q 17.484375 13.625 20.84375 10 
Q 24.21875 6.390625 30.8125 6.390625 
Q 38.03125 6.390625 41.671875 10.484375 
Q 45.3125 14.59375 45.3125 22.796875 
L 45.3125 54.6875 
L 54.296875 54.6875 
L 54.296875 12.59375 
Q 54.296875 9.671875 55.140625 8.28125 
Q 56 6.890625 57.8125 6.890625 
Q 58.25 6.890625 59.03125 7.15625 
Q 59.8125 7.421875 61.1875 8.015625 
L 61.1875 0.78125 
Q 59.1875 -0.34375 57.390625 -0.875 
Q 55.609375 -1.421875 53.90625 -1.421875 
Q 50.53125 -1.421875 48.53125 0.484375 
Q 46.53125 2.390625 45.796875 6.296875 
Q 43.359375 2.4375 39.8125 0.5 
Q 36.28125 -1.421875 31.5 -1.421875 
Q 26.515625 -1.421875 23.015625 0.484375 
Q 19.53125 2.390625 17.484375 6.203125 
L 17.484375 -20.796875 
z
" id="DejaVuSans-181"/>
      <path d="M 28.609375 0 
L 0.78125 72.90625 
L 11.078125 72.90625 
L 34.1875 11.53125 
L 57.328125 72.90625 
L 67.578125 72.90625 
L 39.796875 0 
z
" id="DejaVuSans-86"/>
     </defs>
     <g transform="translate(-3.734688 203.62375)rotate(-90)scale(0.16 -0.16)">
      <use xlink:href="#DejaVuSans-65"/>
      <use x="68.408203" xlink:href="#DejaVuSans-109"/>
      <use x="165.820312" xlink:href="#DejaVuSans-112"/>
      <use x="229.296875" xlink:href="#DejaVuSans-108"/>
      <use x="257.080078" xlink:href="#DejaVuSans-105"/>
      <use x="284.863281" xlink:href="#DejaVuSans-116"/>
      <use x="324.072266" xlink:href="#DejaVuSans-117"/>
      <use x="387.451172" xlink:href="#DejaVuSans-100"/>
      <use x="450.927734" xlink:href="#DejaVuSans-101"/>
      <use x="512.451172" xlink:href="#DejaVuSans-32"/>
      <use x="544.238281" xlink:href="#DejaVuSans-40"/>
      <use x="583.251953" xlink:href="#DejaVuSans-181"/>
      <use x="646.875" xlink:href="#DejaVuSans-86"/>
      <use x="715.283203" xlink:href="#DejaVuSans-41"/>
     </g>
    </g>
   </g>
   <g id="line2d_31">
    <path clip-path="url(#p213233a68d)" d="M -1 124.957217 
L -0.168707 124.409084 
L 1.114571 124.805062 
L 2.397849 125.530098 
L 3.681127 126.769457 
L 4.964405 126.22612 
L 6.247682 125.11881 
L 7.53096 125.149565 
L 8.814238 125.056159 
L 10.097516 125.383868 
L 11.380794 124.920731 
L 12.664072 124.655047 
L 13.94735 124.662663 
L 15.230627 125.424768 
L 16.513905 125.50981 
L 19.080461 124.87157 
L 20.363739 125.379689 
L 21.647017 124.857744 
L 22.930294 122.905202 
L 24.213572 123.154931 
L 25.49685 123.146986 
L 26.780128 123.264402 
L 28.063406 124.497912 
L 29.346684 124.796143 
L 30.629962 125.221265 
L 31.913239 124.839403 
L 33.196517 123.349025 
L 34.479795 123.412405 
L 35.763073 123.730435 
L 37.046351 124.566174 
L 38.329629 125.840931 
L 39.612907 124.536302 
L 40.896184 124.197991 
L 42.179462 124.648611 
L 43.46274 125.265298 
L 44.746018 126.945301 
L 46.029296 127.446777 
L 47.312574 126.155504 
L 48.595851 126.381727 
L 49.879129 126.307558 
L 51.162407 125.235652 
L 52.445685 124.820508 
L 55.012241 125.198319 
L 56.295519 125.911115 
L 57.578796 126.26228 
L 60.145352 124.509333 
L 61.42863 124.951582 
L 62.711908 125.186943 
L 63.995186 123.481074 
L 65.278464 123.353224 
L 66.561741 123.058081 
L 67.845019 123.116928 
L 69.128297 123.620468 
L 70.411575 123.365915 
L 71.694853 123.81749 
L 72.978131 124.754728 
L 74.261408 124.961778 
L 75.544686 123.916681 
L 76.827964 124.052264 
L 79.39452 125.994248 
L 80.677798 124.368159 
L 81.961076 123.895954 
L 83.244353 124.197707 
L 85.810909 126.34629 
L 87.094187 127.025364 
L 88.377465 126.282665 
L 89.660743 126.393735 
L 90.94402 126.332689 
L 92.227298 124.937272 
L 93.510576 124.593176 
L 94.793854 124.390943 
L 96.077132 124.769064 
L 97.36041 125.452169 
L 98.643688 125.868107 
L 99.926965 125.247531 
L 101.210243 124.815955 
L 102.493521 125.65277 
L 103.776799 126.064542 
L 105.060077 123.942322 
L 107.626633 123.587443 
L 108.90991 123.209451 
L 110.193188 123.038695 
L 111.476466 123.635475 
L 112.759744 124.013306 
L 114.043022 124.640853 
L 115.3263 124.49223 
L 116.609577 123.993494 
L 117.892855 124.898275 
L 119.176133 125.491908 
L 120.459411 126.477971 
L 121.742689 125.045776 
L 123.025967 124.535593 
L 124.309245 125.765511 
L 126.8758 126.474669 
L 128.159078 127.239676 
L 129.442356 127.043286 
L 130.725634 127.40938 
L 132.008912 128.341337 
L 133.29219 127.230705 
L 134.575467 126.746112 
L 135.858745 127.211442 
L 137.142023 128.128921 
L 138.425301 129.267676 
L 139.708579 129.978383 
L 140.991857 130.363946 
L 142.275134 131.204366 
L 143.558412 133.738797 
L 144.84169 136.653753 
L 146.124968 137.628705 
L 147.408246 139.882948 
L 148.691524 143.681101 
L 149.974802 146.663669 
L 151.258079 150.473443 
L 153.824635 162.298441 
L 157.674469 184.185933 
L 160.241024 202.016855 
L 161.524302 210.969878 
L 162.80758 217.345398 
L 165.374136 231.837578 
L 166.657414 236.554294 
L 167.940691 239.828477 
L 169.223969 242.116364 
L 170.507247 241.220618 
L 171.790525 238.745163 
L 173.073803 234.009358 
L 174.357081 223.803227 
L 175.640359 214.714305 
L 178.206914 193.471695 
L 179.490192 181.31016 
L 183.340026 139.189757 
L 184.623303 126.671549 
L 185.906581 115.288208 
L 187.189859 102.406221 
L 188.473137 91.325922 
L 192.322971 64.578554 
L 194.889526 53.780436 
L 196.172804 50.460588 
L 197.456082 49.279418 
L 198.73936 46.478969 
L 200.022638 45.249323 
L 201.305915 44.443636 
L 203.872471 47.900176 
L 205.155749 50.691087 
L 206.439027 55.23074 
L 207.722305 58.389757 
L 209.005583 62.803753 
L 210.28886 70.448942 
L 211.572138 76.675421 
L 212.855416 84.863553 
L 214.138694 94.290503 
L 215.421972 102.086224 
L 217.988528 122.248686 
L 219.271805 133.02909 
L 221.838361 151.801462 
L 223.121639 159.822606 
L 224.404917 166.70275 
L 225.688195 172.660811 
L 226.971472 177.300932 
L 228.25475 179.208931 
L 229.538028 179.331326 
L 230.821306 179.823174 
L 232.104584 177.310702 
L 233.387862 172.948015 
L 234.67114 170.094271 
L 235.954417 165.111536 
L 238.520973 157.107121 
L 239.804251 150.857852 
L 243.654085 136.115053 
L 244.937362 130.699736 
L 246.22064 126.344826 
L 247.503918 122.992108 
L 248.787196 117.903875 
L 250.070474 113.567802 
L 251.353752 110.651827 
L 252.637029 107.114088 
L 253.920307 104.218362 
L 255.203585 102.585353 
L 256.486863 97.903959 
L 257.770141 94.619251 
L 259.053419 92.481451 
L 260.336697 89.958409 
L 264.18653 80.55109 
L 265.469808 78.690859 
L 266.753086 77.555044 
L 269.319641 75.724123 
L 270.602919 73.710587 
L 271.886197 74.009909 
L 273.169475 72.853516 
L 274.452753 70.862364 
L 275.736031 71.463535 
L 277.019309 71.450721 
L 278.302586 72.782545 
L 279.585864 74.685959 
L 282.15242 75.969906 
L 283.435698 76.071876 
L 284.718976 76.75413 
L 286.002254 77.654023 
L 287.285531 79.123248 
L 288.568809 81.193528 
L 289.852087 81.048433 
L 291.135365 81.351243 
L 292.418643 82.516884 
L 294.985198 85.747995 
L 296.268476 88.340833 
L 297.551754 87.876457 
L 298.835032 88.782844 
L 300.11831 90.255842 
L 303.968143 90.148828 
L 305.251421 90.396886 
L 306.534699 91.038802 
L 307.817977 92.454197 
L 309.101255 92.999617 
L 310.384533 92.281269 
L 311.66781 92.088781 
L 312.951088 94.254196 
L 314.234366 95.029559 
L 315.517644 94.276509 
L 316.800922 95.705912 
L 318.0842 95.58364 
L 319.367478 96.794585 
L 320.650755 99.489523 
L 323.217311 100.520407 
L 324.500589 100.559603 
L 325.783867 100.772831 
L 327.067145 101.45335 
L 328.350423 102.688382 
L 329.6337 104.76473 
L 330.916978 104.434776 
L 332.200256 104.37729 
L 333.483534 106.206096 
L 334.766812 107.315367 
L 336.05009 108.004527 
L 337.333367 109.900079 
L 338.616645 110.199349 
L 339.899923 110.664608 
L 341.183201 112.295064 
L 342.466479 112.149292 
L 343.749757 111.058794 
L 345.033035 111.288306 
L 346.316312 111.75915 
L 347.59959 112.960892 
L 348.882868 114.405534 
L 350.166146 114.659519 
L 351.449424 114.757878 
L 352.732702 113.726079 
L 354.01598 115.369264 
L 355.299257 115.506891 
L 356.582535 114.196497 
L 357.865813 115.296701 
L 359.149091 114.681703 
L 360.432369 115.000049 
L 361.715647 115.95272 
L 362.998924 116.659944 
L 364.282202 117.031745 
L 365.56548 117.535801 
L 366.848758 117.772207 
L 368.132036 117.424061 
L 369.415314 117.599343 
L 370.698592 117.641796 
L 371.981869 116.520473 
L 373.265147 116.521917 
L 374.548425 117.835149 
L 375.831703 117.94057 
L 377.114981 117.633464 
L 378.398259 118.74714 
L 380.964814 118.181818 
L 382.248092 119.399135 
L 383.53137 118.763681 
L 384.814648 117.536711 
L 386.097926 117.657951 
L 388.664481 118.718294 
L 391.231037 120.11244 
L 392.514315 119.347472 
L 393.797593 119.110125 
L 395.080871 119.556334 
L 396.364149 119.581924 
L 397.647426 119.081556 
L 398.930704 119.741735 
L 400.213982 119.427517 
L 401.49726 119.434926 
L 402.780538 121.463172 
L 404.063816 122.202744 
L 405.347093 122.043823 
L 406.630371 123.056643 
L 407.913649 123.332368 
L 409.196927 123.231899 
L 410.480205 124.195379 
L 411.763483 124.716022 
L 413.046761 124.125137 
L 414.330038 124.003851 
L 415.613316 125.16955 
L 416.896594 125.918383 
L 418.179872 125.811982 
L 419.46315 127.017967 
L 420.746428 127.703568 
L 422.029706 127.404737 
L 423.312983 128.685452 
L 424.596261 127.489044 
L 425.879539 125.266975 
L 427.162817 125.899868 
L 428.446095 125.954117 
L 429.729373 126.610742 
L 431.01265 127.77074 
L 432.295928 127.759957 
L 433 127.150573 
L 433 127.150573 
" style="fill:none;stroke:#008fd5;stroke-width:3;"/>
   </g>
   <g id="line2d_32">
    <path clip-path="url(#p213233a68d)" d="M -1 126.838167 
L -0.168707 126.444959 
L 1.114571 125.981022 
L 2.397849 126.638273 
L 3.681127 126.654492 
L 4.964405 126.094355 
L 6.247682 125.90789 
L 7.53096 125.215448 
L 8.814238 125.623008 
L 10.097516 124.874717 
L 11.380794 124.447578 
L 12.664072 124.520683 
L 13.94735 124.862406 
L 15.230627 123.818631 
L 16.513905 123.73386 
L 19.080461 123.82045 
L 21.647017 124.369849 
L 22.930294 125.672162 
L 24.213572 124.971136 
L 25.49685 123.735801 
L 26.780128 123.752878 
L 28.063406 124.663701 
L 29.346684 125.849334 
L 30.629962 126.504741 
L 31.913239 126.335056 
L 33.196517 127.207831 
L 34.479795 126.674787 
L 35.763073 126.417661 
L 37.046351 126.787521 
L 38.329629 127.976223 
L 40.896184 126.364102 
L 42.179462 125.986226 
L 43.46274 126.422826 
L 44.746018 126.51455 
L 46.029296 125.955226 
L 47.312574 125.801586 
L 49.879129 126.143948 
L 51.162407 124.708947 
L 52.445685 124.12386 
L 53.728963 123.90949 
L 55.012241 124.193618 
L 56.295519 123.141556 
L 57.578796 123.695166 
L 60.145352 123.664669 
L 61.42863 122.990393 
L 62.711908 122.864071 
L 63.995186 124.480358 
L 65.278464 124.505496 
L 66.561741 123.65931 
L 67.845019 123.048124 
L 70.411575 125.639137 
L 71.694853 125.592389 
L 72.978131 125.718349 
L 74.261408 126.289462 
L 75.544686 125.19819 
L 76.827964 125.44485 
L 79.39452 127.133984 
L 80.677798 126.088042 
L 81.961076 125.940542 
L 83.244353 125.472419 
L 84.527631 126.913256 
L 85.810909 126.243049 
L 87.094187 125.716699 
L 88.377465 125.820939 
L 89.660743 125.752955 
L 90.94402 125.401029 
L 92.227298 124.731583 
L 93.510576 123.242392 
L 94.793854 123.209838 
L 96.077132 124.054347 
L 97.36041 123.379967 
L 98.643688 124.605945 
L 99.926965 123.680933 
L 101.210243 123.696759 
L 102.493521 122.30692 
L 103.776799 123.080968 
L 105.060077 125.050658 
L 106.343355 124.69494 
L 107.626633 124.024308 
L 108.90991 124.230945 
L 111.476466 125.760384 
L 112.759744 126.038488 
L 114.043022 126.044453 
L 115.3263 126.630295 
L 116.609577 126.488231 
L 117.892855 125.526719 
L 119.176133 125.346239 
L 120.459411 126.867339 
L 121.742689 126.572571 
L 123.025967 127.454155 
L 124.309245 127.328994 
L 125.592522 128.818198 
L 126.8758 128.452794 
L 128.159078 127.761112 
L 129.442356 127.789197 
L 130.725634 128.463641 
L 132.008912 127.930655 
L 133.29219 127.703168 
L 134.575467 126.16403 
L 135.858745 125.843852 
L 137.142023 127.378638 
L 138.425301 127.528092 
L 139.708579 129.100507 
L 140.991857 129.42554 
L 142.275134 130.423908 
L 143.558412 130.676791 
L 144.84169 132.229182 
L 146.124968 136.286512 
L 147.408246 139.344913 
L 148.691524 141.417018 
L 149.974802 145.006231 
L 152.541357 155.342896 
L 153.824635 160.826107 
L 155.107913 167.411979 
L 157.674469 182.26888 
L 160.241024 197.51903 
L 161.524302 206.213617 
L 162.80758 213.832372 
L 164.090858 222.251184 
L 166.657414 234.670433 
L 167.940691 237.683847 
L 169.223969 239.236889 
L 170.507247 239.045252 
L 171.790525 237.742487 
L 173.073803 233.133572 
L 174.357081 225.737924 
L 178.206914 196.992164 
L 182.056748 159.530546 
L 183.340026 145.852024 
L 184.623303 130.782373 
L 185.906581 119.141635 
L 188.473137 97.762753 
L 189.756415 86.953387 
L 191.039693 77.922776 
L 192.322971 70.518468 
L 193.606248 64.083598 
L 194.889526 58.465809 
L 196.172804 54.444955 
L 197.456082 50.95392 
L 200.022638 46.748207 
L 201.305915 46.277717 
L 202.589193 47.451251 
L 203.872471 47.97105 
L 206.439027 53.869541 
L 207.722305 59.357338 
L 209.005583 63.153389 
L 210.28886 67.866821 
L 211.572138 74.23944 
L 212.855416 81.994339 
L 214.138694 89.059549 
L 216.70525 105.646624 
L 220.555083 137.127364 
L 221.838361 148.347141 
L 223.121639 157.438888 
L 224.404917 164.669616 
L 225.688195 169.458457 
L 226.971472 175.409617 
L 228.25475 180.341005 
L 229.538028 182.334497 
L 230.821306 181.512927 
L 232.104584 180.193815 
L 233.387862 178.097003 
L 234.67114 174.56358 
L 237.237695 165.899527 
L 239.804251 155.464084 
L 241.087529 148.77953 
L 242.370807 142.728263 
L 244.937362 133.288718 
L 246.22064 129.758358 
L 247.503918 125.650055 
L 248.787196 122.391105 
L 250.070474 118.209085 
L 252.637029 110.69666 
L 253.920307 108.081843 
L 255.203585 103.670137 
L 259.053419 93.183851 
L 261.619974 87.465794 
L 262.903252 85.730389 
L 264.18653 83.239934 
L 266.753086 76.945483 
L 268.036364 75.426401 
L 269.319641 74.989704 
L 270.602919 74.897142 
L 271.886197 73.146195 
L 273.169475 72.448038 
L 274.452753 73.069265 
L 275.736031 73.122482 
L 277.019309 73.505369 
L 278.302586 74.680393 
L 279.585864 75.098195 
L 280.869142 76.496295 
L 282.15242 76.740516 
L 283.435698 77.765989 
L 284.718976 79.068774 
L 286.002254 79.749215 
L 288.568809 81.670569 
L 289.852087 83.375517 
L 291.135365 83.959598 
L 292.418643 84.859561 
L 293.701921 85.246898 
L 294.985198 86.836506 
L 296.268476 86.716401 
L 297.551754 87.330521 
L 298.835032 88.205263 
L 300.11831 88.850048 
L 301.401588 89.06118 
L 302.684866 89.854349 
L 303.968143 90.906721 
L 305.251421 91.564907 
L 306.534699 91.278096 
L 307.817977 90.218483 
L 309.101255 90.976808 
L 311.66781 93.491717 
L 312.951088 93.003474 
L 314.234366 94.031313 
L 315.517644 95.450243 
L 318.0842 96.375977 
L 319.367478 97.805838 
L 320.650755 99.05656 
L 321.934033 99.625157 
L 323.217311 100.035123 
L 324.500589 101.165321 
L 325.783867 102.070076 
L 328.350423 104.259094 
L 329.6337 105.676579 
L 330.916978 107.485206 
L 332.200256 107.956244 
L 333.483534 108.64365 
L 334.766812 108.548489 
L 336.05009 109.276672 
L 337.333367 109.244969 
L 338.616645 109.880339 
L 341.183201 111.838362 
L 342.466479 111.343767 
L 343.749757 110.642843 
L 345.033035 111.001927 
L 346.316312 112.251385 
L 347.59959 112.287003 
L 348.882868 112.537093 
L 350.166146 113.589155 
L 352.732702 115.236307 
L 354.01598 113.517868 
L 355.299257 114.316261 
L 356.582535 115.780598 
L 357.865813 116.210627 
L 359.149091 116.34065 
L 360.432369 117.36159 
L 361.715647 117.864749 
L 362.998924 118.136824 
L 364.282202 117.752415 
L 365.56548 118.450398 
L 366.848758 119.487543 
L 369.415314 119.000487 
L 370.698592 119.452055 
L 371.981869 119.435526 
L 373.265147 119.088786 
L 375.831703 119.024193 
L 377.114981 119.943742 
L 378.398259 117.988763 
L 379.681536 117.643215 
L 380.964814 118.304432 
L 382.248092 118.454293 
L 383.53137 117.521104 
L 384.814648 117.09559 
L 386.097926 116.958627 
L 387.381204 118.144369 
L 388.664481 118.395704 
L 389.947759 118.035788 
L 391.231037 119.335845 
L 393.797593 120.152198 
L 395.080871 118.224311 
L 396.364149 118.721447 
L 397.647426 119.990478 
L 398.930704 120.426362 
L 400.213982 120.342203 
L 401.49726 121.405306 
L 404.063816 122.381696 
L 405.347093 122.690214 
L 406.630371 123.742469 
L 407.913649 125.258565 
L 409.196927 125.910909 
L 410.480205 125.5652 
L 411.763483 126.220955 
L 414.330038 127.019715 
L 415.613316 128.157438 
L 416.896594 128.371789 
L 418.179872 129.225055 
L 419.46315 128.095322 
L 420.746428 127.177759 
L 422.029706 127.879489 
L 423.312983 128.384577 
L 424.596261 127.001206 
L 425.879539 126.398468 
L 427.162817 125.087488 
L 431.01265 126.148636 
L 432.295928 126.423323 
L 433 126.435484 
L 433 126.435484 
" style="fill:none;stroke:#fc4f30;stroke-width:3;"/>
   </g>
   <g id="line2d_33">
    <path clip-path="url(#p213233a68d)" d="M -1 124.835593 
L -0.168707 125.213094 
L 1.114571 126.284361 
L 2.397849 126.384178 
L 3.681127 125.00923 
L 4.964405 124.326331 
L 6.247682 124.131605 
L 7.53096 123.233486 
L 8.814238 123.53213 
L 10.097516 123.181004 
L 12.664072 125.041494 
L 13.94735 125.278692 
L 15.230627 124.456961 
L 16.513905 124.181578 
L 17.797183 125.523533 
L 19.080461 126.015975 
L 20.363739 125.320765 
L 21.647017 125.612716 
L 22.930294 126.317025 
L 24.213572 126.029627 
L 25.49685 126.573906 
L 26.780128 126.726165 
L 28.063406 126.692921 
L 29.346684 127.490301 
L 30.629962 127.244229 
L 31.913239 125.948745 
L 33.196517 126.312401 
L 34.479795 125.692812 
L 35.763073 124.633553 
L 37.046351 123.756186 
L 38.329629 124.840196 
L 39.612907 124.505967 
L 40.896184 124.442844 
L 42.179462 125.359627 
L 43.46274 125.58752 
L 44.746018 124.702466 
L 46.029296 124.593956 
L 47.312574 124.335063 
L 48.595851 123.785555 
L 49.879129 124.102482 
L 51.162407 123.76477 
L 52.445685 124.603874 
L 53.728963 125.114135 
L 56.295519 124.29426 
L 57.578796 124.428773 
L 58.862074 125.77265 
L 60.145352 125.97138 
L 61.42863 124.233989 
L 62.711908 125.160644 
L 63.995186 126.307648 
L 65.278464 125.787269 
L 67.845019 125.9874 
L 69.128297 126.377193 
L 70.411575 126.106673 
L 71.694853 126.521192 
L 72.978131 126.048458 
L 74.261408 125.981125 
L 75.544686 125.605783 
L 76.827964 123.758572 
L 78.111242 123.15784 
L 79.39452 124.382314 
L 81.961076 124.415604 
L 83.244353 125.564639 
L 84.527631 126.129141 
L 85.810909 125.397405 
L 87.094187 125.125743 
L 89.660743 123.785677 
L 92.227298 123.307694 
L 93.510576 123.767336 
L 94.793854 123.512467 
L 96.077132 124.007386 
L 97.36041 123.80347 
L 98.643688 123.961585 
L 99.926965 125.142168 
L 101.210243 125.26602 
L 102.493521 124.054263 
L 103.776799 124.580465 
L 105.060077 125.815696 
L 106.343355 125.182377 
L 107.626633 125.401287 
L 108.90991 125.44897 
L 110.193188 125.290036 
L 112.759744 125.458915 
L 114.043022 125.807996 
L 115.3263 126.427037 
L 116.609577 126.031652 
L 117.892855 124.442754 
L 119.176133 124.144793 
L 120.459411 125.630579 
L 121.742689 125.611581 
L 123.025967 125.18014 
L 124.309245 126.266536 
L 125.592522 127.060975 
L 126.8758 125.718046 
L 128.159078 125.885751 
L 130.725634 125.383275 
L 133.29219 126.647836 
L 135.858745 126.516555 
L 137.142023 127.180971 
L 138.425301 127.470451 
L 139.708579 128.870512 
L 140.991857 131.779329 
L 142.275134 132.565901 
L 143.558412 132.05626 
L 144.84169 133.745149 
L 146.124968 137.235191 
L 147.408246 139.212393 
L 148.691524 142.885617 
L 149.974802 147.141059 
L 151.258079 150.950343 
L 153.824635 160.237679 
L 155.107913 165.898695 
L 157.674469 180.005189 
L 158.957746 185.993115 
L 160.241024 193.646482 
L 161.524302 202.155056 
L 162.80758 209.892587 
L 166.657414 230.408549 
L 167.940691 233.529879 
L 169.223969 236.107891 
L 170.507247 236.404769 
L 171.790525 234.323177 
L 173.073803 229.820741 
L 174.357081 224.807612 
L 175.640359 217.660358 
L 176.923636 208.438795 
L 178.206914 198.338414 
L 179.490192 185.827893 
L 183.340026 151.82039 
L 184.623303 137.474253 
L 185.906581 125.125362 
L 189.756415 92.838845 
L 191.039693 83.544731 
L 193.606248 67.48338 
L 194.889526 61.755069 
L 196.172804 57.133018 
L 197.456082 53.287182 
L 200.022638 47.138471 
L 201.305915 46.253217 
L 202.589193 46.475545 
L 203.872471 46.852389 
L 205.155749 47.970024 
L 209.005583 59.217073 
L 210.28886 64.730872 
L 211.572138 70.812372 
L 214.138694 83.951859 
L 216.70525 101.913786 
L 217.988528 110.493047 
L 219.271805 122.115019 
L 220.555083 132.492989 
L 223.121639 155.726711 
L 224.404917 164.633096 
L 225.688195 171.441915 
L 228.25475 182.442885 
L 229.538028 184.091623 
L 230.821306 184.941607 
L 232.104584 184.584903 
L 233.387862 181.604012 
L 234.67114 177.347107 
L 238.520973 161.376338 
L 242.370807 142.131148 
L 246.22064 126.81865 
L 248.787196 119.951642 
L 250.070474 116.016391 
L 251.353752 113.021364 
L 252.637029 110.440649 
L 253.920307 107.242435 
L 255.203585 102.500105 
L 256.486863 100.032821 
L 257.770141 96.438313 
L 261.619974 87.398319 
L 262.903252 86.014633 
L 264.18653 85.552753 
L 265.469808 83.094678 
L 266.753086 79.961837 
L 268.036364 78.146058 
L 269.319641 77.500505 
L 270.602919 76.146013 
L 271.886197 75.565292 
L 273.169475 75.704576 
L 274.452753 74.345525 
L 275.736031 73.973743 
L 277.019309 73.178259 
L 278.302586 73.737383 
L 279.585864 74.664819 
L 280.869142 75.314841 
L 282.15242 76.544313 
L 283.435698 77.593964 
L 284.718976 78.828711 
L 286.002254 78.822869 
L 287.285531 78.157634 
L 288.568809 78.953312 
L 289.852087 80.537238 
L 292.418643 82.419796 
L 293.701921 84.292286 
L 294.985198 85.147101 
L 296.268476 84.564367 
L 297.551754 86.125277 
L 298.835032 86.232949 
L 300.11831 86.803584 
L 301.401588 87.79678 
L 302.684866 88.209429 
L 305.251421 91.707803 
L 306.534699 91.706545 
L 307.817977 92.037512 
L 309.101255 92.654186 
L 310.384533 94.8607 
L 311.66781 94.846377 
L 312.951088 94.59757 
L 314.234366 95.461252 
L 315.517644 95.710671 
L 318.0842 96.632652 
L 320.650755 99.618695 
L 321.934033 100.504284 
L 323.217311 100.721936 
L 324.500589 101.502497 
L 325.783867 102.463223 
L 327.067145 102.631283 
L 328.350423 101.499099 
L 330.916978 103.748415 
L 332.200256 104.54415 
L 333.483534 105.800412 
L 334.766812 107.634996 
L 336.05009 108.264245 
L 337.333367 107.456121 
L 338.616645 108.939399 
L 339.899923 109.139851 
L 341.183201 109.10199 
L 342.466479 109.4208 
L 343.749757 109.87498 
L 347.59959 113.699258 
L 348.882868 113.938539 
L 350.166146 114.765146 
L 351.449424 116.540606 
L 352.732702 116.523658 
L 354.01598 115.833112 
L 355.299257 116.707853 
L 356.582535 117.301208 
L 357.865813 117.350794 
L 359.149091 116.986609 
L 360.432369 116.895066 
L 361.715647 117.631072 
L 362.998924 117.660808 
L 364.282202 118.403204 
L 365.56548 118.883877 
L 368.132036 118.559733 
L 369.415314 116.470706 
L 371.981869 116.977722 
L 373.265147 117.608526 
L 374.548425 117.075276 
L 375.831703 117.926369 
L 377.114981 117.728677 
L 378.398259 115.991285 
L 379.681536 117.054149 
L 380.964814 117.11179 
L 382.248092 116.737789 
L 383.53137 115.782603 
L 384.814648 116.430503 
L 386.097926 117.367194 
L 387.381204 117.978077 
L 389.947759 118.62194 
L 391.231037 119.344564 
L 392.514315 121.30458 
L 395.080871 120.615258 
L 396.364149 121.279629 
L 397.647426 121.682772 
L 398.930704 121.501286 
L 400.213982 121.785188 
L 401.49726 122.381219 
L 402.780538 122.552787 
L 404.063816 123.471084 
L 405.347093 123.712888 
L 406.630371 124.611065 
L 407.913649 124.513621 
L 409.196927 124.821997 
L 410.480205 123.676729 
L 411.763483 123.768381 
L 413.046761 124.607608 
L 414.330038 125.12266 
L 415.613316 124.689562 
L 416.896594 125.712849 
L 418.179872 126.002909 
L 419.46315 123.883327 
L 420.746428 125.190955 
L 422.029706 125.708212 
L 423.312983 125.360736 
L 424.596261 124.870842 
L 428.446095 126.051476 
L 431.01265 126.330954 
L 432.295928 127.533296 
L 433 128.631872 
L 433 128.631872 
" style="fill:none;stroke:#e5ae38;stroke-width:3;"/>
   </g>
   <g id="line2d_34">
    <path clip-path="url(#p213233a68d)" d="M -1 124.180184 
L -0.168707 124.8397 
L 1.114571 125.022953 
L 2.397849 124.746151 
L 3.681127 124.31224 
L 4.964405 124.823242 
L 6.247682 125.682229 
L 7.53096 124.856028 
L 8.814238 124.409613 
L 10.097516 124.647972 
L 11.380794 123.974734 
L 12.664072 124.385462 
L 13.94735 126.029124 
L 15.230627 126.131347 
L 16.513905 125.761719 
L 17.797183 126.466382 
L 19.080461 127.575827 
L 20.363739 128.010983 
L 21.647017 128.207418 
L 22.930294 126.422078 
L 24.213572 125.001278 
L 25.49685 125.540455 
L 26.780128 125.801464 
L 28.063406 125.493172 
L 29.346684 125.893632 
L 30.629962 125.81391 
L 31.913239 125.161715 
L 33.196517 125.822887 
L 34.479795 127.03271 
L 35.763073 125.855815 
L 37.046351 123.842783 
L 38.329629 124.205968 
L 39.612907 123.908207 
L 40.896184 124.523688 
L 42.179462 124.133533 
L 43.46274 124.563033 
L 44.746018 123.955858 
L 46.029296 124.519561 
L 47.312574 125.611374 
L 48.595851 124.251755 
L 49.879129 123.853539 
L 51.162407 124.406092 
L 52.445685 123.367244 
L 53.728963 123.516408 
L 55.012241 125.086127 
L 56.295519 125.541248 
L 57.578796 125.63125 
L 60.145352 127.12008 
L 61.42863 127.187052 
L 62.711908 127.513775 
L 63.995186 125.926947 
L 65.278464 124.789604 
L 67.845019 125.762738 
L 69.128297 125.300129 
L 70.411575 125.449886 
L 71.694853 125.931513 
L 72.978131 124.835643 
L 74.261408 125.732744 
L 75.544686 127.151828 
L 78.111242 124.851456 
L 79.39452 124.701653 
L 80.677798 123.946701 
L 81.961076 123.918603 
L 83.244353 123.762158 
L 84.527631 124.785715 
L 85.810909 124.300877 
L 87.094187 125.253129 
L 88.377465 125.747634 
L 89.660743 124.409471 
L 90.94402 123.450454 
L 92.227298 123.8859 
L 93.510576 124.154486 
L 94.793854 124.785793 
L 96.077132 126.126807 
L 97.36041 126.27904 
L 98.643688 125.280202 
L 99.926965 125.400584 
L 103.776799 127.643818 
L 105.060077 126.362399 
L 106.343355 125.259036 
L 107.626633 125.241456 
L 108.90991 125.76947 
L 110.193188 125.246319 
L 111.476466 125.139492 
L 112.759744 125.357118 
L 114.043022 125.765981 
L 115.3263 126.747086 
L 116.609577 127.254038 
L 119.176133 124.653583 
L 120.459411 125.173774 
L 121.742689 125.844684 
L 123.025967 125.047407 
L 124.309245 124.511268 
L 125.592522 124.86792 
L 126.8758 124.562053 
L 128.159078 125.804424 
L 129.442356 126.653653 
L 132.008912 125.268245 
L 133.29219 126.063523 
L 134.575467 126.675186 
L 135.858745 126.725894 
L 137.142023 128.775125 
L 138.425301 129.570738 
L 139.708579 129.153098 
L 140.991857 131.082539 
L 142.275134 133.287938 
L 144.84169 136.33495 
L 146.124968 137.125546 
L 147.408246 139.018563 
L 148.691524 142.159782 
L 149.974802 145.873834 
L 151.258079 149.19799 
L 152.541357 153.152762 
L 153.824635 158.113557 
L 155.107913 164.123029 
L 158.957746 183.969377 
L 160.241024 190.101489 
L 162.80758 204.461496 
L 166.657414 222.405372 
L 169.223969 230.012146 
L 170.507247 232.090242 
L 171.790525 230.871797 
L 174.357081 224.027734 
L 175.640359 217.852576 
L 178.206914 201.818846 
L 179.490192 192.081715 
L 180.77347 179.881408 
L 183.340026 157.189249 
L 185.906581 132.835925 
L 187.189859 120.894452 
L 189.756415 99.824404 
L 193.606248 73.844139 
L 194.889526 67.728259 
L 196.172804 62.475217 
L 197.456082 58.648057 
L 200.022638 52.272111 
L 201.305915 50.116834 
L 202.589193 49.414389 
L 203.872471 49.76692 
L 205.155749 48.672443 
L 206.439027 50.224234 
L 207.722305 54.668669 
L 209.005583 58.589674 
L 210.28886 64.348533 
L 212.855416 74.791367 
L 214.138694 81.205136 
L 217.988528 108.33136 
L 220.555083 129.709752 
L 221.838361 138.788807 
L 224.404917 159.105986 
L 225.688195 168.188691 
L 226.971472 175.443861 
L 228.25475 180.753467 
L 229.538028 184.534556 
L 230.821306 185.777456 
L 232.104584 185.837295 
L 233.387862 182.724117 
L 237.237695 169.543995 
L 241.087529 149.786849 
L 242.370807 142.300988 
L 243.654085 137.527715 
L 244.937362 133.794554 
L 246.22064 127.674786 
L 247.503918 122.679921 
L 250.070474 115.800873 
L 251.353752 113.21322 
L 252.637029 111.025305 
L 253.920307 107.930557 
L 255.203585 105.229177 
L 256.486863 103.449848 
L 257.770141 100.388403 
L 259.053419 96.843429 
L 260.336697 94.653444 
L 261.619974 92.746432 
L 262.903252 88.92009 
L 265.469808 85.44214 
L 266.753086 82.55612 
L 268.036364 80.114238 
L 269.319641 79.345917 
L 270.602919 78.197204 
L 271.886197 77.328641 
L 273.169475 77.431624 
L 274.452753 75.195658 
L 275.736031 73.946677 
L 277.019309 74.557012 
L 278.302586 75.304916 
L 279.585864 74.859738 
L 280.869142 75.364943 
L 282.15242 75.705899 
L 283.435698 75.648387 
L 286.002254 77.99443 
L 287.285531 76.13496 
L 288.568809 76.325017 
L 289.852087 78.168178 
L 292.418643 81.054128 
L 293.701921 82.037418 
L 294.985198 82.532639 
L 296.268476 83.456348 
L 297.551754 86.041531 
L 298.835032 87.197892 
L 300.11831 86.99704 
L 301.401588 87.968406 
L 302.684866 89.119208 
L 303.968143 88.217561 
L 305.251421 89.71878 
L 306.534699 90.860766 
L 309.101255 90.947704 
L 310.384533 92.110843 
L 311.66781 93.432026 
L 312.951088 94.251494 
L 314.234366 96.32209 
L 316.800922 95.777644 
L 319.367478 98.654842 
L 320.650755 98.36983 
L 324.500589 99.650353 
L 325.783867 101.088604 
L 327.067145 103.184441 
L 328.350423 102.078711 
L 329.6337 102.046705 
L 330.916978 102.931436 
L 333.483534 104.287708 
L 336.05009 106.939883 
L 337.333367 107.888136 
L 338.616645 109.92325 
L 339.899923 110.428964 
L 341.183201 109.914112 
L 342.466479 110.675875 
L 343.749757 111.811109 
L 345.033035 111.336963 
L 346.316312 112.816158 
L 347.59959 113.723377 
L 348.882868 113.954959 
L 350.166146 114.006737 
L 351.449424 115.63667 
L 352.732702 116.411756 
L 354.01598 116.809108 
L 355.299257 117.670688 
L 357.865813 116.916135 
L 359.149091 117.216417 
L 360.432369 118.474504 
L 361.715647 117.368864 
L 362.998924 117.511115 
L 364.282202 117.875339 
L 365.56548 117.699256 
L 366.848758 118.770188 
L 368.132036 119.332053 
L 369.415314 117.206725 
L 370.698592 116.299441 
L 373.265147 115.976852 
L 374.548425 115.30956 
L 375.831703 115.825347 
L 377.114981 115.772865 
L 378.398259 116.351214 
L 379.681536 118.12412 
L 380.964814 117.804374 
L 382.248092 117.004505 
L 383.53137 116.633587 
L 384.814648 117.104206 
L 386.097926 116.56479 
L 387.381204 117.900193 
L 388.664481 118.96979 
L 389.947759 118.89967 
L 391.231037 118.516209 
L 392.514315 119.235854 
L 396.364149 122.76337 
L 397.647426 123.261765 
L 398.930704 122.827054 
L 400.213982 123.196746 
L 401.49726 123.390647 
L 402.780538 122.304831 
L 404.063816 122.513867 
L 405.347093 123.241418 
L 406.630371 123.825712 
L 407.913649 124.945598 
L 409.196927 126.368636 
L 410.480205 124.167842 
L 411.763483 123.399927 
L 413.046761 124.275094 
L 414.330038 124.78972 
L 415.613316 124.107312 
L 416.896594 123.993527 
L 418.179872 123.157375 
L 419.46315 123.920924 
L 420.746428 126.397946 
L 422.029706 126.487103 
L 423.312983 125.83187 
L 424.596261 125.806539 
L 425.879539 126.599224 
L 427.162817 125.699402 
L 428.446095 126.286263 
L 429.729373 126.524842 
L 431.01265 126.227417 
L 432.295928 126.705309 
L 433 127.426696 
L 433 127.426696 
" style="fill:none;stroke:#6d904f;stroke-width:3;"/>
   </g>
   <g id="line2d_35">
    <path clip-path="url(#p213233a68d)" d="M -1 127.575298 
L -0.168707 127.320346 
L 1.114571 127.152486 
L 2.397849 126.65237 
L 3.681127 126.44432 
L 4.964405 124.567174 
L 6.247682 124.512564 
L 7.53096 124.670415 
L 8.814238 124.527545 
L 10.097516 124.036909 
L 11.380794 124.538295 
L 12.664072 125.197094 
L 13.94735 124.426193 
L 15.230627 124.113941 
L 16.513905 123.241225 
L 17.797183 123.398663 
L 19.080461 123.18655 
L 20.363739 123.709683 
L 21.647017 123.208806 
L 22.930294 124.026848 
L 25.49685 125.182958 
L 26.780128 124.581974 
L 28.063406 125.522875 
L 30.629962 125.291919 
L 31.913239 126.362509 
L 33.196517 126.116927 
L 34.479795 124.638776 
L 35.763073 124.136481 
L 37.046351 125.142213 
L 38.329629 125.634687 
L 39.612907 126.492881 
L 40.896184 126.194798 
L 42.179462 126.896888 
L 43.46274 127.300451 
L 44.746018 127.187994 
L 46.029296 125.383327 
L 47.312574 125.648598 
L 48.595851 125.20936 
L 49.879129 124.546272 
L 51.162407 123.489516 
L 52.445685 124.452427 
L 53.728963 124.747963 
L 55.012241 123.994926 
L 56.295519 124.088288 
L 57.578796 124.565361 
L 58.862074 124.59551 
L 60.145352 123.88768 
L 61.42863 123.388912 
L 62.711908 122.744165 
L 63.995186 123.549433 
L 65.278464 123.830955 
L 66.561741 124.432036 
L 67.845019 124.1442 
L 69.128297 124.784722 
L 70.411575 125.038953 
L 71.694853 124.813717 
L 72.978131 126.179146 
L 74.261408 125.988244 
L 75.544686 124.497828 
L 76.827964 124.903409 
L 78.111242 125.655924 
L 79.39452 125.667461 
L 80.677798 126.060679 
L 81.961076 125.959824 
L 83.244353 127.116952 
L 84.527631 127.454626 
L 85.810909 126.822822 
L 87.094187 125.451595 
L 88.377465 125.082328 
L 89.660743 124.864328 
L 90.94402 125.187969 
L 92.227298 124.511455 
L 93.510576 125.345723 
L 94.793854 124.637964 
L 96.077132 123.189007 
L 97.36041 123.313459 
L 98.643688 124.411644 
L 99.926965 124.353462 
L 101.210243 123.021889 
L 102.493521 123.130767 
L 103.776799 121.503285 
L 105.060077 122.476495 
L 106.343355 123.609189 
L 107.626633 123.586256 
L 108.90991 123.19487 
L 110.193188 124.602198 
L 111.476466 125.004225 
L 112.759744 124.963616 
L 114.043022 125.991811 
L 115.3263 126.311537 
L 116.609577 125.618101 
L 117.892855 127.113263 
L 119.176133 127.28073 
L 120.459411 126.898623 
L 121.742689 125.878928 
L 123.025967 125.931661 
L 124.309245 127.836532 
L 125.592522 129.059724 
L 126.8758 129.626922 
L 128.159078 127.540803 
L 129.442356 127.287437 
L 130.725634 126.848863 
L 132.008912 127.060601 
L 133.29219 126.118887 
L 134.575467 127.193566 
L 135.858745 127.302166 
L 137.142023 126.846361 
L 138.425301 127.804681 
L 139.708579 129.329251 
L 140.991857 129.98963 
L 142.275134 130.3282 
L 143.558412 131.042479 
L 144.84169 131.626566 
L 149.974802 142.46481 
L 151.258079 147.738141 
L 152.541357 151.714195 
L 153.824635 156.311128 
L 156.391191 168.22514 
L 157.674469 172.805248 
L 160.241024 188.299375 
L 162.80758 200.590051 
L 164.090858 207.171395 
L 165.374136 214.460842 
L 166.657414 220.776703 
L 167.940691 224.866426 
L 169.223969 225.75346 
L 170.507247 227.234055 
L 171.790525 226.219145 
L 173.073803 224.147949 
L 175.640359 215.012788 
L 176.923636 208.012455 
L 179.490192 190.592008 
L 180.77347 181.506878 
L 184.623303 146.299735 
L 185.906581 133.798643 
L 191.039693 93.46901 
L 194.889526 73.691395 
L 196.172804 68.316958 
L 197.456082 64.094167 
L 198.73936 59.13786 
L 200.022638 57.508424 
L 201.305915 56.848026 
L 202.589193 55.149754 
L 203.872471 54.289335 
L 205.155749 54.72609 
L 206.439027 57.43421 
L 210.28886 67.068564 
L 211.572138 71.481773 
L 212.855416 76.391364 
L 214.138694 82.91254 
L 215.421972 88.663396 
L 217.988528 105.407581 
L 220.555083 124.719736 
L 221.838361 135.552905 
L 223.121639 145.026455 
L 225.688195 162.045603 
L 226.971472 167.708631 
L 228.25475 174.767798 
L 229.538028 179.934405 
L 230.821306 182.348859 
L 232.104584 182.42348 
L 233.387862 182.911962 
L 234.67114 180.639353 
L 235.954417 176.870168 
L 237.237695 172.382307 
L 238.520973 166.731229 
L 239.804251 158.9075 
L 241.087529 153.71867 
L 242.370807 147.932332 
L 246.22064 128.243803 
L 247.503918 125.146244 
L 250.070474 119.486279 
L 251.353752 115.826417 
L 252.637029 113.457493 
L 255.203585 107.809156 
L 256.486863 103.316142 
L 257.770141 101.581194 
L 260.336697 96.635618 
L 261.619974 94.340689 
L 262.903252 93.086827 
L 264.18653 89.477337 
L 265.469808 86.612012 
L 266.753086 84.324035 
L 268.036364 81.572075 
L 270.602919 78.562551 
L 271.886197 76.469906 
L 273.169475 74.781926 
L 274.452753 75.971576 
L 275.736031 75.438996 
L 277.019309 75.484648 
L 278.302586 75.037085 
L 279.585864 76.010695 
L 280.869142 75.316775 
L 282.15242 76.718919 
L 283.435698 77.780441 
L 284.718976 78.19785 
L 286.002254 77.635153 
L 287.285531 78.13256 
L 289.852087 81.533271 
L 291.135365 82.42311 
L 292.418643 83.151074 
L 293.701921 84.994074 
L 294.985198 85.709436 
L 296.268476 86.271565 
L 297.551754 85.375174 
L 298.835032 86.021494 
L 300.11831 87.00405 
L 301.401588 87.248465 
L 302.684866 87.165622 
L 303.968143 89.262555 
L 305.251421 89.00085 
L 306.534699 88.946802 
L 307.817977 89.56178 
L 309.101255 89.641328 
L 310.384533 90.818293 
L 311.66781 91.515089 
L 312.951088 90.623025 
L 314.234366 90.879816 
L 315.517644 93.221313 
L 316.800922 93.830848 
L 318.0842 94.720332 
L 319.367478 95.134471 
L 320.650755 97.094242 
L 321.934033 96.807063 
L 323.217311 99.480075 
L 324.500589 101.819805 
L 325.783867 101.810976 
L 327.067145 100.534833 
L 328.350423 101.276842 
L 329.6337 102.944708 
L 332.200256 105.181493 
L 333.483534 105.747846 
L 334.766812 107.519553 
L 336.05009 108.849378 
L 337.333367 109.166524 
L 338.616645 108.897648 
L 339.899923 110.118034 
L 342.466479 111.217303 
L 343.749757 111.252591 
L 345.033035 112.650665 
L 346.316312 111.758402 
L 347.59959 111.542085 
L 348.882868 112.881796 
L 350.166146 114.451469 
L 352.732702 113.813914 
L 354.01598 112.352414 
L 355.299257 112.660706 
L 356.582535 115.036911 
L 359.149091 116.263727 
L 360.432369 116.413259 
L 361.715647 117.796249 
L 362.998924 117.456841 
L 364.282202 118.537652 
L 365.56548 119.096692 
L 366.848758 118.931541 
L 368.132036 117.872217 
L 369.415314 118.416418 
L 370.698592 118.357481 
L 371.981869 118.179974 
L 373.265147 118.138294 
L 374.548425 118.597447 
L 375.831703 119.41854 
L 377.114981 120.431444 
L 378.398259 120.304025 
L 379.681536 118.535646 
L 380.964814 117.816808 
L 384.814648 117.712064 
L 386.097926 118.821367 
L 387.381204 117.689499 
L 388.664481 117.659815 
L 391.231037 118.941556 
L 392.514315 119.116471 
L 393.797593 118.71503 
L 395.080871 117.625255 
L 396.364149 117.252525 
L 397.647426 119.106681 
L 398.930704 119.531358 
L 400.213982 120.721414 
L 401.49726 121.133792 
L 402.780538 122.054386 
L 404.063816 121.881922 
L 405.347093 123.0431 
L 406.630371 124.73019 
L 407.913649 124.86162 
L 409.196927 124.327131 
L 410.480205 125.202537 
L 411.763483 125.176309 
L 414.330038 124.259443 
L 415.613316 125.395096 
L 416.896594 126.284013 
L 418.179872 128.838718 
L 419.46315 129.27733 
L 420.746428 128.110684 
L 422.029706 127.627922 
L 424.596261 127.259377 
L 425.879539 126.498311 
L 427.162817 127.630443 
L 428.446095 126.664146 
L 429.729373 126.907477 
L 431.01265 127.029188 
L 432.295928 127.463067 
L 433 127.23297 
L 433 127.23297 
" style="fill:none;stroke:#8b8b8b;stroke-width:3;"/>
   </g>
   <g id="line2d_36">
    <path clip-path="url(#p213233a68d)" d="M -1 124.157594 
L -0.168707 123.639009 
L 1.114571 125.311885 
L 2.397849 126.158381 
L 3.681127 125.898804 
L 4.964405 126.084508 
L 6.247682 125.741546 
L 7.53096 126.025145 
L 8.814238 125.77857 
L 10.097516 125.024152 
L 11.380794 124.549142 
L 12.664072 123.505199 
L 13.94735 123.113897 
L 15.230627 123.603004 
L 16.513905 123.655828 
L 17.797183 124.588042 
L 20.363739 123.345111 
L 21.647017 126.054739 
L 22.930294 126.491662 
L 24.213572 126.362212 
L 25.49685 124.654389 
L 26.780128 124.20827 
L 28.063406 124.674039 
L 30.629962 126.316476 
L 33.196517 125.409451 
L 34.479795 125.852894 
L 35.763073 127.886247 
L 37.046351 127.575408 
L 38.329629 126.656162 
L 39.612907 124.232131 
L 40.896184 123.123441 
L 42.179462 125.033652 
L 43.46274 126.120757 
L 44.746018 125.546375 
L 46.029296 125.146012 
L 47.312574 125.041719 
L 48.595851 125.280556 
L 49.879129 125.232718 
L 51.162407 125.029634 
L 52.445685 124.392568 
L 53.728963 123.423646 
L 55.012241 123.563853 
L 56.295519 124.173188 
L 57.578796 123.838359 
L 58.862074 124.45384 
L 60.145352 124.420853 
L 61.42863 124.505876 
L 62.711908 127.312407 
L 63.995186 127.292254 
L 65.278464 126.085985 
L 66.561741 123.925065 
L 67.845019 124.045499 
L 69.128297 124.80986 
L 70.411575 125.814484 
L 71.694853 126.122873 
L 74.261408 125.139382 
L 75.544686 125.360936 
L 76.827964 127.055249 
L 79.39452 126.062446 
L 80.677798 123.68517 
L 81.961076 122.605294 
L 83.244353 124.992591 
L 84.527631 125.460791 
L 85.810909 124.864676 
L 87.094187 124.74568 
L 88.377465 125.806036 
L 89.660743 125.950963 
L 90.94402 125.290778 
L 92.227298 125.035554 
L 93.510576 124.473761 
L 94.793854 123.581561 
L 97.36041 124.845117 
L 99.926965 124.479113 
L 101.210243 124.533439 
L 102.493521 124.202743 
L 103.776799 126.70865 
L 105.060077 126.933505 
L 106.343355 125.694018 
L 107.626633 124.250324 
L 108.90991 124.824371 
L 110.193188 125.108621 
L 111.476466 125.832057 
L 112.759744 125.932429 
L 114.043022 125.026809 
L 115.3263 124.803631 
L 116.609577 124.938014 
L 117.892855 126.339435 
L 120.459411 126.674451 
L 121.742689 124.992417 
L 123.025967 123.971762 
L 124.309245 124.880057 
L 125.592522 125.977107 
L 126.8758 125.873298 
L 128.159078 125.927405 
L 129.442356 127.026951 
L 130.725634 127.463009 
L 135.858745 126.55194 
L 137.142023 127.067424 
L 138.425301 128.111819 
L 139.708579 128.206128 
L 140.991857 128.627431 
L 142.275134 129.598965 
L 143.558412 131.170187 
L 144.84169 135.10945 
L 146.124968 136.938423 
L 147.408246 137.815925 
L 148.691524 139.376422 
L 149.974802 143.491857 
L 151.258079 146.974315 
L 152.541357 151.390832 
L 155.107913 159.552014 
L 156.391191 165.041985 
L 157.674469 171.398997 
L 158.957746 178.373264 
L 161.524302 190.295827 
L 162.80758 195.194526 
L 164.090858 200.776161 
L 165.374136 207.831645 
L 166.657414 212.868287 
L 167.940691 215.472353 
L 169.223969 218.660429 
L 170.507247 221.150748 
L 171.790525 221.196162 
L 173.073803 219.559922 
L 174.357081 216.553964 
L 175.640359 211.059325 
L 176.923636 204.645362 
L 179.490192 189.066219 
L 182.056748 168.740611 
L 184.623303 147.679088 
L 185.906581 139.114105 
L 187.189859 129.430003 
L 188.473137 117.774593 
L 189.756415 107.644102 
L 194.889526 78.339365 
L 196.172804 72.181697 
L 197.456082 67.603711 
L 198.73936 64.571828 
L 201.305915 59.578414 
L 202.589193 57.657208 
L 203.872471 56.306198 
L 205.155749 56.863974 
L 206.439027 59.602411 
L 207.722305 62.052927 
L 209.005583 63.671697 
L 210.28886 67.455785 
L 211.572138 73.301634 
L 214.138694 83.413533 
L 216.70525 95.664884 
L 217.988528 103.299278 
L 226.971472 166.732319 
L 228.25475 174.039841 
L 229.538028 178.389895 
L 230.821306 181.932619 
L 232.104584 184.708143 
L 233.387862 184.810855 
L 234.67114 182.204906 
L 238.520973 168.166571 
L 239.804251 163.494792 
L 241.087529 157.115441 
L 242.370807 149.392515 
L 244.937362 136.280798 
L 246.22064 130.872362 
L 248.787196 123.224122 
L 250.070474 117.390358 
L 251.353752 114.226853 
L 252.637029 113.053292 
L 257.770141 102.066148 
L 259.053419 99.796519 
L 260.336697 96.834149 
L 261.619974 95.187365 
L 264.18653 88.94528 
L 266.753086 85.018883 
L 269.319641 83.807809 
L 270.602919 80.950054 
L 271.886197 79.617366 
L 273.169475 80.16612 
L 275.736031 77.945896 
L 277.019309 76.071889 
L 278.302586 76.012172 
L 279.585864 76.23163 
L 280.869142 77.059759 
L 282.15242 76.635798 
L 283.435698 76.591049 
L 284.718976 77.085051 
L 286.002254 78.667533 
L 288.568809 81.152184 
L 289.852087 81.889099 
L 291.135365 80.016988 
L 292.418643 81.409858 
L 293.701921 84.714473 
L 294.985198 85.523687 
L 296.268476 85.323557 
L 297.551754 85.870963 
L 298.835032 86.055261 
L 300.11831 87.258364 
L 301.401588 87.776801 
L 302.684866 88.72461 
L 303.968143 88.947679 
L 305.251421 88.987398 
L 306.534699 89.823846 
L 307.817977 90.353962 
L 309.101255 90.276549 
L 310.384533 91.029167 
L 311.66781 90.728511 
L 312.951088 93.135 
L 314.234366 95.850936 
L 315.517644 96.202339 
L 316.800922 95.285389 
L 318.0842 93.985965 
L 319.367478 95.127132 
L 320.650755 96.529701 
L 321.934033 98.307572 
L 323.217311 98.077783 
L 324.500589 98.45584 
L 325.783867 99.287277 
L 327.067145 101.542945 
L 328.350423 103.238948 
L 329.6337 103.76958 
L 330.916978 103.950344 
L 332.200256 101.790411 
L 333.483534 103.055701 
L 334.766812 106.299664 
L 336.05009 106.754837 
L 337.333367 106.750793 
L 338.616645 107.356279 
L 339.899923 108.687271 
L 341.183201 109.814656 
L 342.466479 110.056582 
L 343.749757 110.794858 
L 345.033035 110.936367 
L 346.316312 111.485611 
L 347.59959 112.231413 
L 350.166146 112.460163 
L 351.449424 113.430588 
L 352.732702 112.887948 
L 355.299257 117.897162 
L 356.582535 117.607798 
L 357.865813 116.609359 
L 359.149091 116.061037 
L 360.432369 116.649735 
L 361.715647 117.485635 
L 362.998924 118.622688 
L 364.282202 117.953867 
L 365.56548 117.702397 
L 366.848758 117.317131 
L 368.132036 118.351658 
L 369.415314 119.179445 
L 370.698592 119.239388 
L 371.981869 118.508322 
L 373.265147 116.419134 
L 374.548425 116.953268 
L 375.831703 117.809592 
L 378.398259 116.472331 
L 380.964814 117.860796 
L 382.248092 118.149129 
L 383.53137 117.488189 
L 384.814648 117.354896 
L 386.097926 116.886438 
L 387.381204 117.231244 
L 388.664481 118.052678 
L 389.947759 118.425034 
L 391.231037 118.258645 
L 392.514315 118.852619 
L 393.797593 118.182612 
L 395.080871 120.321057 
L 396.364149 122.222188 
L 397.647426 121.761036 
L 398.930704 120.733712 
L 400.213982 120.323766 
L 402.780538 122.663567 
L 404.063816 122.882289 
L 405.347093 121.566465 
L 407.913649 123.184429 
L 409.196927 125.101649 
L 410.480205 125.829052 
L 411.763483 125.695256 
L 413.046761 124.993849 
L 414.330038 123.939323 
L 415.613316 124.805939 
L 416.896594 126.150255 
L 418.179872 125.56489 
L 419.46315 124.259597 
L 420.746428 124.926599 
L 422.029706 125.944643 
L 424.596261 126.143651 
L 425.879539 126.356189 
L 427.162817 125.787011 
L 428.446095 126.162592 
L 429.729373 125.902222 
L 431.01265 126.27995 
L 432.295928 125.464854 
L 433 125.634784 
L 433 125.634784 
" style="fill:none;stroke:#810f7c;stroke-width:3;"/>
   </g>
   <g id="patch_3">
    <path d="M 34.56 252 
L 34.56 34.56 
" style="fill:none;stroke:#f0f0f0;stroke-linecap:square;stroke-linejoin:miter;stroke-width:3;"/>
   </g>
   <g id="patch_4">
    <path d="M 410.4 252 
L 410.4 34.56 
" style="fill:none;stroke:#f0f0f0;stroke-linecap:square;stroke-linejoin:miter;stroke-width:3;"/>
   </g>
   <g id="patch_5">
    <path d="M 34.56 252 
L 410.4 252 
" style="fill:none;stroke:#f0f0f0;stroke-linecap:square;stroke-linejoin:miter;stroke-width:3;"/>
   </g>
   <g id="patch_6">
    <path d="M 34.56 34.56 
L 410.4 34.56 
" style="fill:none;stroke:#f0f0f0;stroke-linecap:square;stroke-linejoin:miter;stroke-width:3;"/>
   </g>
   <g id="legend_1">
    <g id="patch_7">
     <path d="M 436.192 132.2975 
L 615.490437 132.2975 
Q 617.490437 132.2975 617.490437 130.2975 
L 617.490437 41.56 
Q 617.490437 39.56 615.490437 39.56 
L 436.192 39.56 
Q 434.192 39.56 434.192 41.56 
L 434.192 130.2975 
Q 434.192 132.2975 436.192 132.2975 
z
" style="fill:#ffffff;opacity:0.8;stroke:#cccccc;stroke-linejoin:miter;stroke-width:0.5;"/>
    </g>
    <g id="line2d_37">
     <path style="fill:none;stroke:#008fd5;stroke-width:3;"/>
    </g>
    <g id="line2d_38"/>
    <g id="text_18">
     <!-- 6_notch5000_bw2000_35dB -->
     <defs>
      <path d="M 50.984375 -16.609375 
L 50.984375 -23.578125 
L -0.984375 -23.578125 
L -0.984375 -16.609375 
z
" id="DejaVuSans-95"/>
      <path d="M 54.890625 33.015625 
L 54.890625 0 
L 45.90625 0 
L 45.90625 32.71875 
Q 45.90625 40.484375 42.875 44.328125 
Q 39.84375 48.1875 33.796875 48.1875 
Q 26.515625 48.1875 22.3125 43.546875 
Q 18.109375 38.921875 18.109375 30.90625 
L 18.109375 0 
L 9.078125 0 
L 9.078125 54.6875 
L 18.109375 54.6875 
L 18.109375 46.1875 
Q 21.34375 51.125 25.703125 53.5625 
Q 30.078125 56 35.796875 56 
Q 45.21875 56 50.046875 50.171875 
Q 54.890625 44.34375 54.890625 33.015625 
z
" id="DejaVuSans-110"/>
      <path d="M 30.609375 48.390625 
Q 23.390625 48.390625 19.1875 42.75 
Q 14.984375 37.109375 14.984375 27.296875 
Q 14.984375 17.484375 19.15625 11.84375 
Q 23.34375 6.203125 30.609375 6.203125 
Q 37.796875 6.203125 41.984375 11.859375 
Q 46.1875 17.53125 46.1875 27.296875 
Q 46.1875 37.015625 41.984375 42.703125 
Q 37.796875 48.390625 30.609375 48.390625 
z
M 30.609375 56 
Q 42.328125 56 49.015625 48.375 
Q 55.71875 40.765625 55.71875 27.296875 
Q 55.71875 13.875 49.015625 6.21875 
Q 42.328125 -1.421875 30.609375 -1.421875 
Q 18.84375 -1.421875 12.171875 6.21875 
Q 5.515625 13.875 5.515625 27.296875 
Q 5.515625 40.765625 12.171875 48.375 
Q 18.84375 56 30.609375 56 
z
" id="DejaVuSans-111"/>
      <path d="M 48.78125 52.59375 
L 48.78125 44.1875 
Q 44.96875 46.296875 41.140625 47.34375 
Q 37.3125 48.390625 33.40625 48.390625 
Q 24.65625 48.390625 19.8125 42.84375 
Q 14.984375 37.3125 14.984375 27.296875 
Q 14.984375 17.28125 19.8125 11.734375 
Q 24.65625 6.203125 33.40625 6.203125 
Q 37.3125 6.203125 41.140625 7.25 
Q 44.96875 8.296875 48.78125 10.40625 
L 48.78125 2.09375 
Q 45.015625 0.34375 40.984375 -0.53125 
Q 36.96875 -1.421875 32.421875 -1.421875 
Q 20.0625 -1.421875 12.78125 6.34375 
Q 5.515625 14.109375 5.515625 27.296875 
Q 5.515625 40.671875 12.859375 48.328125 
Q 20.21875 56 33.015625 56 
Q 37.15625 56 41.109375 55.140625 
Q 45.0625 54.296875 48.78125 52.59375 
z
" id="DejaVuSans-99"/>
      <path d="M 54.890625 33.015625 
L 54.890625 0 
L 45.90625 0 
L 45.90625 32.71875 
Q 45.90625 40.484375 42.875 44.328125 
Q 39.84375 48.1875 33.796875 48.1875 
Q 26.515625 48.1875 22.3125 43.546875 
Q 18.109375 38.921875 18.109375 30.90625 
L 18.109375 0 
L 9.078125 0 
L 9.078125 75.984375 
L 18.109375 75.984375 
L 18.109375 46.1875 
Q 21.34375 51.125 25.703125 53.5625 
Q 30.078125 56 35.796875 56 
Q 45.21875 56 50.046875 50.171875 
Q 54.890625 44.34375 54.890625 33.015625 
z
" id="DejaVuSans-104"/>
      <path d="M 48.6875 27.296875 
Q 48.6875 37.203125 44.609375 42.84375 
Q 40.53125 48.484375 33.40625 48.484375 
Q 26.265625 48.484375 22.1875 42.84375 
Q 18.109375 37.203125 18.109375 27.296875 
Q 18.109375 17.390625 22.1875 11.75 
Q 26.265625 6.109375 33.40625 6.109375 
Q 40.53125 6.109375 44.609375 11.75 
Q 48.6875 17.390625 48.6875 27.296875 
z
M 18.109375 46.390625 
Q 20.953125 51.265625 25.265625 53.625 
Q 29.59375 56 35.59375 56 
Q 45.5625 56 51.78125 48.09375 
Q 58.015625 40.1875 58.015625 27.296875 
Q 58.015625 14.40625 51.78125 6.484375 
Q 45.5625 -1.421875 35.59375 -1.421875 
Q 29.59375 -1.421875 25.265625 0.953125 
Q 20.953125 3.328125 18.109375 8.203125 
L 18.109375 0 
L 9.078125 0 
L 9.078125 75.984375 
L 18.109375 75.984375 
z
" id="DejaVuSans-98"/>
      <path d="M 4.203125 54.6875 
L 13.1875 54.6875 
L 24.421875 12.015625 
L 35.59375 54.6875 
L 46.1875 54.6875 
L 57.421875 12.015625 
L 68.609375 54.6875 
L 77.59375 54.6875 
L 63.28125 0 
L 52.6875 0 
L 40.921875 44.828125 
L 29.109375 0 
L 18.5 0 
z
" id="DejaVuSans-119"/>
      <path d="M 40.578125 39.3125 
Q 47.65625 37.796875 51.625 33 
Q 55.609375 28.21875 55.609375 21.1875 
Q 55.609375 10.40625 48.1875 4.484375 
Q 40.765625 -1.421875 27.09375 -1.421875 
Q 22.515625 -1.421875 17.65625 -0.515625 
Q 12.796875 0.390625 7.625 2.203125 
L 7.625 11.71875 
Q 11.71875 9.328125 16.59375 8.109375 
Q 21.484375 6.890625 26.8125 6.890625 
Q 36.078125 6.890625 40.9375 10.546875 
Q 45.796875 14.203125 45.796875 21.1875 
Q 45.796875 27.640625 41.28125 31.265625 
Q 36.765625 34.90625 28.71875 34.90625 
L 20.21875 34.90625 
L 20.21875 43.015625 
L 29.109375 43.015625 
Q 36.375 43.015625 40.234375 45.921875 
Q 44.09375 48.828125 44.09375 54.296875 
Q 44.09375 59.90625 40.109375 62.90625 
Q 36.140625 65.921875 28.71875 65.921875 
Q 24.65625 65.921875 20.015625 65.03125 
Q 15.375 64.15625 9.8125 62.3125 
L 9.8125 71.09375 
Q 15.4375 72.65625 20.34375 73.4375 
Q 25.25 74.21875 29.59375 74.21875 
Q 40.828125 74.21875 47.359375 69.109375 
Q 53.90625 64.015625 53.90625 55.328125 
Q 53.90625 49.265625 50.4375 45.09375 
Q 46.96875 40.921875 40.578125 39.3125 
z
" id="DejaVuSans-51"/>
      <path d="M 19.671875 34.8125 
L 19.671875 8.109375 
L 35.5 8.109375 
Q 43.453125 8.109375 47.28125 11.40625 
Q 51.125 14.703125 51.125 21.484375 
Q 51.125 28.328125 47.28125 31.5625 
Q 43.453125 34.8125 35.5 34.8125 
z
M 19.671875 64.796875 
L 19.671875 42.828125 
L 34.28125 42.828125 
Q 41.5 42.828125 45.03125 45.53125 
Q 48.578125 48.25 48.578125 53.8125 
Q 48.578125 59.328125 45.03125 62.0625 
Q 41.5 64.796875 34.28125 64.796875 
z
M 9.8125 72.90625 
L 35.015625 72.90625 
Q 46.296875 72.90625 52.390625 68.21875 
Q 58.5 63.53125 58.5 54.890625 
Q 58.5 48.1875 55.375 44.234375 
Q 52.25 40.28125 46.1875 39.3125 
Q 53.46875 37.75 57.5 32.78125 
Q 61.53125 27.828125 61.53125 20.40625 
Q 61.53125 10.640625 54.890625 5.3125 
Q 48.25 0 35.984375 0 
L 9.8125 0 
z
" id="DejaVuSans-66"/>
     </defs>
     <g transform="translate(466.192 51.158438)scale(0.1 -0.1)">
      <use xlink:href="#DejaVuSans-54"/>
      <use x="63.623047" xlink:href="#DejaVuSans-95"/>
      <use x="113.623047" xlink:href="#DejaVuSans-110"/>
      <use x="177.001953" xlink:href="#DejaVuSans-111"/>
      <use x="238.183594" xlink:href="#DejaVuSans-116"/>
      <use x="277.392578" xlink:href="#DejaVuSans-99"/>
      <use x="332.373047" xlink:href="#DejaVuSans-104"/>
      <use x="395.751953" xlink:href="#DejaVuSans-53"/>
      <use x="459.375" xlink:href="#DejaVuSans-48"/>
      <use x="522.998047" xlink:href="#DejaVuSans-48"/>
      <use x="586.621094" xlink:href="#DejaVuSans-48"/>
      <use x="650.244141" xlink:href="#DejaVuSans-95"/>
      <use x="700.244141" xlink:href="#DejaVuSans-98"/>
      <use x="763.720703" xlink:href="#DejaVuSans-119"/>
      <use x="845.507812" xlink:href="#DejaVuSans-50"/>
      <use x="909.130859" xlink:href="#DejaVuSans-48"/>
      <use x="972.753906" xlink:href="#DejaVuSans-48"/>
      <use x="1036.376953" xlink:href="#DejaVuSans-48"/>
      <use x="1100" xlink:href="#DejaVuSans-95"/>
      <use x="1150" xlink:href="#DejaVuSans-51"/>
      <use x="1213.623047" xlink:href="#DejaVuSans-53"/>
      <use x="1277.246094" xlink:href="#DejaVuSans-100"/>
      <use x="1340.722656" xlink:href="#DejaVuSans-66"/>
     </g>
    </g>
    <g id="line2d_39">
     <path style="fill:none;stroke:#fc4f30;stroke-width:3;"/>
    </g>
    <g id="line2d_40"/>
    <g id="text_19">
     <!-- 7_notch5000_bw2000_32dB -->
     <g transform="translate(466.192 66.114688)scale(0.1 -0.1)">
      <use xlink:href="#DejaVuSans-55"/>
      <use x="63.623047" xlink:href="#DejaVuSans-95"/>
      <use x="113.623047" xlink:href="#DejaVuSans-110"/>
      <use x="177.001953" xlink:href="#DejaVuSans-111"/>
      <use x="238.183594" xlink:href="#DejaVuSans-116"/>
      <use x="277.392578" xlink:href="#DejaVuSans-99"/>
      <use x="332.373047" xlink:href="#DejaVuSans-104"/>
      <use x="395.751953" xlink:href="#DejaVuSans-53"/>
      <use x="459.375" xlink:href="#DejaVuSans-48"/>
      <use x="522.998047" xlink:href="#DejaVuSans-48"/>
      <use x="586.621094" xlink:href="#DejaVuSans-48"/>
      <use x="650.244141" xlink:href="#DejaVuSans-95"/>
      <use x="700.244141" xlink:href="#DejaVuSans-98"/>
      <use x="763.720703" xlink:href="#DejaVuSans-119"/>
      <use x="845.507812" xlink:href="#DejaVuSans-50"/>
      <use x="909.130859" xlink:href="#DejaVuSans-48"/>
      <use x="972.753906" xlink:href="#DejaVuSans-48"/>
      <use x="1036.376953" xlink:href="#DejaVuSans-48"/>
      <use x="1100" xlink:href="#DejaVuSans-95"/>
      <use x="1150" xlink:href="#DejaVuSans-51"/>
      <use x="1213.623047" xlink:href="#DejaVuSans-50"/>
      <use x="1277.246094" xlink:href="#DejaVuSans-100"/>
      <use x="1340.722656" xlink:href="#DejaVuSans-66"/>
     </g>
    </g>
    <g id="line2d_41">
     <path style="fill:none;stroke:#e5ae38;stroke-width:3;"/>
    </g>
    <g id="line2d_42"/>
    <g id="text_20">
     <!-- 8_notch5000_bw2000_29dB -->
     <g transform="translate(466.192 81.070938)scale(0.1 -0.1)">
      <use xlink:href="#DejaVuSans-56"/>
      <use x="63.623047" xlink:href="#DejaVuSans-95"/>
      <use x="113.623047" xlink:href="#DejaVuSans-110"/>
      <use x="177.001953" xlink:href="#DejaVuSans-111"/>
      <use x="238.183594" xlink:href="#DejaVuSans-116"/>
      <use x="277.392578" xlink:href="#DejaVuSans-99"/>
      <use x="332.373047" xlink:href="#DejaVuSans-104"/>
      <use x="395.751953" xlink:href="#DejaVuSans-53"/>
      <use x="459.375" xlink:href="#DejaVuSans-48"/>
      <use x="522.998047" xlink:href="#DejaVuSans-48"/>
      <use x="586.621094" xlink:href="#DejaVuSans-48"/>
      <use x="650.244141" xlink:href="#DejaVuSans-95"/>
      <use x="700.244141" xlink:href="#DejaVuSans-98"/>
      <use x="763.720703" xlink:href="#DejaVuSans-119"/>
      <use x="845.507812" xlink:href="#DejaVuSans-50"/>
      <use x="909.130859" xlink:href="#DejaVuSans-48"/>
      <use x="972.753906" xlink:href="#DejaVuSans-48"/>
      <use x="1036.376953" xlink:href="#DejaVuSans-48"/>
      <use x="1100" xlink:href="#DejaVuSans-95"/>
      <use x="1150" xlink:href="#DejaVuSans-50"/>
      <use x="1213.623047" xlink:href="#DejaVuSans-57"/>
      <use x="1277.246094" xlink:href="#DejaVuSans-100"/>
      <use x="1340.722656" xlink:href="#DejaVuSans-66"/>
     </g>
    </g>
    <g id="line2d_43">
     <path style="fill:none;stroke:#6d904f;stroke-width:3;"/>
    </g>
    <g id="line2d_44"/>
    <g id="text_21">
     <!-- 9_notch5000_bw2000_26dB -->
     <g transform="translate(466.192 96.027188)scale(0.1 -0.1)">
      <use xlink:href="#DejaVuSans-57"/>
      <use x="63.623047" xlink:href="#DejaVuSans-95"/>
      <use x="113.623047" xlink:href="#DejaVuSans-110"/>
      <use x="177.001953" xlink:href="#DejaVuSans-111"/>
      <use x="238.183594" xlink:href="#DejaVuSans-116"/>
      <use x="277.392578" xlink:href="#DejaVuSans-99"/>
      <use x="332.373047" xlink:href="#DejaVuSans-104"/>
      <use x="395.751953" xlink:href="#DejaVuSans-53"/>
      <use x="459.375" xlink:href="#DejaVuSans-48"/>
      <use x="522.998047" xlink:href="#DejaVuSans-48"/>
      <use x="586.621094" xlink:href="#DejaVuSans-48"/>
      <use x="650.244141" xlink:href="#DejaVuSans-95"/>
      <use x="700.244141" xlink:href="#DejaVuSans-98"/>
      <use x="763.720703" xlink:href="#DejaVuSans-119"/>
      <use x="845.507812" xlink:href="#DejaVuSans-50"/>
      <use x="909.130859" xlink:href="#DejaVuSans-48"/>
      <use x="972.753906" xlink:href="#DejaVuSans-48"/>
      <use x="1036.376953" xlink:href="#DejaVuSans-48"/>
      <use x="1100" xlink:href="#DejaVuSans-95"/>
      <use x="1150" xlink:href="#DejaVuSans-50"/>
      <use x="1213.623047" xlink:href="#DejaVuSans-54"/>
      <use x="1277.246094" xlink:href="#DejaVuSans-100"/>
      <use x="1340.722656" xlink:href="#DejaVuSans-66"/>
     </g>
    </g>
    <g id="line2d_45">
     <path style="fill:none;stroke:#8b8b8b;stroke-width:3;"/>
    </g>
    <g id="line2d_46"/>
    <g id="text_22">
     <!-- 10_notch5000_bw2000_23dB -->
     <g transform="translate(466.192 110.983438)scale(0.1 -0.1)">
      <use xlink:href="#DejaVuSans-49"/>
      <use x="63.623047" xlink:href="#DejaVuSans-48"/>
      <use x="127.246094" xlink:href="#DejaVuSans-95"/>
      <use x="177.246094" xlink:href="#DejaVuSans-110"/>
      <use x="240.625" xlink:href="#DejaVuSans-111"/>
      <use x="301.806641" xlink:href="#DejaVuSans-116"/>
      <use x="341.015625" xlink:href="#DejaVuSans-99"/>
      <use x="395.996094" xlink:href="#DejaVuSans-104"/>
      <use x="459.375" xlink:href="#DejaVuSans-53"/>
      <use x="522.998047" xlink:href="#DejaVuSans-48"/>
      <use x="586.621094" xlink:href="#DejaVuSans-48"/>
      <use x="650.244141" xlink:href="#DejaVuSans-48"/>
      <use x="713.867188" xlink:href="#DejaVuSans-95"/>
      <use x="763.867188" xlink:href="#DejaVuSans-98"/>
      <use x="827.34375" xlink:href="#DejaVuSans-119"/>
      <use x="909.130859" xlink:href="#DejaVuSans-50"/>
      <use x="972.753906" xlink:href="#DejaVuSans-48"/>
      <use x="1036.376953" xlink:href="#DejaVuSans-48"/>
      <use x="1100" xlink:href="#DejaVuSans-48"/>
      <use x="1163.623047" xlink:href="#DejaVuSans-95"/>
      <use x="1213.623047" xlink:href="#DejaVuSans-50"/>
      <use x="1277.246094" xlink:href="#DejaVuSans-51"/>
      <use x="1340.869141" xlink:href="#DejaVuSans-100"/>
      <use x="1404.345703" xlink:href="#DejaVuSans-66"/>
     </g>
    </g>
    <g id="line2d_47">
     <path style="fill:none;stroke:#810f7c;stroke-width:3;"/>
    </g>
    <g id="line2d_48"/>
    <g id="text_23">
     <!-- broadband_noise -->
     <defs>
      <path d="M 41.109375 46.296875 
Q 39.59375 47.171875 37.8125 47.578125 
Q 36.03125 48 33.890625 48 
Q 26.265625 48 22.1875 43.046875 
Q 18.109375 38.09375 18.109375 28.8125 
L 18.109375 0 
L 9.078125 0 
L 9.078125 54.6875 
L 18.109375 54.6875 
L 18.109375 46.1875 
Q 20.953125 51.171875 25.484375 53.578125 
Q 30.03125 56 36.53125 56 
Q 37.453125 56 38.578125 55.875 
Q 39.703125 55.765625 41.0625 55.515625 
z
" id="DejaVuSans-114"/>
      <path d="M 34.28125 27.484375 
Q 23.390625 27.484375 19.1875 25 
Q 14.984375 22.515625 14.984375 16.5 
Q 14.984375 11.71875 18.140625 8.90625 
Q 21.296875 6.109375 26.703125 6.109375 
Q 34.1875 6.109375 38.703125 11.40625 
Q 43.21875 16.703125 43.21875 25.484375 
L 43.21875 27.484375 
z
M 52.203125 31.203125 
L 52.203125 0 
L 43.21875 0 
L 43.21875 8.296875 
Q 40.140625 3.328125 35.546875 0.953125 
Q 30.953125 -1.421875 24.3125 -1.421875 
Q 15.921875 -1.421875 10.953125 3.296875 
Q 6 8.015625 6 15.921875 
Q 6 25.140625 12.171875 29.828125 
Q 18.359375 34.515625 30.609375 34.515625 
L 43.21875 34.515625 
L 43.21875 35.40625 
Q 43.21875 41.609375 39.140625 45 
Q 35.0625 48.390625 27.6875 48.390625 
Q 23 48.390625 18.546875 47.265625 
Q 14.109375 46.140625 10.015625 43.890625 
L 10.015625 52.203125 
Q 14.9375 54.109375 19.578125 55.046875 
Q 24.21875 56 28.609375 56 
Q 40.484375 56 46.34375 49.84375 
Q 52.203125 43.703125 52.203125 31.203125 
z
" id="DejaVuSans-97"/>
     </defs>
     <g transform="translate(466.192 125.939688)scale(0.1 -0.1)">
      <use xlink:href="#DejaVuSans-98"/>
      <use x="63.476562" xlink:href="#DejaVuSans-114"/>
      <use x="104.558594" xlink:href="#DejaVuSans-111"/>
      <use x="165.740234" xlink:href="#DejaVuSans-97"/>
      <use x="227.019531" xlink:href="#DejaVuSans-100"/>
      <use x="290.496094" xlink:href="#DejaVuSans-98"/>
      <use x="353.972656" xlink:href="#DejaVuSans-97"/>
      <use x="415.251953" xlink:href="#DejaVuSans-110"/>
      <use x="478.630859" xlink:href="#DejaVuSans-100"/>
      <use x="542.107422" xlink:href="#DejaVuSans-95"/>
      <use x="592.107422" xlink:href="#DejaVuSans-110"/>
      <use x="655.486328" xlink:href="#DejaVuSans-111"/>
      <use x="716.667969" xlink:href="#DejaVuSans-105"/>
      <use x="744.451172" xlink:href="#DejaVuSans-115"/>
      <use x="796.550781" xlink:href="#DejaVuSans-101"/>
     </g>
    </g>
   </g>
  </g>
 </g>
 <defs>
  <clipPath id="p213233a68d">
   <rect height="217.44" width="375.84" x="34.56" y="34.56"/>
  </clipPath>
 </defs>
</svg>
