<?xml version="1.0" encoding="utf-8" standalone="no"?>
<!DOCTYPE svg PUBLIC "-//W3C//DTD SVG 1.1//EN"
  "http://www.w3.org/Graphics/SVG/1.1/DTD/svg11.dtd">
<!-- Created with matplotlib (https://matplotlib.org/) -->
<svg height="288pt" version="1.1" viewBox="0 0 432 288" width="432pt" xmlns="http://www.w3.org/2000/svg" xmlns:xlink="http://www.w3.org/1999/xlink">
 <defs>
  <style type="text/css">
*{stroke-linecap:butt;stroke-linejoin:round;}
  </style>
 </defs>
 <g id="figure_1">
  <g id="patch_1">
   <path d="M 0 288 
L 432 288 
L 432 0 
L 0 0 
z
" style="fill:#f0f0f0;"/>
  </g>
  <g id="axes_1">
   <g id="patch_2">
    <path d="M 34.56 267.84 
L 410.4 267.84 
L 410.4 34.56 
L 34.56 34.56 
z
" style="fill:#ffffff;"/>
   </g>
   <g id="matplotlib.axis_1">
    <g id="xtick_1">
     <g id="line2d_1">
      <path clip-path="url(#pef6aaca5fa)" d="M 34.56 267.84 
L 34.56 34.56 
" style="fill:none;stroke:#cbcbcb;"/>
     </g>
     <g id="line2d_2"/>
     <g id="text_1">
      <!-- 5 -->
      <defs>
       <path d="M 10.796875 72.90625 
L 49.515625 72.90625 
L 49.515625 64.59375 
L 19.828125 64.59375 
L 19.828125 46.734375 
Q 21.96875 47.46875 24.109375 47.828125 
Q 26.265625 48.1875 28.421875 48.1875 
Q 40.625 48.1875 47.75 41.5 
Q 54.890625 34.8125 54.890625 23.390625 
Q 54.890625 11.625 47.5625 5.09375 
Q 40.234375 -1.421875 26.90625 -1.421875 
Q 22.3125 -1.421875 17.546875 -0.640625 
Q 12.796875 0.140625 7.71875 1.703125 
L 7.71875 11.625 
Q 12.109375 9.234375 16.796875 8.0625 
Q 21.484375 6.890625 26.703125 6.890625 
Q 35.15625 6.890625 40.078125 11.328125 
Q 45.015625 15.765625 45.015625 23.390625 
Q 45.015625 31 40.078125 35.4375 
Q 35.15625 39.890625 26.703125 39.890625 
Q 22.75 39.890625 18.8125 39.015625 
Q 14.890625 38.140625 10.796875 36.28125 
z
" id="DejaVuSans-53"/>
      </defs>
      <g transform="translate(30.424375 281.217969)scale(0.13 -0.13)">
       <use xlink:href="#DejaVuSans-53"/>
      </g>
     </g>
    </g>
    <g id="xtick_2">
     <g id="line2d_3">
      <path clip-path="url(#pef6aaca5fa)" d="M 97.2 267.84 
L 97.2 34.56 
" style="fill:none;stroke:#cbcbcb;"/>
     </g>
     <g id="line2d_4"/>
     <g id="text_2">
      <!-- 6 -->
      <defs>
       <path d="M 33.015625 40.375 
Q 26.375 40.375 22.484375 35.828125 
Q 18.609375 31.296875 18.609375 23.390625 
Q 18.609375 15.53125 22.484375 10.953125 
Q 26.375 6.390625 33.015625 6.390625 
Q 39.65625 6.390625 43.53125 10.953125 
Q 47.40625 15.53125 47.40625 23.390625 
Q 47.40625 31.296875 43.53125 35.828125 
Q 39.65625 40.375 33.015625 40.375 
z
M 52.59375 71.296875 
L 52.59375 62.3125 
Q 48.875 64.0625 45.09375 64.984375 
Q 41.3125 65.921875 37.59375 65.921875 
Q 27.828125 65.921875 22.671875 59.328125 
Q 17.53125 52.734375 16.796875 39.40625 
Q 19.671875 43.65625 24.015625 45.921875 
Q 28.375 48.1875 33.59375 48.1875 
Q 44.578125 48.1875 50.953125 41.515625 
Q 57.328125 34.859375 57.328125 23.390625 
Q 57.328125 12.15625 50.6875 5.359375 
Q 44.046875 -1.421875 33.015625 -1.421875 
Q 20.359375 -1.421875 13.671875 8.265625 
Q 6.984375 17.96875 6.984375 36.375 
Q 6.984375 53.65625 15.1875 63.9375 
Q 23.390625 74.21875 37.203125 74.21875 
Q 40.921875 74.21875 44.703125 73.484375 
Q 48.484375 72.75 52.59375 71.296875 
z
" id="DejaVuSans-54"/>
      </defs>
      <g transform="translate(93.064375 281.217969)scale(0.13 -0.13)">
       <use xlink:href="#DejaVuSans-54"/>
      </g>
     </g>
    </g>
    <g id="xtick_3">
     <g id="line2d_5">
      <path clip-path="url(#pef6aaca5fa)" d="M 159.84 267.84 
L 159.84 34.56 
" style="fill:none;stroke:#cbcbcb;"/>
     </g>
     <g id="line2d_6"/>
     <g id="text_3">
      <!-- 7 -->
      <defs>
       <path d="M 8.203125 72.90625 
L 55.078125 72.90625 
L 55.078125 68.703125 
L 28.609375 0 
L 18.3125 0 
L 43.21875 64.59375 
L 8.203125 64.59375 
z
" id="DejaVuSans-55"/>
      </defs>
      <g transform="translate(155.704375 281.217969)scale(0.13 -0.13)">
       <use xlink:href="#DejaVuSans-55"/>
      </g>
     </g>
    </g>
    <g id="xtick_4">
     <g id="line2d_7">
      <path clip-path="url(#pef6aaca5fa)" d="M 222.48 267.84 
L 222.48 34.56 
" style="fill:none;stroke:#cbcbcb;"/>
     </g>
     <g id="line2d_8"/>
     <g id="text_4">
      <!-- 8 -->
      <defs>
       <path d="M 31.78125 34.625 
Q 24.75 34.625 20.71875 30.859375 
Q 16.703125 27.09375 16.703125 20.515625 
Q 16.703125 13.921875 20.71875 10.15625 
Q 24.75 6.390625 31.78125 6.390625 
Q 38.8125 6.390625 42.859375 10.171875 
Q 46.921875 13.96875 46.921875 20.515625 
Q 46.921875 27.09375 42.890625 30.859375 
Q 38.875 34.625 31.78125 34.625 
z
M 21.921875 38.8125 
Q 15.578125 40.375 12.03125 44.71875 
Q 8.5 49.078125 8.5 55.328125 
Q 8.5 64.0625 14.71875 69.140625 
Q 20.953125 74.21875 31.78125 74.21875 
Q 42.671875 74.21875 48.875 69.140625 
Q 55.078125 64.0625 55.078125 55.328125 
Q 55.078125 49.078125 51.53125 44.71875 
Q 48 40.375 41.703125 38.8125 
Q 48.828125 37.15625 52.796875 32.3125 
Q 56.78125 27.484375 56.78125 20.515625 
Q 56.78125 9.90625 50.3125 4.234375 
Q 43.84375 -1.421875 31.78125 -1.421875 
Q 19.734375 -1.421875 13.25 4.234375 
Q 6.78125 9.90625 6.78125 20.515625 
Q 6.78125 27.484375 10.78125 32.3125 
Q 14.796875 37.15625 21.921875 38.8125 
z
M 18.3125 54.390625 
Q 18.3125 48.734375 21.84375 45.5625 
Q 25.390625 42.390625 31.78125 42.390625 
Q 38.140625 42.390625 41.71875 45.5625 
Q 45.3125 48.734375 45.3125 54.390625 
Q 45.3125 60.0625 41.71875 63.234375 
Q 38.140625 66.40625 31.78125 66.40625 
Q 25.390625 66.40625 21.84375 63.234375 
Q 18.3125 60.0625 18.3125 54.390625 
z
" id="DejaVuSans-56"/>
      </defs>
      <g transform="translate(218.344375 281.217969)scale(0.13 -0.13)">
       <use xlink:href="#DejaVuSans-56"/>
      </g>
     </g>
    </g>
    <g id="xtick_5">
     <g id="line2d_9">
      <path clip-path="url(#pef6aaca5fa)" d="M 285.12 267.84 
L 285.12 34.56 
" style="fill:none;stroke:#cbcbcb;"/>
     </g>
     <g id="line2d_10"/>
     <g id="text_5">
      <!-- 9 -->
      <defs>
       <path d="M 10.984375 1.515625 
L 10.984375 10.5 
Q 14.703125 8.734375 18.5 7.8125 
Q 22.3125 6.890625 25.984375 6.890625 
Q 35.75 6.890625 40.890625 13.453125 
Q 46.046875 20.015625 46.78125 33.40625 
Q 43.953125 29.203125 39.59375 26.953125 
Q 35.25 24.703125 29.984375 24.703125 
Q 19.046875 24.703125 12.671875 31.3125 
Q 6.296875 37.9375 6.296875 49.421875 
Q 6.296875 60.640625 12.9375 67.421875 
Q 19.578125 74.21875 30.609375 74.21875 
Q 43.265625 74.21875 49.921875 64.515625 
Q 56.59375 54.828125 56.59375 36.375 
Q 56.59375 19.140625 48.40625 8.859375 
Q 40.234375 -1.421875 26.421875 -1.421875 
Q 22.703125 -1.421875 18.890625 -0.6875 
Q 15.09375 0.046875 10.984375 1.515625 
z
M 30.609375 32.421875 
Q 37.25 32.421875 41.125 36.953125 
Q 45.015625 41.5 45.015625 49.421875 
Q 45.015625 57.28125 41.125 61.84375 
Q 37.25 66.40625 30.609375 66.40625 
Q 23.96875 66.40625 20.09375 61.84375 
Q 16.21875 57.28125 16.21875 49.421875 
Q 16.21875 41.5 20.09375 36.953125 
Q 23.96875 32.421875 30.609375 32.421875 
z
" id="DejaVuSans-57"/>
      </defs>
      <g transform="translate(280.984375 281.217969)scale(0.13 -0.13)">
       <use xlink:href="#DejaVuSans-57"/>
      </g>
     </g>
    </g>
    <g id="xtick_6">
     <g id="line2d_11">
      <path clip-path="url(#pef6aaca5fa)" d="M 347.76 267.84 
L 347.76 34.56 
" style="fill:none;stroke:#cbcbcb;"/>
     </g>
     <g id="line2d_12"/>
     <g id="text_6">
      <!-- 10 -->
      <defs>
       <path d="M 12.40625 8.296875 
L 28.515625 8.296875 
L 28.515625 63.921875 
L 10.984375 60.40625 
L 10.984375 69.390625 
L 28.421875 72.90625 
L 38.28125 72.90625 
L 38.28125 8.296875 
L 54.390625 8.296875 
L 54.390625 0 
L 12.40625 0 
z
" id="DejaVuSans-49"/>
       <path d="M 31.78125 66.40625 
Q 24.171875 66.40625 20.328125 58.90625 
Q 16.5 51.421875 16.5 36.375 
Q 16.5 21.390625 20.328125 13.890625 
Q 24.171875 6.390625 31.78125 6.390625 
Q 39.453125 6.390625 43.28125 13.890625 
Q 47.125 21.390625 47.125 36.375 
Q 47.125 51.421875 43.28125 58.90625 
Q 39.453125 66.40625 31.78125 66.40625 
z
M 31.78125 74.21875 
Q 44.046875 74.21875 50.515625 64.515625 
Q 56.984375 54.828125 56.984375 36.375 
Q 56.984375 17.96875 50.515625 8.265625 
Q 44.046875 -1.421875 31.78125 -1.421875 
Q 19.53125 -1.421875 13.0625 8.265625 
Q 6.59375 17.96875 6.59375 36.375 
Q 6.59375 54.828125 13.0625 64.515625 
Q 19.53125 74.21875 31.78125 74.21875 
z
" id="DejaVuSans-48"/>
      </defs>
      <g transform="translate(339.48875 281.217969)scale(0.13 -0.13)">
       <use xlink:href="#DejaVuSans-49"/>
       <use x="63.623047" xlink:href="#DejaVuSans-48"/>
      </g>
     </g>
    </g>
    <g id="xtick_7">
     <g id="line2d_13">
      <path clip-path="url(#pef6aaca5fa)" d="M 410.4 267.84 
L 410.4 34.56 
" style="fill:none;stroke:#cbcbcb;"/>
     </g>
     <g id="line2d_14"/>
     <g id="text_7">
      <!-- 11 -->
      <g transform="translate(402.12875 281.217969)scale(0.13 -0.13)">
       <use xlink:href="#DejaVuSans-49"/>
       <use x="63.623047" xlink:href="#DejaVuSans-49"/>
      </g>
     </g>
    </g>
    <g id="text_8">
     <!-- t (ms) -->
     <defs>
      <path d="M 18.3125 70.21875 
L 18.3125 54.6875 
L 36.8125 54.6875 
L 36.8125 47.703125 
L 18.3125 47.703125 
L 18.3125 18.015625 
Q 18.3125 11.328125 20.140625 9.421875 
Q 21.96875 7.515625 27.59375 7.515625 
L 36.8125 7.515625 
L 36.8125 0 
L 27.59375 0 
Q 17.1875 0 13.234375 3.875 
Q 9.28125 7.765625 9.28125 18.015625 
L 9.28125 47.703125 
L 2.6875 47.703125 
L 2.6875 54.6875 
L 9.28125 54.6875 
L 9.28125 70.21875 
z
" id="DejaVuSans-116"/>
      <path id="DejaVuSans-32"/>
      <path d="M 31 75.875 
Q 24.46875 64.65625 21.28125 53.65625 
Q 18.109375 42.671875 18.109375 31.390625 
Q 18.109375 20.125 21.3125 9.0625 
Q 24.515625 -2 31 -13.1875 
L 23.1875 -13.1875 
Q 15.875 -1.703125 12.234375 9.375 
Q 8.59375 20.453125 8.59375 31.390625 
Q 8.59375 42.28125 12.203125 53.3125 
Q 15.828125 64.359375 23.1875 75.875 
z
" id="DejaVuSans-40"/>
      <path d="M 52 44.1875 
Q 55.375 50.25 60.0625 53.125 
Q 64.75 56 71.09375 56 
Q 79.640625 56 84.28125 50.015625 
Q 88.921875 44.046875 88.921875 33.015625 
L 88.921875 0 
L 79.890625 0 
L 79.890625 32.71875 
Q 79.890625 40.578125 77.09375 44.375 
Q 74.3125 48.1875 68.609375 48.1875 
Q 61.625 48.1875 57.5625 43.546875 
Q 53.515625 38.921875 53.515625 30.90625 
L 53.515625 0 
L 44.484375 0 
L 44.484375 32.71875 
Q 44.484375 40.625 41.703125 44.40625 
Q 38.921875 48.1875 33.109375 48.1875 
Q 26.21875 48.1875 22.15625 43.53125 
Q 18.109375 38.875 18.109375 30.90625 
L 18.109375 0 
L 9.078125 0 
L 9.078125 54.6875 
L 18.109375 54.6875 
L 18.109375 46.1875 
Q 21.1875 51.21875 25.484375 53.609375 
Q 29.78125 56 35.6875 56 
Q 41.65625 56 45.828125 52.96875 
Q 50 49.953125 52 44.1875 
z
" id="DejaVuSans-109"/>
      <path d="M 44.28125 53.078125 
L 44.28125 44.578125 
Q 40.484375 46.53125 36.375 47.5 
Q 32.28125 48.484375 27.875 48.484375 
Q 21.1875 48.484375 17.84375 46.4375 
Q 14.5 44.390625 14.5 40.28125 
Q 14.5 37.15625 16.890625 35.375 
Q 19.28125 33.59375 26.515625 31.984375 
L 29.59375 31.296875 
Q 39.15625 29.25 43.1875 25.515625 
Q 47.21875 21.78125 47.21875 15.09375 
Q 47.21875 7.46875 41.1875 3.015625 
Q 35.15625 -1.421875 24.609375 -1.421875 
Q 20.21875 -1.421875 15.453125 -0.5625 
Q 10.6875 0.296875 5.421875 2 
L 5.421875 11.28125 
Q 10.40625 8.6875 15.234375 7.390625 
Q 20.0625 6.109375 24.8125 6.109375 
Q 31.15625 6.109375 34.5625 8.28125 
Q 37.984375 10.453125 37.984375 14.40625 
Q 37.984375 18.0625 35.515625 20.015625 
Q 33.0625 21.96875 24.703125 23.78125 
L 21.578125 24.515625 
Q 13.234375 26.265625 9.515625 29.90625 
Q 5.8125 33.546875 5.8125 39.890625 
Q 5.8125 47.609375 11.28125 51.796875 
Q 16.75 56 26.8125 56 
Q 31.78125 56 36.171875 55.265625 
Q 40.578125 54.546875 44.28125 53.078125 
z
" id="DejaVuSans-115"/>
      <path d="M 8.015625 75.875 
L 15.828125 75.875 
Q 23.140625 64.359375 26.78125 53.3125 
Q 30.421875 42.28125 30.421875 31.390625 
Q 30.421875 20.453125 26.78125 9.375 
Q 23.140625 -1.703125 15.828125 -13.1875 
L 8.015625 -13.1875 
Q 14.5 -2 17.703125 9.0625 
Q 20.90625 20.125 20.90625 31.390625 
Q 20.90625 42.671875 17.703125 53.65625 
Q 14.5 64.65625 8.015625 75.875 
z
" id="DejaVuSans-41"/>
     </defs>
     <g transform="translate(198.59875 300.079063)scale(0.16 -0.16)">
      <use xlink:href="#DejaVuSans-116"/>
      <use x="39.208984" xlink:href="#DejaVuSans-32"/>
      <use x="70.996094" xlink:href="#DejaVuSans-40"/>
      <use x="110.009766" xlink:href="#DejaVuSans-109"/>
      <use x="207.421875" xlink:href="#DejaVuSans-115"/>
      <use x="259.521484" xlink:href="#DejaVuSans-41"/>
     </g>
    </g>
   </g>
   <g id="matplotlib.axis_2">
    <g id="ytick_1">
     <g id="line2d_15">
      <path clip-path="url(#pef6aaca5fa)" d="M 34.56 256.889675 
L 410.4 256.889675 
" style="fill:none;stroke:#cbcbcb;"/>
     </g>
     <g id="line2d_16"/>
     <g id="text_9">
      <!-- −100 -->
      <defs>
       <path d="M 10.59375 35.5 
L 73.1875 35.5 
L 73.1875 27.203125 
L 10.59375 27.203125 
z
" id="DejaVuSans-8722"/>
      </defs>
      <g transform="translate(-4.647344 261.82866)scale(0.13 -0.13)">
       <use xlink:href="#DejaVuSans-8722"/>
       <use x="83.789062" xlink:href="#DejaVuSans-49"/>
       <use x="147.412109" xlink:href="#DejaVuSans-48"/>
       <use x="211.035156" xlink:href="#DejaVuSans-48"/>
      </g>
     </g>
    </g>
    <g id="ytick_2">
     <g id="line2d_17">
      <path clip-path="url(#pef6aaca5fa)" d="M 34.56 226.068112 
L 410.4 226.068112 
" style="fill:none;stroke:#cbcbcb;"/>
     </g>
     <g id="line2d_18"/>
     <g id="text_10">
      <!-- −75 -->
      <g transform="translate(3.623906 231.007096)scale(0.13 -0.13)">
       <use xlink:href="#DejaVuSans-8722"/>
       <use x="83.789062" xlink:href="#DejaVuSans-55"/>
       <use x="147.412109" xlink:href="#DejaVuSans-53"/>
      </g>
     </g>
    </g>
    <g id="ytick_3">
     <g id="line2d_19">
      <path clip-path="url(#pef6aaca5fa)" d="M 34.56 195.246549 
L 410.4 195.246549 
" style="fill:none;stroke:#cbcbcb;"/>
     </g>
     <g id="line2d_20"/>
     <g id="text_11">
      <!-- −50 -->
      <g transform="translate(3.623906 200.185533)scale(0.13 -0.13)">
       <use xlink:href="#DejaVuSans-8722"/>
       <use x="83.789062" xlink:href="#DejaVuSans-53"/>
       <use x="147.412109" xlink:href="#DejaVuSans-48"/>
      </g>
     </g>
    </g>
    <g id="ytick_4">
     <g id="line2d_21">
      <path clip-path="url(#pef6aaca5fa)" d="M 34.56 164.424985 
L 410.4 164.424985 
" style="fill:none;stroke:#cbcbcb;"/>
     </g>
     <g id="line2d_22"/>
     <g id="text_12">
      <!-- −25 -->
      <defs>
       <path d="M 19.1875 8.296875 
L 53.609375 8.296875 
L 53.609375 0 
L 7.328125 0 
L 7.328125 8.296875 
Q 12.9375 14.109375 22.625 23.890625 
Q 32.328125 33.6875 34.8125 36.53125 
Q 39.546875 41.84375 41.421875 45.53125 
Q 43.3125 49.21875 43.3125 52.78125 
Q 43.3125 58.59375 39.234375 62.25 
Q 35.15625 65.921875 28.609375 65.921875 
Q 23.96875 65.921875 18.8125 64.3125 
Q 13.671875 62.703125 7.8125 59.421875 
L 7.8125 69.390625 
Q 13.765625 71.78125 18.9375 73 
Q 24.125 74.21875 28.421875 74.21875 
Q 39.75 74.21875 46.484375 68.546875 
Q 53.21875 62.890625 53.21875 53.421875 
Q 53.21875 48.921875 51.53125 44.890625 
Q 49.859375 40.875 45.40625 35.40625 
Q 44.1875 33.984375 37.640625 27.21875 
Q 31.109375 20.453125 19.1875 8.296875 
z
" id="DejaVuSans-50"/>
      </defs>
      <g transform="translate(3.623906 169.36397)scale(0.13 -0.13)">
       <use xlink:href="#DejaVuSans-8722"/>
       <use x="83.789062" xlink:href="#DejaVuSans-50"/>
       <use x="147.412109" xlink:href="#DejaVuSans-53"/>
      </g>
     </g>
    </g>
    <g id="ytick_5">
     <g id="line2d_23">
      <path clip-path="url(#pef6aaca5fa)" d="M 34.56 133.603422 
L 410.4 133.603422 
" style="fill:none;stroke:#cbcbcb;"/>
     </g>
     <g id="line2d_24"/>
     <g id="text_13">
      <!-- 0 -->
      <g transform="translate(22.78875 138.542406)scale(0.13 -0.13)">
       <use xlink:href="#DejaVuSans-48"/>
      </g>
     </g>
    </g>
    <g id="ytick_6">
     <g id="line2d_25">
      <path clip-path="url(#pef6aaca5fa)" d="M 34.56 102.781859 
L 410.4 102.781859 
" style="fill:none;stroke:#cbcbcb;"/>
     </g>
     <g id="line2d_26"/>
     <g id="text_14">
      <!-- 25 -->
      <g transform="translate(14.5175 107.720843)scale(0.13 -0.13)">
       <use xlink:href="#DejaVuSans-50"/>
       <use x="63.623047" xlink:href="#DejaVuSans-53"/>
      </g>
     </g>
    </g>
    <g id="ytick_7">
     <g id="line2d_27">
      <path clip-path="url(#pef6aaca5fa)" d="M 34.56 71.960295 
L 410.4 71.960295 
" style="fill:none;stroke:#cbcbcb;"/>
     </g>
     <g id="line2d_28"/>
     <g id="text_15">
      <!-- 50 -->
      <g transform="translate(14.5175 76.89928)scale(0.13 -0.13)">
       <use xlink:href="#DejaVuSans-53"/>
       <use x="63.623047" xlink:href="#DejaVuSans-48"/>
      </g>
     </g>
    </g>
    <g id="ytick_8">
     <g id="line2d_29">
      <path clip-path="url(#pef6aaca5fa)" d="M 34.56 41.138732 
L 410.4 41.138732 
" style="fill:none;stroke:#cbcbcb;"/>
     </g>
     <g id="line2d_30"/>
     <g id="text_16">
      <!-- 75 -->
      <g transform="translate(14.5175 46.077717)scale(0.13 -0.13)">
       <use xlink:href="#DejaVuSans-55"/>
       <use x="63.623047" xlink:href="#DejaVuSans-53"/>
      </g>
     </g>
    </g>
    <g id="text_17">
     <!-- Amplitude (µV) -->
     <defs>
      <path d="M 34.1875 63.1875 
L 20.796875 26.90625 
L 47.609375 26.90625 
z
M 28.609375 72.90625 
L 39.796875 72.90625 
L 67.578125 0 
L 57.328125 0 
L 50.6875 18.703125 
L 17.828125 18.703125 
L 11.1875 0 
L 0.78125 0 
z
" id="DejaVuSans-65"/>
      <path d="M 18.109375 8.203125 
L 18.109375 -20.796875 
L 9.078125 -20.796875 
L 9.078125 54.6875 
L 18.109375 54.6875 
L 18.109375 46.390625 
Q 20.953125 51.265625 25.265625 53.625 
Q 29.59375 56 35.59375 56 
Q 45.5625 56 51.78125 48.09375 
Q 58.015625 40.1875 58.015625 27.296875 
Q 58.015625 14.40625 51.78125 6.484375 
Q 45.5625 -1.421875 35.59375 -1.421875 
Q 29.59375 -1.421875 25.265625 0.953125 
Q 20.953125 3.328125 18.109375 8.203125 
z
M 48.6875 27.296875 
Q 48.6875 37.203125 44.609375 42.84375 
Q 40.53125 48.484375 33.40625 48.484375 
Q 26.265625 48.484375 22.1875 42.84375 
Q 18.109375 37.203125 18.109375 27.296875 
Q 18.109375 17.390625 22.1875 11.75 
Q 26.265625 6.109375 33.40625 6.109375 
Q 40.53125 6.109375 44.609375 11.75 
Q 48.6875 17.390625 48.6875 27.296875 
z
" id="DejaVuSans-112"/>
      <path d="M 9.421875 75.984375 
L 18.40625 75.984375 
L 18.40625 0 
L 9.421875 0 
z
" id="DejaVuSans-108"/>
      <path d="M 9.421875 54.6875 
L 18.40625 54.6875 
L 18.40625 0 
L 9.421875 0 
z
M 9.421875 75.984375 
L 18.40625 75.984375 
L 18.40625 64.59375 
L 9.421875 64.59375 
z
" id="DejaVuSans-105"/>
      <path d="M 8.5 21.578125 
L 8.5 54.6875 
L 17.484375 54.6875 
L 17.484375 21.921875 
Q 17.484375 14.15625 20.5 10.265625 
Q 23.53125 6.390625 29.59375 6.390625 
Q 36.859375 6.390625 41.078125 11.03125 
Q 45.3125 15.671875 45.3125 23.6875 
L 45.3125 54.6875 
L 54.296875 54.6875 
L 54.296875 0 
L 45.3125 0 
L 45.3125 8.40625 
Q 42.046875 3.421875 37.71875 1 
Q 33.40625 -1.421875 27.6875 -1.421875 
Q 18.265625 -1.421875 13.375 4.4375 
Q 8.5 10.296875 8.5 21.578125 
z
M 31.109375 56 
z
" id="DejaVuSans-117"/>
      <path d="M 45.40625 46.390625 
L 45.40625 75.984375 
L 54.390625 75.984375 
L 54.390625 0 
L 45.40625 0 
L 45.40625 8.203125 
Q 42.578125 3.328125 38.25 0.953125 
Q 33.9375 -1.421875 27.875 -1.421875 
Q 17.96875 -1.421875 11.734375 6.484375 
Q 5.515625 14.40625 5.515625 27.296875 
Q 5.515625 40.1875 11.734375 48.09375 
Q 17.96875 56 27.875 56 
Q 33.9375 56 38.25 53.625 
Q 42.578125 51.265625 45.40625 46.390625 
z
M 14.796875 27.296875 
Q 14.796875 17.390625 18.875 11.75 
Q 22.953125 6.109375 30.078125 6.109375 
Q 37.203125 6.109375 41.296875 11.75 
Q 45.40625 17.390625 45.40625 27.296875 
Q 45.40625 37.203125 41.296875 42.84375 
Q 37.203125 48.484375 30.078125 48.484375 
Q 22.953125 48.484375 18.875 42.84375 
Q 14.796875 37.203125 14.796875 27.296875 
z
" id="DejaVuSans-100"/>
      <path d="M 56.203125 29.59375 
L 56.203125 25.203125 
L 14.890625 25.203125 
Q 15.484375 15.921875 20.484375 11.0625 
Q 25.484375 6.203125 34.421875 6.203125 
Q 39.59375 6.203125 44.453125 7.46875 
Q 49.3125 8.734375 54.109375 11.28125 
L 54.109375 2.78125 
Q 49.265625 0.734375 44.1875 -0.34375 
Q 39.109375 -1.421875 33.890625 -1.421875 
Q 20.796875 -1.421875 13.15625 6.1875 
Q 5.515625 13.8125 5.515625 26.8125 
Q 5.515625 40.234375 12.765625 48.109375 
Q 20.015625 56 32.328125 56 
Q 43.359375 56 49.78125 48.890625 
Q 56.203125 41.796875 56.203125 29.59375 
z
M 47.21875 32.234375 
Q 47.125 39.59375 43.09375 43.984375 
Q 39.0625 48.390625 32.421875 48.390625 
Q 24.90625 48.390625 20.390625 44.140625 
Q 15.875 39.890625 15.1875 32.171875 
z
" id="DejaVuSans-101"/>
      <path d="M 8.5 -20.796875 
L 8.5 54.6875 
L 17.484375 54.6875 
L 17.484375 20.703125 
Q 17.484375 13.625 20.84375 10 
Q 24.21875 6.390625 30.8125 6.390625 
Q 38.03125 6.390625 41.671875 10.484375 
Q 45.3125 14.59375 45.3125 22.796875 
L 45.3125 54.6875 
L 54.296875 54.6875 
L 54.296875 12.59375 
Q 54.296875 9.671875 55.140625 8.28125 
Q 56 6.890625 57.8125 6.890625 
Q 58.25 6.890625 59.03125 7.15625 
Q 59.8125 7.421875 61.1875 8.015625 
L 61.1875 0.78125 
Q 59.1875 -0.34375 57.390625 -0.875 
Q 55.609375 -1.421875 53.90625 -1.421875 
Q 50.53125 -1.421875 48.53125 0.484375 
Q 46.53125 2.390625 45.796875 6.296875 
Q 43.359375 2.4375 39.8125 0.5 
Q 36.28125 -1.421875 31.5 -1.421875 
Q 26.515625 -1.421875 23.015625 0.484375 
Q 19.53125 2.390625 17.484375 6.203125 
L 17.484375 -20.796875 
z
" id="DejaVuSans-181"/>
      <path d="M 28.609375 0 
L 0.78125 72.90625 
L 11.078125 72.90625 
L 34.1875 11.53125 
L 57.328125 72.90625 
L 67.578125 72.90625 
L 39.796875 0 
z
" id="DejaVuSans-86"/>
     </defs>
     <g transform="translate(-11.974844 211.54375)rotate(-90)scale(0.16 -0.16)">
      <use xlink:href="#DejaVuSans-65"/>
      <use x="68.408203" xlink:href="#DejaVuSans-109"/>
      <use x="165.820312" xlink:href="#DejaVuSans-112"/>
      <use x="229.296875" xlink:href="#DejaVuSans-108"/>
      <use x="257.080078" xlink:href="#DejaVuSans-105"/>
      <use x="284.863281" xlink:href="#DejaVuSans-116"/>
      <use x="324.072266" xlink:href="#DejaVuSans-117"/>
      <use x="387.451172" xlink:href="#DejaVuSans-100"/>
      <use x="450.927734" xlink:href="#DejaVuSans-101"/>
      <use x="512.451172" xlink:href="#DejaVuSans-32"/>
      <use x="544.238281" xlink:href="#DejaVuSans-40"/>
      <use x="583.251953" xlink:href="#DejaVuSans-181"/>
      <use x="646.875" xlink:href="#DejaVuSans-86"/>
      <use x="715.283203" xlink:href="#DejaVuSans-41"/>
     </g>
    </g>
   </g>
   <g id="line2d_31">
    <path clip-path="url(#pef6aaca5fa)" d="M -1 131.542445 
L -0.168707 130.954382 
L 1.114571 131.379206 
L 2.397849 132.157059 
L 3.681127 133.486702 
L 4.964405 132.903785 
L 6.247682 131.715809 
L 7.53096 131.748805 
L 8.814238 131.648594 
L 10.097516 132.000177 
L 11.380794 131.5033 
L 12.664072 131.218262 
L 13.94735 131.226433 
L 15.230627 132.044055 
L 16.513905 132.135293 
L 19.080461 131.450559 
L 20.363739 131.995693 
L 21.647017 131.435725 
L 22.930294 129.340945 
L 24.213572 129.608867 
L 25.49685 129.600343 
L 26.780128 129.726312 
L 28.063406 131.04968 
L 29.346684 131.369637 
L 30.629962 131.825728 
L 31.913239 131.416048 
L 33.196517 129.8171 
L 34.479795 129.885097 
L 35.763073 130.226295 
L 37.046351 131.122915 
L 38.329629 132.490535 
L 39.612907 131.090867 
L 40.896184 130.72791 
L 42.179462 131.211357 
L 43.46274 131.872969 
L 44.746018 133.675356 
L 46.029296 134.213364 
L 47.312574 132.828024 
L 48.595851 133.070727 
L 49.879129 132.991155 
L 51.162407 131.841163 
L 52.445685 131.395776 
L 55.012241 131.801111 
L 56.295519 132.565832 
L 57.578796 132.942578 
L 60.145352 131.061933 
L 61.42863 131.5364 
L 62.711908 131.788906 
L 63.995186 129.958768 
L 65.278464 129.821604 
L 66.561741 129.504961 
L 67.845019 129.568095 
L 69.128297 130.108317 
L 70.411575 129.83522 
L 71.694853 130.319691 
L 72.978131 131.325205 
L 74.261408 131.547338 
L 75.544686 130.426108 
L 76.827964 130.571568 
L 79.39452 132.655021 
L 80.677798 130.910475 
L 81.961076 130.403871 
L 83.244353 130.727606 
L 85.810909 133.032709 
L 87.094187 133.761252 
L 88.377465 132.964448 
L 89.660743 133.08361 
L 90.94402 133.018117 
L 92.227298 131.521047 
L 93.510576 131.151884 
L 94.793854 130.934919 
L 96.077132 131.340586 
L 97.36041 132.073453 
L 98.643688 132.519691 
L 99.926965 131.853908 
L 101.210243 131.390892 
L 102.493521 132.288667 
L 103.776799 132.730436 
L 105.060077 130.453617 
L 107.626633 130.072886 
L 108.90991 129.667358 
L 110.193188 129.484163 
L 111.476466 130.124416 
L 112.759744 130.529772 
L 114.043022 131.203034 
L 115.3263 131.043585 
L 116.609577 130.508517 
L 117.892855 131.479209 
L 119.176133 132.116086 
L 120.459411 133.173982 
L 121.742689 131.637455 
L 123.025967 131.090106 
L 124.309245 132.409621 
L 126.8758 133.17044 
L 128.159078 133.991175 
L 129.442356 133.780479 
L 130.725634 134.173242 
L 132.008912 135.17309 
L 133.29219 133.981551 
L 134.575467 133.461656 
L 135.858745 133.960885 
L 137.142023 134.9452 
L 138.425301 136.166911 
L 139.708579 136.929391 
L 140.991857 137.343041 
L 142.275134 138.244685 
L 143.558412 140.963742 
L 144.84169 144.091047 
L 146.124968 145.137022 
L 147.408246 147.555481 
L 148.691524 151.630321 
L 149.974802 154.830161 
L 151.258079 158.917469 
L 153.824635 171.60389 
L 157.674469 195.085835 
L 160.241024 214.215699 
L 161.524302 223.820928 
L 162.80758 230.660891 
L 165.374136 246.208793 
L 166.657414 251.26911 
L 167.940691 254.78181 
L 169.223969 257.236364 
L 170.507247 256.275365 
L 171.790525 253.619579 
L 173.073803 248.538782 
L 174.357081 237.589157 
L 175.640359 227.838128 
L 178.206914 205.048044 
L 179.490192 192.000569 
L 183.340026 146.811793 
L 184.623303 133.381662 
L 185.906581 121.16907 
L 187.189859 107.348661 
L 188.473137 95.461188 
L 192.322971 66.765336 
L 194.889526 55.1806 
L 196.172804 51.618909 
L 197.456082 50.351694 
L 198.73936 47.347239 
L 200.022638 46.028015 
L 201.305915 45.163636 
L 203.872471 48.871976 
L 205.155749 51.866199 
L 206.439027 56.736555 
L 207.722305 60.1257 
L 209.005583 64.861244 
L 210.28886 73.063368 
L 211.572138 79.743431 
L 212.855416 88.528051 
L 214.138694 98.641732 
L 215.421972 107.005353 
L 217.988528 128.636604 
L 219.271805 140.202335 
L 221.838361 160.342231 
L 223.121639 168.947696 
L 224.404917 176.329043 
L 225.688195 182.721135 
L 226.971472 187.699278 
L 228.25475 189.74627 
L 229.538028 189.877581 
L 230.821306 190.40526 
L 232.104584 187.70976 
L 233.387862 183.029261 
L 234.67114 179.967629 
L 235.954417 174.621913 
L 238.520973 166.034395 
L 239.804251 159.329881 
L 243.654085 143.513104 
L 244.937362 137.703293 
L 246.22064 133.031138 
L 247.503918 129.434182 
L 248.787196 123.975283 
L 250.070474 119.323338 
L 251.353752 116.19494 
L 252.637029 112.399486 
L 253.920307 109.292813 
L 255.203585 107.540843 
L 256.486863 102.518419 
L 257.770141 98.994429 
L 259.053419 96.700894 
L 260.336697 93.994055 
L 264.18653 83.901435 
L 265.469808 81.90569 
L 266.753086 80.687133 
L 269.319641 78.722834 
L 270.602919 76.562617 
L 271.886197 76.883743 
L 273.169475 75.64311 
L 274.452753 73.506907 
L 275.736031 74.151872 
L 277.019309 74.138125 
L 278.302586 75.566969 
L 279.585864 77.609042 
L 282.15242 78.986521 
L 283.435698 79.09592 
L 284.718976 79.827875 
L 286.002254 80.793322 
L 287.285531 82.369577 
L 288.568809 84.590672 
L 289.852087 84.435008 
L 291.135365 84.759877 
L 292.418643 86.010432 
L 294.985198 89.476921 
L 296.268476 92.258642 
L 297.551754 91.760437 
L 298.835032 92.732852 
L 300.11831 94.313154 
L 303.968143 94.198345 
L 305.251421 94.464474 
L 306.534699 95.153152 
L 307.817977 96.671656 
L 309.101255 97.256808 
L 310.384533 96.48613 
L 311.66781 96.279619 
L 312.951088 98.60278 
L 314.234366 99.434626 
L 315.517644 98.626718 
L 316.800922 100.16025 
L 318.0842 100.029071 
L 319.367478 101.32823 
L 320.650755 104.219488 
L 323.217311 105.325469 
L 324.500589 105.367521 
L 325.783867 105.596283 
L 327.067145 106.326376 
L 328.350423 107.651376 
L 329.6337 109.878982 
L 330.916978 109.524992 
L 332.200256 109.463318 
L 333.483534 111.425348 
L 334.766812 112.615426 
L 336.05009 113.354791 
L 337.333367 115.388429 
L 338.616645 115.7095 
L 339.899923 116.208653 
L 341.183201 117.957883 
L 342.466479 117.801492 
L 343.749757 116.631554 
L 345.033035 116.877785 
L 346.316312 117.382929 
L 347.59959 118.672215 
L 348.882868 120.222096 
L 350.166146 120.494583 
L 351.449424 120.600108 
L 352.732702 119.493144 
L 354.01598 121.256032 
L 355.299257 121.403685 
L 356.582535 119.997832 
L 357.865813 121.178182 
L 359.149091 120.518384 
L 360.432369 120.85992 
L 361.715647 121.881991 
L 362.998924 122.640735 
L 364.282202 123.039621 
L 365.56548 123.580396 
L 366.848758 123.834024 
L 368.132036 123.460515 
L 369.415314 123.648567 
L 370.698592 123.694113 
L 371.981869 122.491103 
L 373.265147 122.492653 
L 374.548425 123.90155 
L 375.831703 124.014651 
L 377.114981 123.685174 
L 378.398259 124.879978 
L 380.964814 124.273474 
L 382.248092 125.579469 
L 383.53137 124.897724 
L 384.814648 123.581372 
L 386.097926 123.711444 
L 388.664481 124.84903 
L 391.231037 126.344737 
L 392.514315 125.524043 
L 393.797593 125.269406 
L 395.080871 125.74812 
L 396.364149 125.775574 
L 397.647426 125.238756 
L 398.930704 125.947027 
L 400.213982 125.609918 
L 401.49726 125.617868 
L 402.780538 127.793867 
L 404.063816 128.587315 
L 405.347093 128.416816 
L 406.630371 129.503418 
L 407.913649 129.799229 
L 409.196927 129.691442 
L 410.480205 130.725108 
L 411.763483 131.283679 
L 413.046761 130.649749 
L 414.330038 130.519629 
L 415.613316 131.770246 
L 416.896594 132.573629 
L 418.179872 132.459477 
L 419.46315 133.753316 
L 420.746428 134.488861 
L 422.029706 134.16826 
L 423.312983 135.542274 
L 424.596261 134.258709 
L 425.879539 131.874768 
L 427.162817 132.553766 
L 428.446095 132.611966 
L 429.729373 133.316425 
L 431.01265 134.560926 
L 432.295928 134.549358 
L 433 133.895582 
L 433 133.895582 
" style="fill:none;stroke:#008fd5;stroke-width:3;"/>
   </g>
   <g id="line2d_32">
    <path clip-path="url(#pef6aaca5fa)" d="M -1 133.560418 
L -0.168707 133.138565 
L 1.114571 132.640831 
L 2.397849 133.345961 
L 3.681127 133.363362 
L 4.964405 132.762421 
L 6.247682 132.562373 
L 7.53096 131.819487 
L 8.814238 132.256737 
L 10.097516 131.453935 
L 11.380794 130.995679 
L 12.664072 131.07411 
L 13.94735 131.440727 
L 15.230627 130.320916 
L 16.513905 130.229969 
L 19.080461 130.322867 
L 21.647017 130.912288 
L 22.930294 132.309472 
L 24.213572 131.557377 
L 25.49685 130.232051 
L 26.780128 130.250372 
L 28.063406 131.227547 
L 29.346684 132.49955 
L 30.629962 133.202702 
L 31.913239 133.020656 
L 33.196517 133.957011 
L 34.479795 133.385135 
L 35.763073 133.109278 
L 37.046351 133.506082 
L 38.329629 134.781378 
L 40.896184 133.051818 
L 42.179462 132.646415 
L 43.46274 133.11482 
L 44.746018 133.213225 
L 46.029296 132.613156 
L 47.312574 132.448324 
L 49.879129 132.815626 
L 51.162407 131.276089 
L 52.445685 130.648379 
L 53.728963 130.418394 
L 55.012241 130.72322 
L 56.295519 129.594517 
L 57.578796 130.188456 
L 60.145352 130.155738 
L 61.42863 129.432342 
L 62.711908 129.296818 
L 63.995186 131.030847 
L 65.278464 131.057817 
L 66.561741 130.149988 
L 67.845019 129.494278 
L 69.128297 130.970731 
L 70.411575 132.274041 
L 71.694853 132.223887 
L 72.978131 132.359024 
L 74.261408 132.971741 
L 75.544686 131.800972 
L 76.827964 132.0656 
L 79.39452 133.877784 
L 80.677798 132.755648 
L 81.961076 132.597402 
L 83.244353 132.095178 
L 84.527631 133.640976 
L 85.810909 132.921946 
L 87.094187 132.357253 
L 88.377465 132.469087 
L 89.660743 132.39615 
L 90.94402 132.018587 
L 92.227298 131.300374 
L 93.510576 129.702699 
L 94.793854 129.667773 
L 96.077132 130.573802 
L 97.36041 129.850296 
L 98.643688 131.165583 
L 99.926965 130.173187 
L 101.210243 130.190165 
L 102.493521 128.69908 
L 103.776799 129.529516 
L 105.060077 131.642692 
L 106.343355 131.261062 
L 107.626633 130.541575 
L 108.90991 130.763265 
L 111.476466 132.40412 
L 112.759744 132.702484 
L 114.043022 132.708884 
L 115.3263 133.337403 
L 116.609577 133.18499 
L 117.892855 132.153434 
L 119.176133 131.959806 
L 120.459411 133.591715 
L 121.742689 133.275473 
L 123.025967 134.221279 
L 124.309245 134.087 
L 125.592522 135.684689 
L 126.8758 135.292666 
L 128.159078 134.550597 
L 129.442356 134.580728 
L 130.725634 135.304303 
L 132.008912 134.732491 
L 133.29219 134.488432 
L 134.575467 132.837171 
L 135.858745 132.49367 
L 137.142023 134.14026 
L 138.425301 134.300602 
L 139.708579 135.987564 
L 140.991857 136.336275 
L 142.275134 137.407372 
L 143.558412 137.678676 
L 144.84169 139.344155 
L 146.124968 143.697052 
L 147.408246 146.978251 
L 148.691524 149.201304 
L 149.974802 153.051983 
L 152.541357 164.14165 
L 153.824635 170.024301 
L 155.107913 177.089938 
L 157.674469 193.029129 
L 160.241024 209.390217 
L 161.524302 218.718185 
L 162.80758 226.891949 
L 164.090858 235.924052 
L 166.657414 249.248015 
L 167.940691 252.480948 
L 169.223969 254.147126 
L 170.507247 253.941529 
L 171.790525 252.543861 
L 173.073803 247.599196 
L 174.357081 239.664793 
L 178.206914 208.82497 
L 182.056748 168.634361 
L 183.340026 153.95939 
L 184.623303 137.79195 
L 185.906581 125.303211 
L 188.473137 102.366927 
L 189.756415 90.770123 
L 191.039693 81.081654 
L 192.322971 73.137959 
L 193.606248 66.234323 
L 194.889526 60.207292 
L 196.172804 55.893528 
L 197.456082 52.148179 
L 200.022638 47.63609 
L 201.305915 47.131326 
L 202.589193 48.390349 
L 203.872471 48.948013 
L 206.439027 55.276196 
L 207.722305 61.163766 
L 209.005583 65.236351 
L 210.28886 70.293146 
L 211.572138 77.129995 
L 212.855416 85.44982 
L 214.138694 93.029714 
L 216.70525 110.82512 
L 220.555083 144.599159 
L 221.838361 156.636271 
L 223.121639 166.39033 
L 224.404917 174.1478 
L 225.688195 179.285497 
L 226.971472 185.670185 
L 228.25475 190.960814 
L 229.538028 193.099527 
L 230.821306 192.218108 
L 232.104584 190.8029 
L 233.387862 188.553341 
L 234.67114 184.762516 
L 237.237695 175.467307 
L 239.804251 164.271667 
L 241.087529 157.100158 
L 242.370807 150.60807 
L 244.937362 140.480876 
L 246.22064 136.693337 
L 247.503918 132.285755 
L 248.787196 128.789397 
L 250.070474 124.302727 
L 252.637029 116.243039 
L 253.920307 113.437739 
L 255.203585 108.704651 
L 259.053419 97.454463 
L 261.619974 91.319859 
L 262.903252 89.458033 
L 264.18653 86.786154 
L 266.753086 80.033167 
L 268.036364 78.403424 
L 269.319641 77.934914 
L 270.602919 77.83561 
L 271.886197 75.95711 
L 273.169475 75.208094 
L 274.452753 75.874576 
L 275.736031 75.931669 
L 277.019309 76.342449 
L 278.302586 77.603071 
L 279.585864 78.051308 
L 280.869142 79.551256 
L 282.15242 79.813269 
L 283.435698 80.913446 
L 284.718976 82.311135 
L 286.002254 83.041145 
L 288.568809 85.102465 
L 289.852087 86.931614 
L 291.135365 87.558244 
L 292.418643 88.523768 
L 293.701921 88.939321 
L 294.985198 90.644728 
L 296.268476 90.515874 
L 297.551754 91.174731 
L 298.835032 92.113196 
L 300.11831 92.804952 
L 301.401588 93.031465 
L 302.684866 93.882415 
L 303.968143 95.011449 
L 305.251421 95.717582 
L 306.534699 95.409878 
L 307.817977 94.273074 
L 309.101255 95.086642 
L 311.66781 97.784756 
L 312.951088 97.260945 
L 314.234366 98.363661 
L 315.517644 99.885956 
L 318.0842 100.879128 
L 319.367478 102.41315 
L 320.650755 103.754985 
L 321.934033 104.365003 
L 323.217311 104.804834 
L 324.500589 106.017364 
L 325.783867 106.988028 
L 328.350423 109.336511 
L 329.6337 110.857257 
L 330.916978 112.797638 
L 332.200256 113.30299 
L 333.483534 114.040472 
L 334.766812 113.938379 
L 336.05009 114.719609 
L 337.333367 114.685596 
L 338.616645 115.367251 
L 341.183201 117.467912 
L 342.466479 116.937286 
L 343.749757 116.185302 
L 345.033035 116.570544 
L 346.316312 117.911022 
L 347.59959 117.949235 
L 348.882868 118.217543 
L 350.166146 119.346246 
L 352.732702 121.113388 
L 354.01598 119.269766 
L 355.299257 120.12632 
L 356.582535 121.69733 
L 357.865813 122.158685 
L 359.149091 122.298181 
L 360.432369 123.393493 
L 361.715647 123.933307 
L 362.998924 124.225202 
L 364.282202 123.81279 
L 365.56548 124.561619 
L 366.848758 125.674318 
L 368.132036 125.469606 
L 369.415314 125.15178 
L 370.698592 125.636244 
L 371.981869 125.618512 
L 373.265147 125.246512 
L 375.831703 125.177214 
L 377.114981 126.16375 
L 378.398259 124.066355 
L 379.681536 123.695635 
L 380.964814 124.40502 
L 382.248092 124.565798 
L 383.53137 123.564628 
L 384.814648 123.108116 
L 386.097926 122.961176 
L 387.381204 124.233297 
L 388.664481 124.502941 
L 389.947759 124.116806 
L 391.231037 125.511569 
L 393.797593 126.387391 
L 395.080871 124.319062 
L 396.364149 124.852413 
L 397.647426 126.21389 
L 398.930704 126.681527 
L 400.213982 126.591238 
L 401.49726 127.731785 
L 404.063816 128.779303 
L 405.347093 129.110295 
L 406.630371 130.239205 
L 407.913649 131.865746 
L 409.196927 132.565611 
L 410.480205 132.194718 
L 411.763483 132.898243 
L 414.330038 133.755191 
L 415.613316 134.975795 
L 416.896594 135.20576 
L 418.179872 136.121185 
L 419.46315 134.909154 
L 420.746428 133.924748 
L 422.029706 134.677597 
L 423.312983 135.21948 
L 424.596261 133.735334 
L 425.879539 133.088688 
L 427.162817 131.682205 
L 431.01265 132.820656 
L 432.295928 133.115353 
L 433 133.1284 
L 433 133.1284 
" style="fill:none;stroke:#fc4f30;stroke-width:3;"/>
   </g>
   <g id="line2d_33">
    <path clip-path="url(#pef6aaca5fa)" d="M -1 131.411961 
L -0.168707 131.816961 
L 1.114571 132.966268 
L 2.397849 133.073356 
L 3.681127 131.598246 
L 4.964405 130.8656 
L 6.247682 130.656689 
L 7.53096 129.693144 
L 8.814238 130.013544 
L 10.097516 129.636839 
L 12.664072 131.632861 
L 13.94735 131.887339 
L 15.230627 131.005746 
L 16.513905 130.710302 
L 17.797183 132.150016 
L 19.080461 132.678331 
L 20.363739 131.932477 
L 21.647017 132.245695 
L 22.930294 133.001311 
L 24.213572 132.692978 
L 25.49685 133.276905 
L 26.780128 133.440257 
L 28.063406 133.404591 
L 29.346684 134.260058 
L 30.629962 133.99606 
L 31.913239 132.606203 
L 33.196517 132.996351 
L 34.479795 132.331626 
L 35.763073 131.195202 
L 37.046351 130.253921 
L 38.329629 131.416899 
L 39.612907 131.058322 
L 40.896184 130.990601 
L 42.179462 131.974169 
L 43.46274 132.218663 
L 44.746018 131.269136 
L 46.029296 131.152721 
L 47.312574 130.874968 
L 48.595851 130.285429 
L 49.879129 130.625444 
L 51.162407 130.26313 
L 52.445685 131.163362 
L 53.728963 131.710793 
L 56.295519 130.831193 
L 57.578796 130.975504 
L 58.862074 132.41728 
L 60.145352 132.630488 
L 61.42863 130.766531 
L 62.711908 131.760691 
L 63.995186 132.991251 
L 65.278464 132.432965 
L 67.845019 132.647674 
L 69.128297 133.065863 
L 70.411575 132.775636 
L 71.694853 133.220352 
L 72.978131 132.71318 
L 74.261408 132.640942 
L 75.544686 132.238257 
L 76.827964 130.256481 
L 78.111242 129.611987 
L 79.39452 130.925662 
L 81.961076 130.961376 
L 83.244353 132.194116 
L 84.527631 132.799741 
L 85.810909 132.014699 
L 87.094187 131.723247 
L 89.660743 130.285561 
L 92.227298 129.772758 
L 93.510576 130.265884 
L 94.793854 129.992448 
L 96.077132 130.52342 
L 97.36041 130.30465 
L 98.643688 130.474283 
L 99.926965 131.740869 
L 101.210243 131.873744 
L 102.493521 130.573713 
L 103.776799 131.138247 
L 105.060077 132.463462 
L 106.343355 131.784008 
L 107.626633 132.018864 
L 108.90991 132.070021 
L 110.193188 131.899509 
L 112.759744 132.08069 
L 114.043022 132.455201 
L 115.3263 133.119338 
L 116.609577 132.69515 
L 117.892855 130.990504 
L 119.176133 130.670838 
L 120.459411 132.26486 
L 121.742689 132.244477 
L 123.025967 131.781607 
L 124.309245 132.947144 
L 125.592522 133.799457 
L 126.8758 132.358699 
L 128.159078 132.538621 
L 130.725634 131.99954 
L 133.29219 133.356222 
L 134.575467 133.343782 
L 135.858745 133.215377 
L 137.142023 133.928194 
L 138.425301 134.238762 
L 139.708579 135.740814 
L 140.991857 138.861532 
L 142.275134 139.705403 
L 143.558412 139.158636 
L 144.84169 140.970557 
L 146.124968 144.71484 
L 147.408246 146.836077 
L 148.691524 150.776887 
L 149.974802 155.342328 
L 151.258079 159.42911 
L 153.824635 169.393007 
L 155.107913 175.466415 
L 157.674469 190.600534 
L 158.957746 197.024666 
L 160.241024 205.235563 
L 161.524302 214.363967 
L 162.80758 222.66516 
L 166.657414 244.675662 
L 167.940691 248.024373 
L 169.223969 250.790188 
L 170.507247 251.108693 
L 171.790525 248.875462 
L 173.073803 244.045033 
L 174.357081 238.666709 
L 175.640359 230.998795 
L 176.923636 221.105462 
L 178.206914 210.269292 
L 179.490192 196.847408 
L 183.340026 160.362537 
L 184.623303 144.971318 
L 185.906581 131.722839 
L 189.756415 97.084324 
L 191.039693 87.113155 
L 193.606248 69.881772 
L 194.889526 63.736167 
L 196.172804 58.77741 
L 197.456082 54.651414 
L 200.022638 48.054784 
L 201.305915 47.105041 
L 202.589193 47.343565 
L 203.872471 47.747861 
L 205.155749 48.946913 
L 209.005583 61.013284 
L 210.28886 66.92875 
L 211.572138 73.453274 
L 214.138694 87.549942 
L 216.70525 106.820353 
L 217.988528 116.024593 
L 219.271805 128.493199 
L 220.555083 139.62718 
L 223.121639 164.553425 
L 224.404917 174.108619 
L 225.688195 181.413445 
L 228.25475 193.215811 
L 229.538028 194.984655 
L 230.821306 195.896559 
L 232.104584 195.51387 
L 233.387862 192.315828 
L 234.67114 187.748817 
L 238.520973 170.614614 
L 242.370807 149.967457 
L 246.22064 133.539478 
L 248.787196 126.172225 
L 250.070474 121.9503 
L 251.353752 118.737092 
L 252.637029 115.968379 
L 253.920307 112.537182 
L 255.203585 107.449384 
L 256.486863 104.802364 
L 257.770141 100.946004 
L 261.619974 91.247468 
L 262.903252 89.762983 
L 264.18653 89.267456 
L 265.469808 86.630317 
L 266.753086 83.269255 
L 268.036364 81.321201 
L 269.319641 80.628622 
L 270.602919 79.175458 
L 271.886197 78.552432 
L 273.169475 78.701863 
L 274.452753 77.243808 
L 275.736031 76.844943 
L 277.019309 75.99151 
L 278.302586 76.591364 
L 279.585864 77.586362 
L 280.869142 78.283736 
L 282.15242 79.602773 
L 283.435698 80.728888 
L 284.718976 82.053584 
L 286.002254 82.047316 
L 287.285531 81.333621 
L 288.568809 82.187261 
L 289.852087 83.886573 
L 292.418643 85.906271 
L 293.701921 87.915168 
L 294.985198 88.832254 
L 296.268476 88.20707 
L 297.551754 89.881688 
L 298.835032 89.997203 
L 300.11831 90.609408 
L 301.401588 91.674956 
L 302.684866 92.117666 
L 305.251421 95.870888 
L 306.534699 95.869539 
L 307.817977 96.224615 
L 309.101255 96.886213 
L 310.384533 99.253466 
L 311.66781 99.2381 
L 312.951088 98.971168 
L 314.234366 99.897767 
L 315.517644 100.165356 
L 318.0842 101.1545 
L 320.650755 104.35807 
L 321.934033 105.308172 
L 323.217311 105.54168 
L 324.500589 106.379103 
L 325.783867 107.409815 
L 327.067145 107.590118 
L 328.350423 106.375457 
L 330.916978 108.78863 
L 332.200256 109.642333 
L 333.483534 110.990111 
L 334.766812 112.95834 
L 336.05009 113.633429 
L 337.333367 112.766435 
L 338.616645 114.357766 
L 339.899923 114.572821 
L 341.183201 114.532201 
L 342.466479 114.874236 
L 343.749757 115.361502 
L 347.59959 119.464369 
L 348.882868 119.721082 
L 350.166146 120.607905 
L 351.449424 122.512703 
L 352.732702 122.494521 
L 354.01598 121.753669 
L 355.299257 122.692134 
L 356.582535 123.328713 
L 357.865813 123.381912 
L 359.149091 122.991197 
L 360.432369 122.892985 
L 361.715647 123.682607 
L 362.998924 123.714509 
L 364.282202 124.510987 
L 365.56548 125.026676 
L 368.132036 124.678919 
L 369.415314 122.437711 
L 371.981869 122.981662 
L 373.265147 123.658419 
L 374.548425 123.086322 
L 375.831703 123.999416 
L 377.114981 123.787322 
L 378.398259 121.923365 
L 379.681536 123.063656 
L 380.964814 123.125496 
L 382.248092 122.724251 
L 383.53137 121.699482 
L 384.814648 122.39458 
L 386.097926 123.399506 
L 387.381204 124.05489 
L 389.947759 124.745657 
L 391.231037 125.520923 
L 392.514315 127.623721 
L 395.080871 126.884184 
L 396.364149 127.596953 
L 397.647426 128.029464 
L 398.930704 127.834757 
L 400.213982 128.13934 
L 401.49726 128.778791 
L 402.780538 128.962857 
L 404.063816 129.948051 
L 405.347093 130.207469 
L 406.630371 131.171076 
L 407.913649 131.066534 
L 409.196927 131.397375 
L 410.480205 130.168676 
L 411.763483 130.267005 
L 413.046761 131.167368 
L 414.330038 131.71994 
L 415.613316 131.255291 
L 416.896594 132.353122 
L 418.179872 132.664313 
L 419.46315 130.390324 
L 420.746428 131.79321 
L 422.029706 132.348148 
L 423.312983 131.975359 
L 424.596261 131.449777 
L 428.446095 132.716418 
L 431.01265 133.016256 
L 432.295928 134.306185 
L 433 135.48479 
L 433 135.48479 
" style="fill:none;stroke:#e5ae38;stroke-width:3;"/>
   </g>
   <g id="line2d_34">
    <path clip-path="url(#pef6aaca5fa)" d="M -1 130.708807 
L -0.168707 131.416366 
L 1.114571 131.612969 
L 2.397849 131.316003 
L 3.681127 130.850483 
L 4.964405 131.39871 
L 6.247682 132.320272 
L 7.53096 131.433885 
L 8.814238 130.954949 
L 10.097516 131.210672 
L 11.380794 130.488391 
L 12.664072 130.929038 
L 13.94735 132.692438 
L 15.230627 132.802107 
L 16.513905 132.405552 
L 17.797183 133.161549 
L 19.080461 134.351815 
L 20.363739 134.81867 
L 21.647017 135.029415 
L 22.930294 133.114018 
L 24.213572 131.589715 
L 25.49685 132.168171 
L 26.780128 132.448193 
L 28.063406 132.117442 
L 29.346684 132.547075 
L 30.629962 132.461546 
L 31.913239 131.76184 
L 33.196517 132.471177 
L 34.479795 133.769132 
L 35.763073 132.506504 
L 37.046351 130.346826 
L 38.329629 130.736469 
L 39.612907 130.417017 
L 40.896184 131.077334 
L 42.179462 130.658758 
L 43.46274 131.119546 
L 44.746018 130.468139 
L 46.029296 131.072906 
L 47.312574 132.244256 
L 48.595851 130.785592 
L 49.879129 130.358367 
L 51.162407 130.951171 
L 52.445685 129.836645 
L 53.728963 129.996676 
L 55.012241 131.680745 
L 56.295519 132.169022 
L 57.578796 132.265579 
L 60.145352 133.862867 
L 61.42863 133.934718 
L 62.711908 134.285242 
L 63.995186 132.582818 
L 65.278464 131.362622 
L 67.845019 132.406646 
L 69.128297 131.910337 
L 70.411575 132.071004 
L 71.694853 132.587716 
L 72.978131 131.412015 
L 74.261408 132.374467 
L 75.544686 133.896928 
L 78.111242 131.428979 
L 79.39452 131.268264 
L 80.677798 130.458315 
L 81.961076 130.42817 
L 83.244353 130.260328 
L 84.527631 131.35845 
L 85.810909 130.838292 
L 87.094187 131.859913 
L 88.377465 132.390442 
L 89.660743 130.954797 
L 90.94402 129.925918 
L 92.227298 130.393085 
L 93.510576 130.681237 
L 94.793854 131.358533 
L 96.077132 132.797236 
L 97.36041 132.96056 
L 98.643688 131.888958 
L 99.926965 132.01811 
L 103.776799 134.424759 
L 105.060077 133.049991 
L 106.343355 131.866251 
L 107.626633 131.84739 
L 108.90991 132.413869 
L 110.193188 131.852607 
L 111.476466 131.737998 
L 112.759744 131.971478 
L 114.043022 132.410126 
L 115.3263 133.462701 
L 116.609577 134.006583 
L 119.176133 131.216692 
L 120.459411 131.774778 
L 121.742689 132.494562 
L 123.025967 131.639205 
L 124.309245 131.064009 
L 125.592522 131.446643 
L 126.8758 131.118494 
L 128.159078 132.451368 
L 129.442356 133.362462 
L 132.008912 131.87613 
L 133.29219 132.729343 
L 134.575467 133.385564 
L 135.858745 133.439966 
L 137.142023 135.638479 
L 138.425301 136.49205 
L 139.708579 136.043986 
L 140.991857 138.113983 
L 142.275134 140.480039 
L 144.84169 143.749019 
L 146.124968 144.597208 
L 147.408246 146.628128 
L 148.691524 149.998176 
L 149.974802 153.982789 
L 151.258079 157.549101 
L 152.541357 161.79197 
L 153.824635 167.114148 
L 155.107913 173.561395 
L 158.957746 194.853504 
L 160.241024 201.432325 
L 162.80758 216.838426 
L 166.657414 236.089472 
L 169.223969 244.250381 
L 170.507247 246.479862 
L 171.790525 245.172656 
L 174.357081 237.830019 
L 175.640359 231.205015 
L 178.206914 214.003266 
L 179.490192 203.556807 
L 180.77347 190.467735 
L 183.340026 166.122505 
L 185.906581 139.995098 
L 187.189859 127.183717 
L 189.756415 104.578764 
L 193.606248 76.705897 
L 194.889526 70.14449 
L 196.172804 64.508776 
L 197.456082 60.402816 
L 200.022638 53.562397 
L 201.305915 51.250113 
L 202.589193 50.496496 
L 203.872471 50.874709 
L 205.155749 49.700502 
L 206.439027 51.365338 
L 207.722305 56.133538 
L 209.005583 60.34018 
L 210.28886 66.518559 
L 212.855416 77.722128 
L 214.138694 84.603126 
L 217.988528 113.705432 
L 220.555083 136.641191 
L 221.838361 146.381634 
L 224.404917 168.178872 
L 225.688195 177.923231 
L 226.971472 185.706924 
L 228.25475 191.403322 
L 229.538028 195.459855 
L 230.821306 196.793297 
L 232.104584 196.857496 
L 233.387862 193.51753 
L 237.237695 179.377267 
L 241.087529 158.180858 
L 242.370807 150.149669 
L 243.654085 145.028674 
L 244.937362 141.023562 
L 246.22064 134.457983 
L 247.503918 129.099253 
L 250.070474 121.719083 
L 251.353752 118.942925 
L 252.637029 116.595625 
L 253.920307 113.275433 
L 255.203585 110.377263 
L 256.486863 108.468313 
L 257.770141 105.183849 
L 259.053419 101.380632 
L 260.336697 99.031112 
L 261.619974 96.985178 
L 262.903252 92.880097 
L 265.469808 89.148786 
L 266.753086 86.052526 
L 268.036364 83.432759 
L 269.319641 82.608467 
L 270.602919 81.376074 
L 271.886197 80.444237 
L 273.169475 80.554723 
L 274.452753 78.155871 
L 275.736031 76.815905 
L 277.019309 77.470701 
L 278.302586 78.273088 
L 279.585864 77.795481 
L 280.869142 78.337488 
L 282.15242 78.703282 
L 283.435698 78.641581 
L 286.002254 81.158528 
L 287.285531 79.1636 
L 288.568809 79.367502 
L 289.852087 81.344933 
L 292.418643 84.441117 
L 293.701921 85.496038 
L 294.985198 86.027335 
L 296.268476 87.018333 
L 297.551754 89.791842 
L 298.835032 91.032441 
L 300.11831 90.816956 
L 301.401588 91.859085 
L 302.684866 93.09372 
L 303.968143 92.12639 
L 305.251421 93.736969 
L 306.534699 94.962146 
L 309.101255 95.055417 
L 310.384533 96.303288 
L 311.66781 97.720716 
L 312.951088 98.599881 
L 314.234366 100.821315 
L 316.800922 100.237207 
L 319.367478 103.324002 
L 320.650755 103.018229 
L 324.500589 104.392034 
L 325.783867 105.935059 
L 327.067145 108.183573 
L 328.350423 106.997293 
L 329.6337 106.962955 
L 330.916978 107.912137 
L 333.483534 109.36721 
L 336.05009 112.21259 
L 337.333367 113.229921 
L 338.616645 115.413288 
L 339.899923 115.955842 
L 341.183201 115.403484 
L 342.466479 116.22074 
L 343.749757 117.438673 
L 345.033035 116.929987 
L 346.316312 118.516938 
L 347.59959 119.490245 
L 348.882868 119.738697 
L 350.166146 119.794248 
L 351.449424 121.542918 
L 352.732702 122.374467 
L 354.01598 122.800765 
L 355.299257 123.725109 
L 357.865813 122.915588 
L 359.149091 123.237746 
L 360.432369 124.587481 
L 361.715647 123.401298 
L 362.998924 123.553911 
L 364.282202 123.944668 
L 365.56548 123.755759 
L 366.848758 124.904705 
L 368.132036 125.5075 
L 369.415314 123.227347 
L 370.698592 122.25397 
L 373.265147 121.907881 
L 374.548425 121.191978 
L 375.831703 121.745339 
L 377.114981 121.689034 
L 378.398259 122.309514 
L 379.681536 124.211572 
L 380.964814 123.868534 
L 382.248092 123.010396 
L 383.53137 122.612458 
L 384.814648 123.11736 
L 386.097926 122.538649 
L 387.381204 123.971333 
L 388.664481 125.118847 
L 389.947759 125.04362 
L 391.231037 124.632225 
L 392.514315 125.404294 
L 396.364149 129.188782 
L 397.647426 129.723483 
L 398.930704 129.257104 
L 400.213982 129.653728 
L 401.49726 129.861753 
L 402.780538 128.696838 
L 404.063816 128.921102 
L 405.347093 129.701654 
L 406.630371 130.328512 
L 407.913649 131.529979 
L 409.196927 133.056682 
L 410.480205 130.695565 
L 411.763483 129.87171 
L 413.046761 130.810631 
L 414.330038 131.362746 
L 415.613316 130.630626 
L 416.896594 130.508552 
L 418.179872 129.611489 
L 419.46315 130.430661 
L 420.746428 133.088128 
L 422.029706 133.183779 
L 423.312983 132.480814 
L 424.596261 132.453638 
L 425.879539 133.304068 
L 427.162817 132.338697 
L 428.446095 132.968309 
L 429.729373 133.224268 
L 431.01265 132.905175 
L 432.295928 133.417882 
L 433 134.19182 
L 433 134.19182 
" style="fill:none;stroke:#6d904f;stroke-width:3;"/>
   </g>
   <g id="line2d_35">
    <path clip-path="url(#pef6aaca5fa)" d="M -1 134.351247 
L -0.168707 134.077722 
L 1.114571 133.897634 
L 2.397849 133.361086 
L 3.681127 133.13788 
L 4.964405 131.123988 
L 6.247682 131.0654 
L 7.53096 131.23475 
L 8.814238 131.081472 
L 10.097516 130.555094 
L 11.380794 131.093005 
L 12.664072 131.799796 
L 13.94735 130.972737 
L 15.230627 130.637739 
L 16.513905 129.701446 
L 17.797183 129.870353 
L 19.080461 129.642789 
L 20.363739 130.20403 
L 21.647017 129.666666 
L 22.930294 130.544301 
L 25.49685 131.78463 
L 26.780128 131.139866 
L 28.063406 132.14931 
L 30.629962 131.901529 
L 31.913239 133.050109 
L 33.196517 132.786637 
L 34.479795 131.200806 
L 35.763073 130.661919 
L 37.046351 131.740918 
L 38.329629 132.269267 
L 39.612907 133.189978 
L 40.896184 132.87018 
L 42.179462 133.623417 
L 43.46274 134.056377 
L 44.746018 133.935728 
L 46.029296 131.999595 
L 47.312574 132.284191 
L 48.595851 131.812956 
L 49.879129 131.101564 
L 51.162407 129.967825 
L 52.445685 131.000882 
L 53.728963 131.317947 
L 55.012241 130.510053 
L 56.295519 130.610216 
L 57.578796 131.122043 
L 58.862074 131.154388 
L 60.145352 130.394995 
L 61.42863 129.859892 
L 62.711908 129.168178 
L 63.995186 130.032107 
L 65.278464 130.334137 
L 66.561741 130.979005 
L 67.845019 130.670201 
L 69.128297 131.357384 
L 70.411575 131.630135 
L 71.694853 131.388491 
L 72.978131 132.853389 
L 74.261408 132.64858 
L 75.544686 131.04959 
L 76.827964 131.484717 
L 78.111242 132.292051 
L 79.39452 132.304428 
L 80.677798 132.726291 
L 81.961076 132.618089 
L 83.244353 133.859512 
L 84.527631 134.221784 
L 85.810909 133.543955 
L 87.094187 132.072837 
L 88.377465 131.67667 
L 89.660743 131.442789 
L 90.94402 131.790006 
L 92.227298 131.06421 
L 93.510576 131.959252 
L 94.793854 131.199935 
L 96.077132 129.645425 
L 97.36041 129.778943 
L 98.643688 130.957128 
L 99.926965 130.894707 
L 101.210243 129.466133 
L 102.493521 129.582942 
L 103.776799 127.836901 
L 105.060077 128.881008 
L 106.343355 130.096216 
L 107.626633 130.071613 
L 108.90991 129.651714 
L 110.193188 131.161563 
L 111.476466 131.592877 
L 112.759744 131.54931 
L 114.043022 132.652406 
L 115.3263 132.995423 
L 116.609577 132.251472 
L 117.892855 133.855554 
L 119.176133 134.03522 
L 120.459411 133.625278 
L 121.742689 132.531301 
L 123.025967 132.587875 
L 124.309245 134.631511 
L 125.592522 135.943809 
L 126.8758 136.552326 
L 128.159078 134.314239 
L 129.442356 134.042415 
L 130.725634 133.571893 
L 132.008912 133.799056 
L 133.29219 132.78874 
L 134.575467 133.941706 
L 135.858745 134.058218 
L 137.142023 133.569208 
L 138.425301 134.59734 
L 139.708579 136.232971 
L 140.991857 136.941457 
L 142.275134 137.304691 
L 143.558412 138.071003 
L 144.84169 138.697641 
L 149.974802 150.325426 
L 151.258079 155.982906 
L 152.541357 160.248606 
L 153.824635 165.180415 
L 156.391191 177.962336 
L 157.674469 182.876094 
L 160.241024 199.498932 
L 162.80758 212.684955 
L 164.090858 219.745735 
L 165.374136 227.566201 
L 166.657414 234.342158 
L 167.940691 238.729808 
L 169.223969 239.68146 
L 170.507247 241.269913 
L 171.790525 240.181069 
L 173.073803 237.958991 
L 175.640359 228.158355 
L 176.923636 220.648064 
L 179.490192 201.958578 
L 180.77347 192.211618 
L 184.623303 154.439716 
L 185.906581 141.027948 
L 191.039693 97.760395 
L 194.889526 76.542027 
L 196.172804 70.776074 
L 197.456082 66.245663 
L 198.73936 60.928301 
L 200.022638 59.180164 
L 201.305915 58.471657 
L 202.589193 56.64967 
L 203.872471 55.726572 
L 205.155749 56.195143 
L 206.439027 59.100543 
L 210.28886 69.436738 
L 211.572138 74.171438 
L 212.855416 79.438682 
L 214.138694 86.434911 
L 215.421972 92.604703 
L 217.988528 110.568663 
L 220.555083 131.287664 
L 221.838361 142.910004 
L 223.121639 153.07368 
L 225.688195 171.332634 
L 226.971472 177.408201 
L 228.25475 184.981612 
L 229.538028 190.524594 
L 230.821306 193.114935 
L 232.104584 193.194992 
L 233.387862 193.719059 
L 234.67114 191.280895 
L 235.954417 187.237134 
L 237.237695 182.422342 
L 238.520973 176.359596 
L 239.804251 167.965927 
L 241.087529 162.399103 
L 242.370807 156.191244 
L 246.22064 135.068451 
L 247.503918 131.745242 
L 250.070474 125.672962 
L 251.353752 121.746488 
L 252.637029 119.204993 
L 255.203585 113.145187 
L 256.486863 108.324867 
L 257.770141 106.463533 
L 260.336697 101.157683 
L 261.619974 98.695574 
L 262.903252 97.35037 
L 264.18653 93.477938 
L 265.469808 90.40388 
L 266.753086 87.949229 
L 268.036364 84.996796 
L 270.602919 81.768034 
L 271.886197 79.522945 
L 273.169475 77.712 
L 274.452753 78.988313 
L 275.736031 78.416936 
L 277.019309 78.465914 
L 278.302586 77.985746 
L 279.585864 79.030282 
L 280.869142 78.285812 
L 282.15242 79.790098 
L 283.435698 80.92895 
L 284.718976 81.376766 
L 286.002254 80.773078 
L 287.285531 81.306721 
L 289.852087 84.955165 
L 291.135365 85.909827 
L 292.418643 86.690821 
L 293.701921 88.668079 
L 294.985198 89.435554 
L 296.268476 90.038633 
L 297.551754 89.076942 
L 298.835032 89.770345 
L 300.11831 90.824477 
L 301.401588 91.086697 
L 302.684866 90.997819 
L 303.968143 93.24751 
L 305.251421 92.96674 
L 306.534699 92.908754 
L 307.817977 93.568532 
L 309.101255 93.653875 
L 310.384533 94.916579 
L 311.66781 95.664135 
L 312.951088 94.707087 
L 314.234366 94.982584 
L 315.517644 97.494653 
L 316.800922 98.148592 
L 318.0842 99.102873 
L 319.367478 99.54718 
L 320.650755 101.649716 
L 321.934033 101.341618 
L 323.217311 104.209352 
L 324.500589 106.719526 
L 325.783867 106.710054 
L 327.067145 105.340946 
L 328.350423 106.13701 
L 329.6337 107.926375 
L 332.200256 110.326106 
L 333.483534 110.933716 
L 334.766812 112.834487 
L 336.05009 114.261187 
L 337.333367 114.601437 
L 338.616645 114.312974 
L 339.899923 115.622262 
L 342.466479 116.801609 
L 343.749757 116.839469 
L 345.033035 118.339389 
L 346.316312 117.382126 
L 347.59959 117.150051 
L 348.882868 118.587357 
L 350.166146 120.271378 
L 352.732702 119.587377 
L 354.01598 118.019411 
L 355.299257 118.350162 
L 356.582535 120.899468 
L 359.149091 122.215654 
L 360.432369 122.376079 
L 361.715647 123.859817 
L 362.998924 123.495683 
L 364.282202 124.655229 
L 365.56548 125.254994 
L 366.848758 125.077812 
L 368.132036 123.941319 
L 369.415314 124.525164 
L 370.698592 124.461934 
L 371.981869 124.271495 
L 373.265147 124.22678 
L 374.548425 124.71938 
L 375.831703 125.600288 
L 377.114981 126.686979 
L 378.398259 126.550279 
L 379.681536 124.653078 
L 380.964814 123.881873 
L 384.814648 123.769499 
L 386.097926 124.959612 
L 387.381204 123.745291 
L 388.664481 123.713444 
L 391.231037 125.088557 
L 392.514315 125.276214 
L 393.797593 124.845529 
L 395.080871 123.676366 
L 396.364149 123.276484 
L 397.647426 125.265711 
L 398.930704 125.721324 
L 400.213982 126.998074 
L 401.49726 127.440492 
L 402.780538 128.428149 
L 404.063816 128.243121 
L 405.347093 129.488889 
L 406.630371 131.298879 
L 407.913649 131.439883 
L 409.196927 130.866458 
L 410.480205 131.805635 
L 411.763483 131.777497 
L 414.330038 130.793839 
L 415.613316 132.012222 
L 416.896594 132.965894 
L 418.179872 135.706704 
L 419.46315 136.177268 
L 420.746428 134.925634 
L 422.029706 134.407704 
L 424.596261 134.012312 
L 425.879539 133.195804 
L 427.162817 134.410409 
L 428.446095 133.373719 
L 429.729373 133.634777 
L 431.01265 133.765355 
L 432.295928 134.23084 
L 433 133.983981 
L 433 133.983981 
" style="fill:none;stroke:#8b8b8b;stroke-width:3;"/>
   </g>
   <g id="line2d_36">
    <path clip-path="url(#pef6aaca5fa)" d="M -1 130.684571 
L -0.168707 130.128208 
L 1.114571 131.92295 
L 2.397849 132.83111 
L 3.681127 132.552624 
L 4.964405 132.751856 
L 6.247682 132.383911 
L 7.53096 132.688169 
L 8.814238 132.423631 
L 10.097516 131.614256 
L 11.380794 131.104643 
L 12.664072 129.984651 
L 13.94735 129.564843 
L 15.230627 130.089581 
L 16.513905 130.146252 
L 17.797183 131.146377 
L 20.363739 129.8129 
L 21.647017 132.719919 
L 22.930294 133.188671 
L 24.213572 133.049791 
L 25.49685 131.217557 
L 26.780128 130.738939 
L 28.063406 131.238638 
L 30.629962 133.000723 
L 33.196517 132.027623 
L 34.479795 132.50337 
L 35.763073 134.684848 
L 37.046351 134.351365 
L 38.329629 133.365154 
L 39.612907 130.764538 
L 40.896184 129.575082 
L 42.179462 131.624448 
L 43.46274 132.790746 
L 44.746018 132.174522 
L 46.029296 131.744993 
L 47.312574 131.633103 
L 48.595851 131.889338 
L 49.879129 131.838015 
L 51.162407 131.620137 
L 52.445685 130.936663 
L 53.728963 129.897157 
L 55.012241 130.047577 
L 56.295519 130.701301 
L 57.578796 130.34208 
L 58.862074 131.002398 
L 60.145352 130.967008 
L 61.42863 131.058225 
L 62.711908 134.069205 
L 63.995186 134.047584 
L 65.278464 132.753441 
L 66.561741 130.435102 
L 67.845019 130.56431 
L 69.128297 131.384354 
L 70.411575 132.462162 
L 71.694853 132.793016 
L 74.261408 131.73788 
L 75.544686 131.975574 
L 76.827964 133.793313 
L 79.39452 132.728187 
L 80.677798 130.177732 
L 81.961076 129.019189 
L 83.244353 131.580396 
L 84.527631 132.082703 
L 85.810909 131.443163 
L 87.094187 131.315498 
L 88.377465 132.453098 
L 89.660743 132.608583 
L 90.94402 131.900305 
L 92.227298 131.626489 
L 93.510576 131.02377 
L 94.793854 130.066576 
L 97.36041 131.422178 
L 99.926965 131.029512 
L 101.210243 131.087796 
L 102.493521 130.73301 
L 103.776799 133.421466 
L 105.060077 133.662701 
L 106.343355 132.33292 
L 107.626633 130.784056 
L 108.90991 131.399921 
L 110.193188 131.704878 
L 111.476466 132.481015 
L 112.759744 132.588698 
L 114.043022 131.617107 
L 115.3263 131.37767 
L 116.609577 131.521843 
L 117.892855 133.025354 
L 120.459411 133.384775 
L 121.742689 131.580209 
L 123.025967 130.485201 
L 124.309245 131.459664 
L 125.592522 132.636631 
L 126.8758 132.52526 
L 128.159078 132.583309 
L 129.442356 133.762954 
L 130.725634 134.230778 
L 132.008912 133.967638 
L 133.29219 133.821618 
L 134.575467 133.33997 
L 135.858745 133.25334 
L 137.142023 133.806376 
L 138.425301 134.926852 
L 139.708579 135.028031 
L 140.991857 135.480026 
L 142.275134 136.522334 
L 143.558412 138.208015 
L 144.84169 142.434244 
L 146.124968 144.396454 
L 147.408246 145.33788 
L 148.691524 147.012055 
L 149.974802 151.42729 
L 151.258079 155.163437 
L 152.541357 159.901687 
L 155.107913 168.657393 
L 156.391191 174.547295 
L 157.674469 181.3674 
L 158.957746 188.849726 
L 161.524302 201.640822 
L 162.80758 206.896379 
L 164.090858 212.884623 
L 165.374136 220.454083 
L 166.657414 225.857632 
L 167.940691 228.651398 
L 169.223969 232.071719 
L 170.507247 234.743452 
L 171.790525 234.792174 
L 173.073803 233.036737 
L 174.357081 229.811802 
L 175.640359 223.916892 
L 176.923636 217.035686 
L 179.490192 200.321639 
L 182.056748 178.515358 
L 184.623303 155.919552 
L 185.906581 146.730629 
L 187.189859 136.341063 
L 188.473137 123.836583 
L 189.756415 112.968109 
L 194.889526 81.528591 
L 196.172804 74.92235 
L 197.456082 70.010868 
L 198.73936 66.75812 
L 201.305915 61.400947 
L 202.589193 59.339786 
L 203.872471 57.890359 
L 205.155749 58.488767 
L 206.439027 61.426692 
L 207.722305 64.055723 
L 209.005583 65.792417 
L 210.28886 69.852167 
L 211.572138 76.123872 
L 214.138694 86.9724 
L 216.70525 100.116233 
L 217.988528 108.306775 
L 226.971472 176.360766 
L 228.25475 184.200624 
L 229.538028 188.86757 
L 230.821306 192.668372 
L 232.104584 195.646087 
L 233.387862 195.756282 
L 234.67114 192.960495 
L 238.520973 177.8995 
L 239.804251 172.887393 
L 241.087529 166.043321 
L 242.370807 157.757798 
L 244.937362 143.690922 
L 246.22064 137.888494 
L 248.787196 129.683098 
L 250.070474 123.424358 
L 251.353752 120.030398 
L 252.637029 118.771347 
L 257.770141 106.983815 
L 259.053419 104.548848 
L 260.336697 101.370676 
L 261.619974 99.603928 
L 264.18653 92.907121 
L 266.753086 88.694696 
L 269.319641 87.395398 
L 270.602919 84.329462 
L 271.886197 82.899691 
L 273.169475 83.48842 
L 275.736031 81.106458 
L 277.019309 79.095934 
L 278.302586 79.031867 
L 279.585864 79.267311 
L 280.869142 80.155767 
L 282.15242 79.700923 
L 283.435698 79.652914 
L 284.718976 80.182903 
L 286.002254 81.880665 
L 288.568809 84.546316 
L 289.852087 85.336914 
L 291.135365 83.328425 
L 292.418643 84.822762 
L 293.701921 88.36811 
L 294.985198 89.236274 
L 296.268476 89.021565 
L 297.551754 89.608848 
L 298.835032 89.806571 
L 300.11831 91.097318 
L 301.401588 91.653522 
L 302.684866 92.670376 
L 303.968143 92.909695 
L 305.251421 92.952307 
L 306.534699 93.849689 
L 307.817977 94.418423 
L 309.101255 94.33537 
L 310.384533 95.142815 
L 311.66781 94.820256 
L 312.951088 97.402053 
L 314.234366 100.315839 
L 315.517644 100.692841 
L 316.800922 99.709093 
L 318.0842 98.315008 
L 319.367478 99.539307 
L 320.650755 101.04405 
L 321.934033 102.951435 
L 323.217311 102.704907 
L 324.500589 103.110504 
L 325.783867 104.002509 
L 327.067145 106.422497 
L 328.350423 108.24205 
L 329.6337 108.811337 
L 330.916978 109.00527 
L 332.200256 106.68799 
L 333.483534 108.045454 
L 334.766812 111.525732 
L 336.05009 112.014063 
L 337.333367 112.009725 
L 338.616645 112.659319 
L 339.899923 114.08727 
L 341.183201 115.296784 
L 342.466479 115.556333 
L 343.749757 116.348391 
L 345.033035 116.500208 
L 346.316312 117.089464 
L 347.59959 117.889595 
L 350.166146 118.13501 
L 351.449424 119.176128 
L 352.732702 118.593957 
L 355.299257 123.968081 
L 356.582535 123.657637 
L 357.865813 122.586464 
L 359.149091 121.998198 
L 360.432369 122.629782 
L 361.715647 123.526575 
L 362.998924 124.74646 
L 364.282202 124.028917 
L 365.56548 123.759128 
L 366.848758 123.345796 
L 368.132036 124.455686 
L 369.415314 125.343775 
L 370.698592 125.408085 
L 371.981869 124.623763 
L 373.265147 122.382382 
L 374.548425 122.955427 
L 375.831703 123.874131 
L 378.398259 122.439455 
L 380.964814 123.929066 
L 382.248092 124.238403 
L 383.53137 123.529315 
L 384.814648 123.386312 
L 386.097926 122.883728 
L 387.381204 123.253652 
L 388.664481 124.134926 
L 389.947759 124.534407 
L 391.231037 124.355897 
L 392.514315 124.993141 
L 393.797593 124.274325 
L 395.080871 126.568551 
L 396.364149 128.608175 
L 397.647426 128.11343 
L 398.930704 127.011268 
L 400.213982 126.571457 
L 402.780538 129.081707 
L 404.063816 129.316363 
L 405.347093 127.904684 
L 407.913649 129.640513 
L 409.196927 131.697399 
L 410.480205 132.477791 
L 411.763483 132.334248 
L 413.046761 131.581745 
L 414.330038 130.4504 
L 415.613316 131.380147 
L 416.896594 132.822393 
L 418.179872 132.194386 
L 419.46315 130.794005 
L 420.746428 131.509596 
L 422.029706 132.601803 
L 424.596261 132.815308 
L 425.879539 133.043329 
L 427.162817 132.432688 
L 428.446095 132.835628 
L 429.729373 132.556291 
L 431.01265 132.961535 
L 432.295928 132.087062 
L 433 132.269371 
L 433 132.269371 
" style="fill:none;stroke:#810f7c;stroke-width:3;"/>
   </g>
   <g id="patch_3">
    <path d="M 34.56 267.84 
L 34.56 34.56 
" style="fill:none;stroke:#f0f0f0;stroke-linecap:square;stroke-linejoin:miter;stroke-width:3;"/>
   </g>
   <g id="patch_4">
    <path d="M 410.4 267.84 
L 410.4 34.56 
" style="fill:none;stroke:#f0f0f0;stroke-linecap:square;stroke-linejoin:miter;stroke-width:3;"/>
   </g>
   <g id="patch_5">
    <path d="M 34.56 267.84 
L 410.4 267.84 
" style="fill:none;stroke:#f0f0f0;stroke-linecap:square;stroke-linejoin:miter;stroke-width:3;"/>
   </g>
   <g id="patch_6">
    <path d="M 34.56 34.56 
L 410.4 34.56 
" style="fill:none;stroke:#f0f0f0;stroke-linecap:square;stroke-linejoin:miter;stroke-width:3;"/>
   </g>
   <g id="legend_1">
    <g id="patch_7">
     <path d="M 438.292 161.61875 
L 671.379969 161.61875 
Q 673.979969 161.61875 673.979969 159.01875 
L 673.979969 43.66 
Q 673.979969 41.06 671.379969 41.06 
L 438.292 41.06 
Q 435.692 41.06 435.692 43.66 
L 435.692 159.01875 
Q 435.692 161.61875 438.292 161.61875 
z
" style="fill:#ffffff;opacity:0.8;stroke:#cccccc;stroke-linejoin:miter;stroke-width:0.5;"/>
    </g>
    <g id="line2d_37">
     <path style="fill:none;stroke:#008fd5;stroke-width:3;"/>
    </g>
    <g id="line2d_38"/>
    <g id="text_18">
     <!-- 6_notch5000_bw2000_35dB -->
     <defs>
      <path d="M 50.984375 -16.609375 
L 50.984375 -23.578125 
L -0.984375 -23.578125 
L -0.984375 -16.609375 
z
" id="DejaVuSans-95"/>
      <path d="M 54.890625 33.015625 
L 54.890625 0 
L 45.90625 0 
L 45.90625 32.71875 
Q 45.90625 40.484375 42.875 44.328125 
Q 39.84375 48.1875 33.796875 48.1875 
Q 26.515625 48.1875 22.3125 43.546875 
Q 18.109375 38.921875 18.109375 30.90625 
L 18.109375 0 
L 9.078125 0 
L 9.078125 54.6875 
L 18.109375 54.6875 
L 18.109375 46.1875 
Q 21.34375 51.125 25.703125 53.5625 
Q 30.078125 56 35.796875 56 
Q 45.21875 56 50.046875 50.171875 
Q 54.890625 44.34375 54.890625 33.015625 
z
" id="DejaVuSans-110"/>
      <path d="M 30.609375 48.390625 
Q 23.390625 48.390625 19.1875 42.75 
Q 14.984375 37.109375 14.984375 27.296875 
Q 14.984375 17.484375 19.15625 11.84375 
Q 23.34375 6.203125 30.609375 6.203125 
Q 37.796875 6.203125 41.984375 11.859375 
Q 46.1875 17.53125 46.1875 27.296875 
Q 46.1875 37.015625 41.984375 42.703125 
Q 37.796875 48.390625 30.609375 48.390625 
z
M 30.609375 56 
Q 42.328125 56 49.015625 48.375 
Q 55.71875 40.765625 55.71875 27.296875 
Q 55.71875 13.875 49.015625 6.21875 
Q 42.328125 -1.421875 30.609375 -1.421875 
Q 18.84375 -1.421875 12.171875 6.21875 
Q 5.515625 13.875 5.515625 27.296875 
Q 5.515625 40.765625 12.171875 48.375 
Q 18.84375 56 30.609375 56 
z
" id="DejaVuSans-111"/>
      <path d="M 48.78125 52.59375 
L 48.78125 44.1875 
Q 44.96875 46.296875 41.140625 47.34375 
Q 37.3125 48.390625 33.40625 48.390625 
Q 24.65625 48.390625 19.8125 42.84375 
Q 14.984375 37.3125 14.984375 27.296875 
Q 14.984375 17.28125 19.8125 11.734375 
Q 24.65625 6.203125 33.40625 6.203125 
Q 37.3125 6.203125 41.140625 7.25 
Q 44.96875 8.296875 48.78125 10.40625 
L 48.78125 2.09375 
Q 45.015625 0.34375 40.984375 -0.53125 
Q 36.96875 -1.421875 32.421875 -1.421875 
Q 20.0625 -1.421875 12.78125 6.34375 
Q 5.515625 14.109375 5.515625 27.296875 
Q 5.515625 40.671875 12.859375 48.328125 
Q 20.21875 56 33.015625 56 
Q 37.15625 56 41.109375 55.140625 
Q 45.0625 54.296875 48.78125 52.59375 
z
" id="DejaVuSans-99"/>
      <path d="M 54.890625 33.015625 
L 54.890625 0 
L 45.90625 0 
L 45.90625 32.71875 
Q 45.90625 40.484375 42.875 44.328125 
Q 39.84375 48.1875 33.796875 48.1875 
Q 26.515625 48.1875 22.3125 43.546875 
Q 18.109375 38.921875 18.109375 30.90625 
L 18.109375 0 
L 9.078125 0 
L 9.078125 75.984375 
L 18.109375 75.984375 
L 18.109375 46.1875 
Q 21.34375 51.125 25.703125 53.5625 
Q 30.078125 56 35.796875 56 
Q 45.21875 56 50.046875 50.171875 
Q 54.890625 44.34375 54.890625 33.015625 
z
" id="DejaVuSans-104"/>
      <path d="M 48.6875 27.296875 
Q 48.6875 37.203125 44.609375 42.84375 
Q 40.53125 48.484375 33.40625 48.484375 
Q 26.265625 48.484375 22.1875 42.84375 
Q 18.109375 37.203125 18.109375 27.296875 
Q 18.109375 17.390625 22.1875 11.75 
Q 26.265625 6.109375 33.40625 6.109375 
Q 40.53125 6.109375 44.609375 11.75 
Q 48.6875 17.390625 48.6875 27.296875 
z
M 18.109375 46.390625 
Q 20.953125 51.265625 25.265625 53.625 
Q 29.59375 56 35.59375 56 
Q 45.5625 56 51.78125 48.09375 
Q 58.015625 40.1875 58.015625 27.296875 
Q 58.015625 14.40625 51.78125 6.484375 
Q 45.5625 -1.421875 35.59375 -1.421875 
Q 29.59375 -1.421875 25.265625 0.953125 
Q 20.953125 3.328125 18.109375 8.203125 
L 18.109375 0 
L 9.078125 0 
L 9.078125 75.984375 
L 18.109375 75.984375 
z
" id="DejaVuSans-98"/>
      <path d="M 4.203125 54.6875 
L 13.1875 54.6875 
L 24.421875 12.015625 
L 35.59375 54.6875 
L 46.1875 54.6875 
L 57.421875 12.015625 
L 68.609375 54.6875 
L 77.59375 54.6875 
L 63.28125 0 
L 52.6875 0 
L 40.921875 44.828125 
L 29.109375 0 
L 18.5 0 
z
" id="DejaVuSans-119"/>
      <path d="M 40.578125 39.3125 
Q 47.65625 37.796875 51.625 33 
Q 55.609375 28.21875 55.609375 21.1875 
Q 55.609375 10.40625 48.1875 4.484375 
Q 40.765625 -1.421875 27.09375 -1.421875 
Q 22.515625 -1.421875 17.65625 -0.515625 
Q 12.796875 0.390625 7.625 2.203125 
L 7.625 11.71875 
Q 11.71875 9.328125 16.59375 8.109375 
Q 21.484375 6.890625 26.8125 6.890625 
Q 36.078125 6.890625 40.9375 10.546875 
Q 45.796875 14.203125 45.796875 21.1875 
Q 45.796875 27.640625 41.28125 31.265625 
Q 36.765625 34.90625 28.71875 34.90625 
L 20.21875 34.90625 
L 20.21875 43.015625 
L 29.109375 43.015625 
Q 36.375 43.015625 40.234375 45.921875 
Q 44.09375 48.828125 44.09375 54.296875 
Q 44.09375 59.90625 40.109375 62.90625 
Q 36.140625 65.921875 28.71875 65.921875 
Q 24.65625 65.921875 20.015625 65.03125 
Q 15.375 64.15625 9.8125 62.3125 
L 9.8125 71.09375 
Q 15.4375 72.65625 20.34375 73.4375 
Q 25.25 74.21875 29.59375 74.21875 
Q 40.828125 74.21875 47.359375 69.109375 
Q 53.90625 64.015625 53.90625 55.328125 
Q 53.90625 49.265625 50.4375 45.09375 
Q 46.96875 40.921875 40.578125 39.3125 
z
" id="DejaVuSans-51"/>
      <path d="M 19.671875 34.8125 
L 19.671875 8.109375 
L 35.5 8.109375 
Q 43.453125 8.109375 47.28125 11.40625 
Q 51.125 14.703125 51.125 21.484375 
Q 51.125 28.328125 47.28125 31.5625 
Q 43.453125 34.8125 35.5 34.8125 
z
M 19.671875 64.796875 
L 19.671875 42.828125 
L 34.28125 42.828125 
Q 41.5 42.828125 45.03125 45.53125 
Q 48.578125 48.25 48.578125 53.8125 
Q 48.578125 59.328125 45.03125 62.0625 
Q 41.5 64.796875 34.28125 64.796875 
z
M 9.8125 72.90625 
L 35.015625 72.90625 
Q 46.296875 72.90625 52.390625 68.21875 
Q 58.5 63.53125 58.5 54.890625 
Q 58.5 48.1875 55.375 44.234375 
Q 52.25 40.28125 46.1875 39.3125 
Q 53.46875 37.75 57.5 32.78125 
Q 61.53125 27.828125 61.53125 20.40625 
Q 61.53125 10.640625 54.890625 5.3125 
Q 48.25 0 35.984375 0 
L 9.8125 0 
z
" id="DejaVuSans-66"/>
     </defs>
     <g transform="translate(477.292 56.137969)scale(0.13 -0.13)">
      <use xlink:href="#DejaVuSans-54"/>
      <use x="63.623047" xlink:href="#DejaVuSans-95"/>
      <use x="113.623047" xlink:href="#DejaVuSans-110"/>
      <use x="177.001953" xlink:href="#DejaVuSans-111"/>
      <use x="238.183594" xlink:href="#DejaVuSans-116"/>
      <use x="277.392578" xlink:href="#DejaVuSans-99"/>
      <use x="332.373047" xlink:href="#DejaVuSans-104"/>
      <use x="395.751953" xlink:href="#DejaVuSans-53"/>
      <use x="459.375" xlink:href="#DejaVuSans-48"/>
      <use x="522.998047" xlink:href="#DejaVuSans-48"/>
      <use x="586.621094" xlink:href="#DejaVuSans-48"/>
      <use x="650.244141" xlink:href="#DejaVuSans-95"/>
      <use x="700.244141" xlink:href="#DejaVuSans-98"/>
      <use x="763.720703" xlink:href="#DejaVuSans-119"/>
      <use x="845.507812" xlink:href="#DejaVuSans-50"/>
      <use x="909.130859" xlink:href="#DejaVuSans-48"/>
      <use x="972.753906" xlink:href="#DejaVuSans-48"/>
      <use x="1036.376953" xlink:href="#DejaVuSans-48"/>
      <use x="1100" xlink:href="#DejaVuSans-95"/>
      <use x="1150" xlink:href="#DejaVuSans-51"/>
      <use x="1213.623047" xlink:href="#DejaVuSans-53"/>
      <use x="1277.246094" xlink:href="#DejaVuSans-100"/>
      <use x="1340.722656" xlink:href="#DejaVuSans-66"/>
     </g>
    </g>
    <g id="line2d_39">
     <path style="fill:none;stroke:#fc4f30;stroke-width:3;"/>
    </g>
    <g id="line2d_40"/>
    <g id="text_19">
     <!-- 7_notch5000_bw2000_32dB -->
     <g transform="translate(477.292 75.581094)scale(0.13 -0.13)">
      <use xlink:href="#DejaVuSans-55"/>
      <use x="63.623047" xlink:href="#DejaVuSans-95"/>
      <use x="113.623047" xlink:href="#DejaVuSans-110"/>
      <use x="177.001953" xlink:href="#DejaVuSans-111"/>
      <use x="238.183594" xlink:href="#DejaVuSans-116"/>
      <use x="277.392578" xlink:href="#DejaVuSans-99"/>
      <use x="332.373047" xlink:href="#DejaVuSans-104"/>
      <use x="395.751953" xlink:href="#DejaVuSans-53"/>
      <use x="459.375" xlink:href="#DejaVuSans-48"/>
      <use x="522.998047" xlink:href="#DejaVuSans-48"/>
      <use x="586.621094" xlink:href="#DejaVuSans-48"/>
      <use x="650.244141" xlink:href="#DejaVuSans-95"/>
      <use x="700.244141" xlink:href="#DejaVuSans-98"/>
      <use x="763.720703" xlink:href="#DejaVuSans-119"/>
      <use x="845.507812" xlink:href="#DejaVuSans-50"/>
      <use x="909.130859" xlink:href="#DejaVuSans-48"/>
      <use x="972.753906" xlink:href="#DejaVuSans-48"/>
      <use x="1036.376953" xlink:href="#DejaVuSans-48"/>
      <use x="1100" xlink:href="#DejaVuSans-95"/>
      <use x="1150" xlink:href="#DejaVuSans-51"/>
      <use x="1213.623047" xlink:href="#DejaVuSans-50"/>
      <use x="1277.246094" xlink:href="#DejaVuSans-100"/>
      <use x="1340.722656" xlink:href="#DejaVuSans-66"/>
     </g>
    </g>
    <g id="line2d_41">
     <path style="fill:none;stroke:#e5ae38;stroke-width:3;"/>
    </g>
    <g id="line2d_42"/>
    <g id="text_20">
     <!-- 8_notch5000_bw2000_29dB -->
     <g transform="translate(477.292 95.024219)scale(0.13 -0.13)">
      <use xlink:href="#DejaVuSans-56"/>
      <use x="63.623047" xlink:href="#DejaVuSans-95"/>
      <use x="113.623047" xlink:href="#DejaVuSans-110"/>
      <use x="177.001953" xlink:href="#DejaVuSans-111"/>
      <use x="238.183594" xlink:href="#DejaVuSans-116"/>
      <use x="277.392578" xlink:href="#DejaVuSans-99"/>
      <use x="332.373047" xlink:href="#DejaVuSans-104"/>
      <use x="395.751953" xlink:href="#DejaVuSans-53"/>
      <use x="459.375" xlink:href="#DejaVuSans-48"/>
      <use x="522.998047" xlink:href="#DejaVuSans-48"/>
      <use x="586.621094" xlink:href="#DejaVuSans-48"/>
      <use x="650.244141" xlink:href="#DejaVuSans-95"/>
      <use x="700.244141" xlink:href="#DejaVuSans-98"/>
      <use x="763.720703" xlink:href="#DejaVuSans-119"/>
      <use x="845.507812" xlink:href="#DejaVuSans-50"/>
      <use x="909.130859" xlink:href="#DejaVuSans-48"/>
      <use x="972.753906" xlink:href="#DejaVuSans-48"/>
      <use x="1036.376953" xlink:href="#DejaVuSans-48"/>
      <use x="1100" xlink:href="#DejaVuSans-95"/>
      <use x="1150" xlink:href="#DejaVuSans-50"/>
      <use x="1213.623047" xlink:href="#DejaVuSans-57"/>
      <use x="1277.246094" xlink:href="#DejaVuSans-100"/>
      <use x="1340.722656" xlink:href="#DejaVuSans-66"/>
     </g>
    </g>
    <g id="line2d_43">
     <path style="fill:none;stroke:#6d904f;stroke-width:3;"/>
    </g>
    <g id="line2d_44"/>
    <g id="text_21">
     <!-- 9_notch5000_bw2000_26dB -->
     <g transform="translate(477.292 114.467344)scale(0.13 -0.13)">
      <use xlink:href="#DejaVuSans-57"/>
      <use x="63.623047" xlink:href="#DejaVuSans-95"/>
      <use x="113.623047" xlink:href="#DejaVuSans-110"/>
      <use x="177.001953" xlink:href="#DejaVuSans-111"/>
      <use x="238.183594" xlink:href="#DejaVuSans-116"/>
      <use x="277.392578" xlink:href="#DejaVuSans-99"/>
      <use x="332.373047" xlink:href="#DejaVuSans-104"/>
      <use x="395.751953" xlink:href="#DejaVuSans-53"/>
      <use x="459.375" xlink:href="#DejaVuSans-48"/>
      <use x="522.998047" xlink:href="#DejaVuSans-48"/>
      <use x="586.621094" xlink:href="#DejaVuSans-48"/>
      <use x="650.244141" xlink:href="#DejaVuSans-95"/>
      <use x="700.244141" xlink:href="#DejaVuSans-98"/>
      <use x="763.720703" xlink:href="#DejaVuSans-119"/>
      <use x="845.507812" xlink:href="#DejaVuSans-50"/>
      <use x="909.130859" xlink:href="#DejaVuSans-48"/>
      <use x="972.753906" xlink:href="#DejaVuSans-48"/>
      <use x="1036.376953" xlink:href="#DejaVuSans-48"/>
      <use x="1100" xlink:href="#DejaVuSans-95"/>
      <use x="1150" xlink:href="#DejaVuSans-50"/>
      <use x="1213.623047" xlink:href="#DejaVuSans-54"/>
      <use x="1277.246094" xlink:href="#DejaVuSans-100"/>
      <use x="1340.722656" xlink:href="#DejaVuSans-66"/>
     </g>
    </g>
    <g id="line2d_45">
     <path style="fill:none;stroke:#8b8b8b;stroke-width:3;"/>
    </g>
    <g id="line2d_46"/>
    <g id="text_22">
     <!-- 10_notch5000_bw2000_23dB -->
     <g transform="translate(477.292 133.910469)scale(0.13 -0.13)">
      <use xlink:href="#DejaVuSans-49"/>
      <use x="63.623047" xlink:href="#DejaVuSans-48"/>
      <use x="127.246094" xlink:href="#DejaVuSans-95"/>
      <use x="177.246094" xlink:href="#DejaVuSans-110"/>
      <use x="240.625" xlink:href="#DejaVuSans-111"/>
      <use x="301.806641" xlink:href="#DejaVuSans-116"/>
      <use x="341.015625" xlink:href="#DejaVuSans-99"/>
      <use x="395.996094" xlink:href="#DejaVuSans-104"/>
      <use x="459.375" xlink:href="#DejaVuSans-53"/>
      <use x="522.998047" xlink:href="#DejaVuSans-48"/>
      <use x="586.621094" xlink:href="#DejaVuSans-48"/>
      <use x="650.244141" xlink:href="#DejaVuSans-48"/>
      <use x="713.867188" xlink:href="#DejaVuSans-95"/>
      <use x="763.867188" xlink:href="#DejaVuSans-98"/>
      <use x="827.34375" xlink:href="#DejaVuSans-119"/>
      <use x="909.130859" xlink:href="#DejaVuSans-50"/>
      <use x="972.753906" xlink:href="#DejaVuSans-48"/>
      <use x="1036.376953" xlink:href="#DejaVuSans-48"/>
      <use x="1100" xlink:href="#DejaVuSans-48"/>
      <use x="1163.623047" xlink:href="#DejaVuSans-95"/>
      <use x="1213.623047" xlink:href="#DejaVuSans-50"/>
      <use x="1277.246094" xlink:href="#DejaVuSans-51"/>
      <use x="1340.869141" xlink:href="#DejaVuSans-100"/>
      <use x="1404.345703" xlink:href="#DejaVuSans-66"/>
     </g>
    </g>
    <g id="line2d_47">
     <path style="fill:none;stroke:#810f7c;stroke-width:3;"/>
    </g>
    <g id="line2d_48"/>
    <g id="text_23">
     <!-- broadband_noise -->
     <defs>
      <path d="M 41.109375 46.296875 
Q 39.59375 47.171875 37.8125 47.578125 
Q 36.03125 48 33.890625 48 
Q 26.265625 48 22.1875 43.046875 
Q 18.109375 38.09375 18.109375 28.8125 
L 18.109375 0 
L 9.078125 0 
L 9.078125 54.6875 
L 18.109375 54.6875 
L 18.109375 46.1875 
Q 20.953125 51.171875 25.484375 53.578125 
Q 30.03125 56 36.53125 56 
Q 37.453125 56 38.578125 55.875 
Q 39.703125 55.765625 41.0625 55.515625 
z
" id="DejaVuSans-114"/>
      <path d="M 34.28125 27.484375 
Q 23.390625 27.484375 19.1875 25 
Q 14.984375 22.515625 14.984375 16.5 
Q 14.984375 11.71875 18.140625 8.90625 
Q 21.296875 6.109375 26.703125 6.109375 
Q 34.1875 6.109375 38.703125 11.40625 
Q 43.21875 16.703125 43.21875 25.484375 
L 43.21875 27.484375 
z
M 52.203125 31.203125 
L 52.203125 0 
L 43.21875 0 
L 43.21875 8.296875 
Q 40.140625 3.328125 35.546875 0.953125 
Q 30.953125 -1.421875 24.3125 -1.421875 
Q 15.921875 -1.421875 10.953125 3.296875 
Q 6 8.015625 6 15.921875 
Q 6 25.140625 12.171875 29.828125 
Q 18.359375 34.515625 30.609375 34.515625 
L 43.21875 34.515625 
L 43.21875 35.40625 
Q 43.21875 41.609375 39.140625 45 
Q 35.0625 48.390625 27.6875 48.390625 
Q 23 48.390625 18.546875 47.265625 
Q 14.109375 46.140625 10.015625 43.890625 
L 10.015625 52.203125 
Q 14.9375 54.109375 19.578125 55.046875 
Q 24.21875 56 28.609375 56 
Q 40.484375 56 46.34375 49.84375 
Q 52.203125 43.703125 52.203125 31.203125 
z
" id="DejaVuSans-97"/>
     </defs>
     <g transform="translate(477.292 153.353594)scale(0.13 -0.13)">
      <use xlink:href="#DejaVuSans-98"/>
      <use x="63.476562" xlink:href="#DejaVuSans-114"/>
      <use x="104.558594" xlink:href="#DejaVuSans-111"/>
      <use x="165.740234" xlink:href="#DejaVuSans-97"/>
      <use x="227.019531" xlink:href="#DejaVuSans-100"/>
      <use x="290.496094" xlink:href="#DejaVuSans-98"/>
      <use x="353.972656" xlink:href="#DejaVuSans-97"/>
      <use x="415.251953" xlink:href="#DejaVuSans-110"/>
      <use x="478.630859" xlink:href="#DejaVuSans-100"/>
      <use x="542.107422" xlink:href="#DejaVuSans-95"/>
      <use x="592.107422" xlink:href="#DejaVuSans-110"/>
      <use x="655.486328" xlink:href="#DejaVuSans-111"/>
      <use x="716.667969" xlink:href="#DejaVuSans-105"/>
      <use x="744.451172" xlink:href="#DejaVuSans-115"/>
      <use x="796.550781" xlink:href="#DejaVuSans-101"/>
     </g>
    </g>
   </g>
  </g>
 </g>
 <defs>
  <clipPath id="pef6aaca5fa">
   <rect height="233.28" width="375.84" x="34.56" y="34.56"/>
  </clipPath>
 </defs>
</svg>
