<?xml version="1.0" encoding="utf-8" standalone="no"?>
<!DOCTYPE svg PUBLIC "-//W3C//DTD SVG 1.1//EN"
  "http://www.w3.org/Graphics/SVG/1.1/DTD/svg11.dtd">
<!-- Created with matplotlib (https://matplotlib.org/) -->
<svg height="288pt" version="1.1" viewBox="0 0 432 288" width="432pt" xmlns="http://www.w3.org/2000/svg" xmlns:xlink="http://www.w3.org/1999/xlink">
 <defs>
  <style type="text/css">
*{stroke-linecap:butt;stroke-linejoin:round;}
  </style>
 </defs>
 <g id="figure_1">
  <g id="patch_1">
   <path d="M 0 288 
L 432 288 
L 432 0 
L 0 0 
z
" style="fill:#f0f0f0;"/>
  </g>
  <g id="axes_1">
   <g id="patch_2">
    <path d="M 34.56 252 
L 410.4 252 
L 410.4 34.56 
L 34.56 34.56 
z
" style="fill:#ffffff;"/>
   </g>
   <g id="matplotlib.axis_1">
    <g id="xtick_1">
     <g id="line2d_1">
      <path clip-path="url(#p26cc9b067f)" d="M 34.56 252 
L 34.56 34.56 
" style="fill:none;stroke:#cbcbcb;"/>
     </g>
     <g id="line2d_2"/>
     <g id="text_1">
      <!-- 5 -->
      <defs>
       <path d="M 10.796875 72.90625 
L 49.515625 72.90625 
L 49.515625 64.59375 
L 19.828125 64.59375 
L 19.828125 46.734375 
Q 21.96875 47.46875 24.109375 47.828125 
Q 26.265625 48.1875 28.421875 48.1875 
Q 40.625 48.1875 47.75 41.5 
Q 54.890625 34.8125 54.890625 23.390625 
Q 54.890625 11.625 47.5625 5.09375 
Q 40.234375 -1.421875 26.90625 -1.421875 
Q 22.3125 -1.421875 17.546875 -0.640625 
Q 12.796875 0.140625 7.71875 1.703125 
L 7.71875 11.625 
Q 12.109375 9.234375 16.796875 8.0625 
Q 21.484375 6.890625 26.703125 6.890625 
Q 35.15625 6.890625 40.078125 11.328125 
Q 45.015625 15.765625 45.015625 23.390625 
Q 45.015625 31 40.078125 35.4375 
Q 35.15625 39.890625 26.703125 39.890625 
Q 22.75 39.890625 18.8125 39.015625 
Q 14.890625 38.140625 10.796875 36.28125 
z
" id="DejaVuSans-53"/>
      </defs>
      <g transform="translate(31.37875 263.098437)scale(0.1 -0.1)">
       <use xlink:href="#DejaVuSans-53"/>
      </g>
     </g>
    </g>
    <g id="xtick_2">
     <g id="line2d_3">
      <path clip-path="url(#p26cc9b067f)" d="M 97.2 252 
L 97.2 34.56 
" style="fill:none;stroke:#cbcbcb;"/>
     </g>
     <g id="line2d_4"/>
     <g id="text_2">
      <!-- 6 -->
      <defs>
       <path d="M 33.015625 40.375 
Q 26.375 40.375 22.484375 35.828125 
Q 18.609375 31.296875 18.609375 23.390625 
Q 18.609375 15.53125 22.484375 10.953125 
Q 26.375 6.390625 33.015625 6.390625 
Q 39.65625 6.390625 43.53125 10.953125 
Q 47.40625 15.53125 47.40625 23.390625 
Q 47.40625 31.296875 43.53125 35.828125 
Q 39.65625 40.375 33.015625 40.375 
z
M 52.59375 71.296875 
L 52.59375 62.3125 
Q 48.875 64.0625 45.09375 64.984375 
Q 41.3125 65.921875 37.59375 65.921875 
Q 27.828125 65.921875 22.671875 59.328125 
Q 17.53125 52.734375 16.796875 39.40625 
Q 19.671875 43.65625 24.015625 45.921875 
Q 28.375 48.1875 33.59375 48.1875 
Q 44.578125 48.1875 50.953125 41.515625 
Q 57.328125 34.859375 57.328125 23.390625 
Q 57.328125 12.15625 50.6875 5.359375 
Q 44.046875 -1.421875 33.015625 -1.421875 
Q 20.359375 -1.421875 13.671875 8.265625 
Q 6.984375 17.96875 6.984375 36.375 
Q 6.984375 53.65625 15.1875 63.9375 
Q 23.390625 74.21875 37.203125 74.21875 
Q 40.921875 74.21875 44.703125 73.484375 
Q 48.484375 72.75 52.59375 71.296875 
z
" id="DejaVuSans-54"/>
      </defs>
      <g transform="translate(94.01875 263.098437)scale(0.1 -0.1)">
       <use xlink:href="#DejaVuSans-54"/>
      </g>
     </g>
    </g>
    <g id="xtick_3">
     <g id="line2d_5">
      <path clip-path="url(#p26cc9b067f)" d="M 159.84 252 
L 159.84 34.56 
" style="fill:none;stroke:#cbcbcb;"/>
     </g>
     <g id="line2d_6"/>
     <g id="text_3">
      <!-- 7 -->
      <defs>
       <path d="M 8.203125 72.90625 
L 55.078125 72.90625 
L 55.078125 68.703125 
L 28.609375 0 
L 18.3125 0 
L 43.21875 64.59375 
L 8.203125 64.59375 
z
" id="DejaVuSans-55"/>
      </defs>
      <g transform="translate(156.65875 263.098437)scale(0.1 -0.1)">
       <use xlink:href="#DejaVuSans-55"/>
      </g>
     </g>
    </g>
    <g id="xtick_4">
     <g id="line2d_7">
      <path clip-path="url(#p26cc9b067f)" d="M 222.48 252 
L 222.48 34.56 
" style="fill:none;stroke:#cbcbcb;"/>
     </g>
     <g id="line2d_8"/>
     <g id="text_4">
      <!-- 8 -->
      <defs>
       <path d="M 31.78125 34.625 
Q 24.75 34.625 20.71875 30.859375 
Q 16.703125 27.09375 16.703125 20.515625 
Q 16.703125 13.921875 20.71875 10.15625 
Q 24.75 6.390625 31.78125 6.390625 
Q 38.8125 6.390625 42.859375 10.171875 
Q 46.921875 13.96875 46.921875 20.515625 
Q 46.921875 27.09375 42.890625 30.859375 
Q 38.875 34.625 31.78125 34.625 
z
M 21.921875 38.8125 
Q 15.578125 40.375 12.03125 44.71875 
Q 8.5 49.078125 8.5 55.328125 
Q 8.5 64.0625 14.71875 69.140625 
Q 20.953125 74.21875 31.78125 74.21875 
Q 42.671875 74.21875 48.875 69.140625 
Q 55.078125 64.0625 55.078125 55.328125 
Q 55.078125 49.078125 51.53125 44.71875 
Q 48 40.375 41.703125 38.8125 
Q 48.828125 37.15625 52.796875 32.3125 
Q 56.78125 27.484375 56.78125 20.515625 
Q 56.78125 9.90625 50.3125 4.234375 
Q 43.84375 -1.421875 31.78125 -1.421875 
Q 19.734375 -1.421875 13.25 4.234375 
Q 6.78125 9.90625 6.78125 20.515625 
Q 6.78125 27.484375 10.78125 32.3125 
Q 14.796875 37.15625 21.921875 38.8125 
z
M 18.3125 54.390625 
Q 18.3125 48.734375 21.84375 45.5625 
Q 25.390625 42.390625 31.78125 42.390625 
Q 38.140625 42.390625 41.71875 45.5625 
Q 45.3125 48.734375 45.3125 54.390625 
Q 45.3125 60.0625 41.71875 63.234375 
Q 38.140625 66.40625 31.78125 66.40625 
Q 25.390625 66.40625 21.84375 63.234375 
Q 18.3125 60.0625 18.3125 54.390625 
z
" id="DejaVuSans-56"/>
      </defs>
      <g transform="translate(219.29875 263.098437)scale(0.1 -0.1)">
       <use xlink:href="#DejaVuSans-56"/>
      </g>
     </g>
    </g>
    <g id="xtick_5">
     <g id="line2d_9">
      <path clip-path="url(#p26cc9b067f)" d="M 285.12 252 
L 285.12 34.56 
" style="fill:none;stroke:#cbcbcb;"/>
     </g>
     <g id="line2d_10"/>
     <g id="text_5">
      <!-- 9 -->
      <defs>
       <path d="M 10.984375 1.515625 
L 10.984375 10.5 
Q 14.703125 8.734375 18.5 7.8125 
Q 22.3125 6.890625 25.984375 6.890625 
Q 35.75 6.890625 40.890625 13.453125 
Q 46.046875 20.015625 46.78125 33.40625 
Q 43.953125 29.203125 39.59375 26.953125 
Q 35.25 24.703125 29.984375 24.703125 
Q 19.046875 24.703125 12.671875 31.3125 
Q 6.296875 37.9375 6.296875 49.421875 
Q 6.296875 60.640625 12.9375 67.421875 
Q 19.578125 74.21875 30.609375 74.21875 
Q 43.265625 74.21875 49.921875 64.515625 
Q 56.59375 54.828125 56.59375 36.375 
Q 56.59375 19.140625 48.40625 8.859375 
Q 40.234375 -1.421875 26.421875 -1.421875 
Q 22.703125 -1.421875 18.890625 -0.6875 
Q 15.09375 0.046875 10.984375 1.515625 
z
M 30.609375 32.421875 
Q 37.25 32.421875 41.125 36.953125 
Q 45.015625 41.5 45.015625 49.421875 
Q 45.015625 57.28125 41.125 61.84375 
Q 37.25 66.40625 30.609375 66.40625 
Q 23.96875 66.40625 20.09375 61.84375 
Q 16.21875 57.28125 16.21875 49.421875 
Q 16.21875 41.5 20.09375 36.953125 
Q 23.96875 32.421875 30.609375 32.421875 
z
" id="DejaVuSans-57"/>
      </defs>
      <g transform="translate(281.93875 263.098437)scale(0.1 -0.1)">
       <use xlink:href="#DejaVuSans-57"/>
      </g>
     </g>
    </g>
    <g id="xtick_6">
     <g id="line2d_11">
      <path clip-path="url(#p26cc9b067f)" d="M 347.76 252 
L 347.76 34.56 
" style="fill:none;stroke:#cbcbcb;"/>
     </g>
     <g id="line2d_12"/>
     <g id="text_6">
      <!-- 10 -->
      <defs>
       <path d="M 12.40625 8.296875 
L 28.515625 8.296875 
L 28.515625 63.921875 
L 10.984375 60.40625 
L 10.984375 69.390625 
L 28.421875 72.90625 
L 38.28125 72.90625 
L 38.28125 8.296875 
L 54.390625 8.296875 
L 54.390625 0 
L 12.40625 0 
z
" id="DejaVuSans-49"/>
       <path d="M 31.78125 66.40625 
Q 24.171875 66.40625 20.328125 58.90625 
Q 16.5 51.421875 16.5 36.375 
Q 16.5 21.390625 20.328125 13.890625 
Q 24.171875 6.390625 31.78125 6.390625 
Q 39.453125 6.390625 43.28125 13.890625 
Q 47.125 21.390625 47.125 36.375 
Q 47.125 51.421875 43.28125 58.90625 
Q 39.453125 66.40625 31.78125 66.40625 
z
M 31.78125 74.21875 
Q 44.046875 74.21875 50.515625 64.515625 
Q 56.984375 54.828125 56.984375 36.375 
Q 56.984375 17.96875 50.515625 8.265625 
Q 44.046875 -1.421875 31.78125 -1.421875 
Q 19.53125 -1.421875 13.0625 8.265625 
Q 6.59375 17.96875 6.59375 36.375 
Q 6.59375 54.828125 13.0625 64.515625 
Q 19.53125 74.21875 31.78125 74.21875 
z
" id="DejaVuSans-48"/>
      </defs>
      <g transform="translate(341.3975 263.098437)scale(0.1 -0.1)">
       <use xlink:href="#DejaVuSans-49"/>
       <use x="63.623047" xlink:href="#DejaVuSans-48"/>
      </g>
     </g>
    </g>
    <g id="xtick_7">
     <g id="line2d_13">
      <path clip-path="url(#p26cc9b067f)" d="M 410.4 252 
L 410.4 34.56 
" style="fill:none;stroke:#cbcbcb;"/>
     </g>
     <g id="line2d_14"/>
     <g id="text_7">
      <!-- 11 -->
      <g transform="translate(404.0375 263.098437)scale(0.1 -0.1)">
       <use xlink:href="#DejaVuSans-49"/>
       <use x="63.623047" xlink:href="#DejaVuSans-49"/>
      </g>
     </g>
    </g>
    <g id="text_8">
     <!-- t (ms) -->
     <defs>
      <path d="M 18.3125 70.21875 
L 18.3125 54.6875 
L 36.8125 54.6875 
L 36.8125 47.703125 
L 18.3125 47.703125 
L 18.3125 18.015625 
Q 18.3125 11.328125 20.140625 9.421875 
Q 21.96875 7.515625 27.59375 7.515625 
L 36.8125 7.515625 
L 36.8125 0 
L 27.59375 0 
Q 17.1875 0 13.234375 3.875 
Q 9.28125 7.765625 9.28125 18.015625 
L 9.28125 47.703125 
L 2.6875 47.703125 
L 2.6875 54.6875 
L 9.28125 54.6875 
L 9.28125 70.21875 
z
" id="DejaVuSans-116"/>
      <path id="DejaVuSans-32"/>
      <path d="M 31 75.875 
Q 24.46875 64.65625 21.28125 53.65625 
Q 18.109375 42.671875 18.109375 31.390625 
Q 18.109375 20.125 21.3125 9.0625 
Q 24.515625 -2 31 -13.1875 
L 23.1875 -13.1875 
Q 15.875 -1.703125 12.234375 9.375 
Q 8.59375 20.453125 8.59375 31.390625 
Q 8.59375 42.28125 12.203125 53.3125 
Q 15.828125 64.359375 23.1875 75.875 
z
" id="DejaVuSans-40"/>
      <path d="M 52 44.1875 
Q 55.375 50.25 60.0625 53.125 
Q 64.75 56 71.09375 56 
Q 79.640625 56 84.28125 50.015625 
Q 88.921875 44.046875 88.921875 33.015625 
L 88.921875 0 
L 79.890625 0 
L 79.890625 32.71875 
Q 79.890625 40.578125 77.09375 44.375 
Q 74.3125 48.1875 68.609375 48.1875 
Q 61.625 48.1875 57.5625 43.546875 
Q 53.515625 38.921875 53.515625 30.90625 
L 53.515625 0 
L 44.484375 0 
L 44.484375 32.71875 
Q 44.484375 40.625 41.703125 44.40625 
Q 38.921875 48.1875 33.109375 48.1875 
Q 26.21875 48.1875 22.15625 43.53125 
Q 18.109375 38.875 18.109375 30.90625 
L 18.109375 0 
L 9.078125 0 
L 9.078125 54.6875 
L 18.109375 54.6875 
L 18.109375 46.1875 
Q 21.1875 51.21875 25.484375 53.609375 
Q 29.78125 56 35.6875 56 
Q 41.65625 56 45.828125 52.96875 
Q 50 49.953125 52 44.1875 
z
" id="DejaVuSans-109"/>
      <path d="M 44.28125 53.078125 
L 44.28125 44.578125 
Q 40.484375 46.53125 36.375 47.5 
Q 32.28125 48.484375 27.875 48.484375 
Q 21.1875 48.484375 17.84375 46.4375 
Q 14.5 44.390625 14.5 40.28125 
Q 14.5 37.15625 16.890625 35.375 
Q 19.28125 33.59375 26.515625 31.984375 
L 29.59375 31.296875 
Q 39.15625 29.25 43.1875 25.515625 
Q 47.21875 21.78125 47.21875 15.09375 
Q 47.21875 7.46875 41.1875 3.015625 
Q 35.15625 -1.421875 24.609375 -1.421875 
Q 20.21875 -1.421875 15.453125 -0.5625 
Q 10.6875 0.296875 5.421875 2 
L 5.421875 11.28125 
Q 10.40625 8.6875 15.234375 7.390625 
Q 20.0625 6.109375 24.8125 6.109375 
Q 31.15625 6.109375 34.5625 8.28125 
Q 37.984375 10.453125 37.984375 14.40625 
Q 37.984375 18.0625 35.515625 20.015625 
Q 33.0625 21.96875 24.703125 23.78125 
L 21.578125 24.515625 
Q 13.234375 26.265625 9.515625 29.90625 
Q 5.8125 33.546875 5.8125 39.890625 
Q 5.8125 47.609375 11.28125 51.796875 
Q 16.75 56 26.8125 56 
Q 31.78125 56 36.171875 55.265625 
Q 40.578125 54.546875 44.28125 53.078125 
z
" id="DejaVuSans-115"/>
      <path d="M 8.015625 75.875 
L 15.828125 75.875 
Q 23.140625 64.359375 26.78125 53.3125 
Q 30.421875 42.28125 30.421875 31.390625 
Q 30.421875 20.453125 26.78125 9.375 
Q 23.140625 -1.703125 15.828125 -13.1875 
L 8.015625 -13.1875 
Q 14.5 -2 17.703125 9.0625 
Q 20.90625 20.125 20.90625 31.390625 
Q 20.90625 42.671875 17.703125 53.65625 
Q 14.5 64.65625 8.015625 75.875 
z
" id="DejaVuSans-41"/>
     </defs>
     <g transform="translate(198.59875 281.335625)scale(0.16 -0.16)">
      <use xlink:href="#DejaVuSans-116"/>
      <use x="39.208984" xlink:href="#DejaVuSans-32"/>
      <use x="70.996094" xlink:href="#DejaVuSans-40"/>
      <use x="110.009766" xlink:href="#DejaVuSans-109"/>
      <use x="207.421875" xlink:href="#DejaVuSans-115"/>
      <use x="259.521484" xlink:href="#DejaVuSans-41"/>
     </g>
    </g>
   </g>
   <g id="matplotlib.axis_2">
    <g id="ytick_1">
     <g id="line2d_15">
      <path clip-path="url(#p26cc9b067f)" d="M 34.56 240.60189 
L 410.4 240.60189 
" style="fill:none;stroke:#cbcbcb;"/>
     </g>
     <g id="line2d_16"/>
     <g id="text_9">
      <!-- −100 -->
      <defs>
       <path d="M 10.59375 35.5 
L 73.1875 35.5 
L 73.1875 27.203125 
L 10.59375 27.203125 
z
" id="DejaVuSans-8722"/>
      </defs>
      <g transform="translate(3.592813 244.401108)scale(0.1 -0.1)">
       <use xlink:href="#DejaVuSans-8722"/>
       <use x="83.789062" xlink:href="#DejaVuSans-49"/>
       <use x="147.412109" xlink:href="#DejaVuSans-48"/>
       <use x="211.035156" xlink:href="#DejaVuSans-48"/>
      </g>
     </g>
    </g>
    <g id="ytick_2">
     <g id="line2d_17">
      <path clip-path="url(#p26cc9b067f)" d="M 34.56 212.586548 
L 410.4 212.586548 
" style="fill:none;stroke:#cbcbcb;"/>
     </g>
     <g id="line2d_18"/>
     <g id="text_10">
      <!-- −75 -->
      <g transform="translate(9.955313 216.385767)scale(0.1 -0.1)">
       <use xlink:href="#DejaVuSans-8722"/>
       <use x="83.789062" xlink:href="#DejaVuSans-55"/>
       <use x="147.412109" xlink:href="#DejaVuSans-53"/>
      </g>
     </g>
    </g>
    <g id="ytick_3">
     <g id="line2d_19">
      <path clip-path="url(#p26cc9b067f)" d="M 34.56 184.571206 
L 410.4 184.571206 
" style="fill:none;stroke:#cbcbcb;"/>
     </g>
     <g id="line2d_20"/>
     <g id="text_11">
      <!-- −50 -->
      <g transform="translate(9.955313 188.370425)scale(0.1 -0.1)">
       <use xlink:href="#DejaVuSans-8722"/>
       <use x="83.789062" xlink:href="#DejaVuSans-53"/>
       <use x="147.412109" xlink:href="#DejaVuSans-48"/>
      </g>
     </g>
    </g>
    <g id="ytick_4">
     <g id="line2d_21">
      <path clip-path="url(#p26cc9b067f)" d="M 34.56 156.555864 
L 410.4 156.555864 
" style="fill:none;stroke:#cbcbcb;"/>
     </g>
     <g id="line2d_22"/>
     <g id="text_12">
      <!-- −25 -->
      <defs>
       <path d="M 19.1875 8.296875 
L 53.609375 8.296875 
L 53.609375 0 
L 7.328125 0 
L 7.328125 8.296875 
Q 12.9375 14.109375 22.625 23.890625 
Q 32.328125 33.6875 34.8125 36.53125 
Q 39.546875 41.84375 41.421875 45.53125 
Q 43.3125 49.21875 43.3125 52.78125 
Q 43.3125 58.59375 39.234375 62.25 
Q 35.15625 65.921875 28.609375 65.921875 
Q 23.96875 65.921875 18.8125 64.3125 
Q 13.671875 62.703125 7.8125 59.421875 
L 7.8125 69.390625 
Q 13.765625 71.78125 18.9375 73 
Q 24.125 74.21875 28.421875 74.21875 
Q 39.75 74.21875 46.484375 68.546875 
Q 53.21875 62.890625 53.21875 53.421875 
Q 53.21875 48.921875 51.53125 44.890625 
Q 49.859375 40.875 45.40625 35.40625 
Q 44.1875 33.984375 37.640625 27.21875 
Q 31.109375 20.453125 19.1875 8.296875 
z
" id="DejaVuSans-50"/>
      </defs>
      <g transform="translate(9.955313 160.355083)scale(0.1 -0.1)">
       <use xlink:href="#DejaVuSans-8722"/>
       <use x="83.789062" xlink:href="#DejaVuSans-50"/>
       <use x="147.412109" xlink:href="#DejaVuSans-53"/>
      </g>
     </g>
    </g>
    <g id="ytick_5">
     <g id="line2d_23">
      <path clip-path="url(#p26cc9b067f)" d="M 34.56 128.540522 
L 410.4 128.540522 
" style="fill:none;stroke:#cbcbcb;"/>
     </g>
     <g id="line2d_24"/>
     <g id="text_13">
      <!-- 0 -->
      <g transform="translate(24.6975 132.339741)scale(0.1 -0.1)">
       <use xlink:href="#DejaVuSans-48"/>
      </g>
     </g>
    </g>
    <g id="ytick_6">
     <g id="line2d_25">
      <path clip-path="url(#p26cc9b067f)" d="M 34.56 100.52518 
L 410.4 100.52518 
" style="fill:none;stroke:#cbcbcb;"/>
     </g>
     <g id="line2d_26"/>
     <g id="text_14">
      <!-- 25 -->
      <g transform="translate(18.335 104.324399)scale(0.1 -0.1)">
       <use xlink:href="#DejaVuSans-50"/>
       <use x="63.623047" xlink:href="#DejaVuSans-53"/>
      </g>
     </g>
    </g>
    <g id="ytick_7">
     <g id="line2d_27">
      <path clip-path="url(#p26cc9b067f)" d="M 34.56 72.509838 
L 410.4 72.509838 
" style="fill:none;stroke:#cbcbcb;"/>
     </g>
     <g id="line2d_28"/>
     <g id="text_15">
      <!-- 50 -->
      <g transform="translate(18.335 76.309057)scale(0.1 -0.1)">
       <use xlink:href="#DejaVuSans-53"/>
       <use x="63.623047" xlink:href="#DejaVuSans-48"/>
      </g>
     </g>
    </g>
    <g id="ytick_8">
     <g id="line2d_29">
      <path clip-path="url(#p26cc9b067f)" d="M 34.56 44.494497 
L 410.4 44.494497 
" style="fill:none;stroke:#cbcbcb;"/>
     </g>
     <g id="line2d_30"/>
     <g id="text_16">
      <!-- 75 -->
      <g transform="translate(18.335 48.293715)scale(0.1 -0.1)">
       <use xlink:href="#DejaVuSans-55"/>
       <use x="63.623047" xlink:href="#DejaVuSans-53"/>
      </g>
     </g>
    </g>
    <g id="text_17">
     <!-- Amplitude (µV) -->
     <defs>
      <path d="M 34.1875 63.1875 
L 20.796875 26.90625 
L 47.609375 26.90625 
z
M 28.609375 72.90625 
L 39.796875 72.90625 
L 67.578125 0 
L 57.328125 0 
L 50.6875 18.703125 
L 17.828125 18.703125 
L 11.1875 0 
L 0.78125 0 
z
" id="DejaVuSans-65"/>
      <path d="M 18.109375 8.203125 
L 18.109375 -20.796875 
L 9.078125 -20.796875 
L 9.078125 54.6875 
L 18.109375 54.6875 
L 18.109375 46.390625 
Q 20.953125 51.265625 25.265625 53.625 
Q 29.59375 56 35.59375 56 
Q 45.5625 56 51.78125 48.09375 
Q 58.015625 40.1875 58.015625 27.296875 
Q 58.015625 14.40625 51.78125 6.484375 
Q 45.5625 -1.421875 35.59375 -1.421875 
Q 29.59375 -1.421875 25.265625 0.953125 
Q 20.953125 3.328125 18.109375 8.203125 
z
M 48.6875 27.296875 
Q 48.6875 37.203125 44.609375 42.84375 
Q 40.53125 48.484375 33.40625 48.484375 
Q 26.265625 48.484375 22.1875 42.84375 
Q 18.109375 37.203125 18.109375 27.296875 
Q 18.109375 17.390625 22.1875 11.75 
Q 26.265625 6.109375 33.40625 6.109375 
Q 40.53125 6.109375 44.609375 11.75 
Q 48.6875 17.390625 48.6875 27.296875 
z
" id="DejaVuSans-112"/>
      <path d="M 9.421875 75.984375 
L 18.40625 75.984375 
L 18.40625 0 
L 9.421875 0 
z
" id="DejaVuSans-108"/>
      <path d="M 9.421875 54.6875 
L 18.40625 54.6875 
L 18.40625 0 
L 9.421875 0 
z
M 9.421875 75.984375 
L 18.40625 75.984375 
L 18.40625 64.59375 
L 9.421875 64.59375 
z
" id="DejaVuSans-105"/>
      <path d="M 8.5 21.578125 
L 8.5 54.6875 
L 17.484375 54.6875 
L 17.484375 21.921875 
Q 17.484375 14.15625 20.5 10.265625 
Q 23.53125 6.390625 29.59375 6.390625 
Q 36.859375 6.390625 41.078125 11.03125 
Q 45.3125 15.671875 45.3125 23.6875 
L 45.3125 54.6875 
L 54.296875 54.6875 
L 54.296875 0 
L 45.3125 0 
L 45.3125 8.40625 
Q 42.046875 3.421875 37.71875 1 
Q 33.40625 -1.421875 27.6875 -1.421875 
Q 18.265625 -1.421875 13.375 4.4375 
Q 8.5 10.296875 8.5 21.578125 
z
M 31.109375 56 
z
" id="DejaVuSans-117"/>
      <path d="M 45.40625 46.390625 
L 45.40625 75.984375 
L 54.390625 75.984375 
L 54.390625 0 
L 45.40625 0 
L 45.40625 8.203125 
Q 42.578125 3.328125 38.25 0.953125 
Q 33.9375 -1.421875 27.875 -1.421875 
Q 17.96875 -1.421875 11.734375 6.484375 
Q 5.515625 14.40625 5.515625 27.296875 
Q 5.515625 40.1875 11.734375 48.09375 
Q 17.96875 56 27.875 56 
Q 33.9375 56 38.25 53.625 
Q 42.578125 51.265625 45.40625 46.390625 
z
M 14.796875 27.296875 
Q 14.796875 17.390625 18.875 11.75 
Q 22.953125 6.109375 30.078125 6.109375 
Q 37.203125 6.109375 41.296875 11.75 
Q 45.40625 17.390625 45.40625 27.296875 
Q 45.40625 37.203125 41.296875 42.84375 
Q 37.203125 48.484375 30.078125 48.484375 
Q 22.953125 48.484375 18.875 42.84375 
Q 14.796875 37.203125 14.796875 27.296875 
z
" id="DejaVuSans-100"/>
      <path d="M 56.203125 29.59375 
L 56.203125 25.203125 
L 14.890625 25.203125 
Q 15.484375 15.921875 20.484375 11.0625 
Q 25.484375 6.203125 34.421875 6.203125 
Q 39.59375 6.203125 44.453125 7.46875 
Q 49.3125 8.734375 54.109375 11.28125 
L 54.109375 2.78125 
Q 49.265625 0.734375 44.1875 -0.34375 
Q 39.109375 -1.421875 33.890625 -1.421875 
Q 20.796875 -1.421875 13.15625 6.1875 
Q 5.515625 13.8125 5.515625 26.8125 
Q 5.515625 40.234375 12.765625 48.109375 
Q 20.015625 56 32.328125 56 
Q 43.359375 56 49.78125 48.890625 
Q 56.203125 41.796875 56.203125 29.59375 
z
M 47.21875 32.234375 
Q 47.125 39.59375 43.09375 43.984375 
Q 39.0625 48.390625 32.421875 48.390625 
Q 24.90625 48.390625 20.390625 44.140625 
Q 15.875 39.890625 15.1875 32.171875 
z
" id="DejaVuSans-101"/>
      <path d="M 8.5 -20.796875 
L 8.5 54.6875 
L 17.484375 54.6875 
L 17.484375 20.703125 
Q 17.484375 13.625 20.84375 10 
Q 24.21875 6.390625 30.8125 6.390625 
Q 38.03125 6.390625 41.671875 10.484375 
Q 45.3125 14.59375 45.3125 22.796875 
L 45.3125 54.6875 
L 54.296875 54.6875 
L 54.296875 12.59375 
Q 54.296875 9.671875 55.140625 8.28125 
Q 56 6.890625 57.8125 6.890625 
Q 58.25 6.890625 59.03125 7.15625 
Q 59.8125 7.421875 61.1875 8.015625 
L 61.1875 0.78125 
Q 59.1875 -0.34375 57.390625 -0.875 
Q 55.609375 -1.421875 53.90625 -1.421875 
Q 50.53125 -1.421875 48.53125 0.484375 
Q 46.53125 2.390625 45.796875 6.296875 
Q 43.359375 2.4375 39.8125 0.5 
Q 36.28125 -1.421875 31.5 -1.421875 
Q 26.515625 -1.421875 23.015625 0.484375 
Q 19.53125 2.390625 17.484375 6.203125 
L 17.484375 -20.796875 
z
" id="DejaVuSans-181"/>
      <path d="M 28.609375 0 
L 0.78125 72.90625 
L 11.078125 72.90625 
L 34.1875 11.53125 
L 57.328125 72.90625 
L 67.578125 72.90625 
L 39.796875 0 
z
" id="DejaVuSans-86"/>
     </defs>
     <g transform="translate(-3.734688 203.62375)rotate(-90)scale(0.16 -0.16)">
      <use xlink:href="#DejaVuSans-65"/>
      <use x="68.408203" xlink:href="#DejaVuSans-109"/>
      <use x="165.820312" xlink:href="#DejaVuSans-112"/>
      <use x="229.296875" xlink:href="#DejaVuSans-108"/>
      <use x="257.080078" xlink:href="#DejaVuSans-105"/>
      <use x="284.863281" xlink:href="#DejaVuSans-116"/>
      <use x="324.072266" xlink:href="#DejaVuSans-117"/>
      <use x="387.451172" xlink:href="#DejaVuSans-100"/>
      <use x="450.927734" xlink:href="#DejaVuSans-101"/>
      <use x="512.451172" xlink:href="#DejaVuSans-32"/>
      <use x="544.238281" xlink:href="#DejaVuSans-40"/>
      <use x="583.251953" xlink:href="#DejaVuSans-181"/>
      <use x="646.875" xlink:href="#DejaVuSans-86"/>
      <use x="715.283203" xlink:href="#DejaVuSans-41"/>
     </g>
    </g>
   </g>
   <g id="line2d_31">
    <path clip-path="url(#p26cc9b067f)" d="M -1 126.645473 
L -0.168707 126.612638 
L 1.114571 127.080361 
L 2.397849 127.168556 
L 3.681127 126.823489 
L 4.964405 126.218418 
L 6.247682 125.861704 
L 7.53096 125.660651 
L 8.814238 125.905713 
L 10.097516 125.875741 
L 11.380794 125.573362 
L 12.664072 125.867754 
L 13.94735 126.548203 
L 15.230627 126.382769 
L 16.513905 125.499632 
L 17.797183 125.650174 
L 19.080461 126.096603 
L 20.363739 126.083359 
L 21.647017 125.009118 
L 22.930294 121.547029 
L 24.213572 122.945094 
L 26.780128 122.836612 
L 29.346684 124.783186 
L 30.629962 126.190458 
L 31.913239 126.377902 
L 33.196517 123.708643 
L 34.479795 123.725673 
L 35.763073 124.294911 
L 37.046351 125.007634 
L 38.329629 126.917859 
L 39.612907 126.481101 
L 40.896184 125.006992 
L 42.179462 125.523806 
L 43.46274 127.521634 
L 44.746018 131.45683 
L 46.029296 131.834007 
L 47.312574 129.073171 
L 48.595851 129.989928 
L 51.162407 128.439725 
L 52.445685 128.036587 
L 55.012241 126.371739 
L 56.295519 127.503975 
L 57.578796 128.36607 
L 60.145352 126.294437 
L 62.711908 127.204125 
L 63.995186 127.336265 
L 65.278464 126.437859 
L 66.561741 126.196583 
L 67.845019 126.387109 
L 69.128297 127.719166 
L 71.694853 126.416188 
L 72.978131 127.134445 
L 74.261408 127.581089 
L 75.544686 126.93348 
L 76.827964 126.633164 
L 78.111242 127.577127 
L 79.39452 127.661422 
L 80.677798 125.145409 
L 81.961076 125.720432 
L 83.244353 125.680171 
L 84.527631 125.312264 
L 85.810909 125.429084 
L 87.094187 126.836066 
L 88.377465 127.220451 
L 89.660743 126.179792 
L 90.94402 125.598366 
L 92.227298 123.293494 
L 93.510576 122.661683 
L 94.793854 122.571287 
L 96.077132 122.990537 
L 98.643688 122.918857 
L 99.926965 122.985858 
L 101.210243 123.799667 
L 102.493521 124.918735 
L 103.776799 126.474007 
L 105.060077 123.773934 
L 106.343355 124.746938 
L 107.626633 125.128039 
L 108.90991 124.99415 
L 110.193188 124.652731 
L 111.476466 127.296143 
L 112.759744 129.299908 
L 114.043022 130.764784 
L 115.3263 129.217474 
L 116.609577 128.806437 
L 117.892855 130.953335 
L 119.176133 131.574619 
L 120.459411 132.677927 
L 121.742689 130.825107 
L 123.025967 127.913628 
L 124.309245 128.783194 
L 125.592522 129.826696 
L 126.8758 131.856282 
L 128.159078 132.40078 
L 129.442356 131.01401 
L 130.725634 131.134906 
L 132.008912 131.492915 
L 133.29219 129.64217 
L 134.575467 128.360196 
L 135.858745 127.981107 
L 137.142023 128.063981 
L 138.425301 130.527696 
L 139.708579 131.074621 
L 140.991857 129.686116 
L 142.275134 129.952107 
L 143.558412 133.077971 
L 144.84169 136.557769 
L 146.124968 138.051184 
L 147.408246 139.316504 
L 149.974802 146.924388 
L 151.258079 152.226669 
L 152.541357 156.725015 
L 153.824635 162.538186 
L 155.107913 169.30391 
L 156.391191 177.805596 
L 157.674469 184.555385 
L 158.957746 192.434391 
L 160.241024 201.773784 
L 161.524302 210.08385 
L 162.80758 216.78236 
L 164.090858 225.786409 
L 165.374136 233.166323 
L 166.657414 237.628332 
L 167.940691 240.28319 
L 169.223969 242.116364 
L 170.507247 242.003215 
L 171.790525 239.421334 
L 173.073803 234.921378 
L 175.640359 217.893554 
L 176.923636 208.14764 
L 178.206914 197.423917 
L 183.340026 144.463201 
L 184.623303 131.181946 
L 185.906581 119.135599 
L 187.189859 105.417222 
L 188.473137 94.540983 
L 189.756415 85.355163 
L 192.322971 65.090704 
L 193.606248 60.61681 
L 194.889526 55.031559 
L 196.172804 51.175903 
L 197.456082 49.107075 
L 198.73936 46.420723 
L 200.022638 45.64559 
L 201.305915 44.443636 
L 202.589193 46.437464 
L 205.155749 48.923316 
L 206.439027 53.590529 
L 207.722305 57.447604 
L 209.005583 63.767628 
L 210.28886 71.391963 
L 211.572138 76.564808 
L 212.855416 85.318021 
L 214.138694 95.146696 
L 215.421972 102.390571 
L 216.70525 112.115958 
L 220.555083 145.508237 
L 221.838361 154.958803 
L 225.688195 175.243939 
L 226.971472 181.056419 
L 228.25475 183.345632 
L 230.821306 182.667309 
L 232.104584 181.554719 
L 233.387862 178.86555 
L 234.67114 174.534738 
L 235.954417 169.749019 
L 237.237695 165.506377 
L 238.520973 161.916864 
L 239.804251 154.805922 
L 242.370807 142.712787 
L 243.654085 137.080658 
L 244.937362 131.971543 
L 246.22064 128.370372 
L 247.503918 125.317848 
L 248.787196 120.072971 
L 250.070474 113.805647 
L 251.353752 111.527074 
L 253.920307 105.428819 
L 255.203585 103.002296 
L 257.770141 95.939476 
L 259.053419 93.646489 
L 260.336697 92.169286 
L 261.619974 87.773284 
L 262.903252 85.183026 
L 264.18653 82.958059 
L 266.753086 80.238326 
L 268.036364 78.655069 
L 269.319641 78.135311 
L 270.602919 76.983567 
L 271.886197 78.012893 
L 273.169475 75.770519 
L 274.452753 71.955616 
L 275.736031 73.379892 
L 277.019309 73.241337 
L 278.302586 74.769832 
L 279.585864 76.695489 
L 280.869142 77.623466 
L 282.15242 79.010311 
L 283.435698 79.516308 
L 284.718976 80.685108 
L 286.002254 81.277312 
L 287.285531 82.392619 
L 288.568809 83.900801 
L 289.852087 84.068272 
L 291.135365 85.556229 
L 292.418643 85.607546 
L 294.985198 88.411498 
L 296.268476 92.198466 
L 297.551754 91.263786 
L 298.835032 91.990646 
L 300.11831 93.611171 
L 301.401588 92.8846 
L 302.684866 93.361191 
L 303.968143 92.720198 
L 305.251421 91.914665 
L 306.534699 92.228074 
L 307.817977 93.791496 
L 309.101255 94.428565 
L 310.384533 92.446673 
L 311.66781 91.39863 
L 312.951088 93.216058 
L 314.234366 95.33731 
L 315.517644 96.636036 
L 316.800922 97.216317 
L 318.0842 98.321424 
L 319.367478 99.762479 
L 320.650755 102.296239 
L 321.934033 102.39281 
L 323.217311 102.612151 
L 324.500589 102.422392 
L 325.783867 103.159956 
L 327.067145 103.55566 
L 328.350423 104.570409 
L 329.6337 106.710566 
L 330.916978 106.665991 
L 332.200256 106.009049 
L 333.483534 108.317029 
L 334.766812 109.567897 
L 336.05009 109.889935 
L 337.333367 109.653287 
L 338.616645 110.640151 
L 339.899923 111.341378 
L 341.183201 111.863802 
L 342.466479 112.169312 
L 343.749757 110.65732 
L 345.033035 111.493693 
L 346.316312 113.087352 
L 347.59959 114.491127 
L 348.882868 115.468206 
L 350.166146 115.612321 
L 351.449424 116.791962 
L 352.732702 116.829808 
L 354.01598 118.809902 
L 355.299257 117.398983 
L 356.582535 114.445433 
L 357.865813 115.91451 
L 359.149091 114.469556 
L 360.432369 114.905522 
L 364.282202 117.240958 
L 365.56548 118.349398 
L 366.848758 118.930018 
L 368.132036 118.632394 
L 369.415314 118.830479 
L 370.698592 118.640255 
L 371.981869 117.423849 
L 373.265147 118.103178 
L 374.548425 118.400589 
L 375.831703 119.234661 
L 377.114981 119.504362 
L 378.398259 123.035602 
L 380.964814 122.461824 
L 382.248092 124.173776 
L 383.53137 122.929661 
L 384.814648 121.878651 
L 386.097926 121.18663 
L 387.381204 120.910086 
L 388.664481 121.243469 
L 389.947759 122.517342 
L 391.231037 123.513262 
L 392.514315 121.729493 
L 393.797593 120.573698 
L 395.080871 121.438422 
L 396.364149 122.906971 
L 397.647426 123.277495 
L 398.930704 122.891174 
L 400.213982 122.990386 
L 401.49726 123.94436 
L 402.780538 125.786024 
L 404.063816 126.159014 
L 405.347093 125.893877 
L 406.630371 126.268099 
L 407.913649 126.972571 
L 409.196927 126.580804 
L 410.480205 126.949403 
L 411.763483 128.240395 
L 414.330038 126.947064 
L 415.613316 129.00983 
L 416.896594 129.254477 
L 418.179872 128.405602 
L 419.46315 128.024638 
L 420.746428 128.591109 
L 422.029706 128.327142 
L 423.312983 128.846988 
L 424.596261 128.209278 
L 425.879539 126.810484 
L 427.162817 127.579743 
L 428.446095 128.050976 
L 429.729373 128.278983 
L 433 129.659137 
L 433 129.659137 
" style="fill:none;stroke:#008fd5;stroke-width:3;"/>
   </g>
   <g id="line2d_32">
    <path clip-path="url(#p26cc9b067f)" d="M -1 130.020142 
L -0.168707 129.065109 
L 1.114571 128.141673 
L 2.397849 129.209223 
L 3.681127 130.062035 
L 4.964405 129.331364 
L 6.247682 129.372619 
L 7.53096 128.042259 
L 8.814238 128.048838 
L 10.097516 125.704748 
L 11.380794 125.060334 
L 12.664072 125.872999 
L 13.94735 125.624063 
L 16.513905 127.232789 
L 19.080461 125.111902 
L 20.363739 127.172178 
L 22.930294 128.826184 
L 24.213572 127.650618 
L 25.49685 126.965716 
L 26.780128 126.881182 
L 28.063406 127.703834 
L 29.346684 128.044259 
L 30.629962 128.564784 
L 31.913239 128.219881 
L 33.196517 129.298298 
L 34.479795 127.65536 
L 37.046351 128.445196 
L 39.612907 127.262875 
L 40.896184 127.567794 
L 42.179462 127.344101 
L 43.46274 127.393468 
L 44.746018 127.602861 
L 47.312574 126.092528 
L 48.595851 125.965608 
L 49.879129 126.634925 
L 51.162407 126.89337 
L 52.445685 126.57205 
L 53.728963 126.082579 
L 55.012241 126.60377 
L 56.295519 124.685446 
L 57.578796 124.472142 
L 58.862074 125.159949 
L 60.145352 126.102515 
L 61.42863 123.590351 
L 62.711908 122.606668 
L 63.995186 124.692841 
L 65.278464 125.052335 
L 66.561741 123.64817 
L 67.845019 123.116866 
L 69.128297 124.963876 
L 70.411575 127.097807 
L 71.694853 127.215747 
L 72.978131 127.101467 
L 74.261408 127.426246 
L 76.827964 127.208037 
L 78.111242 128.338399 
L 79.39452 129.316912 
L 80.677798 128.394898 
L 81.961076 127.756333 
L 83.244353 126.908262 
L 84.527631 129.20433 
L 85.810909 129.454134 
L 88.377465 129.586941 
L 89.660743 129.02852 
L 90.94402 127.734032 
L 92.227298 125.450856 
L 93.510576 124.177826 
L 94.793854 123.54936 
L 96.077132 123.347364 
L 97.36041 121.862426 
L 98.643688 122.976463 
L 99.926965 121.248726 
L 101.210243 121.048679 
L 103.776799 124.445767 
L 105.060077 126.776084 
L 106.343355 126.970005 
L 107.626633 127.367055 
L 108.90991 128.131045 
L 111.476466 130.890359 
L 112.759744 131.217855 
L 114.043022 131.951092 
L 115.3263 132.976319 
L 116.609577 131.747096 
L 117.892855 132.101583 
L 119.176133 132.110652 
L 120.459411 132.782372 
L 121.742689 132.099747 
L 123.025967 133.468694 
L 124.309245 132.174735 
L 125.592522 131.084683 
L 128.159078 129.878905 
L 129.442356 129.037589 
L 130.725634 128.558897 
L 132.008912 127.336215 
L 133.29219 127.095316 
L 134.575467 126.198671 
L 135.858745 126.36989 
L 137.142023 127.423265 
L 138.425301 127.738711 
L 139.708579 129.190306 
L 140.991857 129.852266 
L 142.275134 131.11326 
L 143.558412 128.756932 
L 144.84169 129.209978 
L 147.408246 137.939117 
L 148.691524 139.266081 
L 149.974802 142.93487 
L 153.824635 159.806819 
L 155.107913 166.411625 
L 157.674469 183.709981 
L 158.957746 189.860484 
L 160.241024 197.476215 
L 161.524302 206.13448 
L 164.090858 221.189794 
L 165.374136 228.365323 
L 166.657414 236.821453 
L 167.940691 239.956348 
L 169.223969 241.707818 
L 170.507247 241.302441 
L 171.790525 240.760673 
L 173.073803 236.496598 
L 174.357081 228.484055 
L 178.206914 201.196522 
L 179.490192 187.680645 
L 180.77347 176.680466 
L 184.623303 137.981793 
L 188.473137 103.146598 
L 191.039693 82.816888 
L 192.322971 74.316773 
L 194.889526 61.13175 
L 198.73936 48.627 
L 200.022638 47.731475 
L 201.305915 47.529679 
L 202.589193 48.736866 
L 203.872471 48.380555 
L 205.155749 51.70078 
L 206.439027 53.535489 
L 207.722305 56.461243 
L 209.005583 60.216565 
L 210.28886 65.32173 
L 211.572138 72.137224 
L 212.855416 79.597484 
L 214.138694 86.342984 
L 216.70525 104.517747 
L 220.555083 139.053569 
L 221.838361 150.479337 
L 223.121639 159.53235 
L 224.404917 167.286939 
L 225.688195 171.076637 
L 228.25475 182.760811 
L 229.538028 184.924751 
L 230.821306 183.30712 
L 232.104584 182.520843 
L 233.387862 181.247259 
L 234.67114 177.510676 
L 237.237695 168.746319 
L 238.520973 163.332651 
L 239.804251 158.855561 
L 241.087529 150.506177 
L 242.370807 143.730479 
L 243.654085 138.532932 
L 246.22064 129.437746 
L 247.503918 126.069373 
L 248.787196 125.020828 
L 250.070474 120.571095 
L 251.353752 116.739476 
L 252.637029 113.43218 
L 253.920307 111.48221 
L 255.203585 106.990392 
L 257.770141 99.202247 
L 259.053419 95.340668 
L 260.336697 93.060309 
L 261.619974 89.081482 
L 262.903252 87.588129 
L 264.18653 85.035641 
L 265.469808 81.843833 
L 266.753086 79.606238 
L 268.036364 78.401315 
L 269.319641 76.772389 
L 271.886197 76.604654 
L 273.169475 76.894467 
L 274.452753 76.604641 
L 275.736031 77.653589 
L 277.019309 78.34327 
L 278.302586 78.559931 
L 279.585864 78.598759 
L 280.869142 79.646851 
L 282.15242 81.042451 
L 284.718976 84.068373 
L 286.002254 83.73411 
L 287.285531 85.37379 
L 289.852087 85.347629 
L 291.135365 86.488607 
L 292.418643 87.915349 
L 293.701921 87.696574 
L 294.985198 87.820589 
L 296.268476 87.359368 
L 297.551754 88.805957 
L 298.835032 88.838508 
L 300.11831 89.413003 
L 301.401588 89.580713 
L 302.684866 91.562945 
L 303.968143 92.37498 
L 305.251421 92.792834 
L 306.534699 92.592095 
L 307.817977 90.53924 
L 309.101255 90.516437 
L 310.384533 92.291037 
L 311.66781 93.733677 
L 312.951088 92.1432 
L 314.234366 93.436807 
L 315.517644 95.513409 
L 316.800922 94.801705 
L 318.0842 94.510558 
L 319.367478 96.91331 
L 320.650755 98.96536 
L 321.934033 100.097961 
L 323.217311 100.153378 
L 324.500589 101.652001 
L 325.783867 102.938691 
L 327.067145 103.943856 
L 328.350423 104.301613 
L 329.6337 106.421557 
L 330.916978 109.809916 
L 332.200256 110.634969 
L 334.766812 110.759765 
L 336.05009 111.960184 
L 337.333367 112.481514 
L 338.616645 112.537522 
L 339.899923 113.393982 
L 341.183201 114.995917 
L 342.466479 114.512496 
L 343.749757 112.402514 
L 345.033035 113.506941 
L 346.316312 114.772388 
L 347.59959 114.046534 
L 348.882868 113.741036 
L 350.166146 115.279253 
L 351.449424 115.412978 
L 352.732702 116.752909 
L 354.01598 117.306198 
L 355.299257 117.663943 
L 356.582535 118.184103 
L 359.149091 119.946088 
L 361.715647 119.278192 
L 364.282202 120.071411 
L 365.56548 121.272435 
L 366.848758 121.4451 
L 368.132036 120.397549 
L 369.415314 121.589655 
L 370.698592 121.924169 
L 371.981869 121.790117 
L 373.265147 120.736641 
L 374.548425 120.66344 
L 377.114981 119.414256 
L 378.398259 118.168657 
L 380.964814 120.194685 
L 382.248092 119.540309 
L 383.53137 118.670982 
L 384.814648 119.708535 
L 386.097926 119.31239 
L 387.381204 120.472562 
L 388.664481 120.61733 
L 391.231037 121.972077 
L 392.514315 123.243762 
L 393.797593 123.457908 
L 395.080871 118.795714 
L 396.364149 119.3018 
L 397.647426 121.422524 
L 398.930704 121.550639 
L 400.213982 120.396304 
L 402.780538 123.682721 
L 404.063816 123.692921 
L 405.347093 124.218627 
L 406.630371 124.937199 
L 407.913649 127.059709 
L 409.196927 128.475168 
L 410.480205 127.999546 
L 411.763483 129.30963 
L 413.046761 129.473743 
L 414.330038 130.316292 
L 415.613316 130.898686 
L 416.896594 131.795444 
L 418.179872 133.581163 
L 419.46315 131.571148 
L 420.746428 130.056841 
L 422.029706 131.366724 
L 423.312983 133.007976 
L 425.879539 129.47978 
L 427.162817 127.434195 
L 428.446095 127.766898 
L 429.729373 128.306226 
L 431.01265 128.079477 
L 432.295928 129.346332 
L 433 128.669543 
L 433 128.669543 
" style="fill:none;stroke:#fc4f30;stroke-width:3;"/>
   </g>
   <g id="line2d_33">
    <path clip-path="url(#p26cc9b067f)" d="M -1 125.693395 
L -0.168707 125.970626 
L 1.114571 127.41807 
L 2.397849 127.578183 
L 3.681127 127.020932 
L 4.964405 126.714529 
L 6.247682 127.434962 
L 7.53096 126.047048 
L 8.814238 126.153467 
L 10.097516 126.617317 
L 11.380794 128.021733 
L 13.94735 128.158565 
L 15.230627 126.754199 
L 16.513905 126.058984 
L 17.797183 127.209169 
L 19.080461 127.485272 
L 20.363739 125.835165 
L 21.647017 126.95451 
L 22.930294 127.545381 
L 24.213572 127.568322 
L 25.49685 127.221231 
L 26.780128 126.449393 
L 28.063406 126.507023 
L 29.346684 128.247702 
L 30.629962 128.883274 
L 31.913239 126.299795 
L 33.196517 126.52111 
L 34.479795 126.428237 
L 37.046351 126.999714 
L 38.329629 128.564545 
L 40.896184 127.868814 
L 42.179462 128.524624 
L 43.46274 128.595825 
L 44.746018 126.450563 
L 46.029296 125.338349 
L 47.312574 124.666931 
L 48.595851 125.336249 
L 49.879129 125.772768 
L 51.162407 124.790041 
L 52.445685 124.325072 
L 53.728963 125.160816 
L 55.012241 125.797382 
L 56.295519 125.129561 
L 57.578796 125.453485 
L 58.862074 126.966333 
L 60.145352 127.060904 
L 61.42863 126.979212 
L 62.711908 127.139703 
L 63.995186 128.25628 
L 65.278464 127.457061 
L 66.561741 128.850359 
L 67.845019 129.774599 
L 69.128297 130.045735 
L 70.411575 128.37383 
L 71.694853 127.811008 
L 72.978131 128.570821 
L 74.261408 129.103948 
L 75.544686 128.336198 
L 76.827964 125.720218 
L 78.111242 124.959197 
L 79.39452 126.310523 
L 80.677798 126.011717 
L 81.961076 125.357002 
L 83.244353 125.592946 
L 84.527631 125.645055 
L 87.094187 127.825786 
L 88.377465 127.310255 
L 89.660743 125.596228 
L 90.94402 124.561456 
L 92.227298 124.170166 
L 93.510576 125.117914 
L 94.793854 124.362742 
L 96.077132 123.252516 
L 97.36041 122.996612 
L 98.643688 122.893463 
L 99.926965 123.590891 
L 101.210243 124.867984 
L 102.493521 122.873603 
L 105.060077 126.482132 
L 106.343355 126.634548 
L 107.626633 126.58996 
L 110.193188 127.904346 
L 111.476466 129.209361 
L 112.759744 129.75118 
L 114.043022 129.303794 
L 115.3263 130.861217 
L 116.609577 131.66187 
L 117.892855 130.917665 
L 119.176133 130.968089 
L 120.459411 131.926616 
L 121.742689 131.415839 
L 123.025967 130.393594 
L 125.592522 133.110107 
L 126.8758 130.522678 
L 128.159078 129.182458 
L 130.725634 127.527722 
L 132.008912 127.536401 
L 133.29219 127.293175 
L 134.575467 126.245308 
L 135.858745 126.284702 
L 137.142023 126.928826 
L 138.425301 126.480837 
L 139.708579 127.60364 
L 140.991857 130.976755 
L 142.275134 131.081803 
L 143.558412 131.765384 
L 144.84169 133.048351 
L 146.124968 136.569805 
L 147.408246 138.494985 
L 151.258079 151.15488 
L 152.541357 154.693516 
L 153.824635 160.064459 
L 156.391191 174.798163 
L 157.674469 181.230179 
L 158.957746 186.741537 
L 160.241024 194.193408 
L 162.80758 210.63695 
L 165.374136 224.499417 
L 166.657414 229.940693 
L 167.940691 233.191201 
L 169.223969 237.088727 
L 170.507247 237.542352 
L 171.790525 235.474378 
L 173.073803 231.696176 
L 174.357081 227.377099 
L 175.640359 221.696986 
L 176.923636 213.049626 
L 178.206914 202.972443 
L 183.340026 157.129297 
L 184.623303 140.889536 
L 187.189859 117.875109 
L 188.473137 106.172684 
L 189.756415 95.67605 
L 192.322971 77.906286 
L 196.172804 56.960335 
L 197.456082 52.990677 
L 200.022638 46.921992 
L 201.305915 45.911154 
L 202.589193 45.251433 
L 203.872471 45.484044 
L 205.155749 47.106883 
L 210.28886 64.278204 
L 211.572138 70.114166 
L 214.138694 83.263544 
L 215.421972 92.750573 
L 216.70525 101.007977 
L 217.988528 110.360916 
L 219.271805 122.719791 
L 220.555083 132.263721 
L 221.838361 144.06195 
L 223.121639 157.062987 
L 225.688195 174.405063 
L 226.971472 180.475358 
L 228.25475 185.641738 
L 230.821306 189.242143 
L 232.104584 188.486015 
L 233.387862 186.457296 
L 234.67114 181.524759 
L 235.954417 178.158876 
L 237.237695 173.860867 
L 238.520973 167.161477 
L 241.087529 150.294672 
L 242.370807 144.665008 
L 243.654085 139.585313 
L 246.22064 128.131724 
L 247.503918 123.478963 
L 250.070474 115.933276 
L 251.353752 114.167354 
L 253.920307 108.737486 
L 255.203585 104.409793 
L 256.486863 102.126391 
L 259.053419 95.551859 
L 260.336697 93.497331 
L 261.619974 91.209928 
L 262.903252 90.748305 
L 264.18653 89.273089 
L 265.469808 86.854238 
L 266.753086 82.721474 
L 268.036364 80.600549 
L 269.319641 79.659932 
L 270.602919 78.075102 
L 271.886197 77.302925 
L 273.169475 78.916645 
L 274.452753 77.206266 
L 275.736031 77.634521 
L 277.019309 76.05915 
L 278.302586 75.665018 
L 279.585864 77.093093 
L 280.869142 79.003947 
L 282.15242 80.352305 
L 283.435698 80.460095 
L 284.718976 81.417402 
L 286.002254 81.843305 
L 287.285531 81.397391 
L 289.852087 84.961484 
L 291.135365 85.939129 
L 292.418643 86.200102 
L 293.701921 87.892596 
L 294.985198 88.491479 
L 296.268476 87.770304 
L 297.551754 88.472524 
L 298.835032 88.042684 
L 300.11831 89.258374 
L 301.401588 89.885066 
L 302.684866 88.678093 
L 303.968143 89.465577 
L 305.251421 91.769041 
L 306.534699 91.425144 
L 307.817977 92.4288 
L 309.101255 92.905064 
L 310.384533 94.606676 
L 311.66781 94.796875 
L 312.951088 95.598937 
L 314.234366 95.226023 
L 315.517644 95.807725 
L 316.800922 95.947488 
L 318.0842 97.448072 
L 319.367478 99.623697 
L 320.650755 101.10046 
L 321.934033 101.375595 
L 323.217311 101.360099 
L 324.500589 102.839177 
L 325.783867 103.913896 
L 327.067145 104.33707 
L 328.350423 103.844757 
L 329.6337 103.719307 
L 330.916978 104.997344 
L 332.200256 105.431473 
L 333.483534 107.226965 
L 334.766812 108.474035 
L 336.05009 108.913006 
L 337.333367 107.986501 
L 338.616645 110.122017 
L 339.899923 110.332277 
L 341.183201 109.866616 
L 342.466479 111.34612 
L 343.749757 112.306383 
L 345.033035 114.464702 
L 346.316312 115.624584 
L 347.59959 116.518739 
L 350.166146 115.974191 
L 351.449424 117.250706 
L 352.732702 117.074166 
L 354.01598 115.047158 
L 355.299257 117.006964 
L 356.582535 117.323605 
L 357.865813 117.941015 
L 359.149091 116.989041 
L 360.432369 116.61946 
L 361.715647 117.763382 
L 362.998924 119.409879 
L 364.282202 120.029213 
L 365.56548 118.988743 
L 366.848758 118.87118 
L 368.132036 118.574927 
L 369.415314 116.54168 
L 370.698592 117.708631 
L 371.981869 118.103065 
L 373.265147 119.073491 
L 374.548425 118.984416 
L 375.831703 120.69755 
L 377.114981 121.271089 
L 378.398259 120.103371 
L 379.681536 119.890419 
L 380.964814 119.947371 
L 382.248092 119.49557 
L 383.53137 117.588188 
L 384.814648 116.583727 
L 386.097926 116.579879 
L 387.381204 118.06664 
L 388.664481 118.391382 
L 389.947759 119.298253 
L 391.231037 120.946838 
L 392.514315 123.344018 
L 393.797593 123.16368 
L 395.080871 124.356654 
L 396.364149 124.732863 
L 397.647426 124.943438 
L 398.930704 124.791613 
L 400.213982 125.450718 
L 401.49726 125.532485 
L 402.780538 125.895286 
L 404.063816 125.846586 
L 406.630371 128.975569 
L 407.913649 128.777283 
L 409.196927 128.42477 
L 410.480205 126.476271 
L 411.763483 126.769896 
L 413.046761 127.931149 
L 414.330038 128.122039 
L 415.613316 127.667585 
L 416.896594 127.607678 
L 418.179872 127.073129 
L 419.46315 124.651587 
L 420.746428 127.088059 
L 422.029706 128.028223 
L 424.596261 128.40901 
L 425.879539 130.119427 
L 427.162817 130.68303 
L 428.446095 130.41612 
L 429.729373 131.088821 
L 432.295928 131.316577 
L 433 131.946047 
L 433 131.946047 
" style="fill:none;stroke:#e5ae38;stroke-width:3;"/>
   </g>
   <g id="line2d_34">
    <path clip-path="url(#p26cc9b067f)" d="M -1 128.152074 
L -0.168707 129.704077 
L 1.114571 129.612738 
L 2.397849 126.874277 
L 3.681127 126.226304 
L 4.964405 126.933467 
L 6.247682 126.930386 
L 7.53096 125.311559 
L 8.814238 124.988302 
L 10.097516 126.210066 
L 11.380794 125.383251 
L 12.664072 127.060841 
L 13.94735 128.39681 
L 15.230627 127.739013 
L 16.513905 127.407404 
L 17.797183 128.038436 
L 19.080461 128.275134 
L 20.363739 128.042373 
L 21.647017 128.085753 
L 24.213572 125.124354 
L 25.49685 127.354767 
L 26.780128 127.777174 
L 28.063406 127.016278 
L 29.346684 127.718034 
L 30.629962 128.956224 
L 33.196517 127.043974 
L 34.479795 128.977732 
L 35.763073 126.841072 
L 37.046351 123.731949 
L 38.329629 124.620369 
L 39.612907 123.786071 
L 40.896184 123.493679 
L 42.179462 124.075155 
L 43.46274 126.387297 
L 44.746018 125.826512 
L 46.029296 126.134298 
L 47.312574 127.696551 
L 49.879129 127.126106 
L 51.162407 126.176496 
L 52.445685 125.756983 
L 53.728963 124.486782 
L 55.012241 126.428703 
L 56.295519 127.662705 
L 57.578796 127.507346 
L 58.862074 128.519089 
L 60.145352 130.155122 
L 62.711908 131.20046 
L 63.995186 129.050456 
L 65.278464 127.205207 
L 66.561741 126.888716 
L 69.128297 127.667359 
L 70.411575 128.003156 
L 72.978131 125.724457 
L 74.261408 127.741466 
L 75.544686 129.050141 
L 76.827964 128.30605 
L 78.111242 127.170291 
L 80.677798 127.164003 
L 81.961076 128.423512 
L 84.527631 126.789416 
L 85.810909 126.27879 
L 87.094187 127.635323 
L 88.377465 128.371994 
L 89.660743 124.575945 
L 90.94402 123.147028 
L 92.227298 124.295779 
L 93.510576 123.236404 
L 94.793854 124.739416 
L 96.077132 124.523848 
L 97.36041 123.550253 
L 98.643688 122.945685 
L 101.210243 124.9495 
L 102.493521 125.019733 
L 103.776799 125.9542 
L 105.060077 125.402659 
L 106.343355 125.226233 
L 107.626633 127.2325 
L 108.90991 128.227653 
L 110.193188 128.313596 
L 111.476466 129.302574 
L 112.759744 132.059385 
L 114.043022 132.512645 
L 115.3263 132.42191 
L 116.609577 133.02361 
L 117.892855 131.841843 
L 119.176133 130.145387 
L 120.459411 130.394122 
L 121.742689 130.423139 
L 123.025967 128.139107 
L 124.309245 126.4465 
L 125.592522 127.867104 
L 126.8758 126.643076 
L 128.159078 126.776599 
L 129.442356 127.653334 
L 130.725634 128.072647 
L 132.008912 126.488597 
L 133.29219 125.995555 
L 134.575467 127.288471 
L 135.858745 126.37521 
L 137.142023 128.848308 
L 138.425301 130.123213 
L 139.708579 129.316824 
L 140.991857 129.980017 
L 142.275134 133.056123 
L 143.558412 135.55317 
L 144.84169 137.355504 
L 146.124968 137.715626 
L 147.408246 139.649937 
L 148.691524 142.290544 
L 149.974802 146.296815 
L 151.258079 149.70975 
L 152.541357 153.655435 
L 153.824635 157.188839 
L 155.107913 163.549816 
L 156.391191 171.82508 
L 157.674469 178.900314 
L 160.241024 191.07294 
L 162.80758 205.338782 
L 164.090858 213.508319 
L 165.374136 219.593972 
L 166.657414 224.701854 
L 167.940691 228.955628 
L 169.223969 232.315133 
L 170.507247 233.277559 
L 173.073803 227.412883 
L 174.357081 224.925345 
L 176.923636 212.27487 
L 178.206914 204.198899 
L 179.490192 194.492453 
L 183.340026 161.53175 
L 185.906581 136.10915 
L 188.473137 113.898457 
L 189.756415 102.936389 
L 192.322971 83.987612 
L 193.606248 76.190712 
L 194.889526 71.608612 
L 196.172804 65.186269 
L 197.456082 59.825716 
L 198.73936 56.576177 
L 200.022638 53.783821 
L 201.305915 51.500658 
L 202.589193 49.54094 
L 203.872471 49.554712 
L 205.155749 46.421201 
L 206.439027 47.329217 
L 207.722305 52.675105 
L 209.005583 56.059438 
L 211.572138 67.008074 
L 212.855416 74.382931 
L 214.138694 80.883985 
L 217.988528 108.853728 
L 220.555083 131.243325 
L 223.121639 149.688004 
L 225.688195 170.38244 
L 226.971472 178.377827 
L 228.25475 183.954376 
L 229.538028 188.015486 
L 230.821306 189.178425 
L 232.104584 189.904807 
L 233.387862 187.03037 
L 234.67114 182.80482 
L 235.954417 177.435349 
L 237.237695 173.443517 
L 238.520973 168.274256 
L 239.804251 160.94757 
L 241.087529 152.083825 
L 242.370807 144.353109 
L 243.654085 139.226927 
L 248.787196 122.109274 
L 250.070474 119.577904 
L 251.353752 117.983968 
L 252.637029 114.744956 
L 253.920307 110.266055 
L 255.203585 107.235933 
L 256.486863 105.574178 
L 257.770141 102.41755 
L 259.053419 98.931048 
L 260.336697 96.979229 
L 261.619974 94.549448 
L 262.903252 90.793886 
L 264.18653 90.376662 
L 265.469808 88.323555 
L 266.753086 84.963031 
L 268.036364 82.088028 
L 269.319641 80.699308 
L 271.886197 78.376223 
L 273.169475 77.760574 
L 274.452753 75.82376 
L 275.736031 75.717567 
L 277.019309 77.866741 
L 278.302586 79.001003 
L 279.585864 77.962985 
L 280.869142 78.550536 
L 282.15242 80.63203 
L 283.435698 79.643506 
L 284.718976 80.759442 
L 286.002254 82.268101 
L 287.285531 79.182398 
L 288.568809 78.767362 
L 289.852087 80.529322 
L 291.135365 81.021635 
L 292.418643 81.335107 
L 293.701921 83.219811 
L 294.985198 84.539153 
L 296.268476 85.422516 
L 297.551754 87.616719 
L 298.835032 89.175298 
L 300.11831 89.395369 
L 301.401588 89.803965 
L 302.684866 90.965093 
L 303.968143 89.538842 
L 306.534699 91.121999 
L 309.101255 91.815629 
L 310.384533 93.353003 
L 311.66781 95.094159 
L 312.951088 95.984654 
L 314.234366 98.117616 
L 316.800922 96.886457 
L 318.0842 97.045601 
L 319.367478 98.576372 
L 320.650755 99.390131 
L 321.934033 99.71457 
L 323.217311 98.49995 
L 324.500589 99.583373 
L 325.783867 101.677646 
L 327.067145 104.389996 
L 328.350423 104.087404 
L 329.6337 104.696676 
L 330.916978 105.487846 
L 332.200256 106.719496 
L 333.483534 108.781143 
L 334.766812 109.003804 
L 336.05009 109.592398 
L 337.333367 109.914411 
L 338.616645 111.818686 
L 339.899923 111.69896 
L 341.183201 110.520337 
L 342.466479 112.138724 
L 343.749757 112.894047 
L 345.033035 111.97695 
L 346.316312 113.864196 
L 347.59959 115.248174 
L 348.882868 115.496959 
L 350.166146 114.934928 
L 351.449424 115.964682 
L 352.732702 116.690725 
L 354.01598 117.119383 
L 355.299257 117.967453 
L 356.582535 117.795128 
L 357.865813 118.092626 
L 359.149091 119.240459 
L 360.432369 120.174837 
L 361.715647 117.932563 
L 362.998924 118.563469 
L 364.282202 120.868467 
L 365.56548 119.78522 
L 366.848758 120.419862 
L 368.132036 121.242488 
L 369.415314 118.77671 
L 370.698592 117.434704 
L 371.981869 117.333001 
L 373.265147 116.65996 
L 374.548425 114.584076 
L 375.831703 116.272092 
L 377.114981 116.873025 
L 378.398259 117.247259 
L 379.681536 119.09808 
L 382.248092 119.72769 
L 383.53137 118.624709 
L 384.814648 119.477874 
L 386.097926 118.9737 
L 387.381204 120.3106 
L 388.664481 121.229168 
L 389.947759 121.484632 
L 391.231037 121.552199 
L 392.514315 122.189506 
L 393.797593 123.550253 
L 395.080871 125.414218 
L 396.364149 126.842066 
L 397.647426 126.970584 
L 398.930704 126.151304 
L 400.213982 125.637194 
L 401.49726 125.320162 
L 402.780538 125.243577 
L 404.063816 125.522373 
L 405.347093 125.050209 
L 407.913649 128.511455 
L 409.196927 129.718591 
L 410.480205 126.964735 
L 411.763483 126.208695 
L 413.046761 126.525789 
L 415.613316 128.523051 
L 416.896594 128.053252 
L 418.179872 126.975213 
L 419.46315 127.631034 
L 420.746428 129.587331 
L 422.029706 128.798501 
L 423.312983 127.332178 
L 424.596261 127.904208 
L 425.879539 128.301421 
L 427.162817 127.593691 
L 428.446095 128.07159 
L 429.729373 129.046129 
L 431.01265 128.625546 
L 432.295928 128.80933 
L 433 129.384809 
L 433 129.384809 
" style="fill:none;stroke:#6d904f;stroke-width:3;"/>
   </g>
   <g id="line2d_35">
    <path clip-path="url(#p26cc9b067f)" d="M -1 131.039361 
L -0.168707 130.473336 
L 1.114571 129.379901 
L 2.397849 128.68173 
L 3.681127 128.808437 
L 4.964405 126.088013 
L 6.247682 126.232127 
L 8.814238 127.513547 
L 10.097516 125.960702 
L 11.380794 126.903155 
L 12.664072 128.093853 
L 13.94735 127.938104 
L 15.230627 126.574804 
L 16.513905 126.531864 
L 17.797183 127.158041 
L 19.080461 126.528443 
L 20.363739 126.959956 
L 21.647017 128.062308 
L 24.213572 126.75362 
L 26.780128 127.000657 
L 28.063406 128.593285 
L 29.346684 127.694954 
L 30.629962 127.427692 
L 31.913239 129.105546 
L 35.763073 127.014379 
L 37.046351 126.749822 
L 38.329629 127.635902 
L 40.896184 127.215017 
L 42.179462 128.158489 
L 43.46274 128.22017 
L 44.746018 127.163411 
L 46.029296 127.032089 
L 47.312574 127.703922 
L 48.595851 126.673715 
L 49.879129 125.224937 
L 52.445685 126.146298 
L 53.728963 126.129242 
L 55.012241 124.822655 
L 56.295519 125.630653 
L 57.578796 123.979502 
L 58.862074 123.536984 
L 60.145352 123.617254 
L 61.42863 123.97359 
L 62.711908 121.580222 
L 63.995186 123.321756 
L 66.561741 125.613912 
L 67.845019 124.793487 
L 69.128297 124.876273 
L 70.411575 125.963721 
L 71.694853 125.929548 
L 72.978131 126.98613 
L 74.261408 126.942171 
L 75.544686 125.295686 
L 76.827964 126.096176 
L 78.111242 127.622557 
L 79.39452 127.727593 
L 80.677798 129.179074 
L 81.961076 128.59175 
L 84.527631 129.01715 
L 85.810909 129.836758 
L 87.094187 127.736624 
L 90.94402 126.249585 
L 92.227298 124.207459 
L 93.510576 125.124278 
L 94.793854 124.742711 
L 96.077132 122.361229 
L 97.36041 121.213408 
L 98.643688 123.759406 
L 99.926965 124.383834 
L 101.210243 123.492497 
L 102.493521 123.737471 
L 103.776799 125.7234 
L 105.060077 126.568289 
L 106.343355 127.06547 
L 107.626633 126.657301 
L 108.90991 128.067679 
L 110.193188 130.070123 
L 111.476466 130.248121 
L 112.759744 131.101613 
L 114.043022 133.052677 
L 115.3263 133.16536 
L 116.609577 132.971791 
L 117.892855 133.509798 
L 119.176133 132.439556 
L 120.459411 132.115909 
L 121.742689 131.246708 
L 123.025967 130.200037 
L 124.309245 131.509995 
L 125.592522 131.964185 
L 126.8758 130.261038 
L 128.159078 129.261873 
L 129.442356 129.074353 
L 130.725634 127.833333 
L 132.008912 127.43949 
L 133.29219 127.569039 
L 134.575467 127.544614 
L 135.858745 126.188495 
L 137.142023 125.490186 
L 138.425301 126.968974 
L 139.708579 127.738711 
L 140.991857 127.553934 
L 142.275134 127.927703 
L 143.558412 129.275029 
L 144.84169 126.799692 
L 146.124968 130.83693 
L 147.408246 135.443405 
L 148.691524 138.874741 
L 149.974802 140.39218 
L 151.258079 146.690105 
L 152.541357 150.975461 
L 153.824635 155.903256 
L 155.107913 160.160803 
L 156.391191 167.246917 
L 157.674469 171.32839 
L 160.241024 190.053802 
L 162.80758 201.402669 
L 164.090858 208.354918 
L 165.374136 216.469403 
L 166.657414 222.84687 
L 167.940691 227.800172 
L 169.223969 226.61726 
L 170.507247 227.39457 
L 171.790525 227.033215 
L 173.073803 225.753543 
L 174.357081 220.431729 
L 175.640359 216.373449 
L 176.923636 210.761268 
L 178.206914 203.574798 
L 179.490192 193.760612 
L 180.77347 186.650639 
L 182.056748 176.075017 
L 184.623303 151.077427 
L 185.906581 140.595195 
L 188.473137 117.690444 
L 189.756415 107.099503 
L 191.039693 98.280018 
L 193.606248 82.381199 
L 194.889526 75.85055 
L 197.456082 66.132848 
L 198.73936 61.291586 
L 200.022638 58.410018 
L 201.305915 56.885347 
L 202.589193 55.157322 
L 203.872471 54.134712 
L 205.155749 53.967404 
L 206.439027 55.972867 
L 207.722305 59.294664 
L 209.005583 61.699051 
L 210.28886 66.188479 
L 212.855416 75.996061 
L 215.421972 89.955437 
L 216.70525 98.517408 
L 217.988528 105.739863 
L 219.271805 115.03409 
L 221.838361 136.057494 
L 223.121639 145.24466 
L 224.404917 153.278082 
L 225.688195 162.760105 
L 226.971472 166.083626 
L 228.25475 174.769399 
L 229.538028 182.048101 
L 230.821306 184.626448 
L 232.104584 183.223579 
L 233.387862 185.387029 
L 234.67114 183.928869 
L 235.954417 180.048248 
L 238.520973 168.903351 
L 239.804251 160.100632 
L 241.087529 155.553108 
L 242.370807 150.158155 
L 243.654085 143.071186 
L 244.937362 133.698902 
L 246.22064 128.334437 
L 248.787196 123.968648 
L 250.070474 122.240861 
L 251.353752 116.863315 
L 252.637029 113.967936 
L 255.203585 109.687108 
L 256.486863 104.554499 
L 257.770141 103.591192 
L 259.053419 101.971258 
L 260.336697 99.819027 
L 261.619974 97.105823 
L 262.903252 96.607523 
L 264.18653 93.981569 
L 265.469808 91.083586 
L 266.753086 88.583547 
L 268.036364 88.04242 
L 269.319641 85.502132 
L 270.602919 82.4705 
L 271.886197 79.876493 
L 273.169475 80.04731 
L 274.452753 79.786815 
L 275.736031 79.132276 
L 277.019309 79.138967 
L 278.302586 81.089755 
L 279.585864 81.857807 
L 280.869142 81.520978 
L 282.15242 81.699467 
L 283.435698 81.66757 
L 284.718976 82.161456 
L 286.002254 82.846206 
L 287.285531 82.268655 
L 288.568809 82.89834 
L 289.852087 83.987687 
L 291.135365 83.868603 
L 292.418643 85.193478 
L 293.701921 87.804691 
L 294.985198 87.4678 
L 296.268476 87.263225 
L 297.551754 87.338426 
L 298.835032 87.757424 
L 300.11831 87.863365 
L 301.401588 88.081109 
L 302.684866 88.504182 
L 303.968143 89.239092 
L 305.251421 88.024447 
L 306.534699 88.042823 
L 307.817977 88.838571 
L 309.101255 87.59838 
L 310.384533 88.964007 
L 311.66781 90.658262 
L 312.951088 90.219291 
L 314.234366 88.341642 
L 315.517644 93.005458 
L 316.800922 94.462424 
L 318.0842 95.586258 
L 319.367478 94.462172 
L 320.650755 96.56379 
L 321.934033 96.193279 
L 323.217311 99.730871 
L 324.500589 102.694546 
L 325.783867 102.82475 
L 327.067145 99.897562 
L 328.350423 101.262309 
L 329.6337 103.832141 
L 330.916978 105.899071 
L 332.200256 107.633448 
L 333.483534 108.052635 
L 334.766812 109.09225 
L 336.05009 110.999871 
L 337.333367 111.882857 
L 338.616645 110.255692 
L 339.899923 111.53447 
L 341.183201 112.486407 
L 342.466479 112.501135 
L 343.749757 112.135453 
L 345.033035 114.251863 
L 346.316312 114.99686 
L 347.59959 114.401273 
L 348.882868 114.998785 
L 350.166146 118.330594 
L 351.449424 117.54072 
L 352.732702 115.356278 
L 354.01598 114.142715 
L 355.299257 116.608908 
L 357.865813 116.591651 
L 359.149091 116.965269 
L 360.432369 118.142647 
L 361.715647 119.5834 
L 362.998924 119.768492 
L 364.282202 120.808246 
L 365.56548 120.927582 
L 366.848758 120.360671 
L 368.132036 120.422956 
L 370.698592 120.031427 
L 371.981869 119.591613 
L 373.265147 119.69441 
L 374.548425 119.638968 
L 375.831703 120.962585 
L 377.114981 121.072551 
L 378.398259 120.700782 
L 379.681536 120.001153 
L 380.964814 120.199577 
L 382.248092 119.475685 
L 383.53137 119.90184 
L 384.814648 120.048432 
L 386.097926 120.472071 
L 387.381204 118.16823 
L 388.664481 118.492342 
L 389.947759 119.415439 
L 391.231037 119.421702 
L 392.514315 119.696309 
L 393.797593 119.802099 
L 395.080871 118.243721 
L 396.364149 115.639136 
L 397.647426 120.440413 
L 398.930704 122.378837 
L 400.213982 123.219751 
L 401.49726 121.886788 
L 402.780538 123.331264 
L 404.063816 123.371286 
L 405.347093 124.623526 
L 406.630371 126.291192 
L 407.913649 127.020517 
L 409.196927 126.200256 
L 410.480205 128.079464 
L 411.763483 127.962505 
L 413.046761 127.599917 
L 414.330038 126.123658 
L 415.613316 128.172325 
L 416.896594 129.031011 
L 418.179872 132.694014 
L 419.46315 134.033064 
L 420.746428 130.676351 
L 422.029706 129.502935 
L 423.312983 130.17058 
L 424.596261 130.375281 
L 425.879539 128.900128 
L 427.162817 130.454067 
L 429.729373 130.178869 
L 431.01265 129.941315 
L 432.295928 130.782846 
L 433 130.686388 
L 433 130.686388 
" style="fill:none;stroke:#8b8b8b;stroke-width:3;"/>
   </g>
   <g id="line2d_36">
    <path clip-path="url(#p26cc9b067f)" d="M -1 124.912499 
L -0.168707 124.82712 
L 1.114571 126.023628 
L 2.397849 126.404554 
L 3.681127 126.646358 
L 4.964405 127.054929 
L 6.247682 126.41327 
L 7.53096 125.958376 
L 8.814238 127.746648 
L 10.097516 126.904967 
L 11.380794 126.400189 
L 13.94735 122.46844 
L 15.230627 124.541746 
L 16.513905 125.729086 
L 17.797183 126.346118 
L 19.080461 124.87904 
L 20.363739 123.776248 
L 21.647017 127.796405 
L 22.930294 128.31386 
L 24.213572 128.685894 
L 25.49685 125.273374 
L 26.780128 125.177557 
L 28.063406 125.770453 
L 29.346684 127.621551 
L 30.629962 128.346801 
L 31.913239 125.937358 
L 33.196517 125.968375 
L 34.479795 126.426715 
L 35.763073 129.127368 
L 37.046351 129.079296 
L 39.612907 125.509141 
L 40.896184 125.11599 
L 42.179462 127.66317 
L 43.46274 129.203337 
L 46.029296 127.243556 
L 47.312574 127.866814 
L 48.595851 129.543498 
L 49.879129 128.037153 
L 51.162407 127.148708 
L 52.445685 126.510482 
L 53.728963 125.382107 
L 55.012241 126.480862 
L 56.295519 126.518092 
L 57.578796 125.067402 
L 58.862074 125.275851 
L 60.145352 125.873225 
L 61.42863 125.678763 
L 62.711908 126.95934 
L 63.995186 127.211043 
L 66.561741 127.259555 
L 67.845019 126.875774 
L 69.128297 127.180014 
L 70.411575 126.882528 
L 71.694853 127.332266 
L 72.978131 128.46864 
L 74.261408 127.414347 
L 75.544686 127.885064 
L 76.827964 128.676574 
L 78.111242 127.978151 
L 79.39452 128.25955 
L 80.677798 125.208221 
L 81.961076 124.060489 
L 83.244353 125.149471 
L 84.527631 125.843554 
L 85.810909 126.135984 
L 87.094187 126.55107 
L 88.377465 126.515551 
L 89.660743 124.455766 
L 90.94402 124.769263 
L 92.227298 124.663586 
L 93.510576 123.956422 
L 94.793854 121.650229 
L 96.077132 120.869499 
L 97.36041 121.956984 
L 99.926965 123.415144 
L 101.210243 123.510533 
L 102.493521 124.161978 
L 103.776799 128.087828 
L 105.060077 129.112941 
L 106.343355 127.956958 
L 107.626633 126.07536 
L 108.90991 127.864374 
L 110.193188 128.680561 
L 111.476466 131.157244 
L 112.759744 131.325104 
L 114.043022 128.989957 
L 115.3263 130.078701 
L 116.609577 130.22728 
L 117.892855 132.055159 
L 119.176133 132.655728 
L 120.459411 131.669014 
L 121.742689 130.837382 
L 123.025967 129.772838 
L 124.309245 130.654743 
L 125.592522 130.420284 
L 126.8758 129.164321 
L 128.159078 128.38827 
L 129.442356 129.911066 
L 130.725634 130.674301 
L 132.008912 129.330194 
L 133.29219 128.215214 
L 134.575467 127.42407 
L 135.858745 127.962643 
L 137.142023 127.405644 
L 138.425301 127.834276 
L 139.708579 127.144381 
L 140.991857 127.648706 
L 142.275134 129.79378 
L 143.558412 130.551154 
L 146.124968 134.194297 
L 147.408246 136.377632 
L 148.691524 139.751287 
L 149.974802 144.424801 
L 151.258079 148.118066 
L 152.541357 151.46956 
L 156.391191 166.962462 
L 157.674469 173.253607 
L 160.241024 187.351174 
L 161.524302 192.838585 
L 162.80758 196.643841 
L 164.090858 201.435974 
L 165.374136 207.736854 
L 166.657414 213.216795 
L 169.223969 218.392181 
L 170.507247 219.694102 
L 171.790525 219.637415 
L 173.073803 219.004585 
L 174.357081 216.581923 
L 175.640359 211.225181 
L 176.923636 203.955459 
L 179.490192 191.03288 
L 180.77347 182.456508 
L 182.056748 172.35251 
L 183.340026 160.84412 
L 184.623303 151.421023 
L 185.906581 144.416299 
L 187.189859 134.640551 
L 188.473137 121.50453 
L 189.756415 110.082561 
L 192.322971 94.157492 
L 193.606248 88.03993 
L 194.889526 79.646424 
L 196.172804 72.543418 
L 197.456082 68.273117 
L 198.73936 65.941228 
L 201.305915 59.155115 
L 202.589193 57.104474 
L 203.872471 56.107812 
L 205.155749 57.162646 
L 206.439027 60.661058 
L 207.722305 62.525828 
L 209.005583 64.888331 
L 210.28886 68.81759 
L 211.572138 75.035043 
L 212.855416 80.16691 
L 214.138694 84.671519 
L 216.70525 97.689248 
L 217.988528 106.70317 
L 219.271805 114.816799 
L 220.555083 124.147224 
L 221.838361 132.417533 
L 224.404917 151.5896 
L 225.688195 158.965603 
L 228.25475 174.659646 
L 229.538028 180.260306 
L 230.821306 184.55385 
L 232.104584 187.573358 
L 233.387862 188.121214 
L 234.67114 185.789009 
L 235.954417 181.851362 
L 237.237695 177.04133 
L 239.804251 165.03332 
L 242.370807 153.156469 
L 246.22064 132.081824 
L 247.503918 127.579944 
L 248.787196 124.930244 
L 250.070474 118.904322 
L 251.353752 114.876757 
L 252.637029 113.127022 
L 253.920307 110.520526 
L 256.486863 106.97174 
L 257.770141 102.830599 
L 259.053419 99.555263 
L 260.336697 99.467446 
L 261.619974 98.326291 
L 262.903252 96.517216 
L 264.18653 92.920484 
L 265.469808 88.823628 
L 266.753086 87.928593 
L 268.036364 88.920665 
L 269.319641 88.135205 
L 270.602919 84.024703 
L 271.886197 81.637598 
L 273.169475 82.350774 
L 274.452753 81.39529 
L 275.736031 80.295416 
L 277.019309 78.280017 
L 278.302586 78.59935 
L 279.585864 79.430114 
L 280.869142 81.206828 
L 282.15242 79.3813 
L 283.435698 77.901544 
L 284.718976 79.144665 
L 287.285531 82.617595 
L 288.568809 84.544435 
L 289.852087 84.597186 
L 291.135365 83.12441 
L 292.418643 85.070997 
L 293.701921 89.343499 
L 294.985198 89.221257 
L 296.268476 87.294354 
L 297.551754 87.713843 
L 298.835032 89.002545 
L 300.11831 90.796427 
L 301.401588 89.644632 
L 302.684866 90.720219 
L 303.968143 90.012263 
L 305.251421 90.43106 
L 306.534699 92.221647 
L 307.817977 91.658798 
L 309.101255 90.922052 
L 310.384533 92.196705 
L 311.66781 92.609263 
L 312.951088 93.889287 
L 314.234366 96.438618 
L 316.800922 97.033715 
L 318.0842 96.361442 
L 320.650755 97.02915 
L 321.934033 97.886452 
L 324.500589 101.356062 
L 325.783867 101.771941 
L 327.067145 103.711723 
L 328.350423 104.771613 
L 329.6337 105.256028 
L 330.916978 106.006647 
L 332.200256 103.305403 
L 333.483534 104.070726 
L 334.766812 106.75743 
L 336.05009 107.786455 
L 338.616645 109.584802 
L 339.899923 109.317339 
L 341.183201 110.057695 
L 342.466479 112.182695 
L 343.749757 113.144191 
L 345.033035 113.180515 
L 347.59959 113.053028 
L 350.166146 114.770589 
L 351.449424 115.279366 
L 352.732702 114.01753 
L 354.01598 117.165605 
L 355.299257 119.725062 
L 356.582535 118.96848 
L 357.865813 116.579036 
L 359.149091 115.861081 
L 360.432369 117.2194 
L 362.998924 121.283843 
L 364.282202 119.125839 
L 365.56548 117.584138 
L 366.848758 117.962875 
L 368.132036 119.231755 
L 369.415314 120.71824 
L 370.698592 121.038013 
L 373.265147 118.612132 
L 375.831703 121.354554 
L 377.114981 120.259975 
L 378.398259 119.601336 
L 379.681536 119.742897 
L 380.964814 121.830969 
L 382.248092 122.01547 
L 383.53137 120.010322 
L 384.814648 120.05096 
L 386.097926 119.386007 
L 387.381204 119.789384 
L 388.664481 120.759243 
L 389.947759 120.231889 
L 391.231037 120.225097 
L 392.514315 121.680415 
L 393.797593 122.05958 
L 395.080871 122.783396 
L 396.364149 123.831011 
L 397.647426 123.691852 
L 398.930704 124.592082 
L 400.213982 124.385985 
L 402.780538 125.009885 
L 404.063816 125.225038 
L 406.630371 127.4026 
L 407.913649 127.279138 
L 409.196927 128.194235 
L 410.480205 128.320854 
L 411.763483 128.042675 
L 413.046761 127.476544 
L 414.330038 125.07032 
L 415.613316 125.348009 
L 416.896594 126.714642 
L 418.179872 127.116572 
L 419.46315 126.555095 
L 420.746428 127.331587 
L 422.029706 127.130848 
L 423.312983 127.340303 
L 424.596261 127.915804 
L 425.879539 128.749725 
L 427.162817 128.05295 
L 428.446095 128.240608 
L 429.729373 129.160686 
L 431.01265 129.683965 
L 432.295928 129.32832 
L 433 128.59712 
L 433 128.59712 
" style="fill:none;stroke:#810f7c;stroke-width:3;"/>
   </g>
   <g id="patch_3">
    <path d="M 34.56 252 
L 34.56 34.56 
" style="fill:none;stroke:#f0f0f0;stroke-linecap:square;stroke-linejoin:miter;stroke-width:3;"/>
   </g>
   <g id="patch_4">
    <path d="M 410.4 252 
L 410.4 34.56 
" style="fill:none;stroke:#f0f0f0;stroke-linecap:square;stroke-linejoin:miter;stroke-width:3;"/>
   </g>
   <g id="patch_5">
    <path d="M 34.56 252 
L 410.4 252 
" style="fill:none;stroke:#f0f0f0;stroke-linecap:square;stroke-linejoin:miter;stroke-width:3;"/>
   </g>
   <g id="patch_6">
    <path d="M 34.56 34.56 
L 410.4 34.56 
" style="fill:none;stroke:#f0f0f0;stroke-linecap:square;stroke-linejoin:miter;stroke-width:3;"/>
   </g>
   <g id="legend_1">
    <g id="patch_7">
     <path d="M 436.192 132.2975 
L 615.490437 132.2975 
Q 617.490437 132.2975 617.490437 130.2975 
L 617.490437 41.56 
Q 617.490437 39.56 615.490437 39.56 
L 436.192 39.56 
Q 434.192 39.56 434.192 41.56 
L 434.192 130.2975 
Q 434.192 132.2975 436.192 132.2975 
z
" style="fill:#ffffff;opacity:0.8;stroke:#cccccc;stroke-linejoin:miter;stroke-width:0.5;"/>
    </g>
    <g id="line2d_37">
     <path style="fill:none;stroke:#008fd5;stroke-width:3;"/>
    </g>
    <g id="line2d_38"/>
    <g id="text_18">
     <!-- 6_notch5000_bw2000_35dB -->
     <defs>
      <path d="M 50.984375 -16.609375 
L 50.984375 -23.578125 
L -0.984375 -23.578125 
L -0.984375 -16.609375 
z
" id="DejaVuSans-95"/>
      <path d="M 54.890625 33.015625 
L 54.890625 0 
L 45.90625 0 
L 45.90625 32.71875 
Q 45.90625 40.484375 42.875 44.328125 
Q 39.84375 48.1875 33.796875 48.1875 
Q 26.515625 48.1875 22.3125 43.546875 
Q 18.109375 38.921875 18.109375 30.90625 
L 18.109375 0 
L 9.078125 0 
L 9.078125 54.6875 
L 18.109375 54.6875 
L 18.109375 46.1875 
Q 21.34375 51.125 25.703125 53.5625 
Q 30.078125 56 35.796875 56 
Q 45.21875 56 50.046875 50.171875 
Q 54.890625 44.34375 54.890625 33.015625 
z
" id="DejaVuSans-110"/>
      <path d="M 30.609375 48.390625 
Q 23.390625 48.390625 19.1875 42.75 
Q 14.984375 37.109375 14.984375 27.296875 
Q 14.984375 17.484375 19.15625 11.84375 
Q 23.34375 6.203125 30.609375 6.203125 
Q 37.796875 6.203125 41.984375 11.859375 
Q 46.1875 17.53125 46.1875 27.296875 
Q 46.1875 37.015625 41.984375 42.703125 
Q 37.796875 48.390625 30.609375 48.390625 
z
M 30.609375 56 
Q 42.328125 56 49.015625 48.375 
Q 55.71875 40.765625 55.71875 27.296875 
Q 55.71875 13.875 49.015625 6.21875 
Q 42.328125 -1.421875 30.609375 -1.421875 
Q 18.84375 -1.421875 12.171875 6.21875 
Q 5.515625 13.875 5.515625 27.296875 
Q 5.515625 40.765625 12.171875 48.375 
Q 18.84375 56 30.609375 56 
z
" id="DejaVuSans-111"/>
      <path d="M 48.78125 52.59375 
L 48.78125 44.1875 
Q 44.96875 46.296875 41.140625 47.34375 
Q 37.3125 48.390625 33.40625 48.390625 
Q 24.65625 48.390625 19.8125 42.84375 
Q 14.984375 37.3125 14.984375 27.296875 
Q 14.984375 17.28125 19.8125 11.734375 
Q 24.65625 6.203125 33.40625 6.203125 
Q 37.3125 6.203125 41.140625 7.25 
Q 44.96875 8.296875 48.78125 10.40625 
L 48.78125 2.09375 
Q 45.015625 0.34375 40.984375 -0.53125 
Q 36.96875 -1.421875 32.421875 -1.421875 
Q 20.0625 -1.421875 12.78125 6.34375 
Q 5.515625 14.109375 5.515625 27.296875 
Q 5.515625 40.671875 12.859375 48.328125 
Q 20.21875 56 33.015625 56 
Q 37.15625 56 41.109375 55.140625 
Q 45.0625 54.296875 48.78125 52.59375 
z
" id="DejaVuSans-99"/>
      <path d="M 54.890625 33.015625 
L 54.890625 0 
L 45.90625 0 
L 45.90625 32.71875 
Q 45.90625 40.484375 42.875 44.328125 
Q 39.84375 48.1875 33.796875 48.1875 
Q 26.515625 48.1875 22.3125 43.546875 
Q 18.109375 38.921875 18.109375 30.90625 
L 18.109375 0 
L 9.078125 0 
L 9.078125 75.984375 
L 18.109375 75.984375 
L 18.109375 46.1875 
Q 21.34375 51.125 25.703125 53.5625 
Q 30.078125 56 35.796875 56 
Q 45.21875 56 50.046875 50.171875 
Q 54.890625 44.34375 54.890625 33.015625 
z
" id="DejaVuSans-104"/>
      <path d="M 48.6875 27.296875 
Q 48.6875 37.203125 44.609375 42.84375 
Q 40.53125 48.484375 33.40625 48.484375 
Q 26.265625 48.484375 22.1875 42.84375 
Q 18.109375 37.203125 18.109375 27.296875 
Q 18.109375 17.390625 22.1875 11.75 
Q 26.265625 6.109375 33.40625 6.109375 
Q 40.53125 6.109375 44.609375 11.75 
Q 48.6875 17.390625 48.6875 27.296875 
z
M 18.109375 46.390625 
Q 20.953125 51.265625 25.265625 53.625 
Q 29.59375 56 35.59375 56 
Q 45.5625 56 51.78125 48.09375 
Q 58.015625 40.1875 58.015625 27.296875 
Q 58.015625 14.40625 51.78125 6.484375 
Q 45.5625 -1.421875 35.59375 -1.421875 
Q 29.59375 -1.421875 25.265625 0.953125 
Q 20.953125 3.328125 18.109375 8.203125 
L 18.109375 0 
L 9.078125 0 
L 9.078125 75.984375 
L 18.109375 75.984375 
z
" id="DejaVuSans-98"/>
      <path d="M 4.203125 54.6875 
L 13.1875 54.6875 
L 24.421875 12.015625 
L 35.59375 54.6875 
L 46.1875 54.6875 
L 57.421875 12.015625 
L 68.609375 54.6875 
L 77.59375 54.6875 
L 63.28125 0 
L 52.6875 0 
L 40.921875 44.828125 
L 29.109375 0 
L 18.5 0 
z
" id="DejaVuSans-119"/>
      <path d="M 40.578125 39.3125 
Q 47.65625 37.796875 51.625 33 
Q 55.609375 28.21875 55.609375 21.1875 
Q 55.609375 10.40625 48.1875 4.484375 
Q 40.765625 -1.421875 27.09375 -1.421875 
Q 22.515625 -1.421875 17.65625 -0.515625 
Q 12.796875 0.390625 7.625 2.203125 
L 7.625 11.71875 
Q 11.71875 9.328125 16.59375 8.109375 
Q 21.484375 6.890625 26.8125 6.890625 
Q 36.078125 6.890625 40.9375 10.546875 
Q 45.796875 14.203125 45.796875 21.1875 
Q 45.796875 27.640625 41.28125 31.265625 
Q 36.765625 34.90625 28.71875 34.90625 
L 20.21875 34.90625 
L 20.21875 43.015625 
L 29.109375 43.015625 
Q 36.375 43.015625 40.234375 45.921875 
Q 44.09375 48.828125 44.09375 54.296875 
Q 44.09375 59.90625 40.109375 62.90625 
Q 36.140625 65.921875 28.71875 65.921875 
Q 24.65625 65.921875 20.015625 65.03125 
Q 15.375 64.15625 9.8125 62.3125 
L 9.8125 71.09375 
Q 15.4375 72.65625 20.34375 73.4375 
Q 25.25 74.21875 29.59375 74.21875 
Q 40.828125 74.21875 47.359375 69.109375 
Q 53.90625 64.015625 53.90625 55.328125 
Q 53.90625 49.265625 50.4375 45.09375 
Q 46.96875 40.921875 40.578125 39.3125 
z
" id="DejaVuSans-51"/>
      <path d="M 19.671875 34.8125 
L 19.671875 8.109375 
L 35.5 8.109375 
Q 43.453125 8.109375 47.28125 11.40625 
Q 51.125 14.703125 51.125 21.484375 
Q 51.125 28.328125 47.28125 31.5625 
Q 43.453125 34.8125 35.5 34.8125 
z
M 19.671875 64.796875 
L 19.671875 42.828125 
L 34.28125 42.828125 
Q 41.5 42.828125 45.03125 45.53125 
Q 48.578125 48.25 48.578125 53.8125 
Q 48.578125 59.328125 45.03125 62.0625 
Q 41.5 64.796875 34.28125 64.796875 
z
M 9.8125 72.90625 
L 35.015625 72.90625 
Q 46.296875 72.90625 52.390625 68.21875 
Q 58.5 63.53125 58.5 54.890625 
Q 58.5 48.1875 55.375 44.234375 
Q 52.25 40.28125 46.1875 39.3125 
Q 53.46875 37.75 57.5 32.78125 
Q 61.53125 27.828125 61.53125 20.40625 
Q 61.53125 10.640625 54.890625 5.3125 
Q 48.25 0 35.984375 0 
L 9.8125 0 
z
" id="DejaVuSans-66"/>
     </defs>
     <g transform="translate(466.192 51.158438)scale(0.1 -0.1)">
      <use xlink:href="#DejaVuSans-54"/>
      <use x="63.623047" xlink:href="#DejaVuSans-95"/>
      <use x="113.623047" xlink:href="#DejaVuSans-110"/>
      <use x="177.001953" xlink:href="#DejaVuSans-111"/>
      <use x="238.183594" xlink:href="#DejaVuSans-116"/>
      <use x="277.392578" xlink:href="#DejaVuSans-99"/>
      <use x="332.373047" xlink:href="#DejaVuSans-104"/>
      <use x="395.751953" xlink:href="#DejaVuSans-53"/>
      <use x="459.375" xlink:href="#DejaVuSans-48"/>
      <use x="522.998047" xlink:href="#DejaVuSans-48"/>
      <use x="586.621094" xlink:href="#DejaVuSans-48"/>
      <use x="650.244141" xlink:href="#DejaVuSans-95"/>
      <use x="700.244141" xlink:href="#DejaVuSans-98"/>
      <use x="763.720703" xlink:href="#DejaVuSans-119"/>
      <use x="845.507812" xlink:href="#DejaVuSans-50"/>
      <use x="909.130859" xlink:href="#DejaVuSans-48"/>
      <use x="972.753906" xlink:href="#DejaVuSans-48"/>
      <use x="1036.376953" xlink:href="#DejaVuSans-48"/>
      <use x="1100" xlink:href="#DejaVuSans-95"/>
      <use x="1150" xlink:href="#DejaVuSans-51"/>
      <use x="1213.623047" xlink:href="#DejaVuSans-53"/>
      <use x="1277.246094" xlink:href="#DejaVuSans-100"/>
      <use x="1340.722656" xlink:href="#DejaVuSans-66"/>
     </g>
    </g>
    <g id="line2d_39">
     <path style="fill:none;stroke:#fc4f30;stroke-width:3;"/>
    </g>
    <g id="line2d_40"/>
    <g id="text_19">
     <!-- 7_notch5000_bw2000_32dB -->
     <g transform="translate(466.192 66.114688)scale(0.1 -0.1)">
      <use xlink:href="#DejaVuSans-55"/>
      <use x="63.623047" xlink:href="#DejaVuSans-95"/>
      <use x="113.623047" xlink:href="#DejaVuSans-110"/>
      <use x="177.001953" xlink:href="#DejaVuSans-111"/>
      <use x="238.183594" xlink:href="#DejaVuSans-116"/>
      <use x="277.392578" xlink:href="#DejaVuSans-99"/>
      <use x="332.373047" xlink:href="#DejaVuSans-104"/>
      <use x="395.751953" xlink:href="#DejaVuSans-53"/>
      <use x="459.375" xlink:href="#DejaVuSans-48"/>
      <use x="522.998047" xlink:href="#DejaVuSans-48"/>
      <use x="586.621094" xlink:href="#DejaVuSans-48"/>
      <use x="650.244141" xlink:href="#DejaVuSans-95"/>
      <use x="700.244141" xlink:href="#DejaVuSans-98"/>
      <use x="763.720703" xlink:href="#DejaVuSans-119"/>
      <use x="845.507812" xlink:href="#DejaVuSans-50"/>
      <use x="909.130859" xlink:href="#DejaVuSans-48"/>
      <use x="972.753906" xlink:href="#DejaVuSans-48"/>
      <use x="1036.376953" xlink:href="#DejaVuSans-48"/>
      <use x="1100" xlink:href="#DejaVuSans-95"/>
      <use x="1150" xlink:href="#DejaVuSans-51"/>
      <use x="1213.623047" xlink:href="#DejaVuSans-50"/>
      <use x="1277.246094" xlink:href="#DejaVuSans-100"/>
      <use x="1340.722656" xlink:href="#DejaVuSans-66"/>
     </g>
    </g>
    <g id="line2d_41">
     <path style="fill:none;stroke:#e5ae38;stroke-width:3;"/>
    </g>
    <g id="line2d_42"/>
    <g id="text_20">
     <!-- 8_notch5000_bw2000_29dB -->
     <g transform="translate(466.192 81.070938)scale(0.1 -0.1)">
      <use xlink:href="#DejaVuSans-56"/>
      <use x="63.623047" xlink:href="#DejaVuSans-95"/>
      <use x="113.623047" xlink:href="#DejaVuSans-110"/>
      <use x="177.001953" xlink:href="#DejaVuSans-111"/>
      <use x="238.183594" xlink:href="#DejaVuSans-116"/>
      <use x="277.392578" xlink:href="#DejaVuSans-99"/>
      <use x="332.373047" xlink:href="#DejaVuSans-104"/>
      <use x="395.751953" xlink:href="#DejaVuSans-53"/>
      <use x="459.375" xlink:href="#DejaVuSans-48"/>
      <use x="522.998047" xlink:href="#DejaVuSans-48"/>
      <use x="586.621094" xlink:href="#DejaVuSans-48"/>
      <use x="650.244141" xlink:href="#DejaVuSans-95"/>
      <use x="700.244141" xlink:href="#DejaVuSans-98"/>
      <use x="763.720703" xlink:href="#DejaVuSans-119"/>
      <use x="845.507812" xlink:href="#DejaVuSans-50"/>
      <use x="909.130859" xlink:href="#DejaVuSans-48"/>
      <use x="972.753906" xlink:href="#DejaVuSans-48"/>
      <use x="1036.376953" xlink:href="#DejaVuSans-48"/>
      <use x="1100" xlink:href="#DejaVuSans-95"/>
      <use x="1150" xlink:href="#DejaVuSans-50"/>
      <use x="1213.623047" xlink:href="#DejaVuSans-57"/>
      <use x="1277.246094" xlink:href="#DejaVuSans-100"/>
      <use x="1340.722656" xlink:href="#DejaVuSans-66"/>
     </g>
    </g>
    <g id="line2d_43">
     <path style="fill:none;stroke:#6d904f;stroke-width:3;"/>
    </g>
    <g id="line2d_44"/>
    <g id="text_21">
     <!-- 9_notch5000_bw2000_26dB -->
     <g transform="translate(466.192 96.027188)scale(0.1 -0.1)">
      <use xlink:href="#DejaVuSans-57"/>
      <use x="63.623047" xlink:href="#DejaVuSans-95"/>
      <use x="113.623047" xlink:href="#DejaVuSans-110"/>
      <use x="177.001953" xlink:href="#DejaVuSans-111"/>
      <use x="238.183594" xlink:href="#DejaVuSans-116"/>
      <use x="277.392578" xlink:href="#DejaVuSans-99"/>
      <use x="332.373047" xlink:href="#DejaVuSans-104"/>
      <use x="395.751953" xlink:href="#DejaVuSans-53"/>
      <use x="459.375" xlink:href="#DejaVuSans-48"/>
      <use x="522.998047" xlink:href="#DejaVuSans-48"/>
      <use x="586.621094" xlink:href="#DejaVuSans-48"/>
      <use x="650.244141" xlink:href="#DejaVuSans-95"/>
      <use x="700.244141" xlink:href="#DejaVuSans-98"/>
      <use x="763.720703" xlink:href="#DejaVuSans-119"/>
      <use x="845.507812" xlink:href="#DejaVuSans-50"/>
      <use x="909.130859" xlink:href="#DejaVuSans-48"/>
      <use x="972.753906" xlink:href="#DejaVuSans-48"/>
      <use x="1036.376953" xlink:href="#DejaVuSans-48"/>
      <use x="1100" xlink:href="#DejaVuSans-95"/>
      <use x="1150" xlink:href="#DejaVuSans-50"/>
      <use x="1213.623047" xlink:href="#DejaVuSans-54"/>
      <use x="1277.246094" xlink:href="#DejaVuSans-100"/>
      <use x="1340.722656" xlink:href="#DejaVuSans-66"/>
     </g>
    </g>
    <g id="line2d_45">
     <path style="fill:none;stroke:#8b8b8b;stroke-width:3;"/>
    </g>
    <g id="line2d_46"/>
    <g id="text_22">
     <!-- 10_notch5000_bw2000_23dB -->
     <g transform="translate(466.192 110.983438)scale(0.1 -0.1)">
      <use xlink:href="#DejaVuSans-49"/>
      <use x="63.623047" xlink:href="#DejaVuSans-48"/>
      <use x="127.246094" xlink:href="#DejaVuSans-95"/>
      <use x="177.246094" xlink:href="#DejaVuSans-110"/>
      <use x="240.625" xlink:href="#DejaVuSans-111"/>
      <use x="301.806641" xlink:href="#DejaVuSans-116"/>
      <use x="341.015625" xlink:href="#DejaVuSans-99"/>
      <use x="395.996094" xlink:href="#DejaVuSans-104"/>
      <use x="459.375" xlink:href="#DejaVuSans-53"/>
      <use x="522.998047" xlink:href="#DejaVuSans-48"/>
      <use x="586.621094" xlink:href="#DejaVuSans-48"/>
      <use x="650.244141" xlink:href="#DejaVuSans-48"/>
      <use x="713.867188" xlink:href="#DejaVuSans-95"/>
      <use x="763.867188" xlink:href="#DejaVuSans-98"/>
      <use x="827.34375" xlink:href="#DejaVuSans-119"/>
      <use x="909.130859" xlink:href="#DejaVuSans-50"/>
      <use x="972.753906" xlink:href="#DejaVuSans-48"/>
      <use x="1036.376953" xlink:href="#DejaVuSans-48"/>
      <use x="1100" xlink:href="#DejaVuSans-48"/>
      <use x="1163.623047" xlink:href="#DejaVuSans-95"/>
      <use x="1213.623047" xlink:href="#DejaVuSans-50"/>
      <use x="1277.246094" xlink:href="#DejaVuSans-51"/>
      <use x="1340.869141" xlink:href="#DejaVuSans-100"/>
      <use x="1404.345703" xlink:href="#DejaVuSans-66"/>
     </g>
    </g>
    <g id="line2d_47">
     <path style="fill:none;stroke:#810f7c;stroke-width:3;"/>
    </g>
    <g id="line2d_48"/>
    <g id="text_23">
     <!-- broadband_noise -->
     <defs>
      <path d="M 41.109375 46.296875 
Q 39.59375 47.171875 37.8125 47.578125 
Q 36.03125 48 33.890625 48 
Q 26.265625 48 22.1875 43.046875 
Q 18.109375 38.09375 18.109375 28.8125 
L 18.109375 0 
L 9.078125 0 
L 9.078125 54.6875 
L 18.109375 54.6875 
L 18.109375 46.1875 
Q 20.953125 51.171875 25.484375 53.578125 
Q 30.03125 56 36.53125 56 
Q 37.453125 56 38.578125 55.875 
Q 39.703125 55.765625 41.0625 55.515625 
z
" id="DejaVuSans-114"/>
      <path d="M 34.28125 27.484375 
Q 23.390625 27.484375 19.1875 25 
Q 14.984375 22.515625 14.984375 16.5 
Q 14.984375 11.71875 18.140625 8.90625 
Q 21.296875 6.109375 26.703125 6.109375 
Q 34.1875 6.109375 38.703125 11.40625 
Q 43.21875 16.703125 43.21875 25.484375 
L 43.21875 27.484375 
z
M 52.203125 31.203125 
L 52.203125 0 
L 43.21875 0 
L 43.21875 8.296875 
Q 40.140625 3.328125 35.546875 0.953125 
Q 30.953125 -1.421875 24.3125 -1.421875 
Q 15.921875 -1.421875 10.953125 3.296875 
Q 6 8.015625 6 15.921875 
Q 6 25.140625 12.171875 29.828125 
Q 18.359375 34.515625 30.609375 34.515625 
L 43.21875 34.515625 
L 43.21875 35.40625 
Q 43.21875 41.609375 39.140625 45 
Q 35.0625 48.390625 27.6875 48.390625 
Q 23 48.390625 18.546875 47.265625 
Q 14.109375 46.140625 10.015625 43.890625 
L 10.015625 52.203125 
Q 14.9375 54.109375 19.578125 55.046875 
Q 24.21875 56 28.609375 56 
Q 40.484375 56 46.34375 49.84375 
Q 52.203125 43.703125 52.203125 31.203125 
z
" id="DejaVuSans-97"/>
     </defs>
     <g transform="translate(466.192 125.939688)scale(0.1 -0.1)">
      <use xlink:href="#DejaVuSans-98"/>
      <use x="63.476562" xlink:href="#DejaVuSans-114"/>
      <use x="104.558594" xlink:href="#DejaVuSans-111"/>
      <use x="165.740234" xlink:href="#DejaVuSans-97"/>
      <use x="227.019531" xlink:href="#DejaVuSans-100"/>
      <use x="290.496094" xlink:href="#DejaVuSans-98"/>
      <use x="353.972656" xlink:href="#DejaVuSans-97"/>
      <use x="415.251953" xlink:href="#DejaVuSans-110"/>
      <use x="478.630859" xlink:href="#DejaVuSans-100"/>
      <use x="542.107422" xlink:href="#DejaVuSans-95"/>
      <use x="592.107422" xlink:href="#DejaVuSans-110"/>
      <use x="655.486328" xlink:href="#DejaVuSans-111"/>
      <use x="716.667969" xlink:href="#DejaVuSans-105"/>
      <use x="744.451172" xlink:href="#DejaVuSans-115"/>
      <use x="796.550781" xlink:href="#DejaVuSans-101"/>
     </g>
    </g>
   </g>
  </g>
 </g>
 <defs>
  <clipPath id="p26cc9b067f">
   <rect height="217.44" width="375.84" x="34.56" y="34.56"/>
  </clipPath>
 </defs>
</svg>
